<svg width="60" height="60" viewBox="0 0 60 60" fill="none" xmlns="http://www.w3.org/2000/svg">
<g clip-path="url(#clip0_13_2823)">
<path d="M5.00017 33.927C5.01892 32.2174 5.50999 30.8903 6.40218 29.7169C6.76955 29.2333 7.00759 28.7478 7.10881 28.1273C7.32061 26.817 8.28964 26.0204 9.35427 25.4168C9.95031 25.0794 10.6476 25.2612 11.1649 25.7767C13.7309 28.3335 16.2931 30.8959 18.8497 33.4621C19.3876 34.0019 19.5957 34.7124 19.2133 35.3497C18.5667 36.4275 17.7532 37.4191 16.3662 37.5485C15.4103 37.6385 14.7824 38.1108 14.4656 38.9675C14.1788 39.7473 14.7186 40.2627 15.2041 40.752C16.5686 42.126 17.9369 43.4962 19.3126 44.859C19.785 45.3257 20.2929 45.8093 21.0295 45.5338C21.8468 45.2283 22.3697 44.6472 22.4315 43.7268C22.5271 42.3134 23.528 41.5149 24.5627 40.8251C25.2131 40.3921 25.9628 40.5833 26.5326 41.1512C29.1005 43.708 31.6683 46.263 34.2118 48.8423C34.8978 49.5377 34.8997 50.4824 34.2511 51.2079C33.4827 52.0664 32.7273 52.9699 31.4059 52.968C31.0929 52.968 30.8323 53.1855 30.5774 53.3729C27.466 55.6616 23.9835 55.5417 21.0876 52.9793C19.9199 51.9464 18.8572 50.7936 17.7457 49.6989C17.3952 49.354 17.189 48.9641 17.6126 48.5705C18.0119 48.2012 18.4055 48.368 18.7578 48.7223C19.6594 49.6314 20.561 50.5424 21.4775 51.4347C22.8214 52.7431 24.3827 53.5753 26.3114 53.5622C27.5129 53.5547 28.5775 53.1498 29.5034 52.4038C30.077 51.9427 30.673 51.5903 31.4265 51.5303C31.6664 51.5115 31.9232 51.4272 32.1313 51.3035C33.4058 50.5443 33.4602 50.0663 32.4162 49.0222C30.3844 46.9903 28.3526 44.9583 26.3208 42.9264C25.303 41.9085 24.3602 42.1653 23.9123 43.5862C23.8373 43.8224 23.8036 44.0736 23.7642 44.3191C23.3912 46.6697 20.6228 47.8657 18.8403 46.3136C17.0091 44.7184 15.2753 42.9826 13.6802 41.1512C12.132 39.3724 13.3429 36.5906 15.6877 36.2345C15.9332 36.197 16.1844 36.1632 16.4205 36.0883C17.8525 35.629 18.0981 34.7049 17.0691 33.6739C15.0373 31.642 13.0055 29.61 10.9737 27.5781C9.98217 26.5865 8.96628 26.6952 8.65326 28.0448C8.35712 29.3232 7.61113 30.2736 7.04883 31.3683C5.86987 33.6589 6.35907 35.8389 7.91477 37.7303C9.12185 39.1943 10.5407 40.4858 11.8809 41.8392C13.3522 43.3275 14.8367 44.8009 16.3174 46.2798C16.6886 46.651 17.0766 47.054 16.5424 47.5376C16.0869 47.9519 15.6914 47.6501 15.3334 47.2921C12.6456 44.5928 9.92969 41.9179 7.26813 39.1905C5.79677 37.6834 5.02829 35.8371 4.99268 33.9288L5.00017 33.927Z" fill="url(#paint0_linear_13_2823)"/>
<path d="M36.9989 7.00186C41.0606 7.00186 45.1204 6.99998 49.1821 7.00373C51.5438 7.00561 52.9945 8.43959 52.9964 10.7789C53.002 15.7763 53.002 20.7756 52.9964 25.773C52.9945 28.0524 51.5363 29.492 49.2383 29.5051C48.6142 29.5088 47.9881 29.492 47.364 29.5107C46.8523 29.5257 46.3462 29.4526 46.3293 28.8453C46.3106 28.1686 46.8616 28.1011 47.394 28.103C47.9881 28.103 48.5804 28.1123 49.1746 28.0992C50.7734 28.0617 51.5587 27.3213 51.5644 25.7486C51.5812 20.7512 51.5812 15.752 51.5644 10.7546C51.5587 9.21188 50.7903 8.43959 49.2533 8.43584C41.0699 8.42272 32.8847 8.42272 24.7013 8.43584C23.1587 8.43771 22.4221 9.21375 22.394 10.7527C22.3809 11.4406 22.3996 12.1267 22.3828 12.8146C22.3696 13.3114 22.141 13.6994 21.603 13.6619C21.1269 13.63 20.9395 13.2664 20.9451 12.7959C20.9564 11.9524 20.9095 11.107 20.9639 10.2653C21.0838 8.41147 22.6189 7.0131 24.5364 7.00748C28.6899 6.99436 32.8453 7.00373 36.9989 7.00373V7.00186Z" fill="url(#paint1_linear_13_2823)"/>
<path d="M36.9913 23.4917C35.2125 23.4917 33.4338 23.4992 31.655 23.4898C30.2211 23.4823 29.2015 22.5676 29.224 21.3323C29.2446 20.1288 30.2305 19.1935 31.6194 19.246C32.5453 19.2816 32.8321 18.991 32.7309 18.0969C32.6578 17.4502 32.7028 16.7866 32.7309 16.1324C32.8265 13.8924 34.7158 12.1023 36.965 12.1023C39.2142 12.1023 41.1129 13.8999 41.2029 16.1306C41.231 16.8166 41.2685 17.5083 41.2029 18.1888C41.1261 18.9948 41.3585 19.3228 42.2169 19.2347C43.1072 19.1429 43.8813 19.4578 44.3874 20.2488C45.2965 21.6697 44.2881 23.4411 42.5131 23.4804C40.6725 23.5217 38.8319 23.4898 36.9913 23.4898V23.4917ZM36.9931 19.2197C39.1224 19.2197 40.0646 18.21 39.8196 16.1906C39.6228 14.5747 38.4233 13.5138 36.8451 13.5588C35.3531 13.6019 34.2022 14.7509 34.1085 16.3386C34.0654 17.0847 34.1216 17.8382 34.0898 18.5861C34.0673 19.0885 34.2735 19.2403 34.7477 19.2235C35.4955 19.1972 36.2453 19.216 36.995 19.2178L36.9931 19.2197ZM36.9688 20.6799C35.2256 20.6799 33.4806 20.6799 31.7375 20.6799C31.252 20.6799 30.731 20.6687 30.7029 21.3229C30.6729 22.0596 31.2427 22.0315 31.7544 22.0333C35.2425 22.0333 38.7288 22.0333 42.2169 22.0333C42.6874 22.0333 43.2291 22.0783 43.2478 21.3998C43.2684 20.6725 42.7193 20.6799 42.2001 20.6818C40.4569 20.6837 38.7119 20.6818 36.9688 20.6818V20.6799Z" fill="url(#paint2_linear_13_2823)"/>
<path d="M34.1012 32.152C35.6456 32.002 36.5434 31.226 36.8639 29.837C37.1844 28.4461 37.5687 28.1181 38.9726 28.1049C40.5339 28.0918 42.0952 28.1031 43.6565 28.1012C44.157 28.1012 44.6799 28.1743 44.6912 28.7816C44.7043 29.4508 44.1664 29.5127 43.6228 29.5089C42.1233 29.4958 40.6239 29.5258 39.1263 29.4939C38.6089 29.4827 38.3278 29.6027 38.2191 30.1556C37.6587 33.0105 35.0308 33.8652 32.7348 33.6909C32.3224 33.659 32.0131 33.4772 31.8726 33.0836C31.7282 32.6806 31.9063 32.3675 32.1912 32.0807C32.4311 31.8389 32.6917 31.5934 32.8472 31.2991C33.5145 30.0338 33.1958 29.5052 31.7976 29.5052C29.4247 29.5052 27.0499 29.5127 24.677 29.5033C22.4446 29.4939 20.9583 28.0375 20.9489 25.8293C20.9358 22.7064 20.9489 19.5835 20.9414 16.4587C20.9414 15.8964 20.962 15.2928 21.693 15.3153C22.3434 15.3359 22.3903 15.9133 22.3903 16.44C22.3903 19.4692 22.3846 22.4983 22.3903 25.5294C22.394 27.3589 23.1156 28.0899 24.9319 28.0974C27.3048 28.1087 29.6815 28.1743 32.0525 28.0806C34.4948 27.9831 34.7759 29.3721 34.4367 31.0123C34.3617 31.374 34.2267 31.7246 34.0993 32.1501L34.1012 32.152Z" fill="url(#paint3_linear_13_2823)"/>
</g>
<defs>
<linearGradient id="paint0_linear_13_2823" x1="39.6115" y1="54.366" x2="38.7605" y2="25.2933" gradientUnits="userSpaceOnUse">
<stop offset="0.00961538" stop-color="#9C7852"/>
<stop offset="0.379808" stop-color="#E1C292"/>
<stop offset="0.778846" stop-color="#F2E1AF"/>
<stop offset="1" stop-color="#EACE9F"/>
</linearGradient>
<linearGradient id="paint1_linear_13_2823" x1="58.2614" y1="29.0325" x2="57.8094" y2="7.02716" gradientUnits="userSpaceOnUse">
<stop offset="0.00961538" stop-color="#9C7852"/>
<stop offset="0.379808" stop-color="#E1C292"/>
<stop offset="0.778846" stop-color="#F2E1AF"/>
<stop offset="1" stop-color="#EACE9F"/>
</linearGradient>
<linearGradient id="paint2_linear_13_2823" x1="47.2718" y1="23.2585" x2="47.0321" y2="12.1163" gradientUnits="userSpaceOnUse">
<stop offset="0.00961538" stop-color="#9C7852"/>
<stop offset="0.379808" stop-color="#E1C292"/>
<stop offset="0.778846" stop-color="#F2E1AF"/>
<stop offset="1" stop-color="#EACE9F"/>
</linearGradient>
<linearGradient id="paint3_linear_13_2823" x1="48.5882" y1="33.3203" x2="48.1807" y2="15.3381" gradientUnits="userSpaceOnUse">
<stop offset="0.00961538" stop-color="#9C7852"/>
<stop offset="0.379808" stop-color="#E1C292"/>
<stop offset="0.778846" stop-color="#F2E1AF"/>
<stop offset="1" stop-color="#EACE9F"/>
</linearGradient>
<clipPath id="clip0_13_2823">
<rect width="48" height="48" fill="white" transform="translate(5 7)"/>
</clipPath>
</defs>
</svg>
