<svg width="60" height="60" viewBox="0 0 60 60" fill="none" xmlns="http://www.w3.org/2000/svg">
<g clip-path="url(#clip0_13_2835)">
<path d="M45.181 43.0243C45.181 44.3588 45.205 45.4896 45.1699 46.6186C45.1532 47.1399 45.3863 47.2189 45.8303 47.2097C46.9088 47.1877 47.9873 47.1968 49.0658 47.2042C50.0869 47.2115 50.3163 47.4869 50.3681 48.5222C50.4477 50.0826 50.1683 51.5145 49.0066 52.6526C48.1168 53.5246 47.0327 53.9964 45.7692 53.9964C34.7346 53.9982 23.7017 54.0037 12.667 53.9927C10.0624 53.9909 8.01453 51.9991 8.01083 49.4034C7.99233 35.7016 7.99973 21.9997 8.00528 8.2979C8.00528 7.30293 8.32161 7.00188 9.33906 7.00188C20.8973 7.00004 32.4555 6.9982 44.0137 7.00188C45.0755 7.00188 45.3604 7.29376 45.3586 8.37683C45.3493 12.4136 45.3456 16.4522 45.3031 20.4889C45.2957 21.1498 45.4233 21.3774 46.1559 21.3297C47.5193 21.2416 48.5312 21.93 49.0084 23.2058C49.2101 23.7473 49.519 24.0484 50.0499 24.2577C51.7796 24.9387 52.4345 26.5046 51.6926 28.2081C51.4651 28.7313 51.4762 29.1664 51.7019 29.6859C52.44 31.3839 51.7759 32.9296 50.0296 33.6254C49.5412 33.8199 49.1842 34.0678 49.0343 34.6038C48.9455 34.9177 48.7994 35.3069 48.5515 35.4703C47.6155 36.0852 47.6968 36.9829 47.7116 37.9026C47.7338 39.463 47.7172 41.0215 47.719 42.5818C47.719 43.1362 47.7782 43.7402 47.1659 44.0266C46.4926 44.3405 46.08 43.8558 45.6712 43.4281C45.5713 43.3253 45.4492 43.2427 45.1847 43.0243H45.181ZM43.3274 43.1087C43.0721 43.3235 42.9518 43.4061 42.8556 43.5089C42.4635 43.9329 42.0361 44.3019 41.4127 44.0266C40.8041 43.7567 40.9058 43.1821 40.904 42.6681C40.9021 41.016 40.8762 39.3638 40.9132 37.7135C40.9317 36.8709 40.9484 36.0907 40.103 35.5657C39.8921 35.4354 39.7293 35.1362 39.6609 34.8828C39.3408 33.7116 38.4714 33.4363 37.4021 33.4381C35.3987 33.4418 33.3952 33.4308 31.3918 33.4436C30.6722 33.4491 29.91 33.4363 29.9304 32.4982C29.9507 31.562 30.7332 31.5877 31.438 31.595C32.7015 31.6079 33.9687 31.5436 35.2285 31.6171C36.1775 31.6721 36.8472 31.6006 36.6585 30.3945C36.6252 30.1779 36.7454 29.9099 36.8601 29.7024C37.1561 29.1664 37.0821 28.6781 36.849 28.131C36.1738 26.5413 36.8472 24.9038 38.4473 24.287C39.0152 24.0686 39.363 23.7602 39.5869 23.204C40.1326 21.8419 41.1722 21.159 42.617 21.3425C43.3847 21.4398 43.4513 21.1847 43.4495 20.5532C43.4439 16.9441 43.4513 13.3351 43.5105 9.72609C43.5235 8.98446 43.2978 8.82108 42.5856 8.82475C37.6241 8.85412 32.6608 8.84127 27.6994 8.84127C22.059 8.84127 16.4186 8.85228 10.7783 8.82658C10.0864 8.82291 9.78489 8.95141 9.84039 9.71507C9.91253 10.688 9.85704 11.672 9.85704 12.6504C9.85704 24.7019 9.85889 36.7516 9.85149 48.8031C9.85149 49.6494 9.93843 50.4497 10.5008 51.1308C11.2408 52.0266 12.4007 52.3662 13.4902 52.0028C14.6779 51.6063 15.4216 50.6553 15.3827 49.3667C15.3069 46.96 15.8174 47.1987 17.6174 47.2005C25.8162 47.2079 34.0149 47.1913 42.2137 47.2225C43.061 47.2262 43.4365 47.0922 43.344 46.1542C43.2497 45.2161 43.3237 44.2615 43.3237 43.1105L43.3274 43.1087ZM16.4427 52.1588C16.944 52.1588 17.2807 52.1588 17.6192 52.1588C23.7202 52.1588 29.8212 52.1588 35.9222 52.1588C39.1262 52.1588 42.3303 52.1661 45.5362 52.1551C47.079 52.1496 48.1963 51.2593 48.4757 49.8825C48.5978 49.2822 48.4794 49.0252 47.7634 49.0271C37.8424 49.0491 27.9214 49.0418 17.9985 49.0418C17.906 49.0418 17.8135 49.0473 17.721 49.0418C17.4324 49.0289 17.2437 49.1115 17.2604 49.4493C17.3103 50.391 16.9126 51.2171 16.4427 52.1588ZM42.4117 23.1471C41.7476 23.1672 41.446 23.4922 41.2666 24.008C40.9373 24.9607 40.2935 25.6106 39.3149 25.9355C38.5102 26.2035 38.2734 26.7763 38.6194 27.5253C39.0596 28.478 39.0652 29.3977 38.6194 30.3504C38.2901 31.0498 38.4714 31.6538 39.2261 31.909C40.275 32.2633 40.9317 32.9351 41.3017 33.954C41.57 34.6956 42.1212 34.9342 42.8427 34.5781C43.8287 34.0935 44.7795 34.11 45.7655 34.5891C46.4926 34.9416 47.029 34.6736 47.2936 33.9319C47.6451 32.9461 48.2851 32.2871 49.2952 31.9347C50.1239 31.6446 50.3311 31.138 49.963 30.3523C49.5153 29.3977 49.5116 28.4908 49.963 27.5344C50.3348 26.7469 50.1295 26.2402 49.3007 25.9502C48.2907 25.5977 47.6672 24.935 47.2917 23.9566C46.9791 23.1415 46.5018 22.958 45.686 23.3306C44.7555 23.7547 43.8546 23.7914 42.9333 23.3398C42.7447 23.2462 42.5356 23.1929 42.4117 23.1489V23.1471ZM42.7669 40.8104C43.4088 40.5368 43.6234 39.8503 44.3041 39.854C44.9608 39.8576 45.1921 40.5258 45.8377 40.792C45.8377 39.4483 45.8395 38.2073 45.834 36.9664C45.834 36.8526 45.8062 36.6635 45.7415 36.6378C45.1366 36.4046 44.6094 35.8741 43.8583 36.1642C43.1886 36.423 42.6041 36.6213 42.7354 37.596C42.8723 38.6148 42.7669 39.6649 42.7669 40.8104Z" fill="url(#paint0_linear_13_2835)"/>
<path d="M31.5458 16.8743C31.5458 17.3332 31.5532 17.7903 31.5458 18.2492C31.5254 19.2993 31.3404 19.5398 30.3175 19.5104C29.6311 19.4902 29.3832 19.6774 29.4424 20.3768C29.5035 21.1038 29.4554 21.8418 29.4554 22.5742C29.4554 23.2883 29.0651 23.6573 28.375 23.672C27.2374 23.6958 26.0978 23.6977 24.9601 23.672C24.272 23.6554 23.8872 23.2901 23.8983 22.5669C23.9094 21.8032 23.8742 21.0395 23.9075 20.2759C23.9297 19.7545 23.8132 19.5159 23.2083 19.5122C21.9559 19.5067 21.7764 19.2919 21.7672 18.0712C21.7598 17.1552 21.7524 16.2391 21.7709 15.3231C21.7894 14.3061 22.0632 14.0014 23.1047 14.0234C23.7669 14.0381 23.926 13.8215 23.9149 13.1937C23.8872 11.7141 24.0444 11.5911 25.5521 11.5911C26.4437 11.5911 27.3373 11.6058 28.2289 11.5874C29.0817 11.5709 29.4979 11.9674 29.4517 12.8063C29.4091 13.559 29.3832 14.1868 30.5043 14.0363C31.1869 13.9445 31.5587 14.4236 31.5476 15.1359C31.5384 15.7159 31.5476 16.296 31.5476 16.8761L31.5458 16.8743ZM26.6565 13.4525C25.8832 13.2579 25.7167 13.6104 25.7389 14.3153C25.7833 15.6352 25.5983 15.8555 24.407 15.8371C23.6689 15.8261 23.6319 16.1877 23.6374 16.7403C23.6448 17.2928 23.6004 17.7297 24.4237 17.6985C25.4892 17.6563 25.7445 17.9922 25.7519 19.0863C25.7574 19.8188 25.7519 20.5531 25.7556 21.2874C25.7556 21.5297 25.7408 21.7463 26.0886 21.8307C27.18 22.0969 27.5944 21.8014 27.5944 20.6963C27.5944 20.208 27.5944 19.7178 27.5944 19.2295C27.5981 17.9225 27.7535 17.704 29.0447 17.6949C29.7347 17.6894 29.7125 17.3149 29.6663 16.878C29.6219 16.4613 29.9438 15.8702 29.0669 15.8408C27.6536 15.793 27.5629 15.6958 27.6092 14.3612C27.6351 13.6196 27.4649 13.2377 26.6528 13.4525H26.6565Z" fill="url(#paint1_linear_13_2835)"/>
<path d="M26.6562 38.3671C23.2043 38.3671 19.7524 38.3671 16.3004 38.3652C15.9656 38.3652 15.6271 38.402 15.2996 38.2551C14.8779 38.066 14.6873 37.7356 14.7428 37.306C14.7946 36.9187 15.0258 36.6195 15.4421 36.5515C15.714 36.5075 15.9952 36.5167 16.2708 36.5167C23.2043 36.5167 30.1396 36.5167 37.073 36.5167C37.3505 36.5167 37.6335 36.5057 37.9018 36.5552C38.3106 36.6305 38.54 36.9169 38.577 37.3207C38.614 37.7136 38.4752 38.033 38.0942 38.2276C37.7741 38.3909 37.4374 38.3671 37.0989 38.3671C33.6155 38.3671 30.134 38.3671 26.6507 38.3671H26.6562Z" fill="url(#paint2_linear_13_2835)"/>
<path d="M26.6598 43.2243C24.8136 43.2243 22.9674 43.2188 21.1212 43.2262C20.4793 43.228 19.8799 43.105 19.8651 42.3487C19.8484 41.5538 20.4534 41.3684 21.1378 41.3684C24.8302 41.3684 28.5226 41.3684 32.2132 41.3684C32.9051 41.3684 33.5007 41.5795 33.4711 42.3634C33.4434 43.1013 32.844 43.2335 32.1966 43.2298C30.3503 43.217 28.5041 43.2262 26.6579 43.2262L26.6598 43.2243Z" fill="url(#paint3_linear_13_2835)"/>
<path d="M26.6379 28.5385C25.1598 28.5385 23.6836 28.533 22.2055 28.5404C21.5581 28.544 20.9772 28.4045 20.9698 27.6427C20.9624 26.9029 21.5192 26.6863 22.1722 26.6845C25.158 26.6808 28.1437 26.6845 31.1295 26.6826C31.7825 26.6826 32.3523 26.8809 32.3671 27.6097C32.3819 28.3495 31.8269 28.5459 31.1609 28.5422C29.6533 28.5312 28.1437 28.5385 26.6361 28.5385H26.6379Z" fill="url(#paint4_linear_13_2835)"/>
<path d="M18.8181 33.44C17.6175 33.44 16.4151 33.4363 15.2145 33.44C14.5763 33.4437 14.099 33.2344 14.0972 32.524C14.0972 31.8191 14.5689 31.5951 15.2071 31.5969C17.5787 31.5988 19.9521 31.5969 22.3237 31.5969C22.9786 31.5969 23.4151 31.8649 23.3929 32.5625C23.3726 33.2124 22.9379 33.4418 22.3311 33.4382C21.1601 33.4327 19.9891 33.4382 18.82 33.4382L18.8181 33.44Z" fill="url(#paint5_linear_13_2835)"/>
<path d="M27.6088 32.522C27.5108 33.0636 27.2333 33.4436 26.645 33.4234C26.0679 33.405 25.7423 33.0544 25.7626 32.478C25.783 31.9456 26.1178 31.628 26.6432 31.617C27.224 31.6042 27.5108 31.9768 27.6088 32.522Z" fill="url(#paint6_linear_13_2835)"/>
<path d="M47.4585 28.9554C47.4493 30.6864 46.0193 32.1165 44.2933 32.1165C42.5359 32.1165 41.0801 30.635 41.1078 28.8727C41.1356 27.1619 42.6173 25.7282 44.3285 25.7575C46.0656 25.7869 47.4659 27.2188 47.4567 28.9535L47.4585 28.9554ZM44.3026 27.6245C43.5793 27.6189 42.9503 28.2541 42.9688 28.9682C42.9873 29.6493 43.5885 30.2404 44.2712 30.2532C44.9889 30.2661 45.5975 29.6401 45.5827 28.9076C45.5698 28.21 44.9908 27.63 44.3007 27.6245H44.3026Z" fill="url(#paint7_linear_13_2835)"/>
</g>
<defs>
<linearGradient id="paint0_linear_13_2835" x1="59.2188" y1="52.9974" x2="57.7839" y2="7.0809" gradientUnits="userSpaceOnUse">
<stop offset="0.00961538" stop-color="#9C7852"/>
<stop offset="0.379808" stop-color="#E1C292"/>
<stop offset="0.778846" stop-color="#F2E1AF"/>
<stop offset="1" stop-color="#EACE9F"/>
</linearGradient>
<linearGradient id="paint1_linear_13_2835" x1="33.1553" y1="23.4325" x2="32.7278" y2="11.6117" gradientUnits="userSpaceOnUse">
<stop offset="0.00961538" stop-color="#9C7852"/>
<stop offset="0.379808" stop-color="#E1C292"/>
<stop offset="0.778846" stop-color="#F2E1AF"/>
<stop offset="1" stop-color="#EACE9F"/>
</linearGradient>
<linearGradient id="paint2_linear_13_2835" x1="42.4958" y1="38.3298" x2="42.4917" y2="36.5171" gradientUnits="userSpaceOnUse">
<stop offset="0.00961538" stop-color="#9C7852"/>
<stop offset="0.379808" stop-color="#E1C292"/>
<stop offset="0.778846" stop-color="#F2E1AF"/>
<stop offset="1" stop-color="#EACE9F"/>
</linearGradient>
<linearGradient id="paint3_linear_13_2835" x1="35.7048" y1="43.1902" x2="35.6975" y2="41.3699" gradientUnits="userSpaceOnUse">
<stop offset="0.00961538" stop-color="#9C7852"/>
<stop offset="0.379808" stop-color="#E1C292"/>
<stop offset="0.778846" stop-color="#F2E1AF"/>
<stop offset="1" stop-color="#EACE9F"/>
</linearGradient>
<linearGradient id="paint4_linear_13_2835" x1="34.2374" y1="28.5026" x2="34.2287" y2="26.6841" gradientUnits="userSpaceOnUse">
<stop offset="0.00961538" stop-color="#9C7852"/>
<stop offset="0.379808" stop-color="#E1C292"/>
<stop offset="0.778846" stop-color="#F2E1AF"/>
<stop offset="1" stop-color="#EACE9F"/>
</linearGradient>
<linearGradient id="paint5_linear_13_2835" x1="24.9191" y1="33.4008" x2="24.9086" y2="31.5984" gradientUnits="userSpaceOnUse">
<stop offset="0.00961538" stop-color="#9C7852"/>
<stop offset="0.379808" stop-color="#E1C292"/>
<stop offset="0.778846" stop-color="#F2E1AF"/>
<stop offset="1" stop-color="#EACE9F"/>
</linearGradient>
<linearGradient id="paint6_linear_13_2835" x1="27.9119" y1="33.3856" x2="27.8613" y2="31.6195" gradientUnits="userSpaceOnUse">
<stop offset="0.00961538" stop-color="#9C7852"/>
<stop offset="0.379808" stop-color="#E1C292"/>
<stop offset="0.778846" stop-color="#F2E1AF"/>
<stop offset="1" stop-color="#EACE9F"/>
</linearGradient>
<linearGradient id="paint7_linear_13_2835" x1="48.5006" y1="31.9809" x2="48.3186" y2="25.7673" gradientUnits="userSpaceOnUse">
<stop offset="0.00961538" stop-color="#9C7852"/>
<stop offset="0.379808" stop-color="#E1C292"/>
<stop offset="0.778846" stop-color="#F2E1AF"/>
<stop offset="1" stop-color="#EACE9F"/>
</linearGradient>
<clipPath id="clip0_13_2835">
<rect width="44" height="47" fill="white" transform="translate(8 7)"/>
</clipPath>
</defs>
</svg>
