<svg width="60" height="60" viewBox="0 0 60 60" fill="none" xmlns="http://www.w3.org/2000/svg">
<g clip-path="url(#clip0_13_2851)">
<path d="M3.00957 24.2695C2.96789 16.7048 7.10156 11.0076 13.8022 9.41804C19.4633 8.07633 24.1462 10.0438 28.1744 14.049C28.78 14.6522 29.3881 15.7461 29.9789 15.7361C30.587 15.7261 31.1729 14.6322 31.781 14.0289C36.0372 9.79602 40.9898 7.9737 46.8814 9.60578C52.4787 11.1553 56.556 16.4395 56.9336 22.5648C57.039 24.272 57.0488 25.9742 56.7203 27.6713C56.3304 29.6889 55.7763 29.9067 54.1631 28.5975C51.0616 26.0843 47.9552 23.5736 44.8513 21.0604C44.6601 20.9052 44.4762 20.7325 44.2702 20.6048C43.4097 20.0741 42.6055 20.1567 42.0024 20.9928C41.436 21.7763 41.7253 22.4547 42.3775 23.073C45.8001 26.2996 49.2179 29.5287 52.6111 32.7854C53.1799 33.3311 54.2979 33.8843 53.4177 34.8881C52.5278 35.9043 51.8952 34.828 51.3141 34.2823C47.4649 30.6702 43.6352 27.033 39.8007 23.4034C39.531 23.1481 39.276 22.8652 38.9695 22.6675C38.1948 22.1643 37.4078 22.1168 36.7728 22.8927C36.1696 23.6312 36.1549 24.4547 36.8071 25.1581C37.6211 26.0368 38.4963 26.8528 39.3667 27.6738C42.9046 31.0156 46.4523 34.3499 49.9926 37.6891C50.5369 38.2023 51.2332 38.7505 50.4756 39.5465C49.7597 40.2975 49.159 39.7167 48.5976 39.1835C45.2142 35.9769 41.8234 32.7779 38.4375 29.5738C37.2361 28.4373 36.481 28.3247 35.7185 29.1708C34.9756 29.9943 35.1301 31.0907 36.2064 32.1245C39.5383 35.3261 42.8874 38.5102 46.2292 41.7018C46.3493 41.8169 46.4695 41.9295 46.5871 42.0447C47.0971 42.5428 47.7248 43.071 47.0358 43.8169C46.3886 44.5153 45.7977 44.0698 45.2534 43.5416C44.0079 42.3376 42.7477 41.1485 41.4924 39.9545C40.7446 39.2436 40.0042 38.5252 39.2392 37.8343C38.9303 37.554 38.6655 37.0108 38.1237 37.3988C37.6407 37.7442 37.4666 38.2624 37.6358 38.8356C37.9668 39.967 38.5429 40.9833 39.2686 41.8895C40.3548 43.2437 41.4973 44.5504 42.6128 45.8821C43.6181 47.0811 43.5788 47.4591 42.3211 48.3703C38.6925 51.0011 34.929 53.4192 31.0553 55.6571C30.3393 56.0701 29.7705 56.1327 29.0252 55.7021C25.0779 53.4242 21.2433 50.9711 17.5485 48.2877C16.4305 47.4741 16.3937 47.0786 17.3033 45.9747C18.4336 44.603 19.6055 43.2662 20.7113 41.8745C21.4345 40.9658 22.0181 39.9545 22.3343 38.8156C22.4913 38.2498 22.3343 37.7242 21.8317 37.3887C21.2825 37.0233 21.0177 37.5515 20.7113 37.8368C18.7866 39.6441 16.8767 41.4664 14.9594 43.2813C14.751 43.479 14.5525 43.6943 14.3293 43.872C13.8513 44.2525 13.3486 44.2951 12.9049 43.832C12.4341 43.3413 12.5616 42.8307 12.9956 42.4026C13.9935 41.4164 15.0158 40.4552 16.0284 39.4839C18.5022 37.1159 20.9761 34.7504 23.4474 32.3799C23.7147 32.122 23.9966 31.8717 24.2148 31.5738C24.8376 30.7277 24.8646 29.8541 24.0972 29.1032C23.3445 28.3647 22.5893 28.4999 21.8366 29.2183C18.4606 32.4349 15.0673 35.629 11.6765 38.8281C11.348 39.1385 11.0293 39.4789 10.6493 39.7117C10.2349 39.967 9.78378 39.9295 9.43073 39.524C9.08013 39.121 9.07523 38.6879 9.40131 38.2799C9.60481 38.0221 9.85489 37.8018 10.0927 37.5765C14.2582 33.6365 18.4262 29.6964 22.5918 25.7589C22.6212 25.7314 22.6531 25.7038 22.6825 25.6738C23.7294 24.6525 23.8839 23.6838 23.1312 22.8602C22.4079 22.0692 21.5032 22.1393 20.4489 23.123C18.517 24.9228 16.5997 26.7376 14.6824 28.55C12.5837 30.5325 10.4874 32.52 8.39364 34.5076C7.84199 35.0332 7.25112 35.6665 6.53766 34.863C5.80948 34.042 6.55237 33.5113 7.0844 33.0056C10.3134 29.9367 13.5497 26.8728 16.7836 23.8089C18.338 22.3345 18.5831 21.6837 17.8942 20.8576C17.1342 19.9465 16.2442 20.1017 14.6187 21.4234C11.6471 23.8364 8.67559 26.252 5.6967 28.6601C4.22565 29.8516 3.58083 29.6063 3.2572 27.7464C3.17139 27.2558 3.05861 26.7627 3.02919 26.267C2.98996 25.6037 3.01938 24.9328 3.01938 24.267L3.00957 24.2695ZM5.10092 26.3597C5.57657 26.2896 5.86097 25.9116 6.19931 25.6387C8.86192 23.496 11.4976 21.3182 14.1773 19.2005C16.1829 17.6185 18.3723 18.009 19.7526 20.1542C20.0027 20.5422 20.1351 20.73 20.6721 20.5648C22.4864 20.0041 23.8814 20.4346 24.84 21.7162C25.8158 23.0254 25.8673 24.6174 24.8572 26.252C24.5115 26.8102 24.688 26.9629 25.1048 27.2984C27.0908 28.8879 27.2697 31.291 25.5486 33.1834C24.9111 33.8843 24.1854 34.5026 23.5112 35.1709C23.3003 35.3812 22.9252 35.5539 23.3126 35.9569C25.0019 37.7067 24.4061 39.524 23.4278 41.3338C22.4324 43.1761 21.0545 44.7206 19.6693 46.2526C19.1985 46.7732 19.1912 47.0436 19.8041 47.4691C22.8786 49.5993 26.0193 51.6169 29.2311 53.5243C29.8049 53.8648 30.2388 53.8322 30.7978 53.4993C33.9017 51.652 36.9395 49.702 39.9233 47.6543C40.7618 47.0786 40.7814 46.7457 40.1096 46.0098C38.4988 44.24 36.915 42.4352 35.9882 40.1523C35.412 38.7305 35.3752 37.3537 36.4785 36.2022C37.0106 35.6465 36.7629 35.4037 36.3584 35.0332C35.6891 34.4225 34.9977 33.8242 34.397 33.1458C32.7568 31.2885 32.921 28.8078 34.8285 27.3409C35.4145 26.8903 35.3752 26.6575 35.0173 26.0943C34.0783 24.6174 34.1788 22.9829 35.1791 21.6662C36.0961 20.4596 37.5303 20.0166 39.1313 20.5247C39.6315 20.6849 39.8546 20.6574 40.1733 20.1517C41.5365 17.989 43.721 17.6335 45.7437 19.203C46.9476 20.1367 48.1072 21.1255 49.2914 22.0817C51.1008 23.5411 52.9176 24.9954 54.8913 26.5774C55.0702 24.5899 55.0482 22.8702 54.7245 21.1455C53.4374 14.3093 47.3913 10.0188 40.7029 11.2504C36.6011 12.0063 33.6639 14.5721 31.1803 17.7962C30.1236 19.168 29.7705 19.178 28.7187 17.7587C27.6277 16.2868 26.3675 14.9851 24.9259 13.8687C20.4955 10.4343 14.9766 10.0889 10.4923 12.9576C6.41507 15.5634 4.09325 21.3157 5.10092 26.3597Z" fill="url(#paint0_linear_13_2851)"/>
</g>
<defs>
<linearGradient id="paint0_linear_13_2851" x1="65.8575" y1="54.9953" x2="64.6877" y2="9.06487" gradientUnits="userSpaceOnUse">
<stop offset="0.00961538" stop-color="#9C7852"/>
<stop offset="0.379808" stop-color="#E1C292"/>
<stop offset="0.778846" stop-color="#F2E1AF"/>
<stop offset="1" stop-color="#EACE9F"/>
</linearGradient>
<clipPath id="clip0_13_2851">
<rect width="54" height="47" fill="white" transform="translate(3 9)"/>
</clipPath>
</defs>
</svg>
