<svg width="60" height="60" viewBox="0 0 60 60" fill="none" xmlns="http://www.w3.org/2000/svg">
<g clip-path="url(#clip0_13_2861)">
<path d="M25.1165 51.2473C23.1302 48.1897 23.3304 45.381 25.553 43.4986C27.5813 41.7795 30.5087 41.8034 32.509 43.5524C34.6775 45.4487 34.8537 48.2873 32.8614 51.2493C33.438 51.2493 33.9126 51.2493 34.3871 51.2493C36.3894 51.2493 38.3917 51.2373 40.392 51.2573C40.9407 51.2632 41.2931 51.1836 41.5073 50.568C41.8357 49.6258 42.5325 48.9048 43.4956 48.596C44.1544 48.3829 44.2285 48.0183 44.2245 47.4287C44.2044 42.7496 44.2124 38.0685 44.2124 33.3874C44.2124 26.7821 44.2064 20.1768 44.2245 13.5715C44.2245 12.9839 44.1524 12.6193 43.4956 12.4042C42.4985 12.0775 41.8157 11.3166 41.4593 10.3425C41.2891 9.87641 41.0548 9.74295 40.5903 9.74295C32.8494 9.75291 25.1085 9.75291 17.3676 9.74295C16.879 9.74295 16.6928 9.93417 16.5206 10.3744C16.1442 11.3385 15.4694 12.1034 14.4642 12.4181C13.8375 12.6153 13.7654 12.9619 13.7674 13.5057C13.7854 16.5933 13.7734 19.6788 13.7774 22.7663C13.7774 23.346 13.8135 24.0093 12.9985 23.9894C12.2036 23.9695 12.2377 23.2942 12.2377 22.7225C12.2357 19.3362 12.2477 15.9519 12.2277 12.5655C12.2237 11.7528 12.4319 11.2648 13.367 11.1652C14.4522 11.0497 15.101 10.3385 15.2371 9.26687C15.3432 8.42427 15.7797 8.18723 16.5847 8.18922C24.8582 8.20914 33.1337 8.20914 41.4092 8.18922C42.2201 8.18922 42.6426 8.43822 42.7508 9.27484C42.8889 10.3485 43.5417 11.0537 44.6269 11.1672C45.566 11.2648 45.7602 11.7668 45.7582 12.5735C45.7442 17.3861 45.7502 22.1986 45.7502 27.0132C45.7502 34.0826 45.7382 41.1541 45.7642 48.2235C45.7682 49.1996 45.57 49.7533 44.4347 49.8748C43.4656 49.9784 42.8609 50.7254 42.7488 51.7214C42.6526 52.556 42.2302 52.817 41.4152 52.815C33.1417 52.795 24.8662 52.795 16.5907 52.815C15.7898 52.815 15.3432 52.5899 15.2391 51.7433C15.105 50.6696 14.4582 49.9565 13.373 49.839C12.4439 49.7394 12.2216 49.2613 12.2277 48.4426C12.2477 45.4228 12.2357 42.401 12.2357 39.3812C12.2357 35.4312 12.2357 31.4811 12.2397 27.5311C12.2397 27.2024 12.2617 26.8678 12.3318 26.5471C12.4039 26.2204 12.6682 26.061 13.0025 26.057C13.381 26.0531 13.6553 26.2443 13.7314 26.6088C13.7915 26.8957 13.7754 27.2024 13.7754 27.5012C13.7754 34.1065 13.7814 40.7119 13.7694 47.3172C13.7694 47.9526 13.7935 48.4008 14.5744 48.6378C15.5375 48.9307 16.1662 49.7155 16.5326 50.6457C16.6828 51.0282 16.8209 51.2632 17.2875 51.2593C19.8524 51.2433 22.4174 51.2513 25.1145 51.2513L25.1165 51.2473ZM28.9569 51.2433C31.0954 51.2573 32.7993 49.594 32.7953 47.4925C32.7913 45.4527 31.1034 43.7615 29.041 43.7297C26.9546 43.6978 25.1966 45.4288 25.2006 47.5084C25.2046 49.5681 26.8745 51.2294 28.9549 51.2433H28.9569Z" fill="url(#paint0_linear_13_2861)"/>
<path d="M47.434 34.8433C47.434 28.9691 47.434 23.0928 47.434 17.2185C47.434 16.9536 47.42 16.6867 47.446 16.4217C47.488 15.9716 47.7383 15.6568 48.2009 15.6469C48.6674 15.6389 48.9217 15.9556 48.9777 16.3998C49.0118 16.6608 48.9958 16.9297 48.9958 17.1946C48.9958 28.977 48.9958 40.7614 48.9958 52.5438C48.9958 54.988 47.9846 55.9979 45.5518 55.9979C34.4751 55.9979 23.3983 55.9979 12.3196 55.9979C10.069 55.9979 9.00778 54.9521 9.00177 52.7191C8.99577 49.9304 9.00177 47.1437 8.99977 44.3549C8.99977 43.9147 8.99577 43.4705 9.47232 43.2434C10.079 42.9546 10.5556 43.4048 10.5596 44.3071C10.5696 47.0281 10.5636 49.7511 10.5636 52.4721C10.5636 54.235 10.8119 54.484 12.5859 54.486C23.5305 54.486 34.4731 54.486 45.4177 54.486C47.1837 54.486 47.436 54.231 47.436 52.4701C47.436 46.5959 47.436 40.7196 47.436 34.8453L47.434 34.8433Z" fill="url(#paint1_linear_13_2861)"/>
<path d="M29.0328 5C34.6052 5 40.1776 5 45.75 5C47.9125 5 48.9838 6.07366 48.9938 8.25286C48.9998 9.68109 48.9958 11.1073 48.9938 12.5356C48.9938 13.0714 48.8957 13.5833 48.2229 13.5913C47.5541 13.5993 47.434 13.1033 47.434 12.5575C47.434 11.0974 47.438 9.63528 47.432 8.17517C47.426 6.9302 47.0656 6.52185 45.8582 6.51986C34.6112 6.5099 23.3663 6.5099 12.1194 6.51986C10.924 6.51986 10.5636 6.93618 10.5636 8.18912C10.5616 18.4815 10.5636 28.772 10.5636 39.0644C10.5636 39.3293 10.5636 39.5963 10.5636 39.8612C10.5636 40.4428 10.5836 41.1022 9.78269 41.1002C8.98577 41.1002 9.00179 40.4369 9.00179 39.8572C9.00179 29.266 8.99578 18.6768 9.00579 8.08554C9.00779 6.1135 10.1451 5.00398 12.1134 5.00199C17.7519 5 23.3923 5 29.0328 5Z" fill="url(#paint2_linear_13_2861)"/>
<path d="M28.9489 30.0727C27.1147 30.0727 25.2826 30.0727 23.4485 30.0727C21.6565 30.0707 21.1879 29.6026 21.1719 27.8637C21.1639 27.0211 21.1279 26.1944 22.0069 25.6805C22.3212 25.4972 22.1771 25.1347 22.1771 24.8538C22.1891 22.6328 22.1711 20.4098 22.1871 18.1887C22.2151 14.4498 25.2786 11.4121 28.9989 11.4121C32.7192 11.4121 35.7807 14.4478 35.8107 18.1887C35.8288 20.4098 35.8107 22.6328 35.8208 24.8538C35.8208 25.1347 35.6826 25.4853 35.991 25.6825C37.2644 26.4972 36.8519 27.7641 36.7478 28.8517C36.6617 29.758 35.8388 30.0747 34.9478 30.0727C32.9475 30.0688 30.9472 30.0727 28.9489 30.0727ZM29.0269 25.5171C30.5287 25.5171 32.0304 25.4873 33.5321 25.5311C34.1588 25.549 34.333 25.3399 34.321 24.7403C34.289 22.8818 34.309 21.0233 34.311 19.1628C34.311 18.366 34.321 17.5653 34.0988 16.7924C33.3779 14.2845 31.0192 12.7208 28.3702 12.9798C25.9474 13.2168 23.9091 15.2128 23.7649 17.7306C23.6287 20.113 23.7188 22.5073 23.6808 24.8976C23.6708 25.4753 23.9611 25.5311 24.4236 25.5251C25.9574 25.5072 27.4932 25.5191 29.0289 25.5191L29.0269 25.5171ZM29.0009 28.519C30.8671 28.519 32.7352 28.5011 34.6014 28.531C35.174 28.5409 35.3502 28.3477 35.3462 27.79C35.3442 27.2362 35.166 27.033 34.5953 27.035C30.8611 27.0529 27.1268 27.0529 23.3925 27.035C22.8178 27.033 22.6516 27.2462 22.6476 27.7939C22.6436 28.3577 22.8298 28.5389 23.3985 28.531C25.2646 28.5011 27.1328 28.519 28.9989 28.519H29.0009Z" fill="url(#paint3_linear_13_2861)"/>
<path d="M28.9448 37.0704C25.5429 37.0704 22.143 37.0704 18.741 37.0704C18.4747 37.0704 18.2004 37.0903 17.9441 37.0325C17.5897 36.9548 17.3695 36.7178 17.3574 36.3294C17.3454 35.9409 17.5437 35.68 17.9061 35.6043C18.2264 35.5366 18.5668 35.5346 18.8972 35.5326C25.633 35.5286 32.3687 35.5306 39.1045 35.5306C39.2707 35.5306 39.4388 35.5266 39.605 35.5326C40.1437 35.5525 40.6542 35.6581 40.6262 36.3373C40.5982 37.0086 40.0856 37.0744 39.547 37.0724C36.0129 37.0684 32.4788 37.0724 28.9428 37.0724L28.9448 37.0704Z" fill="url(#paint4_linear_13_2861)"/>
<path d="M29.1053 40.0702C25.6714 40.0702 22.2354 40.0702 18.8015 40.0702C18.5352 40.0702 18.2649 40.0882 18.0026 40.0523C17.5821 39.9946 17.3598 39.7316 17.3638 39.3014C17.3678 38.9129 17.5761 38.6779 17.9565 38.6221C18.2188 38.5843 18.4871 38.5783 18.7534 38.5783C25.6233 38.5763 32.4912 38.5783 39.3611 38.5783C39.5934 38.5783 39.8297 38.5763 40.0599 38.5962C40.5164 38.638 40.8288 38.8572 40.8048 39.3492C40.7808 39.8232 40.4724 40.0463 40.0099 40.0643C39.7776 40.0722 39.5433 40.0702 39.3091 40.0702C35.9071 40.0702 32.5072 40.0702 29.1053 40.0702Z" fill="url(#paint5_linear_13_2861)"/>
<path d="M28.9571 34.0685C26.26 34.0685 23.5629 34.0685 20.8678 34.0685C20.5694 34.0685 20.2611 34.0824 19.9747 34.0187C19.6303 33.941 19.3901 33.7179 19.376 33.3235C19.362 32.8813 19.6183 32.6423 20.0068 32.5526C20.2611 32.4949 20.5354 32.5168 20.8017 32.5168C26.262 32.5168 31.7222 32.5168 37.1805 32.5168C37.4128 32.5168 37.649 32.5008 37.8793 32.5347C38.3178 32.5984 38.6302 32.8176 38.6182 33.3096C38.6061 33.8016 38.2818 34.0107 37.8453 34.0546C37.4829 34.0904 37.1144 34.0705 36.748 34.0725C34.151 34.0725 31.554 34.0725 28.9571 34.0725V34.0685Z" fill="url(#paint6_linear_13_2861)"/>
<path d="M20.0466 43.859C19.4139 43.859 18.7812 43.861 18.1484 43.859C17.6779 43.857 17.3816 43.6379 17.3655 43.1519C17.3475 42.6599 17.6339 42.4129 18.1044 42.4089C19.4359 42.3969 20.7695 42.3969 22.101 42.4089C22.5775 42.4129 22.8519 42.6778 22.8358 43.1598C22.8198 43.6459 22.5195 43.861 22.0469 43.861C21.3802 43.861 20.7134 43.861 20.0486 43.861L20.0466 43.859Z" fill="url(#paint7_linear_13_2861)"/>
<path d="M37.8171 43.8609C37.2184 43.8609 36.6177 43.857 36.019 43.8609C35.5084 43.8669 35.166 43.6657 35.166 43.1199C35.166 42.5622 35.5465 42.3929 36.035 42.3929C37.3005 42.3909 38.5659 42.3869 39.8334 42.3969C40.2779 42.4008 40.6243 42.5741 40.6343 43.0841C40.6463 43.6279 40.332 43.855 39.8154 43.857C39.1486 43.8589 38.4838 43.857 37.8171 43.857V43.8609Z" fill="url(#paint8_linear_13_2861)"/>
<path d="M31.2458 47.4904C31.2518 48.7653 30.2426 49.7891 28.9872 49.7792C27.7298 49.7712 26.7366 48.7434 26.7526 47.4665C26.7687 46.2375 27.7378 45.2614 28.9612 45.2415C30.2246 45.2216 31.2398 46.2196 31.2458 47.4904ZM29.7621 47.5083C29.67 47.0741 29.4517 46.7813 28.9692 46.7932C28.5387 46.8052 28.2744 47.0681 28.2604 47.4625C28.2423 47.9028 28.5006 48.2035 28.9772 48.2235C29.4637 48.2414 29.664 47.9247 29.7621 47.5083Z" fill="url(#paint9_linear_13_2861)"/>
<path d="M29.027 22.5332C29.8239 22.5332 30.6188 22.5272 31.4157 22.5351C31.9223 22.5411 32.2407 22.7762 32.2387 23.31C32.2367 23.812 31.8883 24.0251 31.4578 24.0311C29.8339 24.055 28.2081 24.055 26.5842 24.0371C26.1076 24.0311 25.7332 23.804 25.7612 23.2542C25.7873 22.7184 26.1437 22.5312 26.6423 22.5332C27.4392 22.5351 28.2341 22.5332 29.031 22.5332H29.027Z" fill="url(#paint10_linear_13_2861)"/>
<path d="M28.903 20.9974C28.1361 20.9974 27.3692 21.0014 26.6024 20.9974C26.1038 20.9934 25.7434 20.7982 25.7614 20.2424C25.7794 19.6907 26.1458 19.5273 26.6464 19.5293C28.2142 19.5353 29.782 19.5353 31.3498 19.5293C31.8464 19.5293 32.2228 19.6827 32.2408 20.2365C32.2609 20.8619 31.8304 21.0014 31.3078 21.0014C30.5068 21.0014 29.7059 21.0014 28.907 20.9994L28.903 20.9974Z" fill="url(#paint11_linear_13_2861)"/>
<path d="M28.989 17.9716C28.4904 17.9716 27.9918 17.9815 27.4933 17.9676C27.0127 17.9537 26.7584 17.6907 26.7704 17.2107C26.7824 16.7764 27.0307 16.5354 27.4632 16.5314C28.4944 16.5214 29.5236 16.5214 30.5548 16.5334C30.9953 16.5394 31.2235 16.8043 31.2296 17.2306C31.2356 17.6529 31.0233 17.9377 30.5848 17.9596C30.0542 17.9855 29.5216 17.9656 28.989 17.9656C28.989 17.9656 28.989 17.9696 28.989 17.9716Z" fill="url(#paint12_linear_13_2861)"/>
</g>
<defs>
<linearGradient id="paint0_linear_13_2861" x1="51.2668" y1="51.8636" x2="49.5705" y2="8.28971" gradientUnits="userSpaceOnUse">
<stop offset="0.00961538" stop-color="#9C7852"/>
<stop offset="0.379808" stop-color="#E1C292"/>
<stop offset="0.778846" stop-color="#F2E1AF"/>
<stop offset="1" stop-color="#EACE9F"/>
</linearGradient>
<linearGradient id="paint1_linear_13_2861" x1="55.5626" y1="55.1377" x2="54.3991" y2="15.7122" gradientUnits="userSpaceOnUse">
<stop offset="0.00961538" stop-color="#9C7852"/>
<stop offset="0.379808" stop-color="#E1C292"/>
<stop offset="0.778846" stop-color="#F2E1AF"/>
<stop offset="1" stop-color="#EACE9F"/>
</linearGradient>
<linearGradient id="paint2_linear_13_2861" x1="55.5594" y1="40.3306" x2="54.6279" y2="5.05248" gradientUnits="userSpaceOnUse">
<stop offset="0.00961538" stop-color="#9C7852"/>
<stop offset="0.379808" stop-color="#E1C292"/>
<stop offset="0.778846" stop-color="#F2E1AF"/>
<stop offset="1" stop-color="#EACE9F"/>
</linearGradient>
<linearGradient id="paint3_linear_13_2861" x1="39.4747" y1="29.6749" x2="38.842" y2="11.4485" gradientUnits="userSpaceOnUse">
<stop offset="0.00961538" stop-color="#9C7852"/>
<stop offset="0.379808" stop-color="#E1C292"/>
<stop offset="0.778846" stop-color="#F2E1AF"/>
<stop offset="1" stop-color="#EACE9F"/>
</linearGradient>
<linearGradient id="paint4_linear_13_2861" x1="44.4454" y1="37.0408" x2="44.4425" y2="35.5305" gradientUnits="userSpaceOnUse">
<stop offset="0.00961538" stop-color="#9C7852"/>
<stop offset="0.379808" stop-color="#E1C292"/>
<stop offset="0.778846" stop-color="#F2E1AF"/>
<stop offset="1" stop-color="#EACE9F"/>
</linearGradient>
<linearGradient id="paint5_linear_13_2861" x1="44.6524" y1="40.0428" x2="44.6496" y2="38.5786" gradientUnits="userSpaceOnUse">
<stop offset="0.00961538" stop-color="#9C7852"/>
<stop offset="0.379808" stop-color="#E1C292"/>
<stop offset="0.778846" stop-color="#F2E1AF"/>
<stop offset="1" stop-color="#EACE9F"/>
</linearGradient>
<linearGradient id="paint6_linear_13_2861" x1="41.7758" y1="34.0429" x2="41.7722" y2="32.5139" gradientUnits="userSpaceOnUse">
<stop offset="0.00961538" stop-color="#9C7852"/>
<stop offset="0.379808" stop-color="#E1C292"/>
<stop offset="0.778846" stop-color="#F2E1AF"/>
<stop offset="1" stop-color="#EACE9F"/>
</linearGradient>
<linearGradient id="paint7_linear_13_2861" x1="23.7343" y1="43.8299" x2="23.7231" y2="42.4011" gradientUnits="userSpaceOnUse">
<stop offset="0.00961538" stop-color="#9C7852"/>
<stop offset="0.379808" stop-color="#E1C292"/>
<stop offset="0.778846" stop-color="#F2E1AF"/>
<stop offset="1" stop-color="#EACE9F"/>
</linearGradient>
<linearGradient id="paint8_linear_13_2861" x1="41.5319" y1="43.8297" x2="41.5206" y2="42.3916" gradientUnits="userSpaceOnUse">
<stop offset="0.00961538" stop-color="#9C7852"/>
<stop offset="0.379808" stop-color="#E1C292"/>
<stop offset="0.778846" stop-color="#F2E1AF"/>
<stop offset="1" stop-color="#EACE9F"/>
</linearGradient>
<linearGradient id="paint9_linear_13_2861" x1="31.9831" y1="49.6825" x2="31.8521" y2="45.2486" gradientUnits="userSpaceOnUse">
<stop offset="0.00961538" stop-color="#9C7852"/>
<stop offset="0.379808" stop-color="#E1C292"/>
<stop offset="0.778846" stop-color="#F2E1AF"/>
<stop offset="1" stop-color="#EACE9F"/>
</linearGradient>
<linearGradient id="paint10_linear_13_2861" x1="33.3017" y1="24.0175" x2="33.2915" y2="22.5322" gradientUnits="userSpaceOnUse">
<stop offset="0.00961538" stop-color="#9C7852"/>
<stop offset="0.379808" stop-color="#E1C292"/>
<stop offset="0.778846" stop-color="#F2E1AF"/>
<stop offset="1" stop-color="#EACE9F"/>
</linearGradient>
<linearGradient id="paint11_linear_13_2861" x1="33.3048" y1="20.97" x2="33.2953" y2="19.5305" gradientUnits="userSpaceOnUse">
<stop offset="0.00961538" stop-color="#9C7852"/>
<stop offset="0.379808" stop-color="#E1C292"/>
<stop offset="0.778846" stop-color="#F2E1AF"/>
<stop offset="1" stop-color="#EACE9F"/>
</linearGradient>
<linearGradient id="paint12_linear_13_2861" x1="31.9614" y1="17.9441" x2="31.9479" y2="16.5254" gradientUnits="userSpaceOnUse">
<stop offset="0.00961538" stop-color="#9C7852"/>
<stop offset="0.379808" stop-color="#E1C292"/>
<stop offset="0.778846" stop-color="#F2E1AF"/>
<stop offset="1" stop-color="#EACE9F"/>
</linearGradient>
<clipPath id="clip0_13_2861">
<rect width="40" height="51" fill="white" transform="translate(9 5)"/>
</clipPath>
</defs>
</svg>
