<svg width="60" height="60" viewBox="0 0 60 60" fill="none" xmlns="http://www.w3.org/2000/svg">
<g clip-path="url(#clip0_13_2882)">
<path d="M46.7703 9.79767C46.7703 8.45253 46.779 7.34209 46.7681 6.23164C46.7594 5.45151 47.0029 4.81262 47.868 4.78655C48.8005 4.7583 49.0701 5.41022 49.0657 6.24251C49.057 8.23305 49.0549 10.2236 49.0657 12.2163C49.0723 13.2094 48.6049 13.6766 47.6115 13.6723C45.6204 13.6592 43.6292 13.6657 41.6359 13.6723C40.8382 13.6723 40.2578 13.3702 40.2491 12.5097C40.2404 11.6448 40.8338 11.3253 41.6164 11.3123C42.5554 11.2971 43.4966 11.308 44.44 11.308C44.5161 10.8603 44.1444 10.8103 43.9444 10.6647C30.2021 0.664214 10.3212 8.94582 7.68448 25.785C6.50632 33.3017 8.56484 39.8731 13.7274 45.4709C13.8014 45.5513 13.8774 45.6296 13.9513 45.7078C14.5209 46.3054 14.7578 46.9747 14.0687 47.5962C13.4275 48.1742 12.8145 47.8961 12.2689 47.3354C10.8233 45.8491 9.56476 44.2236 8.52137 42.433C-0.475694 26.9737 8.59962 7.42684 26.2764 4.39322C33.4605 3.16108 40.0643 4.8387 45.9443 9.20224C46.1442 9.35001 46.3486 9.49344 46.7681 9.79549L46.7703 9.79767Z" fill="url(#paint0_linear_13_2882)"/>
<path d="M29.6194 26.4914C29.6194 27.0694 29.6433 27.6496 29.6129 28.2255C29.5651 29.1121 29.4825 29.9205 30.8128 29.9009C31.3954 29.8922 31.7019 30.4681 31.6432 31.0961C31.5845 31.7307 31.1823 32.1675 30.5889 32.1066C29.5738 32.0023 29.5846 32.5695 29.6129 33.2736C29.6412 33.9581 29.652 34.6491 29.5999 35.3315C29.5433 36.0681 29.1629 36.5679 28.3521 36.5245C27.6065 36.4832 27.2761 36.0116 27.2674 35.2967C27.2566 34.4666 27.237 33.6343 27.2718 32.8042C27.2935 32.2783 27.0957 32.1197 26.5849 32.1305C25.3198 32.1588 24.0547 32.1262 22.7896 32.1457C22.2309 32.1544 21.7918 31.9828 21.5245 31.4851C21.2462 30.9679 21.4266 30.5224 21.7723 30.0943C23.6504 27.7583 25.5263 25.42 27.3913 23.0731C27.7783 22.5864 28.2565 22.4082 28.8238 22.5972C29.3629 22.7776 29.5955 23.2383 29.6064 23.7815C29.6259 24.6834 29.6107 25.5874 29.6107 26.4914C29.6107 26.4914 29.6151 26.4914 29.6172 26.4914H29.6194ZM25.022 29.7792C25.7567 29.7792 26.2458 29.7727 26.7327 29.7814C27.0718 29.7879 27.2718 29.6836 27.2631 29.299C27.2501 28.6362 27.2588 27.9734 27.2588 26.989C26.4414 28.0082 25.8263 28.7753 25.022 29.7792Z" fill="url(#paint1_linear_13_2882)"/>
<path d="M15.173 33.5974C16.6685 33.5974 17.9641 33.6039 19.2618 33.5952C20.0943 33.5887 20.7443 33.8647 20.7138 34.7948C20.6877 35.6575 20.0487 35.8987 19.2683 35.8943C17.3141 35.8835 15.3621 35.9074 13.4079 35.8835C12.2754 35.8704 11.9276 35.4423 12.0233 34.321C12.1124 33.2758 12.6906 32.4848 13.4514 31.8546C14.3383 31.1179 15.3078 30.479 16.236 29.7902C16.6424 29.4881 17.0576 29.1969 17.4293 28.8557C18.501 27.8713 18.6814 26.7826 17.9228 26.0416C17.1141 25.2506 15.5491 25.3158 14.6774 26.2046C14.4274 26.4588 14.2644 26.7978 14.0274 27.0673C13.6253 27.5258 13.134 27.6801 12.5776 27.3498C12.032 27.026 11.9102 26.5197 12.0711 25.9395C12.4189 24.6943 14.1818 23.3774 15.7251 23.2166C17.5902 23.0232 19.2074 23.4904 20.1987 25.1919C21.0899 26.7196 20.8943 28.2495 19.8596 29.6598C19.0314 30.7898 17.8467 31.5134 16.725 32.3044C16.2338 32.6499 15.6599 32.8998 15.1752 33.5996L15.173 33.5974Z" fill="url(#paint2_linear_13_2882)"/>
<path d="M44.9792 23.1688C45.8835 23.1688 46.7877 23.1449 47.692 23.1754C48.8658 23.2123 49.3419 23.886 48.8941 24.979C47.529 28.319 46.1139 31.6352 44.7379 34.9708C44.4205 35.7423 43.8728 36.0878 43.1185 35.7879C42.3098 35.4663 42.3055 34.76 42.599 34.0494C43.5184 31.8133 44.4466 29.5838 45.377 27.352C45.9016 26.0931 45.4777 25.4636 44.1053 25.4636C43.4184 25.4636 42.7294 25.4766 42.0447 25.4441C41.3078 25.4115 40.9121 25.0029 40.9382 24.2576C40.9621 23.56 41.3773 23.2014 42.0512 23.1862C43.0272 23.1645 44.0054 23.1797 44.9814 23.1797V23.1688H44.9792Z" fill="url(#paint3_linear_13_2882)"/>
<path d="M34.8213 37.1786C34.0213 37.159 33.4931 36.5397 33.6453 35.7617C34.4843 31.4742 35.3429 27.1889 36.2168 22.908C36.3668 22.1778 36.8493 21.7454 37.6362 21.9149C38.4188 22.0844 38.6622 22.6668 38.5144 23.4034C37.6732 27.617 36.8146 31.8285 35.9712 36.0421C35.8342 36.7287 35.4973 37.1612 34.8234 37.1786H34.8213Z" fill="url(#paint4_linear_13_2882)"/>
<path d="M21.0141 51.3492C21.0141 52.2684 20.2576 52.8247 19.4403 52.4813C18.6817 52.1641 17.9622 51.7381 17.2644 51.2992C16.6558 50.9189 16.508 50.3235 16.8905 49.7128C17.2362 49.1609 17.7796 48.987 18.3904 49.3C19.0947 49.6607 19.7881 50.0388 20.4707 50.4386C20.8337 50.6494 21.0337 50.9884 21.0163 51.3492H21.0141Z" fill="url(#paint5_linear_13_2882)"/>
<path d="M55.9957 31.1658C55.95 31.5917 55.9239 32.0958 55.8348 32.587C55.7174 33.2367 55.2805 33.6409 54.6327 33.5866C53.9458 33.5301 53.5263 33.0868 53.5611 32.3479C53.5937 31.6308 53.6611 30.9137 53.7089 30.1966C53.7611 29.4295 54.161 28.947 54.9305 28.9905C55.7022 29.034 56.0391 29.5642 55.9978 30.3313C55.9848 30.5812 55.9978 30.8333 55.9978 31.1636L55.9957 31.1658Z" fill="url(#paint6_linear_13_2882)"/>
<path d="M49.3352 46.2229C48.407 46.199 47.8375 45.2428 48.2983 44.4931C48.7483 43.7586 49.3026 43.0828 49.8504 42.4135C50.2199 41.9615 50.7459 41.9441 51.2372 42.181C51.7045 42.407 51.9871 42.8807 51.8002 43.3501C51.3611 44.4627 50.6764 45.4276 49.6678 46.1186C49.5569 46.1947 49.3982 46.2055 49.3352 46.2229Z" fill="url(#paint7_linear_13_2882)"/>
<path d="M44.1204 50.8364C43.6422 50.8168 43.3096 50.5843 43.1162 50.1497C42.9205 49.7086 42.9596 49.2501 43.3118 48.9545C44.0248 48.3526 44.7812 47.7963 45.5507 47.2682C45.9529 46.9922 46.3985 47.127 46.7506 47.4247C47.1028 47.7224 47.2484 48.1157 47.1245 48.5851C46.9463 49.2501 44.8051 50.8625 44.1182 50.8386L44.1204 50.8364Z" fill="url(#paint8_linear_13_2882)"/>
<path d="M24.4245 51.897C25.1767 52.0686 26.0701 52.2164 26.9222 52.4859C27.4917 52.6662 27.7612 53.1704 27.6112 53.7832C27.4656 54.3808 27.0221 54.7611 26.4309 54.6828C25.544 54.5655 24.6637 54.346 23.805 54.0896C23.1964 53.9092 23.0094 53.3855 23.1225 52.7879C23.242 52.1577 23.679 51.9013 24.4245 51.8948V51.897Z" fill="url(#paint9_linear_13_2882)"/>
<path d="M54.8784 37.0613C54.6153 37.9653 54.3458 38.9801 53.7741 39.8624C53.498 40.2883 53.0263 40.4057 52.5242 40.2231C51.9764 40.0232 51.6482 39.5886 51.7938 39.0518C52.046 38.1196 52.3807 37.2025 52.7829 36.3224C53.0176 35.8053 53.5763 35.7009 54.1002 35.8835C54.5784 36.0508 54.8479 36.4289 54.8805 37.0613H54.8784Z" fill="url(#paint10_linear_13_2882)"/>
<path d="M55.7307 25.3613C55.6655 26.0762 55.3677 26.513 54.7743 26.6478C54.1613 26.7868 53.6591 26.5022 53.4874 25.9306C53.2309 25.0744 53.0505 24.1857 52.9288 23.299C52.844 22.6884 53.2048 22.2603 53.8222 22.143C54.4243 22.03 54.9308 22.2408 55.1112 22.8492C55.3677 23.7076 55.5459 24.592 55.7329 25.3591L55.7307 25.3613Z" fill="url(#paint11_linear_13_2882)"/>
<path d="M38.0491 53.8743C37.4101 53.8482 37.0253 53.6005 36.8666 53.1116C36.6971 52.5922 36.7688 52.0294 37.2883 51.7925C38.1622 51.3927 39.0795 51.0667 40.0055 50.8038C40.4902 50.6647 40.9424 50.932 41.1358 51.4231C41.3315 51.9229 41.3184 52.4683 40.8315 52.7834C39.9533 53.3506 38.9447 53.6266 38.0513 53.8743H38.0491Z" fill="url(#paint12_linear_13_2882)"/>
<path d="M53.5807 18.7009C53.5807 19.4028 53.3655 19.7918 52.8655 19.97C52.3851 20.1417 51.8743 20.1004 51.6004 19.6614C51.0896 18.8443 50.6244 17.9903 50.2288 17.1124C50.0136 16.6365 50.3027 16.1867 50.7222 15.915C51.1504 15.639 51.683 15.6173 52.0243 15.9802C52.7916 16.7995 53.222 17.8273 53.5785 18.6987L53.5807 18.7009Z" fill="url(#paint13_linear_13_2882)"/>
<path d="M32.0174 54.9695C31.1458 55.0108 30.1806 55.1803 29.9719 53.9569C29.835 53.1528 30.4415 52.7639 31.924 52.6378C32.4283 52.5965 32.9347 52.5618 33.439 52.5618C34.0825 52.5618 34.4563 52.9507 34.5411 53.544C34.6259 54.1481 34.3259 54.5806 33.7325 54.7892C33.1738 54.9848 32.5891 54.9282 32.0152 54.9674L32.0174 54.9695Z" fill="url(#paint14_linear_13_2882)"/>
</g>
<defs>
<linearGradient id="paint0_linear_13_2882" x1="56.296" y1="46.9796" x2="55.0449" y2="4.07015" gradientUnits="userSpaceOnUse">
<stop offset="0.00961538" stop-color="#9C7852"/>
<stop offset="0.379808" stop-color="#E1C292"/>
<stop offset="0.778846" stop-color="#F2E1AF"/>
<stop offset="1" stop-color="#EACE9F"/>
</linearGradient>
<linearGradient id="paint1_linear_13_2882" x1="33.334" y1="36.2286" x2="32.7882" y2="22.5558" gradientUnits="userSpaceOnUse">
<stop offset="0.00961538" stop-color="#9C7852"/>
<stop offset="0.379808" stop-color="#E1C292"/>
<stop offset="0.778846" stop-color="#F2E1AF"/>
<stop offset="1" stop-color="#EACE9F"/>
</linearGradient>
<linearGradient id="paint2_linear_13_2882" x1="22.2024" y1="35.6234" x2="21.675" y2="23.208" gradientUnits="userSpaceOnUse">
<stop offset="0.00961538" stop-color="#9C7852"/>
<stop offset="0.379808" stop-color="#E1C292"/>
<stop offset="0.778846" stop-color="#F2E1AF"/>
<stop offset="1" stop-color="#EACE9F"/>
</linearGradient>
<linearGradient id="paint3_linear_13_2882" x1="50.393" y1="35.6238" x2="49.823" y2="23.1959" gradientUnits="userSpaceOnUse">
<stop offset="0.00961538" stop-color="#9C7852"/>
<stop offset="0.379808" stop-color="#E1C292"/>
<stop offset="0.778846" stop-color="#F2E1AF"/>
<stop offset="1" stop-color="#EACE9F"/>
</linearGradient>
<linearGradient id="paint4_linear_13_2882" x1="39.3653" y1="36.8524" x2="38.0195" y2="22.012" gradientUnits="userSpaceOnUse">
<stop offset="0.00961538" stop-color="#9C7852"/>
<stop offset="0.379808" stop-color="#E1C292"/>
<stop offset="0.778846" stop-color="#F2E1AF"/>
<stop offset="1" stop-color="#EACE9F"/>
</linearGradient>
<linearGradient id="paint5_linear_13_2882" x1="21.7289" y1="52.5104" x2="21.651" y2="49.1497" gradientUnits="userSpaceOnUse">
<stop offset="0.00961538" stop-color="#9C7852"/>
<stop offset="0.379808" stop-color="#E1C292"/>
<stop offset="0.778846" stop-color="#F2E1AF"/>
<stop offset="1" stop-color="#EACE9F"/>
</linearGradient>
<linearGradient id="paint6_linear_13_2882" x1="56.4019" y1="33.4933" x2="56.1544" y2="29.005" gradientUnits="userSpaceOnUse">
<stop offset="0.00961538" stop-color="#9C7852"/>
<stop offset="0.379808" stop-color="#E1C292"/>
<stop offset="0.778846" stop-color="#F2E1AF"/>
<stop offset="1" stop-color="#EACE9F"/>
</linearGradient>
<linearGradient id="paint7_linear_13_2882" x1="52.4694" y1="46.1335" x2="52.3345" y2="42.038" gradientUnits="userSpaceOnUse">
<stop offset="0.00961538" stop-color="#9C7852"/>
<stop offset="0.379808" stop-color="#E1C292"/>
<stop offset="0.778846" stop-color="#F2E1AF"/>
<stop offset="1" stop-color="#EACE9F"/>
</linearGradient>
<linearGradient id="paint8_linear_13_2882" x1="47.852" y1="50.7595" x2="47.7571" y2="47.1233" gradientUnits="userSpaceOnUse">
<stop offset="0.00961538" stop-color="#9C7852"/>
<stop offset="0.379808" stop-color="#E1C292"/>
<stop offset="0.778846" stop-color="#F2E1AF"/>
<stop offset="1" stop-color="#EACE9F"/>
</linearGradient>
<linearGradient id="paint9_linear_13_2882" x1="28.4005" y1="54.6333" x2="28.3514" y2="51.8978" gradientUnits="userSpaceOnUse">
<stop offset="0.00961538" stop-color="#9C7852"/>
<stop offset="0.379808" stop-color="#E1C292"/>
<stop offset="0.778846" stop-color="#F2E1AF"/>
<stop offset="1" stop-color="#EACE9F"/>
</linearGradient>
<linearGradient id="paint10_linear_13_2882" x1="55.3926" y1="40.2101" x2="55.2069" y2="35.8114" gradientUnits="userSpaceOnUse">
<stop offset="0.00961538" stop-color="#9C7852"/>
<stop offset="0.379808" stop-color="#E1C292"/>
<stop offset="0.778846" stop-color="#F2E1AF"/>
<stop offset="1" stop-color="#EACE9F"/>
</linearGradient>
<linearGradient id="paint11_linear_13_2882" x1="56.195" y1="26.5852" x2="55.9834" y2="22.1273" gradientUnits="userSpaceOnUse">
<stop offset="0.00961538" stop-color="#9C7852"/>
<stop offset="0.379808" stop-color="#E1C292"/>
<stop offset="0.778846" stop-color="#F2E1AF"/>
<stop offset="1" stop-color="#EACE9F"/>
</linearGradient>
<linearGradient id="paint12_linear_13_2882" x1="41.9872" y1="53.8081" x2="41.9254" y2="50.7707" gradientUnits="userSpaceOnUse">
<stop offset="0.00961538" stop-color="#9C7852"/>
<stop offset="0.379808" stop-color="#E1C292"/>
<stop offset="0.778846" stop-color="#F2E1AF"/>
<stop offset="1" stop-color="#EACE9F"/>
</linearGradient>
<linearGradient id="paint13_linear_13_2882" x1="54.1426" y1="19.9712" x2="53.9843" y2="15.717" gradientUnits="userSpaceOnUse">
<stop offset="0.00961538" stop-color="#9C7852"/>
<stop offset="0.379808" stop-color="#E1C292"/>
<stop offset="0.778846" stop-color="#F2E1AF"/>
<stop offset="1" stop-color="#EACE9F"/>
</linearGradient>
<linearGradient id="paint14_linear_13_2882" x1="35.3103" y1="54.9491" x2="35.2734" y2="52.5642" gradientUnits="userSpaceOnUse">
<stop offset="0.00961538" stop-color="#9C7852"/>
<stop offset="0.379808" stop-color="#E1C292"/>
<stop offset="0.778846" stop-color="#F2E1AF"/>
<stop offset="1" stop-color="#EACE9F"/>
</linearGradient>
<clipPath id="clip0_13_2882">
<rect width="51" height="51" fill="white" transform="translate(5 4)"/>
</clipPath>
</defs>
</svg>
