<svg width="60" height="60" viewBox="0 0 60 60" fill="none" xmlns="http://www.w3.org/2000/svg">
<g clip-path="url(#clip0_13_2905)">
<path d="M28.555 3.99997C29.8877 3.99997 30.8343 4.30477 31.7012 4.85994C31.9729 5.03412 32.2576 5.20611 32.4861 5.43254C34.4528 7.38545 36.8119 8.13221 39.5441 7.96021C40.7452 7.88619 41.9053 8.28461 42.8391 9.0858C43.3286 9.506 43.583 9.4102 43.9475 8.96388C44.7259 8.01247 45.5518 7.10459 46.3519 6.17277C47.6953 4.60957 49.6231 4.36791 50.9968 5.59582C52.3553 6.81068 52.3294 8.77882 50.9472 10.3268C49.4312 12.0228 47.9541 13.7558 46.3972 15.4148C45.7934 16.0592 45.8753 16.5077 46.4489 17.0411C47.2683 17.8031 48.0856 18.5673 48.8857 19.3489C50.7553 21.1734 51.1542 23.4289 50.0415 25.7998C49.9962 25.8978 49.9552 26.0023 49.8949 26.0894C48.2064 28.4995 48.0554 31.1382 48.5557 33.9598C48.9913 36.4265 47.7406 38.5536 45.4915 39.6139C44.9394 39.8751 44.3917 40.1647 43.8116 40.3367C43.0181 40.5718 43.0526 40.9594 43.3566 41.6082C44.8338 44.7454 46.2699 47.9045 47.7255 51.0527C48.0317 51.7123 48.4177 52.3677 47.8937 53.0818C47.3913 53.7676 46.7077 53.576 46.0241 53.4497C44.685 53.2015 43.3351 53.0077 41.9981 52.7465C41.487 52.6463 41.2175 52.7966 40.9716 53.2494C40.2794 54.5187 39.5333 55.7553 38.8217 57.0137C38.5047 57.5776 38.1403 58.0522 37.4157 57.9956C36.7494 57.9434 36.4539 57.4644 36.1995 56.9114C34.8754 54.0223 33.4759 51.1637 32.2317 48.2398C31.753 47.1164 31.0629 46.5568 29.9286 46.2956C27.9792 45.8493 26.252 46.6287 25.4174 48.4401C24.13 51.229 22.8427 54.0158 21.5596 56.8047C21.2965 57.3773 21.0183 57.9325 20.2959 57.9934C19.511 58.0588 19.1638 57.497 18.8317 56.9179C18.1331 55.6944 17.415 54.4817 16.7379 53.2451C16.4942 52.8031 16.2311 52.6463 15.7114 52.7487C14.2688 53.0317 12.8089 53.2211 11.3684 53.5107C10.743 53.6369 10.2298 53.5869 9.81147 53.0861C9.37156 52.5593 9.52467 52.0171 9.78128 51.462C11.2994 48.1832 12.7895 44.8913 14.3421 41.6299C14.6871 40.9049 14.672 40.5457 13.8504 40.3149C13.3027 40.1625 12.7873 39.886 12.2655 39.6422C9.94301 38.5601 8.75699 36.359 9.10848 33.7943C9.1473 33.507 9.1818 33.2174 9.24865 32.9365C9.79853 30.6571 9.21846 28.6454 8.11222 26.6163C6.31809 23.3266 6.63939 21.2626 9.43626 18.8264C11.3102 17.1935 12.3388 15.3125 12.7787 12.8719C13.4019 9.41455 15.2737 7.94715 18.808 7.94497C21.0162 7.94497 22.957 7.45729 24.6282 5.9028C25.8013 4.81858 27.1469 3.9586 28.555 3.99997ZM14.6591 25.8107C14.6526 17.8336 20.9903 11.4045 28.8698 11.4154C32.2597 11.4197 35.2873 12.5039 37.8836 14.7094C38.3969 15.1448 38.66 15.1405 39.0675 14.6092C39.6821 13.8081 40.4002 13.0896 41.0363 12.3015C41.4266 11.8181 42.2719 11.3805 42.0606 10.8058C41.804 10.1069 40.9069 9.90224 40.1479 9.78032C39.7597 9.71718 39.3586 9.66275 38.9705 9.68452C36.2577 9.84563 33.9633 8.98348 31.8608 7.20039C29.4456 5.15168 28.2984 5.15821 25.8875 7.17644C23.8174 8.90945 21.5876 9.7629 18.8921 9.70412C16.078 9.64316 14.9502 10.5684 14.4693 13.3792C13.9928 16.1594 12.7765 18.3496 10.5964 20.1414C8.47018 21.8897 8.22004 23.2809 9.57858 25.654C10.9307 28.0162 11.6207 30.4132 10.9867 33.1173C10.8961 33.5048 10.8487 33.9032 10.812 34.2994C10.6611 35.9018 11.3382 37.3758 12.8197 37.9266C17.4581 39.6465 18.3336 40.6916 20.324 44.2904C21.0399 45.5836 22.4675 46.1737 23.8864 45.6098C27.2202 44.2861 30.4634 44.2403 33.7972 45.6032C35.1687 46.1649 36.3914 45.5205 37.3338 44.4102C37.5429 44.1641 37.7478 43.8985 37.888 43.609C39.2077 40.8832 41.321 39.1197 44.1911 38.2619C44.327 38.2205 44.4607 38.1617 44.5901 38.1008C46.3519 37.2952 47.1778 36.0281 46.8198 34.1166C46.2182 30.9118 46.5201 27.9334 48.394 25.2055C48.4544 25.1184 48.4932 25.0117 48.5363 24.9137C49.2393 23.32 49.0021 21.9767 47.7837 20.7401C47.4042 20.3548 47.0074 19.9846 46.6128 19.6145C45.9335 18.9766 45.2499 18.3452 44.5685 17.7117C43.9432 18.404 43.3566 19.1377 42.6795 19.7735C42.1361 20.2829 42.1727 20.7532 42.3862 21.3998C43.1108 23.6031 43.2596 25.8673 42.8844 28.162C41.7199 35.2835 34.9531 40.7155 28.0159 40.0994C20.3348 39.4158 14.672 33.3567 14.6656 25.8151L14.6591 25.8107ZM40.8013 22.2445C40.4584 22.2663 40.3721 22.4884 40.2363 22.643C37.4545 25.8216 34.7029 29.0286 31.8845 32.1724C30.388 33.8422 28.5809 33.8227 26.9959 32.2399C25.081 30.3261 23.1769 28.4037 21.2814 26.4704C19.8841 25.0444 19.8129 23.0914 21.0852 21.8265C22.3251 20.5942 24.2228 20.6574 25.6093 22.0116C26.6423 23.0196 27.6709 24.0342 28.6499 25.0944C29.161 25.6496 29.437 25.7846 30.0171 25.0879C32.2101 22.4492 34.4636 19.8627 36.7515 17.3089C37.3165 16.6775 37.254 16.3684 36.6221 15.8959C32.6953 12.959 28.4342 12.2688 23.9424 14.2304C19.4075 16.2095 16.8802 19.8497 16.4317 24.7962C15.8624 31.0664 20.0997 36.6551 26.3123 38.0746C32.1282 39.4027 38.3085 36.0259 40.4778 30.2913C41.4762 27.6526 41.6229 24.9616 40.7991 22.2467L40.8013 22.2445ZM23.2826 22.7235C22.6896 22.693 22.2755 22.9869 22.062 23.4768C21.8141 24.0494 21.9133 24.6176 22.3704 25.0792C24.3759 27.1061 26.3727 29.1396 28.3933 31.1513C29.0725 31.8284 29.7949 31.7979 30.4742 31.1099C30.7287 30.853 30.9788 30.5939 31.216 30.3218C36.014 24.7809 40.8034 19.2357 45.6058 13.6992C47.0009 12.0903 48.4371 10.5162 49.8366 8.91163C50.4426 8.21494 50.421 7.39633 49.7849 6.90647C49.1056 6.38178 48.4479 6.48846 47.8743 7.1133C47.484 7.54002 47.1088 7.97763 46.7314 8.41524C41.2972 14.6942 35.8631 20.9731 30.4268 27.2498C29.5966 28.2078 29.3011 28.223 28.4235 27.3478C27.0951 26.0219 25.7775 24.6851 24.4578 23.3527C24.1236 23.0152 23.7936 22.68 23.2826 22.7279V22.7235ZM46.0866 51.671C44.7863 48.8429 43.596 46.2172 42.3668 43.609C42.0671 42.9754 41.9463 41.8847 41.3555 41.8498C40.7581 41.815 40.4411 42.8491 40.0896 43.4609C38.7074 45.8754 37.0254 47.7913 33.7908 47.5061C35.076 50.2863 36.2922 52.9185 37.5645 55.6748C38.3839 54.2596 39.1624 53.0382 39.8115 51.7515C40.26 50.8611 40.8595 50.7065 41.7436 50.8959C43.1043 51.1833 44.4801 51.3923 46.0845 51.6753L46.0866 51.671ZM20.1558 55.6791C21.4432 52.8793 22.6443 50.2667 23.9058 47.5213C21.0033 47.6977 19.2436 46.2477 17.9541 43.9704C17.4991 43.167 17.0527 42.331 16.257 41.619C14.7087 44.9762 13.197 48.2594 11.6229 51.6753C13.1604 51.4032 14.5448 51.2225 15.899 50.9003C16.9125 50.6608 17.5034 50.9416 17.9756 51.8778C18.6053 53.1297 19.3665 54.3162 20.1579 55.6791H20.1558Z" fill="url(#paint0_linear_13_2905)"/>
</g>
<defs>
<linearGradient id="paint0_linear_13_2905" x1="59.3838" y1="56.849" x2="57.5322" y2="4.10525" gradientUnits="userSpaceOnUse">
<stop offset="0.00961538" stop-color="#9C7852"/>
<stop offset="0.379808" stop-color="#E1C292"/>
<stop offset="0.778846" stop-color="#F2E1AF"/>
<stop offset="1" stop-color="#EACE9F"/>
</linearGradient>
<clipPath id="clip0_13_2905">
<rect width="45" height="54" fill="white" transform="translate(7 4)"/>
</clipPath>
</defs>
</svg>
