<svg width="52" height="53" viewBox="0 0 52 53" fill="none" xmlns="http://www.w3.org/2000/svg">
<path d="M41.7498 43.3333C42.4792 43.3333 43.1787 43.0436 43.6944 42.5279C44.2101 42.0121 44.4998 41.3127 44.4998 40.5833V34.1667C44.4998 33.4373 44.2101 32.7378 43.6944 32.2221C43.1787 31.7064 42.4792 31.4167 41.7498 31.4167C39.6048 31.4167 37.4965 31.0867 35.4798 30.4083C34.9977 30.2561 34.4831 30.2389 33.9918 30.3585C33.5006 30.4781 33.0514 30.7299 32.6932 31.0867L30.0532 33.7267C25.4923 31.2378 21.7437 27.4892 19.2548 22.9283L21.8765 20.3067C22.6282 19.5917 22.9032 18.5283 22.5732 17.5017C21.9132 15.5033 21.5832 13.395 21.5832 11.25C21.5832 10.5207 21.2934 9.82118 20.7777 9.30546C20.262 8.78973 19.5625 8.5 18.8332 8.5H12.4165C11.6872 8.5 10.9877 8.78973 10.472 9.30546C9.95624 9.82118 9.6665 10.5207 9.6665 11.25C9.6665 28.9417 24.0582 43.3333 41.7498 43.3333ZM12.4165 10.3333H18.8332C19.0763 10.3333 19.3094 10.4299 19.4814 10.6018C19.6533 10.7737 19.7498 11.0069 19.7498 11.25C19.7498 13.5967 20.1165 15.8883 20.8315 18.07C20.9232 18.3267 20.9048 18.6933 20.6115 18.9867L16.9998 22.58C20.0248 28.5017 24.4615 32.9383 30.4015 36L33.9765 32.3883C34.2332 32.1317 34.5815 32.0583 34.9115 32.15C37.1115 32.8833 39.4032 33.25 41.7498 33.25C41.993 33.25 42.2261 33.3466 42.398 33.5185C42.5699 33.6904 42.6665 33.9235 42.6665 34.1667V40.5833C42.6665 40.8264 42.5699 41.0596 42.398 41.2315C42.2261 41.4034 41.993 41.5 41.7498 41.5C25.0665 41.5 11.4998 27.9333 11.4998 11.25C11.4998 11.0069 11.5964 10.7737 11.7683 10.6018C11.9402 10.4299 12.1734 10.3333 12.4165 10.3333Z" fill="#71553D"/>
</svg>
