<svg width="52" height="52" viewBox="0 0 52 52" fill="none" xmlns="http://www.w3.org/2000/svg">
<g clip-path="url(#clip0_13_2235)">
<path d="M38.9632 10.3359C39.3363 9.47849 39.7128 8.62275 40.0774 7.76186C40.2393 7.38039 40.442 6.95252 40.8526 6.91987C41.6533 6.85458 41.7965 6.25831 42.052 5.69469C42.6994 4.26674 44.1629 3.64642 45.4969 4.2066C46.8514 4.77538 47.4357 6.32704 46.8633 7.8031C46.7321 8.1399 46.3403 8.66056 46.5345 8.78772C47.1052 9.15888 47.066 9.96478 47.8412 10.2191C49.2178 10.6693 49.2025 10.793 48.6352 12.1265C47.0933 15.7487 45.5531 19.3693 44.0096 22.9899C43.9091 23.2253 43.8119 23.4676 43.6722 23.6806C43.4695 23.9882 43.1526 24.0346 42.8442 23.8834C42.5682 23.7476 42.4268 23.4847 42.5035 23.1668C42.5563 22.9469 42.6551 22.7373 42.7437 22.5276C44.2055 19.0892 45.6724 15.6525 47.1308 12.2124C47.2654 11.8945 47.6657 11.5457 47.0166 11.269C46.3982 11.0044 46.3726 11.4786 46.2261 11.8206C42.2139 21.1787 38.1999 30.5368 34.2013 39.9001C33.9815 40.4139 33.6936 40.8418 33.2898 41.2181C32.1637 42.2663 31.0426 43.3213 29.9403 44.397C29.4207 44.9022 28.8414 45.129 28.1633 44.8627C27.4665 44.5895 27.2399 43.9984 27.2416 43.2749C27.2467 41.615 27.2433 39.9534 27.2263 38.2935C27.2212 37.8158 27.3813 37.3999 27.5619 36.9772C30.7394 29.5574 33.9117 22.1358 37.0993 14.7212C37.331 14.1833 37.452 13.6524 37.4452 13.0664C37.4264 11.2913 37.4452 9.5163 37.4349 7.74124C37.4247 6.0796 36.7313 5.37336 35.1111 5.37336C26.6232 5.36992 18.1353 5.36992 9.6474 5.37336C8.05954 5.37336 7.33887 6.07616 7.33716 7.66392C7.33035 19.89 7.33035 32.116 7.33716 44.342C7.33716 45.9349 8.05613 46.6377 9.64058 46.6395C18.1285 46.6429 26.6164 46.6429 35.1043 46.6395C36.7296 46.6395 37.4281 45.9349 37.4332 44.2767C37.4435 41.4999 37.4349 38.7213 37.4384 35.9445C37.4384 35.6884 37.4384 35.4255 37.4827 35.1747C37.544 34.8275 37.7655 34.6007 38.1284 34.6145C38.4793 34.6282 38.7042 34.8396 38.7485 35.2004C38.7724 35.398 38.7673 35.6008 38.7673 35.8001C38.7673 38.6354 38.7741 41.469 38.7673 44.3042C38.7604 46.6824 37.4332 48.0004 35.0617 48.0004C26.6027 48.0004 18.1421 48.0004 9.68147 48.0004C7.31842 48.0004 5.99975 46.6756 5.99805 44.2802C5.99975 32.0816 5.99975 19.8848 6.00316 7.68797C6.00486 5.34587 7.33546 4.00899 9.64058 4.00899C18.1574 4.00727 26.6743 4.00727 35.1895 4.00899C37.3907 4.00899 38.7468 5.36133 38.7707 7.57284C38.7809 8.48185 38.7707 9.38914 38.7707 10.2981C38.8337 10.3102 38.8984 10.3239 38.9615 10.3359H38.9632ZM32.6867 39.2368C33.0683 39.3124 33.1024 39.0375 33.1859 38.8416C35.2849 33.9478 37.3753 29.0487 39.4845 24.1583C39.6685 23.7322 39.5714 23.5603 39.1659 23.3954C38.1965 23.0002 37.2237 22.6015 36.2901 22.1307C35.6972 21.8317 35.4433 21.921 35.1775 22.5551C33.3137 26.9936 31.4089 31.4132 29.5212 35.8397C29.0385 36.9692 29.3576 37.7808 30.4787 38.2746C31.23 38.6045 31.9831 38.931 32.6867 39.2368ZM40.1166 22.3352C40.3279 22.3025 40.3704 22.0671 40.4539 21.8729C42.0844 18.0754 43.7063 14.2744 45.3521 10.4854C45.5583 10.0112 45.3879 9.85481 44.9858 9.69157C44.0419 9.30666 43.093 8.92347 42.1849 8.46295C41.575 8.15536 41.3126 8.21722 41.0298 8.90113C39.66 12.221 38.2255 15.5133 36.8131 18.8143C36.3088 19.9908 36.6319 20.8293 37.7825 21.3299C38.5355 21.6581 39.292 21.9795 40.1183 22.3369L40.1166 22.3352ZM32.1108 40.4689C31.0392 39.9981 30.0579 39.565 29.0731 39.1389C28.8653 39.0478 28.5825 38.9344 28.5773 39.3159C28.5586 40.7284 28.5705 42.1408 28.5705 43.5533C28.6421 43.5739 28.7136 43.5928 28.7869 43.6135C29.8705 42.5876 30.954 41.5618 32.1108 40.4689ZM44.4747 5.3768C43.7745 5.38883 42.8783 6.39062 42.9073 7.12951C42.9141 7.29104 44.7388 8.33235 44.9875 8.20691C45.5821 7.90449 45.6928 7.26011 45.7337 6.66212C45.7831 5.92323 45.1971 5.36477 44.4764 5.3768H44.4747Z" fill="#71553D"/>
<path d="M22.3691 7.72379C24.4953 7.72379 26.6233 7.71692 28.7495 7.72551C29.9864 7.73067 30.3527 8.11386 30.3629 9.37684C30.368 9.91984 30.3816 10.4646 30.3578 11.0076C30.3186 11.9355 29.8961 12.3736 28.9863 12.4029C28.1362 12.4303 27.2843 12.408 26.4341 12.4097C25.9537 12.4097 25.5516 12.2448 25.5482 11.7104C25.5431 11.1571 25.9503 11.0265 26.4341 11.0436C26.8584 11.0591 27.2843 11.0471 27.7102 11.0471C29.0834 11.0471 29.0681 11.0471 29.0272 9.66209C29.0153 9.2411 28.925 9.04177 28.4599 9.04349C24.3761 9.05551 20.2923 9.0538 16.2085 9.04349C15.7706 9.04349 15.6275 9.19985 15.6053 9.64319C15.5389 11.0488 15.5219 11.0488 16.9138 11.0488C18.8424 11.0488 20.771 11.054 22.6996 11.0454C23.1835 11.0436 23.6912 11.0694 23.7167 11.6726C23.7457 12.329 23.2261 12.4132 22.7047 12.4114C20.3791 12.4114 18.0536 12.4218 15.728 12.4046C14.745 12.3977 14.3344 11.9801 14.3003 10.9972C14.2782 10.3683 14.2782 9.7377 14.3003 9.1105C14.3344 8.10699 14.7075 7.73754 15.7314 7.73067C17.9428 7.7152 20.156 7.72551 22.3674 7.72551L22.3691 7.72379Z" fill="#71553D"/>
<path d="M22.2976 20.6854C19.0078 20.6854 15.7162 20.6819 12.4263 20.6888C11.9237 20.6888 11.3632 20.7008 11.3513 20.0358C11.3393 19.3863 11.8777 19.3262 12.3939 19.3262C19.0589 19.3279 25.7255 19.3279 32.3904 19.3262C32.9066 19.3262 33.4433 19.3915 33.4229 20.0444C33.4024 20.7094 32.8385 20.6888 32.3393 20.6871C28.9915 20.6819 25.6454 20.6854 22.2976 20.6854Z" fill="#71553D"/>
<path d="M22.4443 15.1556C25.6763 15.1556 28.9082 15.1556 32.1419 15.1556C32.3974 15.1556 32.6547 15.1436 32.9051 15.1814C33.222 15.2278 33.406 15.4615 33.435 15.7674C33.4656 16.0835 33.2987 16.3361 32.9937 16.4169C32.7245 16.4873 32.4366 16.508 32.1572 16.508C25.6354 16.5131 19.1153 16.5114 12.5935 16.5114C12.5645 16.5114 12.5372 16.5114 12.5083 16.5114C11.9869 16.508 11.3668 16.5286 11.3566 15.8258C11.3463 15.0938 11.9784 15.1573 12.4929 15.1573C15.8101 15.1573 19.1272 15.1573 22.4443 15.1573V15.1556Z" fill="#71553D"/>
<path d="M19.9978 23.5703C22.4648 23.5703 24.9301 23.5703 27.397 23.5703C27.6236 23.5703 27.8519 23.5652 28.0768 23.5892C28.4363 23.6253 28.6493 23.8521 28.6714 24.2027C28.6936 24.5653 28.4738 24.8024 28.133 24.8677C27.8587 24.921 27.5708 24.9192 27.288 24.9192C22.4409 24.9227 17.5922 24.921 12.7451 24.921C12.6037 24.921 12.4623 24.921 12.3192 24.921C11.8302 24.9158 11.3395 24.8161 11.3498 24.2181C11.36 23.6116 11.8575 23.5669 12.3447 23.5669C14.8969 23.5738 17.4474 23.5703 19.9995 23.5703H19.9978Z" fill="#71553D"/>
<path d="M14.4249 38.836C15.0025 38.8222 15.7078 39.0714 16.3331 39.5629C16.6227 39.7914 16.9055 40.0302 17.2054 40.2468C18.4303 41.1334 19.5446 40.953 20.4339 39.7295C20.4833 39.6608 20.5242 39.5835 20.5702 39.513C20.8104 39.135 21.1222 38.8996 21.5549 39.1762C21.9724 39.4443 21.9298 39.812 21.7134 40.221C20.7593 42.0252 18.8086 42.6559 17.0043 41.6919C16.5103 41.4273 16.0724 41.0492 15.6175 40.7124C14.3329 39.7605 12.8592 40.0715 12.1062 41.4719C11.8796 41.8929 11.6598 42.3466 11.089 42.0338C10.5592 41.7434 10.6989 41.2657 10.9153 40.8379C11.5984 39.4872 12.7025 38.8257 14.4232 38.836H14.4249Z" fill="#71553D"/>
<path d="M16.1407 29.1014C14.8629 29.1014 13.5869 29.0928 12.3091 29.1066C11.8048 29.1117 11.3431 29.0206 11.3482 28.4192C11.3516 27.8831 11.7826 27.7422 12.2546 27.7422C14.8374 27.7422 17.4202 27.7439 20.003 27.7422C20.4767 27.7422 20.8958 27.8711 20.9128 28.4123C20.9333 29.0361 20.4733 29.1117 19.9724 29.1066C18.6946 29.0945 17.4185 29.1031 16.1407 29.1031V29.1014Z" fill="#71553D"/>
</g>
<defs>
<clipPath id="clip0_13_2235">
<rect width="43" height="44" fill="white" transform="translate(6 4)"/>
</clipPath>
</defs>
</svg>
