<svg width="52" height="52" viewBox="0 0 52 52" fill="none" xmlns="http://www.w3.org/2000/svg">
<g clip-path="url(#clip0_13_2527)">
<path d="M21.6702 45.1375C20.143 46.6799 18.8263 48.0157 17.5001 49.34C17.1728 49.6672 16.8781 50.1361 16.302 49.9351C15.7968 49.7571 15.7183 49.2845 15.6992 48.8347C15.6552 47.8128 15.1825 47.3 14.126 47.2655C13.7184 47.2521 13.2055 47.1985 13.0409 46.6512C12.8821 46.1211 13.2399 45.8264 13.5557 45.5107C16.036 43.0324 18.4991 40.5351 21.0081 38.0855C21.5363 37.5689 21.498 37.2952 20.9889 36.8168C19.7373 35.636 18.5316 34.4055 17.3278 33.175C11.4084 27.1182 13.2591 17.5612 21.0176 14.1549C21.4884 13.9482 21.676 13.7281 21.6913 13.1865C21.7257 11.8776 22.6348 11.0356 23.9438 10.938C24.2328 10.9169 24.7113 11.1676 24.7285 10.5571C24.74 10.1246 24.7955 9.77252 24.2079 9.51609C22.143 8.61283 21.5095 6.72019 22.5085 4.69551C23.0884 3.51667 23.8883 2.48328 24.7247 1.47668C25.2108 0.893005 25.7122 0.810717 26.2327 1.42692C27.138 2.5005 27.9992 3.6047 28.5829 4.89453C29.4422 6.79291 28.78 8.65301 26.8586 9.48547C26.2615 9.74382 26.2308 10.094 26.2749 10.5839C26.3284 11.1848 26.7973 10.915 27.0863 10.938C28.3418 11.0394 29.2642 11.8776 29.3121 13.1196C29.3331 13.6707 29.4824 13.9424 30.0087 14.1721C37.7156 17.5306 39.5815 27.0838 33.7234 33.1234C32.5024 34.3826 31.2756 35.636 29.9953 36.8321C29.4499 37.3411 29.5226 37.6167 30.0163 38.1009C32.4985 40.5332 34.9406 43.0037 37.3979 45.4609C37.7328 45.7958 38.1481 46.102 37.9548 46.6761C37.7749 47.2043 37.262 47.2713 36.8544 47.2751C35.7616 47.2847 35.3558 47.8664 35.2984 48.8558C35.2716 49.3093 35.1893 49.7724 34.6784 49.9409C34.1463 50.1188 33.8612 49.7016 33.5511 49.3935C32.2019 48.0501 30.8584 46.7029 29.3312 45.1739C29.3312 46.5383 29.3025 47.6655 29.3408 48.7926C29.3695 49.6442 29.046 50.0155 28.1714 50.0002C26.3859 49.9676 24.6003 49.9715 22.8166 50.0002C22.0128 50.0117 21.6435 49.7036 21.6664 48.873C21.699 47.7305 21.6741 46.5881 21.6741 45.1375H21.6702ZM16.9853 47.5392C17.2015 47.4129 17.2647 47.3918 17.3087 47.3478C22.5181 42.1407 27.7791 36.9813 32.9177 31.7053C36.351 28.1784 36.5003 22.5043 33.4401 18.654C32.3646 17.3029 31.0613 16.2389 29.3293 15.5844C29.3293 16.3633 29.3542 17.0005 29.3197 17.634C29.2967 18.0664 29.4594 18.321 29.8077 18.5736C33.9817 21.5953 34.4009 26.8311 30.7627 30.4767C25.8959 35.3509 21.0215 40.2174 16.1528 45.0897C15.9078 45.3346 15.6743 45.5891 15.3604 45.9183C16.3365 46.0388 17.0044 46.412 16.9853 47.5392ZM27.7944 22.2421C27.7944 19.5036 27.7944 16.7632 27.7944 14.0247C27.7944 12.5397 27.737 12.4861 26.2098 12.4842C25.6682 12.4842 25.1266 12.4842 24.585 12.4842C23.3314 12.488 23.207 12.6067 23.2051 13.8449C23.2032 19.1324 23.2319 24.4199 23.1821 29.7074C23.1726 30.802 23.4156 31.6154 24.2615 32.3655C25.5514 33.508 25.4577 33.5176 26.7437 32.3541C27.5437 31.6326 27.8557 30.8748 27.8193 29.7897C27.7351 27.2751 27.7925 24.7586 27.7925 22.2421H27.7944ZM21.6415 15.5787C21.2377 15.7624 20.9449 15.8734 20.6712 16.0226C14.8743 19.1515 13.5997 26.9747 18.1163 31.7666C19.2301 32.9473 20.4052 34.0725 21.5516 35.2227C22.7152 36.3881 22.6922 36.3632 23.8769 35.2112C24.3266 34.773 24.3247 34.5261 23.873 34.0955C22.5372 32.8191 21.2358 31.5082 19.9478 30.1839C16.8972 27.0493 17.0254 22.0316 20.3976 19.2415C21.4865 18.3401 21.8387 17.4598 21.6702 16.1949C21.6492 16.0379 21.653 15.8791 21.6396 15.5806L21.6415 15.5787ZM23.2051 45.9719C23.2051 46.5766 23.2262 47.1832 23.1975 47.788C23.1745 48.253 23.2817 48.4826 23.8194 48.4654C24.9333 48.429 26.049 48.431 27.1629 48.4654C27.6796 48.4807 27.8135 48.2913 27.8021 47.8052C27.7734 46.5957 27.7906 45.3844 27.7944 44.1749C27.7944 43.884 27.7829 43.6161 27.5456 43.3903C26.9715 42.8392 26.405 42.2784 25.8557 41.7024C25.6031 41.4383 25.4328 41.4345 25.1534 41.6871C23.9381 42.7894 22.7267 43.8802 23.2032 45.7824C23.2185 45.8417 23.2032 45.9087 23.2051 45.9738V45.9719ZM35.7118 45.9566C33.5243 43.7692 31.4785 41.7254 29.4365 39.6816C28.2939 38.5391 28.3169 38.5621 27.1743 39.6586C26.7131 40.1007 26.6404 40.3533 27.1437 40.8413C29.2432 42.8793 31.2928 44.9672 33.3693 47.0301C33.532 47.1928 33.6449 47.4722 34.0238 47.409C34.0334 46.4503 34.5961 46.0082 35.7118 45.9566ZM21.6071 29.5869V20.2729C18.6598 22.3722 18.6445 27.0225 21.6071 29.5869ZM29.3695 29.5467C32.8201 26.8905 31.8555 21.7235 29.3695 20.315V29.5467ZM27.4308 6.24942C27.1705 5.13374 26.4241 4.18646 25.6931 3.23536C25.4711 2.94831 25.3026 3.21048 25.1802 3.3808C24.6194 4.14819 24.051 4.91175 23.7008 5.80736C23.4099 6.55178 23.6376 7.19287 24.1773 7.70765C24.7783 8.27793 25.4998 8.44442 26.2806 8.07699C27.004 7.73827 27.3829 7.15842 27.4308 6.24942Z" fill="#71553D"/>
<path d="M20.1348 4.79869C20.1501 5.38045 19.5683 5.76511 19.0019 5.47231C18.1043 5.0092 17.2354 4.48867 16.3723 3.96241C15.98 3.7232 15.8039 3.35577 16.0814 2.91371C16.3436 2.49652 16.7206 2.41615 17.1436 2.65345C17.999 3.13187 18.8488 3.61795 19.6927 4.11551C19.9434 4.26286 20.1348 4.47719 20.1348 4.80061V4.79869Z" fill="#71553D"/>
<path d="M31.8162 5.58132C31.2994 5.58898 31.0506 5.40335 30.9167 5.09142C30.775 4.76418 30.8516 4.42737 31.1444 4.24748C32.086 3.66955 33.041 3.11266 34.0094 2.58257C34.3137 2.41608 34.6371 2.54239 34.8572 2.81604C35.0754 3.08779 35.1672 3.44182 34.8974 3.68103C33.9481 4.52879 32.7673 4.99956 31.8142 5.58132H31.8162Z" fill="#71553D"/>
<path d="M16.8887 10.182C16.3682 10.1667 16.1347 9.97344 16.0007 9.6596C15.8706 9.35915 15.949 9.04148 16.194 8.88838C17.1586 8.28748 18.1403 7.70955 19.1393 7.16797C19.436 7.00722 19.7594 7.14692 19.9795 7.43015C20.1766 7.68276 20.2494 8.02148 20.0427 8.2205C19.0953 9.12568 17.8724 9.5907 16.8906 10.1839L16.8887 10.182Z" fill="#71553D"/>
<path d="M34.0883 10.1761C33.1123 9.60008 31.9448 9.10444 30.9899 8.26624C30.7621 8.0653 30.8157 7.73998 30.9937 7.4778C31.1927 7.18501 31.5028 7.00895 31.8109 7.15822C32.8596 7.66726 33.8893 8.22414 34.8309 8.91881C35.0663 9.09295 35.1237 9.40106 34.9782 9.69768C34.8251 10.0096 34.584 10.1838 34.0883 10.1761Z" fill="#71553D"/>
</g>
<defs>
<clipPath id="clip0_13_2527">
<rect width="25" height="49" fill="white" transform="translate(13 1)"/>
</clipPath>
</defs>
</svg>
