<svg width="52" height="52" viewBox="0 0 52 52" fill="none" xmlns="http://www.w3.org/2000/svg">
<g clip-path="url(#clip0_13_2381)">
<path d="M35.2493 11.7684C37.5153 11.7034 37.759 11.7975 37.85 12.73C38.0869 15.1494 37.1719 16.6586 35.2717 16.9648C34.9747 17.0127 34.6726 17.0401 34.379 17.2369C36.0184 17.2369 37.6577 17.2386 39.2971 17.2369C40.1571 17.2352 41.0154 17.2318 41.7999 17.6698C42.6307 18.1335 43.2127 18.8042 43.5405 19.7025C43.6195 19.9198 43.6075 20.2141 43.9611 20.2723C45.2056 20.4759 45.6846 21.3673 45.894 22.4795C45.9987 23.0338 46.2081 23.4069 46.8244 23.631C47.6535 23.9321 47.9471 24.6764 47.9745 25.5542C48.0054 26.5774 47.9059 27.551 46.8656 28.0266C46.3403 28.2662 46.2528 28.5622 46.2579 29.0635C46.2785 31.8285 46.2717 34.5953 46.2631 37.3603C46.2631 37.8086 46.2974 38.096 46.821 38.3287C48.1513 38.9224 48.0844 39.9764 47.9059 41.5181C47.796 42.4728 46.948 42.9981 45.803 42.9981C32.5886 43.0015 19.3725 43.0015 6.15805 42.9981C4.76932 42.9981 4.06551 42.2624 4.01058 40.9021C3.96251 39.6821 4.10499 38.6025 5.49201 38.1713C5.80443 38.0738 5.71173 37.8034 5.71345 37.5947C5.72032 34.6586 5.71345 31.7207 5.72375 28.7846C5.72375 28.4612 5.64822 28.2576 5.32721 28.131C4.02431 27.6177 3.94878 26.5175 4.01916 25.3574C4.07753 24.3992 4.55989 23.7354 5.48514 23.477C5.97952 23.3384 5.97781 22.9432 6.04475 22.6181C6.28336 21.458 6.70565 20.4793 8.04116 20.2637C8.35702 20.2124 8.34844 19.9523 8.42053 19.7589C9.06254 18.0616 10.3122 17.2489 12.1044 17.2369C13.9326 17.2249 15.7607 17.2352 17.6164 17.112C17.419 17.0726 17.2233 17.0179 17.0242 16.9939C15.2337 16.7852 14.2467 15.7654 14.1197 13.9859C13.9669 11.8608 14.2072 11.6281 16.3856 11.7856C16.468 11.7907 16.5521 11.7753 16.6997 11.765C16.1865 10.7829 16.08 9.76826 16.1641 8.704C16.2122 8.0983 16.5057 7.83138 17.0619 7.7732C18.0764 7.66712 19.0789 7.72358 19.9578 8.28822C20.3235 8.52263 20.4934 8.44221 20.8076 8.2078C21.35 7.80571 21.9474 7.45837 22.5636 7.18119C23.2932 6.85267 24.0004 6.9964 24.6562 7.47719C25.7617 8.28993 26.1977 8.27624 27.3375 7.46864C28.213 6.84754 29.0816 6.83043 29.945 7.48575C30.4222 7.84678 31.0574 7.93404 31.4522 8.43195C31.641 8.66978 31.8058 8.39431 31.9535 8.30533C32.853 7.76123 33.8349 7.67567 34.8494 7.76465C35.4365 7.81598 35.7695 8.07263 35.8124 8.72624C35.8811 9.76997 35.8141 10.7726 35.2442 11.7667L35.2493 11.7684ZM25.9934 41.7388C31.3132 41.7388 36.6329 41.7388 41.9527 41.7388C43.1818 41.7388 44.4126 41.7388 45.6417 41.7388C46.0193 41.7388 46.3987 41.7319 46.5875 41.3127C47.0716 40.2348 46.536 39.3981 45.355 39.3981C38.0337 39.3981 30.7106 39.4032 23.3893 39.3861C22.8812 39.3861 22.0658 39.6873 22.0366 38.8044C22.0057 37.8342 22.8709 38.1456 23.3962 38.1439C30.2884 38.1251 37.1822 38.1234 44.0744 38.1439C44.7525 38.1456 45.0254 38.0088 45.0134 37.261C44.9688 34.5251 44.9739 31.7875 45.0117 29.0515C45.0203 28.3894 44.8022 28.2559 44.1791 28.2576C32.053 28.2747 19.9252 28.2781 7.79912 28.2525C7.06785 28.2525 6.96485 28.5143 6.97172 29.1371C6.99919 31.7875 7.01464 34.4396 6.96485 37.0899C6.9494 37.8941 7.14338 38.1593 7.99138 38.1508C11.8812 38.1063 15.771 38.1302 19.6609 38.1319C20.1243 38.1319 20.6616 38.1029 20.6582 38.7616C20.6548 39.4067 20.1364 39.3981 19.6609 39.3981C17.3434 39.3964 15.0277 39.3981 12.7103 39.3981C10.5938 39.3981 8.47718 39.3981 6.36061 39.3981C5.95377 39.3981 5.54866 39.3861 5.37356 39.8755C4.95128 41.0527 5.43193 41.7388 6.68676 41.7388C13.1223 41.7388 19.5579 41.7388 25.9917 41.7388H25.9934ZM9.62902 20.2449C10.2951 20.2449 10.8358 20.2449 11.3748 20.2449C12.3481 20.2449 13.3197 20.2397 14.293 20.25C14.7479 20.2551 15.1033 20.4553 15.0878 20.9464C15.0758 21.3844 14.7479 21.5743 14.3222 21.5795C14.1214 21.5812 13.9223 21.5812 13.7214 21.5812C11.9482 21.5812 10.1749 21.5726 8.40165 21.588C7.75449 21.5932 7.20861 22.2793 7.31332 23.0304C7.39744 23.6396 7.94847 23.3453 8.27462 23.347C16.456 23.3641 24.6373 23.3607 32.8169 23.3624C33.1019 23.3624 33.392 23.3521 33.6735 23.3915C34.0615 23.4445 34.3052 23.6686 34.2692 24.0861C34.2365 24.4506 34.0082 24.6456 33.646 24.6645C33.3885 24.6781 33.1311 24.6713 32.8736 24.6713C24.0914 24.6713 15.311 24.6713 6.52884 24.6713C5.52462 24.6713 5.34095 24.8475 5.33065 25.7783C5.31863 26.793 5.48857 26.9846 6.51682 26.9846C19.5029 26.988 32.489 26.988 45.4769 26.9846C46.5 26.9846 46.6716 26.7896 46.6596 25.7749C46.6476 24.8475 46.4639 24.673 45.4563 24.6713C42.5964 24.6679 39.7348 24.6713 36.875 24.6713C36.6741 24.6713 36.4733 24.6781 36.2742 24.6662C35.8793 24.6405 35.6253 24.4386 35.6133 24.0297C35.5995 23.6002 35.8896 23.4291 36.2656 23.3829C36.4922 23.3555 36.7222 23.3607 36.9505 23.3607C39.1821 23.3607 41.4137 23.3607 43.6435 23.3607C44.8246 23.3607 44.9104 23.2032 44.4469 22.1082C44.1928 21.5076 43.7036 21.5829 43.223 21.5829C34.7275 21.5829 26.232 21.5829 17.7365 21.5795C17.1907 21.5795 16.4148 21.742 16.4319 20.9036C16.4474 20.0806 17.2233 20.2517 17.7674 20.2517C25.6055 20.2449 33.4435 20.2466 41.2798 20.2466C41.6059 20.2466 41.9321 20.2466 42.2977 20.2466C41.8085 18.9856 41.0944 18.5219 39.7331 18.5202C34.1559 18.5167 28.5769 18.5184 22.9997 18.5184C19.3948 18.5184 15.7916 18.5202 12.1868 18.5184C11.0195 18.5184 10.1646 18.9821 9.63246 20.2466L9.62902 20.2449ZM27.9658 14.4787C27.9795 14.0732 26.5324 12.843 26.0501 12.896C25.372 12.9713 24.8639 13.4966 24.2957 13.82C23.5884 14.2238 24.4073 15.0913 24.0313 15.7363C23.8717 16.0118 25.4853 17.2608 25.9711 17.1873C26.644 17.0863 27.1727 16.5918 27.7237 16.2513C28.3692 15.8527 27.5092 14.9972 27.9641 14.4787H27.9658ZM25.3033 9.94449C25.3308 9.51845 23.8065 8.23176 23.3516 8.32244C22.6907 8.45419 22.1757 8.94697 21.6092 9.28062C20.9346 9.67757 21.7809 10.4886 21.386 11.1011C21.2213 11.3578 22.8829 12.73 23.3292 12.6428C23.9918 12.5145 24.4982 12.0097 25.0699 11.6829C25.7514 11.2945 24.809 10.4407 25.3033 9.94278V9.94449ZM26.6749 11.0584C26.6646 11.4382 28.1598 12.6907 28.5872 12.6394C29.267 12.5572 29.7459 12.008 30.3347 11.7034C31.0694 11.3253 30.1957 10.4492 30.5956 9.8213C30.745 9.58689 29.1502 8.27624 28.6936 8.32586C28.0121 8.39944 27.5178 8.9367 26.9427 9.24982C26.2114 9.64678 27.1744 10.5416 26.6766 11.055L26.6749 11.0584ZM22.6735 14.53C22.7198 14.104 21.3191 12.8618 20.7595 12.8994C20.078 12.9473 19.6008 13.5137 19.012 13.8097C18.3219 14.157 19.0412 14.9492 18.7837 15.5396C18.6051 15.9485 20.0282 17.2198 20.6445 17.1873C21.3345 17.1496 21.81 16.5781 22.3988 16.2821C23.1232 15.9194 22.1946 15.0451 22.6735 14.53ZM33.2358 14.4873C33.2495 14.027 31.7561 12.7951 31.2737 12.8977C30.6214 13.038 30.1098 13.5291 29.5502 13.8627C28.891 14.2563 29.6738 15.0605 29.3253 15.685C29.1365 16.0221 30.7106 17.2677 31.2823 17.1873C31.9517 17.0932 32.4736 16.5901 33.0178 16.2462C33.6546 15.8441 32.8118 15.0057 33.2358 14.4856V14.4873ZM31.9723 11.0207C32.0788 11.1799 31.7629 11.6042 32.2298 11.6453C32.8976 11.7034 33.5654 11.6042 34.0494 11.0875C34.5043 10.6015 34.5816 9.96845 34.549 9.33024C34.5335 9.03936 34.288 9.08898 34.0958 9.07358C32.7929 8.97605 32.0256 9.65704 31.9706 11.0224L31.9723 11.0207ZM18.085 9.07872C17.8498 9.12834 17.4842 8.90419 17.407 9.43119C17.225 10.6922 18.4421 11.8951 19.6849 11.6675C19.9475 11.6196 19.9904 11.4964 20.0179 11.274C20.1844 9.9924 19.4411 9.12834 18.0833 9.07872H18.085ZM17.3984 14.1947C17.34 13.95 17.7074 13.5736 17.225 13.3477C16.7495 13.1253 16.2551 13.0175 15.7316 13.0397C15.5462 13.0483 15.4226 13.0945 15.3642 13.3067C15.2063 13.8764 15.6835 15.1186 16.2122 15.4249C16.5384 15.6148 16.9658 15.8338 17.2542 15.6833C17.5735 15.5156 17.4928 15.0399 17.4241 14.6721C17.3984 14.5335 17.4087 14.388 17.4001 14.193L17.3984 14.1947ZM34.5009 14.9356C34.4786 15.4643 34.6005 15.7089 34.8871 15.7175C35.8296 15.7449 36.566 14.8432 36.6158 13.6403C36.6329 13.2194 36.5419 13.0261 36.0613 13.0278C34.8477 13.0312 34.5644 13.3546 34.5009 14.9356Z" fill="#71553D"/>
<path d="M42.1292 32.7716C42.0383 33.2559 41.707 33.4253 41.2572 33.3876C40.816 33.35 40.5585 33.4424 40.5757 33.9659C40.5877 34.3407 40.2873 34.5306 39.9457 34.5186C39.6007 34.5066 39.3398 34.2859 39.3518 33.9163C39.3672 33.4201 39.0891 33.3859 38.6995 33.3876C36.4404 33.3979 34.1831 33.3962 31.924 33.3876C31.5515 33.3876 31.258 33.3876 31.2872 33.9061C31.3078 34.262 31.0365 34.4981 30.6932 34.5203C30.2967 34.5443 30.0203 34.2842 30.0083 33.9026C29.9928 33.4099 29.7319 33.3842 29.3457 33.3859C27.1158 33.3979 24.8859 33.3945 22.6561 33.3893C22.2973 33.3893 21.9832 33.3551 21.9763 33.8804C21.9712 34.2568 21.7085 34.5357 21.3085 34.5186C20.9206 34.5032 20.67 34.2431 20.6837 33.8428C20.6974 33.4407 20.5017 33.3842 20.1636 33.3859C17.8479 33.3962 15.5322 33.391 13.2165 33.3893C12.9195 33.3893 12.6345 33.3722 12.6414 33.8051C12.6483 34.2414 12.4183 34.5357 11.9719 34.5135C11.5823 34.4929 11.3591 34.2226 11.3831 33.8137C11.414 33.2952 11.0433 33.391 10.7446 33.391C10.2639 33.391 9.85708 33.2644 9.86738 32.7015C9.87596 32.1831 10.2845 32.0547 10.7137 32.0667C11.148 32.0804 11.4192 32.0051 11.4037 31.4798C11.3934 31.1513 11.6441 30.9751 11.9719 30.9631C12.3359 30.9494 12.6157 31.112 12.6174 31.4901C12.6174 32.0188 12.9092 32.0667 13.3332 32.065C15.5631 32.053 17.7929 32.0564 20.0228 32.0616C20.3816 32.0616 20.7026 32.0907 20.6906 31.5602C20.682 31.2129 20.924 30.9853 21.2931 30.9631C21.6673 30.9391 21.9368 31.1513 21.9523 31.4935C21.978 32.0872 22.3419 32.065 22.7608 32.0633C24.934 32.0547 27.1055 32.053 29.2787 32.065C29.6873 32.0667 29.9928 32.0547 30.0186 31.5158C30.034 31.1804 30.2795 30.9494 30.6606 30.9614C31.0314 30.9734 31.2889 31.1924 31.282 31.5363C31.2717 32.0479 31.555 32.0633 31.9309 32.0616C34.1608 32.0547 36.3906 32.0547 38.6205 32.0616C39.0205 32.0616 39.3604 32.0667 39.3552 31.5123C39.3518 31.1359 39.6178 30.9545 39.9818 30.9614C40.3491 30.9682 40.598 31.1701 40.5826 31.5414C40.562 32.0547 40.8658 32.0667 41.24 32.0633C41.7104 32.0599 42.0932 32.1985 42.1275 32.7665L42.1292 32.7716Z" fill="#71553D"/>
<path d="M26.6917 14.9547C26.6677 15.4817 26.4188 15.7452 25.9982 15.7435C25.5759 15.7435 25.3064 15.4732 25.3167 15.0368C25.3253 14.6484 25.5622 14.4106 25.9621 14.3867C26.417 14.3593 26.6179 14.633 26.6934 14.9547H26.6917Z" fill="#71553D"/>
<path d="M24.0587 10.4685C23.9832 10.8706 23.7961 11.1597 23.3394 11.1529C22.9309 11.146 22.7009 10.9082 22.682 10.5198C22.6614 10.0937 22.8811 9.80972 23.3309 9.7909C23.7823 9.77208 23.9797 10.0647 24.0604 10.4685H24.0587Z" fill="#71553D"/>
<path d="M29.3215 10.4632C29.2786 10.8893 29.0829 11.1545 28.6246 11.1562C28.2057 11.1562 27.9774 10.8961 27.9534 10.53C27.9259 10.1193 28.1576 9.81647 28.604 9.79422C29.0537 9.77198 29.2648 10.0475 29.3232 10.4632H29.3215Z" fill="#71553D"/>
<path d="M20.7301 14.3779C21.1575 14.4275 21.391 14.662 21.3652 15.1085C21.3412 15.5141 21.082 15.7416 20.7043 15.745C20.2803 15.7485 20.0005 15.4815 20.0039 15.0538C20.0074 14.626 20.282 14.3968 20.7283 14.3796L20.7301 14.3779Z" fill="#71553D"/>
<path d="M31.9944 15.0796C31.9086 15.5057 31.6631 15.7811 31.2374 15.7435C30.822 15.7058 30.5731 15.4287 30.6143 14.9838C30.6521 14.5817 30.8993 14.3781 31.2992 14.3849C31.7507 14.3935 31.9429 14.6758 31.9944 15.0796Z" fill="#71553D"/>
</g>
<defs>
<clipPath id="clip0_13_2381">
<rect width="44" height="36" fill="white" transform="translate(4 7)"/>
</clipPath>
</defs>
</svg>
