<svg width="52" height="52" viewBox="0 0 52 52" fill="none" xmlns="http://www.w3.org/2000/svg">
<g clip-path="url(#clip0_13_2671)">
<path d="M25.9913 44.9324C19.1658 44.9324 12.3403 44.9486 5.51667 44.9127C4.62218 44.9073 4.30426 45.1138 4.35455 46.0512C4.45154 47.8703 4.14799 47.6242 5.93698 47.6278C11.7745 47.6386 17.6121 47.6314 23.4479 47.6314C23.6868 47.6314 23.9274 47.6278 24.1663 47.635C24.6495 47.6512 25.1183 47.7535 25.086 48.3587C25.0572 48.8813 24.6531 48.9998 24.1807 48.9998C17.6857 48.9944 11.189 48.9998 4.69402 48.9908C3.63069 48.9908 3.03795 48.3749 3.01281 47.3118C2.99664 46.624 2.99484 45.9344 3.01281 45.2467C3.03975 44.2321 3.63069 43.6341 4.63295 43.6018C5.20055 43.582 5.77352 43.564 6.33752 43.6053C6.90511 43.6484 7.07934 43.4132 7.04162 42.8817C7.00929 42.4345 7.02366 41.9838 7.03983 41.5348C7.08653 40.1647 7.72956 39.4895 9.118 39.5272C9.87778 39.547 10.0538 39.3189 10.0502 38.5808C10.0215 32.0569 10.0053 25.5329 10.0412 19.0089C10.0807 11.5655 15.0005 5.31452 22.1959 3.48106C31.4606 1.11964 40.8725 7.71903 41.8443 17.2419C41.9323 18.1075 41.9718 18.9712 41.9718 19.8386C41.9718 26.0626 41.9826 32.2885 41.9556 38.5126C41.952 39.2471 42.0544 39.5667 42.9094 39.5308C44.2835 39.4733 44.9175 40.1737 44.966 41.5564C45.0139 42.9056 45.7037 43.5844 47.0352 43.5928C48.456 43.6018 48.9877 44.1279 48.9948 45.5358C48.9984 46.1338 49.0092 46.7336 48.9912 47.3315C48.9625 48.3425 48.3698 48.9836 47.3765 48.9854C40.851 48.998 34.3255 48.9908 27.8 48.9944C27.3258 48.9944 26.9378 48.8579 26.9181 48.33C26.8983 47.7787 27.3168 47.653 27.7731 47.6332C28.0425 47.6207 28.3119 47.626 28.5813 47.626C34.568 47.626 40.5546 47.6099 46.5413 47.644C47.3909 47.6494 47.689 47.4411 47.6495 46.5576C47.5633 44.69 47.8615 44.9324 46.0168 44.9306C39.3422 44.9216 32.6658 44.927 25.9913 44.927V44.9324ZM25.9679 39.5056C29.6483 39.5056 33.3286 39.4859 37.009 39.5236C37.7328 39.5308 37.8945 39.3099 37.8909 38.6203C37.8658 32.0694 37.8963 25.5185 37.8693 18.9676C37.8424 12.4975 32.9424 7.41196 26.4888 7.10129C19.8717 6.78344 14.1904 12.0917 14.1455 18.7162C14.1006 25.3874 14.1419 32.0569 14.1167 38.7281C14.115 39.3692 14.3107 39.5236 14.9268 39.52C18.6072 39.4931 22.2875 39.5074 25.9679 39.5074V39.5056ZM40.569 28.275C40.569 25.2833 40.5726 22.2916 40.5672 19.2998C40.5672 18.6426 40.5887 17.9764 40.5025 17.3281C39.3566 8.73543 31.7857 3.17039 23.2647 4.63932C16.9188 5.73293 11.5716 11.6823 11.4764 17.9889C11.3722 24.9277 11.4476 31.8701 11.4261 38.8107C11.4243 39.362 11.5823 39.5128 12.132 39.5254C12.9097 39.5434 12.7247 39.0298 12.7247 38.6221C12.7301 32.0694 12.6888 25.5185 12.7391 18.9676C12.8073 9.82186 21.6876 3.49901 30.2859 6.42609C35.669 8.25776 39.2506 13.2733 39.2722 19.0915C39.2973 25.6137 39.2775 32.1359 39.2793 38.6581C39.2793 39.0926 39.1554 39.5344 39.9098 39.5344C40.6229 39.5344 40.5744 39.1591 40.5744 38.6886C40.569 35.2174 40.5708 31.748 40.5708 28.2768L40.569 28.275ZM25.9122 43.5946H42.0652C43.6063 43.5946 43.5524 43.5928 43.6225 42.043C43.6638 41.1326 43.3854 40.8812 42.4693 40.8848C31.6995 40.9153 20.9314 40.9009 10.1616 40.9081C8.15166 40.9081 8.45521 40.6406 8.38336 42.668C8.35822 43.4042 8.54861 43.6179 9.30839 43.6143C14.8424 43.5802 20.3764 43.5964 25.9104 43.5964L25.9122 43.5946Z" fill="#71553D"/>
<path d="M25.1108 25.1975C25.1108 26.6323 25.1557 28.0707 25.0928 29.5037C25.0569 30.3208 25.5616 30.1502 26.016 30.1717C26.5172 30.1951 26.959 30.2381 26.9069 29.4714C26.8423 28.5178 26.8962 27.5589 26.8908 26.6017C26.889 26.1546 27.0435 25.8278 27.5356 25.8044C28.0403 25.7811 28.2235 26.1169 28.2271 26.5533C28.2361 27.7798 28.2289 29.0063 28.22 30.231C28.22 30.3782 28.1876 30.5309 28.1373 30.6691C27.8284 31.5077 26.6986 31.8238 25.0138 31.5544C24.2253 31.4287 23.778 30.8918 23.7708 29.958C23.7547 27.3254 23.7277 24.6929 23.7834 22.0621C23.8014 21.2109 23.5966 20.8966 22.7057 20.9739C21.725 21.0583 20.7317 21.008 19.7456 20.9882C18.8134 20.9685 18.2907 20.4675 18.2817 19.5462C18.2584 17.2549 17.9189 16.3552 21.1394 16.4953C21.9711 16.5312 23.0847 16.779 23.5715 16.357C24.1372 15.8649 23.7475 14.7228 23.7547 13.8645C23.778 11.1313 23.9307 10.9679 26.6573 11.0559C27.7583 11.0918 28.211 11.5354 28.2325 12.6649C28.2541 13.7406 28.2541 14.818 28.2325 15.8955C28.2235 16.3588 28.3834 16.5258 28.854 16.5132C29.9299 16.4863 31.0076 16.4935 32.0853 16.5096C33.2115 16.5258 33.7073 17.0412 33.7252 18.1689C33.7683 20.8823 33.657 20.9954 30.943 20.9954C30.3143 20.9954 29.682 21.0457 29.0588 20.9828C28.3439 20.9092 28.1733 21.2181 28.2289 21.852C28.2684 22.2973 28.2379 22.7481 28.2253 23.197C28.2128 23.6441 27.999 23.9817 27.532 23.962C27.0758 23.944 26.8782 23.6172 26.8872 23.1557C26.8998 22.3781 26.9016 21.6006 26.8872 20.823C26.871 20.0347 27.2536 19.663 28.0278 19.6612C29.1953 19.6594 30.3628 19.6199 31.5267 19.6719C32.2272 19.7043 32.3871 19.4313 32.3727 18.7884C32.3601 18.1976 32.3152 17.8403 31.5644 17.8888C30.4921 17.957 29.4108 17.9103 28.3349 17.9049C27.1836 17.8977 26.8962 17.614 26.8926 16.4881C26.8872 15.3208 26.8567 14.1536 26.9034 12.9899C26.9339 12.2196 26.4256 12.383 26.0107 12.392C25.6101 12.4009 25.0749 12.1837 25.1 12.9684C25.1395 14.1931 25.118 15.4214 25.1072 16.6461C25.0982 17.5512 24.7749 17.8852 23.866 17.8995C22.6698 17.9193 21.4717 17.9408 20.2773 17.8923C19.5337 17.8618 19.6468 18.3287 19.6468 18.7687C19.6468 19.2104 19.5408 19.6881 20.2755 19.6648C21.4412 19.6288 22.6087 19.6468 23.7762 19.6594C24.8629 19.6719 25.1054 19.9144 25.1108 20.981C25.118 22.3871 25.1126 23.7932 25.1126 25.1975H25.1108Z" fill="#71553D"/>
<path d="M26.0931 33.3876C27.1367 33.3876 28.182 33.393 29.2256 33.3858C29.7142 33.3822 30.1866 33.481 30.2099 34.0485C30.2369 34.6788 29.7483 34.7937 29.2202 34.7919C27.072 34.7865 24.9238 34.7865 22.7774 34.7919C22.287 34.7919 21.8164 34.6985 21.7931 34.1311C21.7661 33.5026 22.2547 33.384 22.7827 33.3858C23.8856 33.3912 24.9902 33.3858 26.0949 33.3858L26.0931 33.3876Z" fill="#71553D"/>
<path d="M25.9637 37.4715C24.8896 37.4715 23.8155 37.4715 22.7432 37.4715C22.2492 37.4715 21.7984 37.3404 21.793 36.7694C21.7876 36.1947 22.2295 36.069 22.7306 36.0708C24.9076 36.0762 27.0845 36.078 29.2633 36.0708C29.7626 36.0708 30.2099 36.1857 30.2135 36.7586C30.2189 37.3278 29.7716 37.4715 29.2741 37.4715C28.1712 37.4715 27.0666 37.4715 25.9637 37.4715Z" fill="#71553D"/>
</g>
<defs>
<clipPath id="clip0_13_2671">
<rect width="46" height="46" fill="white" transform="translate(3 3)"/>
</clipPath>
</defs>
</svg>
