<svg width="62" height="62" viewBox="0 0 62 62" fill="none" xmlns="http://www.w3.org/2000/svg">
<path d="M36.6192 29.8854C39.4455 31.5603 42.0526 33.1201 44.6771 34.6532C45.7615 35.2883 46.468 36.1539 46.4306 37.4744C46.3671 39.681 44.1003 40.904 42.0959 39.7519C38.8312 37.8791 35.5809 35.9766 32.3883 33.9827C31.3299 33.3209 30.557 33.3889 29.5332 34.027C26.4588 35.9382 23.321 37.7432 20.1977 39.5717C18.4125 40.6175 16.7801 40.3044 15.9437 38.7948C15.1016 37.2735 15.6438 35.6606 17.3886 34.6148C19.9814 33.061 22.5885 31.5308 25.3773 29.8824C22.502 28.1838 19.8054 26.6004 17.1233 24.9905C16.6215 24.6891 16.4456 24.9521 16.2379 25.3272C15.9063 25.9269 15.5919 26.5354 15.217 27.1056C14.0518 28.8721 11.86 28.8455 10.8794 26.9904C10.5334 26.3375 10.1555 26.0657 9.48069 25.9505C6.78703 25.4897 4.09914 24.9757 1.41125 24.4824C-0.0855514 24.2076 -0.342228 23.732 0.407613 22.3997C3.38967 17.0706 6.38904 11.7533 9.39994 6.44186C10.0979 5.21001 10.6833 5.17457 11.6004 6.27348C13.3481 8.36791 15.0785 10.4771 16.7916 12.6011C17.2675 13.1919 17.6915 13.5671 18.5653 13.5287C20.4745 13.446 21.5993 15.2863 20.8667 17.0765C20.8292 17.1681 20.7687 17.2478 20.7341 17.3394C20.4284 18.1843 19.3209 18.9139 19.716 19.744C20.0304 20.4117 21.0975 20.713 21.8444 21.1531C24.541 22.7542 27.2606 24.3199 29.934 25.9594C30.6752 26.4143 31.2174 26.4823 31.999 26.0008C35.2089 24.0304 38.4592 22.1339 41.7181 20.2492C42.4131 19.8474 42.6064 19.4988 42.093 18.7987C41.721 18.2936 41.4182 17.7175 41.1615 17.1385C40.3713 15.3513 41.4614 13.4725 43.3562 13.5257C44.2647 13.5523 44.7405 13.189 45.2539 12.545C46.9237 10.4505 48.6339 8.38564 50.347 6.32665C51.3247 5.14798 51.8784 5.18343 52.6283 6.50094C55.619 11.768 58.5953 17.0411 61.56 22.3229C62.3531 23.7379 62.1138 24.1958 60.516 24.4883C57.8253 24.9846 55.1374 25.4867 52.4437 25.9564C51.8265 26.0628 51.4689 26.3168 51.1459 26.9195C50.0875 28.8869 47.9504 28.9135 46.7305 27.0406C45.7461 25.5281 44.4829 25.2278 42.9409 26.1396C40.9106 27.3389 38.8831 28.5442 36.6221 29.8824L36.6192 29.8854ZM51.3074 8.20839C49.5482 10.3412 47.8581 12.4091 46.1393 14.4533C45.8018 14.8551 45.773 15.1652 46.0326 15.6172C47.5582 18.2818 49.0665 20.9582 50.5662 23.6375C50.7767 24.0156 51.0248 24.2608 51.4776 24.1751C54.1251 23.6848 56.7726 23.1973 59.5499 22.6833C58.9327 21.5815 58.3963 20.71 57.9435 19.7972C57.5974 19.1 57.1994 19.0616 56.5592 19.3836C55.7026 19.8179 54.8028 20.1606 53.9145 20.5239C53.3233 20.7661 52.735 20.778 52.4466 20.0926C52.1524 19.3955 52.5793 18.9937 53.1762 18.7397C54.0588 18.3615 54.947 17.9952 55.818 17.5935C56.0862 17.4694 56.5505 17.3631 56.2708 16.8786C55.6651 15.8299 55.2239 14.5271 54.3356 13.8684C53.8482 13.508 52.934 14.793 52.1784 15.2863C52.0169 15.3927 51.8611 15.5079 51.7112 15.629C51.1546 16.0721 50.5633 16.5093 49.9952 15.7088C49.4126 14.8905 50.0932 14.471 50.6124 14.0427C52.5716 12.4278 52.8042 10.484 51.3103 8.21135L51.3074 8.20839ZM10.6314 8.14045C10.02 9.23936 9.5701 10.1669 9.00771 11.0148C8.56358 11.6853 8.76834 12.0516 9.32784 12.4563C10.1498 13.0531 10.9458 13.6882 11.7331 14.3351C12.1888 14.7073 12.431 15.177 11.9955 15.7324C11.5918 16.2494 11.113 16.2582 10.6083 15.8742C9.91618 15.3454 9.1721 14.8728 8.54339 14.2731C7.79355 13.5612 7.45035 13.7473 6.97449 14.6069C5.49211 17.2803 5.45462 17.2597 8.20596 18.4738C8.29537 18.5122 8.38765 18.5388 8.47417 18.5801C9.0827 18.8667 9.88157 19.1119 9.56144 20.0099C9.21248 20.9847 8.46264 20.6657 7.75029 20.3821C5.36041 19.4289 3.62905 20.2009 2.5562 22.6981C5.16622 23.1885 7.75317 23.667 10.3344 24.1692C10.9948 24.2963 11.2832 23.927 11.5629 23.4219C12.9905 20.8607 14.4325 18.3084 15.8774 15.759C16.1312 15.31 16.2898 14.9584 15.8659 14.4622C14.1326 12.4268 12.4454 10.3442 10.6285 8.14341L10.6314 8.14045ZM18.473 38.2867C18.8104 38.1095 19.2056 37.9293 19.5747 37.7077C27.4596 33.0462 35.3416 28.3847 43.2178 23.7114C43.7802 23.3775 44.6482 23.2476 43.9907 22.1339C43.362 21.0763 42.8717 21.8207 42.3785 22.1102C34.485 26.754 26.603 31.4156 18.7182 36.0771C18.3865 36.2721 18.0577 36.4788 17.7607 36.7211C17.478 36.9515 17.3627 37.2853 17.5155 37.6457C17.6799 38.0386 17.9943 38.2424 18.4701 38.2867H18.473ZM33.0257 32.1423C36.2789 34.0683 39.5061 35.9737 42.7275 37.8879C43.2956 38.2247 43.8955 38.5733 44.3512 37.8288C44.8876 36.9574 44.1551 36.6206 43.5725 36.275C41.0865 34.798 38.5486 33.4066 36.1347 31.8203C34.9551 31.0434 34.0697 31.0758 33.0257 32.1423ZM28.9246 27.6107C25.6657 25.6758 22.4847 23.8 19.318 21.8976C18.7297 21.5431 18.3894 21.4692 17.9741 22.1959C17.5299 22.9728 17.8991 23.218 18.4442 23.54C20.9734 25.023 23.5344 26.4586 26.0032 28.042C27.0962 28.7421 27.9181 28.6831 28.9246 27.6107ZM19.1479 16.1667C19.1652 15.762 19.0296 15.5493 18.7874 15.4754C18.2163 15.2982 18.0491 15.7974 17.8443 16.1578C16.186 19.0764 14.5335 22.0009 12.9011 24.9314C12.6617 25.3597 12.1369 25.9299 12.8406 26.308C13.5241 26.6743 13.7029 25.9033 13.9394 25.4867C15.5573 22.6567 17.1493 19.812 18.7441 16.9702C18.9085 16.6777 19.0469 16.3705 19.145 16.1696L19.1479 16.1667ZM43.3591 15.4045C43.2553 15.4665 43.0534 15.5256 42.9524 15.6645C42.7131 15.9865 42.8688 16.2996 43.0447 16.6098C44.7694 19.6584 46.4853 22.7099 48.2071 25.7615C48.4205 26.1425 48.6455 26.627 49.1761 26.305C49.6895 25.9948 49.4357 25.5576 49.2136 25.1618C47.4919 22.1132 45.7701 19.0616 44.057 16.0071C43.9071 15.7413 43.7427 15.5197 43.362 15.4045H43.3591Z" fill="#71553D"/>
<path d="M5.92509 52.9862C5.92509 50.9686 5.91356 48.951 5.92798 46.9333C5.9424 44.9157 6.77876 44.0383 8.71393 44.0029C9.72333 43.9852 10.7327 44.0058 11.7421 43.997C12.4401 43.9911 13.2216 44.0797 13.5792 44.6587C14.2368 45.7281 14.9953 45.4622 15.9153 45.2347C17.3804 44.8714 18.7128 44.2156 20.0279 43.5155C22.2745 42.3191 24.5413 42.0916 26.9697 42.9719C29.1788 43.7725 31.4514 44.3958 33.7038 45.0752C34.7305 45.3854 35.6275 45.9526 35.9187 46.9954C36.2908 48.3276 37.0695 47.9938 37.8626 47.6925C40.7379 46.5995 43.5988 45.474 46.4684 44.3692C48.1729 43.7134 49.8716 43.0369 51.5904 42.4284C53.5602 41.7283 55.1954 42.3693 55.9712 44.0767C56.7268 45.7369 56.2683 47.1106 54.5119 48.3099C49.8802 51.4708 45.2687 54.673 40.5879 57.757C37.2569 59.9519 33.675 61.4408 29.5797 60.7643C27.31 60.3891 25.0835 59.7835 22.785 59.5354C20.2903 59.2636 17.7957 59.364 15.301 59.2902C14.6982 59.2725 14.3781 59.3936 14.2541 60.1262C14.032 61.4319 13.1005 61.9754 11.8546 61.9873C10.75 61.9961 9.64258 62.0109 8.538 61.9873C6.84798 61.9489 5.9597 61.0656 5.93375 59.3404C5.90202 57.2253 5.92509 55.1072 5.92509 52.9921V52.9862ZM14.3522 52.3275C14.3522 52.3275 14.3349 52.3275 14.3262 52.3275C14.3262 53.5091 14.4098 54.6966 14.3031 55.8664C14.1907 57.0953 14.6925 57.3257 15.774 57.3021C20.2009 57.2105 24.5933 57.5473 28.9106 58.658C31.5235 59.3286 34.047 58.9416 36.4811 57.7895C38.2721 56.9417 39.9621 55.9226 41.6002 54.8C45.2687 52.2861 48.9573 49.7988 52.5941 47.2376C53.367 46.694 54.8955 46.4134 54.212 44.9275C53.4852 43.3441 52.2422 44.2658 51.2126 44.6232C46.2319 46.3573 41.4906 48.7855 36.334 50.0144C36.112 50.0676 35.8466 50.1769 35.714 50.3512C34.396 52.0764 32.7002 51.9759 30.8804 51.4915C28.2588 50.7943 25.6257 50.2567 22.9811 51.4087C22.3466 51.6835 21.7987 51.5594 21.5593 50.8918C21.3026 50.1798 21.7698 49.7929 22.3726 49.5831C24.1549 48.9687 25.9516 48.4576 27.8666 48.883C29.3634 49.2168 30.8631 49.5506 32.3685 49.8401C33.2655 50.0115 34.0557 49.7486 34.3095 48.7708C34.5661 47.7782 33.9865 47.2021 33.104 46.9215C31.6418 46.4548 30.1277 46.1121 28.7203 45.5154C25.3575 44.0915 22.1361 43.9852 19.0329 46.183C18.7618 46.375 18.41 46.44 18.1158 46.6025C16.9276 47.2583 15.0097 46.7354 14.4617 48.0943C13.9715 49.3114 14.3579 50.9036 14.3579 52.3304L14.3522 52.3275ZM12.4891 53.0276C12.4891 51.8459 12.4891 50.6673 12.4891 49.4856C12.4891 45.8787 12.4891 45.9171 8.97637 45.991C8.04484 46.0117 7.86603 46.3632 7.87468 47.211C7.91217 50.3571 7.8891 53.5061 7.8891 56.6552C7.8891 60.2828 7.8891 60.2591 11.5085 60.0051C12.2613 59.9519 12.5064 59.6742 12.4949 58.9328C12.466 56.9653 12.4833 54.9979 12.4862 53.0305L12.4891 53.0276Z" fill="#71553D"/>
<path d="M31.2323 16.5152C30.4796 16.5477 30.1883 16.2494 30.0729 15.6822C29.9287 14.9614 29.7874 14.2376 29.5624 13.5405C28.9568 11.6617 27.9878 10.0665 26.0988 9.27775C25.6748 9.10051 25.3143 8.8435 25.2884 8.34426C25.2653 7.85093 25.5652 7.5319 25.9978 7.33988C28.4031 6.26755 29.4067 4.17903 29.8912 1.70942C29.9576 1.37266 30.0412 1.03885 30.1191 0.705041C30.22 0.264885 30.5199 0.0256054 30.9352 0.0019728C31.4169 -0.0246138 31.7658 0.21762 31.8783 0.722766C31.985 1.20132 32.0485 1.6917 32.1696 2.16435C32.7377 4.37695 33.7241 6.26165 35.8698 7.31034C36.983 7.85684 37.0464 8.70466 35.9967 9.19799C33.551 10.3501 32.5733 12.4711 32.0629 14.9821C31.936 15.5995 32.0225 16.4443 31.2323 16.5182V16.5152ZM31.0679 11.6085C31.688 10.4446 32.3542 9.44022 33.2713 8.64558C33.5568 8.39744 33.5654 8.17588 33.2713 7.93956C32.3023 7.15082 31.7428 6.00169 30.9179 4.90573C30.295 6.28232 28.8357 7.17445 28.6972 8.2261C28.5675 9.23344 30.2777 10.1078 30.7853 11.3397C30.8026 11.381 30.8545 11.4076 31.0708 11.6115L31.0679 11.6085Z" fill="#71553D"/>
<path d="M60.5243 34.4701C60.507 34.9664 60.2474 35.2559 59.809 35.4597C58.22 36.2012 57.548 37.6132 57.1875 39.2645C57.049 39.8967 57.0981 40.7563 56.1637 40.8036C55.0995 40.8568 55.1802 39.9026 55.0274 39.2409C54.6438 37.5984 53.9603 36.2337 52.3943 35.4272C51.431 34.9309 51.4108 34.0713 52.3625 33.5898C54.0497 32.736 54.7159 31.2383 55.0822 29.5043C55.2148 28.8751 55.2783 28.1543 56.1146 28.1572C56.951 28.1602 57.0289 28.9017 57.1471 29.5191C57.4816 31.2826 58.1738 32.7863 59.8783 33.572C60.2705 33.7522 60.4781 34.0388 60.5214 34.4671L60.5243 34.4701ZM56.1319 32.6327C55.6561 33.2176 55.3158 33.6843 54.9207 34.0979C54.5082 34.5292 54.7793 34.8157 55.0879 35.052C55.5234 35.3888 55.5869 36.2396 56.2386 36.1716C56.9049 36.1037 57.398 34.3224 56.9798 33.7729C56.7203 33.4302 56.4665 33.0817 56.1319 32.6297V32.6327Z" fill="#71553D"/>
<path d="M11.1617 34.4494C11.1762 34.8866 11.006 35.2234 10.6109 35.3918C8.86607 36.1333 8.18545 37.6398 7.81341 39.3886C7.67498 40.0356 7.65767 40.8627 6.70018 40.8125C5.85229 40.7682 5.8321 40.009 5.70809 39.4064C5.3447 37.6516 4.63235 36.2071 2.93656 35.3741C2.07424 34.9516 2.10885 34.0536 3.00289 33.5957C4.67561 32.739 5.37643 31.2768 5.72251 29.5191C5.84364 28.9017 5.91862 28.1632 6.75498 28.1573C7.59134 28.1514 7.66344 28.8781 7.79034 29.5043C8.15372 31.3063 8.85454 32.8601 10.6455 33.6312C10.9829 33.7759 11.1444 34.0743 11.1617 34.4494ZM6.72037 36.408C7.24526 35.7226 8.0326 35.1466 8.06432 34.5292C8.09604 33.9 7.38081 32.9665 6.74633 32.8897C6.3541 32.8424 5.46295 33.8675 5.4716 34.3992C5.48025 35.0314 6.21567 35.6517 6.72326 36.408H6.72037Z" fill="#71553D"/>
</svg>
