<svg width="95" height="43" viewBox="0 0 95 43" fill="none" xmlns="http://www.w3.org/2000/svg">
<path d="M82.0633 28.2778L78.0405 29.3935C79.589 29.0123 81.1796 28.5427 82.0633 28.2778Z" fill="url(#paint0_linear_24_4096)"/>
<path d="M52.3134 39.7518L48.8672 38.2749C49.6793 38.6401 50.9585 39.198 52.3134 39.7518Z" fill="url(#paint1_linear_24_4096)"/>
<path d="M56.9971 41.2124L54.607 40.7308C53.8118 40.5703 53.0123 40.4097 52.2254 40.189L47.8071 38.7603C47.9544 39.1616 48.2153 39.5348 48.5014 39.8679C48.8423 40.2572 49.2378 40.6024 49.6712 40.8953C50.538 41.4773 51.5353 41.8906 52.5789 42.0311C53.6266 42.1876 54.6996 42.2117 55.7642 42.1435C56.2944 42.1073 56.8246 42.0471 57.3506 41.9548C57.6115 41.9067 57.8724 41.8505 58.1248 41.7823C58.2511 41.7461 58.3731 41.706 58.4909 41.6579C58.5498 41.6338 58.6045 41.6097 58.6508 41.5776C58.6971 41.5575 58.7392 41.4973 58.7223 41.5294V41.5254C58.7181 41.5174 58.7055 41.4773 58.6803 41.4532C58.6508 41.413 58.6087 41.3689 58.5709 41.3288C58.4867 41.2445 58.3941 41.1642 58.3016 41.0839C58.1122 40.9274 57.9144 40.7749 57.7125 40.6264C57.3085 40.3295 56.8961 40.0405 56.4796 39.7636C55.6422 39.2138 54.7712 38.7041 53.8496 38.2987C52.9323 37.9054 51.9393 37.6365 50.942 37.5041C49.9616 37.4078 48.9138 37.4439 48.0175 37.8693L52.3138 39.7515L57.0055 41.1763L56.9971 41.2124Z" fill="url(#paint2_linear_24_4096)"/>
<path d="M73.0371 28.0648L72.5995 29.012C73.0581 28.9237 73.4831 28.707 73.8745 28.4581C74.2784 28.2013 74.6445 27.8923 74.9811 27.5552C75.667 26.8889 76.1467 26.0542 76.3445 25.1311C76.5801 24.2241 76.6727 23.281 76.6559 22.3459C76.6517 21.8763 76.6054 21.4188 76.5086 20.9573C76.4665 20.7285 76.4118 20.4998 76.3487 20.2791C76.315 20.1707 76.2814 20.0583 76.2351 19.958C76.214 19.9058 76.1888 19.8577 76.1636 19.8135C76.1551 19.7934 76.1383 19.7734 76.1257 19.7573L76.0668 19.7854C76.0289 19.8015 75.9784 19.8376 75.9363 19.8617C75.848 19.9179 75.7596 19.9861 75.6754 20.0543C75.5029 20.1908 75.3388 20.3352 75.1789 20.4877C74.8591 20.7928 74.5477 21.1098 74.2574 21.4469C73.6809 22.1171 73.1465 22.8235 72.7089 23.586C72.246 24.3325 71.9683 25.1632 71.8505 26.0301C71.7537 26.8007 71.7369 27.6113 71.9304 28.3578C72.2629 27.8521 72.5784 27.2983 72.894 26.7726L73.967 24.9385C74.2784 24.3044 74.5646 23.6623 74.8675 23.0201C75.1705 22.382 75.4524 21.7319 75.7259 21.0817L75.7638 21.0938L75.5492 21.7319C75.3178 22.4703 74.9054 23.7465 74.4131 25.0749V25.079C73.9376 26.1625 73.4074 27.2903 73.0371 28.0648Z" fill="url(#paint3_linear_24_4096)"/>
<path d="M79.2773 23.5742C80.1525 23.201 80.8089 22.4626 81.3349 21.7081C81.8735 20.9255 82.1639 20.0064 82.1849 19.0673C82.2396 18.1322 82.147 17.1891 81.9451 16.2741C81.8483 15.8125 81.7052 15.3751 81.5201 14.9417C81.4317 14.7249 81.3349 14.5122 81.2255 14.3076C81.1708 14.2072 81.1161 14.1029 81.053 14.0106C81.0235 13.9624 80.9899 13.9183 80.9562 13.8821C80.9436 13.8661 80.9225 13.846 80.9099 13.834L80.8594 13.8741C80.8216 13.8982 80.7837 13.9423 80.7458 13.9744C80.6701 14.0467 80.5985 14.131 80.527 14.2112C80.3881 14.3798 80.2535 14.5524 80.1273 14.733C79.8706 15.0901 79.6349 15.4634 79.4161 15.8487C78.9827 16.6152 78.5998 17.4098 78.3263 18.2446C78.0233 19.0673 77.9097 19.9342 77.9644 20.8051C78.0233 21.5756 78.1664 22.3743 78.5072 23.0646L79.858 19.26L80.7921 15.2186L80.83 15.2226L80.7037 16.1938C80.6154 16.9804 80.4723 18.1523 80.2956 19.3844C80.0389 20.5362 79.7401 21.7402 79.5255 22.5669L79.2773 23.5742Z" fill="url(#paint4_linear_24_4096)"/>
<path d="M78.0448 29.3936L74.3335 30.0397C75.2171 29.8992 76.5973 29.6705 78.0448 29.3936Z" fill="url(#paint5_linear_24_4096)"/>
<path d="M61.5372 37.9739L57.8511 37.1953C58.7179 37.388 60.0855 37.693 61.5372 37.9739Z" fill="url(#paint6_linear_24_4096)"/>
<path d="M79.6525 23.4175C79.6229 23.4336 79.5933 23.4498 79.5679 23.4619C79.5933 23.4498 79.6229 23.4377 79.6525 23.4175Z" fill="url(#paint7_linear_24_4096)"/>
<path d="M66.4268 38.479V38.5191L64.0873 38.5071C63.3088 38.5071 62.5261 38.5071 61.7435 38.4429L59.4165 38.186C58.6423 38.1018 57.868 38.0095 57.0938 37.9091H57.0896H57.0854L56.9297 37.877C57.1653 38.2703 57.523 38.6074 57.9017 38.8924C58.3519 39.2255 58.8485 39.4984 59.3745 39.6991C59.9004 39.8997 60.4517 40.0442 61.0155 40.1164C61.5752 40.2007 62.1474 40.1686 62.7155 40.1847L63.8222 40.0201C64.1883 39.9399 64.5543 39.8435 64.9162 39.7593C65.6442 39.5787 66.389 39.4302 67.0707 39.1372C67.4115 38.9967 67.7523 38.8362 68.0385 38.6315C68.0974 38.5914 68.1689 38.5232 68.1815 38.4991C68.1689 38.483 68.1352 38.4389 68.0932 38.4108C67.9585 38.3064 67.7944 38.2141 67.6345 38.1258C66.9781 37.7807 66.2838 37.4757 65.5895 37.1867C64.1967 36.6369 62.7492 36.1433 61.2385 36.059C60.4895 36.0028 59.7237 35.9868 58.9873 36.1473C58.2678 36.2918 57.5398 36.5245 56.9549 36.97L61.5373 37.9774C62.3452 38.1138 63.1615 38.1941 63.9779 38.2703C64.7942 38.3426 65.6105 38.4108 66.4268 38.479Z" fill="url(#paint8_linear_24_4096)"/>
<path d="M48.9219 35.9226L48.0088 36.4764C48.8672 36.8015 49.835 36.7453 50.727 36.5808C51.6444 36.4162 52.5196 36.035 53.1971 35.4089C53.8998 34.8109 54.5057 34.1166 55.0275 33.3621C55.5409 32.6116 55.9869 31.7929 56.1931 30.9341C56.2015 30.8819 56.2141 30.8297 56.2183 30.7776C56.2225 30.7495 56.2225 30.7174 56.2183 30.6973C56.2057 30.6933 56.1847 30.6853 56.1636 30.6893C56.1173 30.6853 56.0626 30.6812 56.0079 30.6853C55.7849 30.6933 55.5535 30.7254 55.3262 30.7575C54.8676 30.8297 54.3963 30.8939 53.9587 31.0063C53.0666 31.2391 52.2082 31.6043 51.354 31.9735C50.4998 32.3187 49.7634 32.8765 49.1407 33.5387C48.5937 34.1407 48.1013 34.831 47.832 35.5815L51.4718 33.8397C52.1072 33.5146 52.7132 33.1294 53.3191 32.7441C53.925 32.3588 54.531 31.9775 55.1285 31.5802L55.1537 31.6123L54.6572 31.9896C54.0555 32.4752 52.9572 33.338 51.7622 34.1969C50.7481 34.835 49.6709 35.4811 48.9219 35.9226Z" fill="url(#paint9_linear_24_4096)"/>
<path d="M65.7407 34.1092C65.7619 34.0891 65.783 34.0689 65.8042 34.0527C65.7788 34.0689 65.7619 34.0891 65.7407 34.1092Z" fill="url(#paint10_linear_24_4096)"/>
<path d="M62.5216 38.1181C62.1891 38.074 61.8609 38.0298 61.5327 37.9736C61.8651 38.0298 62.1976 38.078 62.5216 38.1181Z" fill="url(#paint11_linear_24_4096)"/>
<path d="M70.2222 34.4743C71.2363 34.4502 72.2251 34.3459 73.0751 34.2656C72.9405 34.2737 72.81 34.2897 72.6754 34.2977L70.2222 34.4743Z" fill="url(#paint12_linear_24_4096)"/>
<path d="M67.5837 29.4616C67.5627 29.4897 67.5459 29.5218 67.5248 29.5539C67.4364 29.6783 67.3481 29.8027 67.2597 29.9311C67.2092 30.0034 67.1629 30.0796 67.1082 30.1519L65.0169 33.0455C65.4419 33.0374 65.8669 32.913 66.2667 32.7605C66.7001 32.592 67.104 32.3712 67.4911 32.1184C68.2696 31.6248 68.926 30.9585 69.3005 30.1318C69.7129 29.3211 69.999 28.4542 70.1884 27.5713C70.3777 26.6924 70.4661 25.7734 70.323 24.9025C70.3104 24.8222 70.2768 24.7139 70.2599 24.6777C70.2515 24.6777 70.2431 24.6777 70.2263 24.6818C70.1842 24.6938 70.1337 24.7139 70.0832 24.7339C69.8854 24.8222 69.6835 24.9386 69.4857 25.055C69.0859 25.2918 68.6862 25.5205 68.3201 25.7934C67.5627 26.3152 66.9399 26.9934 66.2835 27.6436C65.6186 28.2736 65.1642 29.0683 64.8402 29.9111C64.5541 30.7057 64.3563 31.5605 64.4152 32.3953L64.5625 32.2588C65.4798 31.2555 66.3719 30.2281 67.2723 29.2128C67.7057 28.691 68.0887 28.1292 68.4716 27.5713L69.6245 25.8938L69.633 25.8978L69.0102 27.0215C68.6609 27.6315 68.2065 28.4823 67.6847 29.3051C67.651 29.3572 67.6174 29.4094 67.5837 29.4616Z" fill="url(#paint13_linear_24_4096)"/>
<path d="M75.1201 34.0406L75.1243 34.0808L72.8268 34.5102C72.061 34.6587 71.2952 34.8032 70.5167 34.8915C69.7383 34.9677 68.9598 35.0199 68.1813 35.0841C67.4029 35.1483 66.6244 35.2085 65.846 35.2567H65.8418H65.8376L65.6777 35.2527C65.9638 35.5657 66.3425 35.8145 66.7296 36.0152C67.1967 36.248 67.7016 36.4165 68.215 36.5289C69.2459 36.7416 70.3316 36.7416 71.3583 36.4888C72.3892 36.248 73.3949 35.8667 74.3501 35.4052C74.8298 35.1724 75.2926 34.9155 75.7387 34.6346C75.9617 34.4941 76.1805 34.3416 76.3825 34.1851C76.4835 34.1049 76.5845 34.0206 76.6728 33.9323C76.7149 33.8881 76.757 33.844 76.7907 33.7998C76.8243 33.7637 76.8411 33.6915 76.8411 33.7276L76.8369 33.7156C76.8538 33.7477 76.8159 33.6955 76.7696 33.6754C76.7275 33.6473 76.6728 33.6233 76.6181 33.5992C76.5087 33.551 76.3909 33.5149 76.2731 33.4748C76.0374 33.3985 75.7934 33.3343 75.5493 33.2741C75.0612 33.1537 74.5647 33.0453 74.0682 32.941C73.0793 32.7443 72.0736 32.6039 71.0637 32.5718C70.0623 32.5557 69.0397 32.6721 68.0677 32.9209C67.1294 33.2059 66.1826 33.6353 65.522 34.3657L70.218 34.4781L72.6669 34.2814C73.4917 34.2212 74.3038 34.1249 75.1201 34.0406Z" fill="url(#paint14_linear_24_4096)"/>
<path d="M59.3533 33.1378L56.7276 35.5739C57.3545 35.6541 58.0025 35.5658 58.6127 35.3973C59.2607 35.2207 59.8708 34.9317 60.4137 34.5585C61.5119 33.804 62.1978 32.6241 62.7701 31.4522C63.0436 30.8583 63.2792 30.2402 63.4223 29.6061C63.4938 29.2891 63.5443 28.968 63.5569 28.6509C63.5569 28.5747 63.5569 28.4944 63.5485 28.4262C63.5443 28.4021 63.5401 28.3901 63.5359 28.374C63.4265 28.374 63.2582 28.4182 63.1109 28.4583C61.8275 28.8396 60.6072 29.4014 59.53 30.192L59.5174 30.2001C59.0966 30.481 58.6548 30.7379 58.2971 31.087C57.931 31.4241 57.6028 31.8134 57.3209 32.2268C57.0389 32.6402 56.7991 33.0856 56.6055 33.5472C56.4372 33.9605 56.2941 34.39 56.2437 34.8274L56.4204 34.715C57.5228 33.9084 58.6043 33.0696 59.6899 32.2469C60.2243 31.8214 60.7082 31.3439 61.1963 30.8663L62.6607 29.4375L62.6691 29.4456L61.8359 30.4328L60.6409 31.8295C60.2453 32.295 59.8119 32.7284 59.3533 33.1378Z" fill="url(#paint15_linear_24_4096)"/>
<path d="M56.353 41.0116L52.3135 39.7515C53.8493 40.2812 55.4778 40.7628 56.353 41.0116Z" fill="url(#paint16_linear_24_4096)"/>
<path d="M84.7059 22.9321L81.1797 24.2605C82.0213 23.9595 83.3383 23.4779 84.7059 22.9321Z" fill="url(#paint17_linear_24_4096)"/>
<path d="M92.0401 2.08301L91.7329 3.30305C91.876 2.76928 91.9812 2.33986 92.0401 2.08301Z" fill="url(#paint18_linear_24_4096)"/>
<path d="M88.1392 21.2222L84.7056 22.9358C85.9806 22.3258 87.2892 21.6596 88.1392 21.2222Z" fill="url(#paint19_linear_24_4096)"/>
<path d="M70.2222 34.4743L66.4478 34.4141C67.3398 34.4381 68.7453 34.4743 70.2222 34.4743Z" fill="url(#paint20_linear_24_4096)"/>
<path d="M93.8155 12.3567L90.222 15.6998H90.2178L86.5822 18.4168C87.003 18.5212 87.47 18.5212 87.9119 18.473C88.4336 18.4128 88.9512 18.2884 89.4435 18.1038C90.424 17.7305 91.3328 17.1526 92.044 16.3941C92.7635 15.6356 93.3568 14.7647 93.8996 13.8617C94.169 13.4082 94.4425 12.9587 94.6402 12.4852C94.7412 12.2484 94.8296 12.0036 94.8969 11.7587C94.9264 11.6343 94.96 11.5099 94.9769 11.3895C94.9853 11.3293 94.9937 11.2651 94.9979 11.2089C95.0021 11.1808 94.9979 11.1367 94.9979 11.1126C94.9811 11.1086 94.9558 11.1046 94.9306 11.1086C94.8801 11.1086 94.817 11.1166 94.7623 11.1287C94.6445 11.1487 94.5224 11.1768 94.4046 11.2089C94.1648 11.2731 93.9249 11.3494 93.6893 11.4297C93.218 11.5982 92.7467 11.7868 92.2754 11.9674C91.3413 12.3407 90.4197 12.754 89.5571 13.2678C88.6819 13.7574 87.9581 14.4677 87.2765 15.1861C86.6453 15.9205 86.0898 16.7874 85.9468 17.7506L89.9485 15.3266L93.7903 12.3246L93.8155 12.3567Z" fill="url(#paint21_linear_24_4096)"/>
<path d="M89.9485 15.3267L86.5317 17.4377C87.2723 17.0002 88.5936 16.2096 89.9485 15.3267Z" fill="url(#paint22_linear_24_4096)"/>
<path d="M92.991 12.9912L89.9487 15.3269C91.0806 14.4882 92.242 13.5812 92.991 12.9912Z" fill="url(#paint23_linear_24_4096)"/>
<path d="M89.0858 20.7486L84.9579 23.301C84.2384 23.6662 83.502 24.0114 82.774 24.3686L80.7921 25.3278C81.1835 25.5124 81.6421 25.6007 82.0839 25.6368C82.6099 25.6769 83.1401 25.6488 83.6577 25.5605C84.6928 25.3759 85.6985 24.9826 86.5443 24.3646C87.4027 23.7545 88.1769 23.0321 88.8754 22.2455C89.2247 21.8522 89.5571 21.4429 89.8559 21.0175C90.0074 20.8048 90.1504 20.584 90.2767 20.3593C90.3398 20.2469 90.3987 20.1345 90.445 20.0182C90.466 19.962 90.4871 19.9058 90.4997 19.8496C90.5123 19.8175 90.5081 19.7733 90.5123 19.7613C90.4997 19.7573 90.466 19.7412 90.4324 19.7412C90.3819 19.7332 90.3187 19.7292 90.2598 19.7252C90.142 19.7212 90.0158 19.7292 89.8938 19.7372C89.6455 19.7533 89.3972 19.7854 89.149 19.8215C88.6566 19.8978 88.1517 19.9941 87.6552 20.0784C86.6621 20.263 85.6775 20.4998 84.7307 20.8409C83.7923 21.186 82.9045 21.6877 82.1092 22.2897C81.3391 22.8917 80.6322 23.6381 80.2998 24.5572L84.7054 22.9358L89.0648 20.7165L89.0858 20.7486Z" fill="url(#paint24_linear_24_4096)"/>
<path d="M84.752 16.9804C85.5137 16.4707 86.006 15.66 86.3721 14.8493C86.5488 14.4279 86.7045 13.9945 86.7508 13.549C86.8013 13.0995 86.7886 12.642 86.7339 12.1925C86.4983 10.4026 85.7998 8.62472 84.5921 7.27625C84.529 7.20803 84.4196 7.12375 84.3902 7.11572C84.3733 7.13579 84.306 7.19599 84.2765 7.2602C84.1671 7.44481 84.0746 7.6535 83.9778 7.8622C83.7969 8.28359 83.5865 8.70098 83.4308 9.11836C83.1236 9.96918 82.9258 10.8601 82.7912 11.7551C82.6313 12.6501 82.6691 13.549 82.8922 14.4279C83.0983 15.2065 83.4055 15.9931 83.8978 16.6272L84.4701 12.646L84.5753 8.50432H84.6132L84.6847 9.47554C84.752 10.2621 84.8446 11.438 84.9161 12.6822C84.9035 14.0226 84.832 15.4273 84.7857 16.266L84.752 16.9804Z" fill="url(#paint25_linear_24_4096)"/>
<path d="M82.7741 28.0811C81.2593 28.659 79.7697 29.3011 78.217 29.8068L75.8648 30.4569C75.1495 30.6456 74.4636 30.8462 73.7272 31.0068C74.0723 31.2636 74.5015 31.4362 74.9265 31.5606C75.4314 31.7011 75.9574 31.7733 76.4876 31.7813C77.5437 31.7974 78.6041 31.5927 79.5593 31.1512C80.5229 30.7178 81.4276 30.1559 82.2734 29.5178C82.6942 29.2008 83.1023 28.8597 83.4811 28.4985C83.6704 28.3179 83.8556 28.1292 84.0239 27.9326C84.108 27.8322 84.188 27.7359 84.2595 27.6316C84.2932 27.5794 84.3268 27.5272 84.3479 27.4791C84.3731 27.4389 84.3773 27.3627 84.3815 27.3988L84.3773 27.3868C84.4026 27.4229 84.3521 27.3707 84.3058 27.3627C84.2553 27.3426 84.2006 27.3306 84.1417 27.3185C84.0239 27.2905 83.9018 27.2744 83.7798 27.2583C83.5315 27.2262 83.2833 27.2102 83.0308 27.1981C82.5301 27.1781 82.0167 27.1701 81.5118 27.158C80.5019 27.15 79.4878 27.2022 78.4905 27.3587C77.5017 27.5272 76.5254 27.8403 75.625 28.2777C74.7581 28.7272 73.9124 29.3292 73.4116 30.172L78.0445 29.4014L82.7615 28.049L82.7741 28.0811Z" fill="url(#paint26_linear_24_4096)"/>
<path d="M90.685 6.50193C90.6935 6.47785 90.7019 6.45377 90.7103 6.42969C90.6935 6.48186 90.6724 6.53002 90.6514 6.58219C90.664 6.5541 90.6724 6.53002 90.685 6.50193Z" fill="url(#paint27_linear_24_4096)"/>
<path d="M85.0713 16.7715C85.0589 16.7834 85.0423 16.7953 85.0298 16.8032C85.0464 16.7953 85.0589 16.7834 85.0713 16.7715Z" fill="url(#paint28_linear_24_4096)"/>
<path d="M73.5635 29.8874C73.5846 29.8591 73.6016 29.8309 73.6227 29.8066C73.6016 29.8349 73.5846 29.8591 73.5635 29.8874Z" fill="url(#paint29_linear_24_4096)"/>
<path d="M91.7328 3.30284L92.0946 1.81792H92.1073C91.9852 2.62861 91.8758 3.44331 91.6696 4.23794L91.1226 6.6419L90.4325 9.00974C90.2053 9.74418 89.915 10.4585 89.6499 11.1769C90.0917 11.0244 90.4956 10.7636 90.8659 10.4746C91.2867 10.1495 91.6528 9.77628 91.9516 9.34686C92.5617 8.50005 93.0077 7.52482 93.2097 6.51749C93.3949 5.4941 93.4033 4.44261 93.2939 3.40718C93.1718 2.37978 92.9825 1.32428 92.5659 0.393201C92.5407 0.337014 92.507 0.284842 92.4775 0.236682C92.4649 0.204576 92.4355 0.180497 92.4229 0.168457C92.4186 0.176484 92.3976 0.180497 92.3513 0.212604C92.305 0.236683 92.2587 0.280829 92.2125 0.324975C92.0231 0.493534 91.8506 0.690187 91.6823 0.890851C91.3456 1.29619 91.0342 1.7216 90.7355 2.15905C90.1464 3.03395 89.6036 3.94496 89.1491 4.8921C88.9303 5.36968 88.7031 5.84727 88.5558 6.34492C88.4085 6.84658 88.3244 7.36028 88.2949 7.88201C88.2739 8.88533 88.2739 9.94484 88.7199 10.8599C89.0103 10.2739 89.3132 9.68799 89.5952 9.09804C89.8771 8.47196 90.1211 7.82984 90.3778 7.19172C90.6555 6.56164 90.8617 5.90747 91.0763 5.25731L91.7243 3.30685C91.7328 3.30685 91.7328 3.30685 91.7328 3.30284Z" fill="url(#paint30_linear_24_4096)"/>
<path d="M90.8535 6.01605C91.1901 5.04082 91.4763 4.07362 91.7245 3.32715L91.0976 5.26557C91.0176 5.51439 90.9377 5.76322 90.8535 6.01605Z" fill="url(#paint31_linear_24_4096)"/>
<path d="M5.69891 13.2759C4.84051 12.7622 3.91898 12.3448 2.98483 11.9675C2.51776 11.7869 2.04227 11.5943 1.5752 11.4258C1.33956 11.3415 1.09971 11.2652 0.85986 11.201C0.74204 11.1689 0.620012 11.1408 0.502192 11.1207C0.443282 11.1127 0.384372 11.1047 0.329669 11.1047C0.304422 11.1007 0.274966 11.1047 0.258135 11.1087C0.258135 11.1328 0.249719 11.1769 0.258135 11.209C0.262343 11.2692 0.270758 11.3294 0.279174 11.3896C0.300213 11.514 0.329669 11.6385 0.359124 11.7629C0.42645 12.0117 0.514816 12.2525 0.615805 12.4893C0.813575 12.9669 1.09129 13.4123 1.35639 13.8658C1.895 14.7648 2.48831 15.6397 3.21627 16.3942C3.93161 17.1487 4.84471 17.7226 5.82515 18.0878C6.31747 18.2684 6.83083 18.3968 7.3526 18.453C7.76918 18.4932 8.2068 18.4972 8.60655 18.4049L5.00461 15.7521L5.00041 15.7481L4.9962 15.7441L1.39005 12.413L1.53312 12.2565L5.29075 15.2183C5.95138 15.6558 6.62464 16.0691 7.2979 16.4986L9.34713 17.7828C9.19986 16.7996 8.636 15.9247 7.9922 15.1782C7.2979 14.4718 6.56994 13.7655 5.69891 13.2759Z" fill="url(#paint32_linear_24_4096)"/>
<path d="M7.125 16.4702C8.39157 17.2488 9.34255 17.7906 9.34255 17.7906L7.29332 16.5705C7.23441 16.5384 7.1797 16.5063 7.125 16.4702Z" fill="url(#paint33_linear_24_4096)"/>
<path d="M3.15723 1.82178C3.15723 1.82579 3.21614 2.09067 3.32554 2.5241C3.27084 2.29133 3.21614 2.05856 3.15723 1.82178Z" fill="url(#paint34_linear_24_4096)"/>
<path d="M9.25 17.3374C9.25423 17.3616 9.26269 17.3818 9.26693 17.402C9.26269 17.3818 9.25846 17.3576 9.25 17.3374Z" fill="url(#paint35_linear_24_4096)"/>
<path d="M14.8174 24.1562C14.8301 24.1805 14.8385 24.2006 14.8512 24.2208C14.8385 24.2006 14.8258 24.1764 14.8174 24.1562Z" fill="url(#paint36_linear_24_4096)"/>
<path d="M14.9938 24.5891L13.2349 23.959C14.2784 24.3402 14.9938 24.5891 14.9938 24.5891Z" fill="url(#paint37_linear_24_4096)"/>
<path d="M13.1508 22.2858C12.3513 21.6878 11.4634 21.1902 10.5251 20.845C9.57831 20.5039 8.59367 20.2631 7.60482 20.0745C7.10829 19.9902 6.60334 19.8939 6.11102 19.8136C5.86276 19.7775 5.61449 19.7454 5.36623 19.7293C5.2442 19.7213 5.11797 19.7173 5.00015 19.7213C4.94124 19.7213 4.88233 19.7253 4.82762 19.7374C4.77713 19.7374 4.71822 19.7775 4.74767 19.7494L4.73926 19.7614C4.74767 19.7333 4.73926 19.8056 4.75609 19.8537C4.76871 19.9059 4.78975 19.9661 4.815 20.0223C4.86129 20.1347 4.9244 20.2511 4.98331 20.3634C5.10955 20.5882 5.25262 20.8089 5.39989 21.0216C5.70286 21.451 6.03107 21.8604 6.38033 22.2537C7.07883 23.0403 7.85308 23.7667 8.7199 24.3687C9.56989 24.9827 10.5756 25.368 11.6107 25.5446C12.5364 25.6851 13.559 25.6891 14.3921 25.3279L12.4649 24.4169C11.7327 24.0677 10.9964 23.7266 10.2684 23.3654L6.12785 20.825L6.23726 20.6444L10.5082 22.8436C11.2404 23.1446 11.9852 23.4256 12.73 23.7185L14.9938 24.5934C14.653 23.6503 13.9335 22.8958 13.1508 22.2858Z" fill="url(#paint38_linear_24_4096)"/>
<path d="M28.0213 29.1848C28.926 30.1961 29.8097 31.2316 30.727 32.2349L30.8238 32.3232C30.8658 31.5165 30.6807 30.6817 30.403 29.9112C30.0874 29.0684 29.6413 28.2657 28.9765 27.6356C28.3201 26.9855 27.6973 26.3072 26.9399 25.7855C26.5738 25.5126 26.1741 25.2838 25.7743 25.0471C25.5765 24.9347 25.3746 24.8143 25.1726 24.73C25.1221 24.7099 25.0758 24.6899 25.0295 24.6778C25.0127 24.6738 25.0085 24.6738 25.0001 24.6738C24.9832 24.7099 24.9496 24.8183 24.9369 24.8986C24.7981 25.7654 24.8864 26.6845 25.0758 27.5634C25.2694 28.4463 25.5597 29.3132 25.9763 30.1159C26.3592 30.9386 27.0114 31.5847 27.7899 32.0743C28.177 32.3232 28.5767 32.5439 29.006 32.7084C29.3636 32.8449 29.7423 32.9533 30.1126 32.9813L27.7226 29.6583C27.3523 29.0403 27.0114 28.4102 26.6538 27.7881C26.2919 27.1741 25.9595 26.5159 25.627 25.8979L26.7968 27.5634C27.1924 28.1132 27.5837 28.6711 28.0213 29.1848Z" fill="url(#paint39_linear_24_4096)"/>
<path d="M21.289 24.9344L22.362 26.7685C22.6775 27.3023 22.9931 27.8601 23.3256 28.3698C23.5233 27.6193 23.5107 26.8046 23.4097 26.0301C23.2919 25.1672 23.0142 24.3324 22.5555 23.5819C22.1221 22.8154 21.5835 22.1091 20.9986 21.4429C20.7041 21.1098 20.3969 20.7927 20.0729 20.4917C19.913 20.3392 19.7447 20.1947 19.5721 20.0623C19.488 19.9941 19.3996 19.9298 19.3113 19.8737C19.2692 19.8496 19.2187 19.8135 19.1808 19.7974L19.1345 19.7773C19.1219 19.7894 19.1135 19.8094 19.1051 19.8255C19.0798 19.8696 19.0588 19.9178 19.0377 19.97C18.9957 20.0703 18.962 20.1827 18.9283 20.291C18.8652 20.5118 18.8105 20.7365 18.7684 20.9653C18.6801 21.4268 18.638 21.8803 18.6338 22.3499C18.6254 23.2809 18.7264 24.2201 18.9704 25.119C19.1766 26.0341 19.6521 26.8448 20.338 27.4989C20.6746 27.828 21.0365 28.133 21.4362 28.3859C21.7686 28.5986 22.1347 28.7832 22.5092 28.8835L20.8177 25.1752C20.6031 24.5612 20.4179 23.9351 20.2286 23.3211C19.7994 22.0449 19.5132 21.0897 19.5132 21.0897C19.7825 21.7238 20.0855 22.39 20.3885 23.0201C20.6872 23.6582 20.9776 24.3003 21.289 24.9344Z" fill="url(#paint40_linear_24_4096)"/>
<path d="M14.8762 17.241C14.7415 16.5707 14.6027 15.8965 14.4512 15.2183C14.4554 15.2183 14.6195 16.0651 14.8762 17.241Z" fill="url(#paint41_linear_24_4096)"/>
<path d="M10.6685 8.50391C10.6685 8.50792 10.6685 8.85708 10.6727 9.42295C10.6727 9.11794 10.6769 8.81293 10.6685 8.50391Z" fill="url(#paint42_linear_24_4096)"/>
<path d="M16.757 23.0726C17.1063 22.3783 17.2536 21.5757 17.3041 20.8011C17.3588 19.9302 17.2494 19.0594 16.9464 18.2366C16.6729 17.4019 16.29 16.6072 15.8482 15.8407C15.6251 15.4594 15.3853 15.0902 15.1286 14.733C15.0024 14.5524 14.8635 14.3799 14.7246 14.2153C14.6531 14.135 14.5816 14.0508 14.5058 13.9785C14.468 13.9464 14.4301 13.9023 14.3922 13.8782L14.3501 13.8501C14.3375 13.8621 14.3207 13.8742 14.3123 13.8902C14.2786 13.9264 14.2492 13.9745 14.2155 14.0187C14.1524 14.111 14.0977 14.2113 14.043 14.3116C13.9378 14.5163 13.841 14.729 13.7526 14.9457C13.5717 15.3792 13.4328 15.8166 13.3403 16.2781C13.1467 17.1892 13.0625 18.1323 13.1257 19.0594C13.1551 19.9945 13.4455 20.8894 13.9841 21.66C14.4764 22.3543 15.0865 23.0365 15.8439 23.4138L14.893 19.3925V19.3884C14.8004 18.5697 14.7204 17.759 14.6405 16.9604C14.5185 15.929 14.4469 15.2146 14.4469 15.2146C14.7373 16.539 15.0823 17.8794 15.4063 19.252L16.757 23.0726Z" fill="url(#paint43_linear_24_4096)"/>
<path d="M11.3667 16.6429C11.8633 16.0047 12.1789 15.2141 12.3808 14.4315C12.6039 13.5526 12.6417 12.6536 12.486 11.7547C12.3556 10.8557 12.1536 9.96474 11.8338 9.11793C11.6781 8.70055 11.4593 8.28718 11.2784 7.86578C11.1816 7.6611 11.089 7.4484 10.9754 7.2678C10.946 7.20359 10.887 7.15141 10.8702 7.13135C10.8408 7.14339 10.744 7.22365 10.6851 7.28787C9.48161 8.63232 8.80835 10.4142 8.58955 12.1961C8.53905 12.6416 8.53064 13.0951 8.58534 13.5366C8.63583 13.974 8.79152 14.3994 8.96825 14.8128C9.30488 15.5553 9.77196 16.2937 10.4158 16.7873L10.2895 12.754C10.3358 12.0356 10.42 11.3132 10.4873 10.6029C10.4999 10.4624 10.5125 10.3299 10.5252 10.1895C10.6051 9.18215 10.6724 8.49988 10.6724 8.49988C10.6893 9.85236 10.7608 11.2329 10.8029 12.6416L11.3667 16.6429Z" fill="url(#paint44_linear_24_4096)"/>
<path d="M34.0259 36.0553C32.5153 36.1476 31.0678 36.6252 29.6708 37.175C28.9765 37.46 28.2822 37.765 27.6215 38.1061C27.4574 38.1944 27.2975 38.2867 27.1629 38.3911C27.1208 38.4191 27.0871 38.4673 27.0703 38.4834C27.0829 38.5074 27.1545 38.5797 27.2176 38.6198C27.5037 38.8245 27.8446 38.989 28.1854 39.1295C28.8671 39.4225 29.6119 39.575 30.3398 39.7556C30.7059 39.8439 31.0678 39.9402 31.4381 40.0205L32.5448 40.181C33.1128 40.1609 33.6851 40.185 34.2447 40.1007C34.8044 40.0245 35.3556 39.876 35.8816 39.6713C36.4076 39.4666 36.9041 39.1937 37.3501 38.8606C37.7036 38.5917 38.0402 38.2747 38.2675 37.9135L38.1833 37.9295H38.1791H38.1749C37.4006 38.0379 36.6264 38.1342 35.8521 38.2265L33.5252 38.5034C32.7425 38.5757 31.9557 38.5837 31.1772 38.5837L28.8376 38.5957L28.825 38.387L31.2319 38.1864C32.0356 38.1181 32.8351 38.0419 33.6262 37.9175L38.3558 36.9663C37.7583 36.5048 37.0135 36.276 36.2771 36.1276C35.5408 35.9791 34.7749 35.9951 34.0259 36.0553Z" fill="url(#paint45_linear_24_4096)"/>
<path d="M38.3559 36.9741L36.7358 37.3433C37.7079 37.1266 38.3559 36.9741 38.3559 36.9741Z" fill="url(#paint46_linear_24_4096)"/>
<path d="M21.5454 29.7026C21.6716 29.8592 21.7895 30.0197 21.8905 30.1923C21.8147 30.0438 21.6927 29.8752 21.5454 29.7026Z" fill="url(#paint47_linear_24_4096)"/>
<path d="M37.9688 36.7095C38.1034 36.7897 38.2338 36.874 38.3559 36.9743C38.2507 36.8861 38.1202 36.7978 37.9688 36.7095Z" fill="url(#paint48_linear_24_4096)"/>
<path d="M44.3142 37.5042C43.3169 37.6406 42.3281 37.9135 41.4107 38.3068C40.4892 38.7122 39.6182 39.2178 38.7766 39.7636C38.36 40.0406 37.9477 40.3295 37.5395 40.6225C37.3375 40.771 37.1398 40.9195 36.9504 41.08C36.8578 41.1603 36.761 41.2405 36.6811 41.3248C36.639 41.3649 36.6011 41.4091 36.5717 41.4532C36.5464 41.4813 36.5338 41.5215 36.5296 41.5295V41.5335C36.517 41.5094 36.5591 41.5656 36.6054 41.5857C36.6516 41.6138 36.7106 41.6419 36.7695 41.6659C36.8873 41.7141 37.0093 41.7542 37.1355 41.7903C37.388 41.8626 37.6489 41.9188 37.9098 41.9669C38.4316 42.0592 38.9618 42.1235 39.4962 42.1596C40.5608 42.2318 41.6338 42.2117 42.6815 42.0432C43.7293 41.8947 44.7181 41.4773 45.5807 40.8914C46.0099 40.5944 46.4055 40.2533 46.7421 39.864C47.0114 39.5509 47.2555 39.1978 47.4027 38.8245L43.0602 40.2653C42.2734 40.49 41.4739 40.6626 40.6786 40.8231L38.2885 41.3047L38.238 41.1001L42.8498 39.7235C43.5904 39.4345 44.3142 39.1175 45.059 38.8165L47.2933 37.8774C46.3676 37.4359 45.3072 37.4038 44.3142 37.5042Z" fill="url(#paint49_linear_24_4096)"/>
<path d="M47.2851 37.8735L45.6104 38.62C46.6118 38.1826 47.2851 37.8735 47.2851 37.8735Z" fill="url(#paint50_linear_24_4096)"/>
<path d="M19.6354 28.2698C18.7307 27.8364 17.7544 27.5274 16.7656 27.3588C15.7683 27.1983 14.7584 27.1461 13.7486 27.1501C13.2436 27.1581 12.7345 27.1662 12.2295 27.1862C11.977 27.1983 11.7288 27.2143 11.4805 27.2464C11.3585 27.2625 11.2322 27.2785 11.1186 27.3066C11.0597 27.3187 11.0008 27.3347 10.9545 27.3548C10.904 27.3668 10.8535 27.415 10.8788 27.3869L10.8746 27.3989C10.8788 27.3708 10.883 27.4431 10.9082 27.4832C10.9335 27.5354 10.9629 27.5876 11.0008 27.6357C11.0723 27.7401 11.1523 27.8404 11.2365 27.9367C11.4048 28.1334 11.5899 28.322 11.7793 28.5026C12.158 28.8638 12.5661 29.2049 12.9869 29.526C13.8285 30.1641 14.7374 30.73 15.7052 31.1554C16.6646 31.5928 17.725 31.7855 18.777 31.7654C19.7111 31.7333 20.7126 31.5407 21.4574 31.0229C20.7462 30.8704 20.0772 30.6818 19.3871 30.5052L17.0307 29.8751C15.4654 29.3775 13.98 28.7474 12.4652 28.1615L12.5367 27.9648L17.1611 29.3133C17.9396 29.4738 18.7223 29.6063 19.5133 29.7588L21.9034 30.1962C21.3774 29.3333 20.519 28.7273 19.6354 28.2698Z" fill="url(#paint51_linear_24_4096)"/>
<path d="M21.8906 30.1919L20.0518 29.8989C21.1458 30.0795 21.8906 30.1919 21.8906 30.1919Z" fill="url(#paint52_linear_24_4096)"/>
<path d="M29.7804 34.3774L27.8911 34.4376C29.0146 34.4096 29.7804 34.3774 29.7804 34.3774Z" fill="url(#paint53_linear_24_4096)"/>
<path d="M29.3472 33.9644C29.4987 34.0928 29.6501 34.2252 29.7806 34.3777C29.6754 34.2493 29.5197 34.1048 29.3472 33.9644Z" fill="url(#paint54_linear_24_4096)"/>
<path d="M24.1881 32.5678C23.1782 32.5959 22.1725 32.7364 21.1837 32.929C20.6914 33.0293 20.1906 33.1377 19.7025 33.2581C19.4584 33.3183 19.2144 33.3825 18.9788 33.4587C18.8609 33.4989 18.7431 33.535 18.6337 33.5832C18.579 33.6072 18.5243 33.6313 18.4822 33.6594C18.4359 33.6795 18.3981 33.7357 18.4149 33.7076L18.4107 33.7196C18.4065 33.6875 18.4275 33.7597 18.4612 33.7959C18.4948 33.84 18.5369 33.8842 18.579 33.9283C18.6674 34.0166 18.7684 34.1009 18.8693 34.1811C19.0755 34.3417 19.2943 34.4902 19.5132 34.6346C19.9592 34.9196 20.4263 35.1764 20.9017 35.4092C21.8569 35.8748 22.8584 36.256 23.8935 36.4888C24.9203 36.7336 26.0059 36.7256 27.0326 36.5089C27.9331 36.3042 28.8715 35.9309 29.4942 35.2888H29.4143H29.4101H29.4059C28.6274 35.2487 27.8489 35.1925 27.0705 35.1363C26.292 35.0761 25.5178 35.032 24.7309 34.9597C23.9482 34.8754 23.1782 34.735 22.4124 34.5905L20.1149 34.1611L20.1443 33.9524C20.9438 34.0407 21.7433 34.137 22.5428 34.1972L24.9455 34.4019C25.7408 34.4139 26.5361 34.3979 27.344 34.3979L29.7761 34.3778C29.0987 33.6313 28.1351 33.1979 27.1841 32.9129C26.2121 32.6641 25.1896 32.5558 24.1881 32.5678Z" fill="url(#paint55_linear_24_4096)"/>
<path d="M4.63395 6.46961C4.95796 7.21608 5.2483 7.98262 5.56389 8.72909C5.85003 9.40333 6.19928 10.0575 6.52749 10.7237C6.91462 9.85683 6.91882 8.84146 6.90199 7.8863C6.87675 7.36858 6.7968 6.85488 6.65373 6.35723C6.51487 5.85959 6.29185 5.38602 6.07304 4.90442C5.62701 3.95327 5.09261 3.04225 4.50351 2.16735C4.20896 1.72991 3.89757 1.30449 3.56094 0.899152C3.39263 0.698487 3.22011 0.497827 3.03075 0.333282C2.98446 0.289136 2.93818 0.248997 2.89189 0.220904C2.85402 0.188798 2.83298 0.184784 2.82877 0.176758C2.81615 0.188798 2.7909 0.212879 2.77828 0.240972C2.74882 0.285118 2.71516 0.341304 2.68991 0.39749C2.26913 1.32456 2.07136 2.38006 1.95354 3.41148C1.84413 4.44691 1.85676 5.5024 2.04611 6.52178C2.24809 7.52912 2.69833 8.50435 3.31689 9.34313C3.61985 9.76854 3.98594 10.1378 4.40252 10.4628C4.75598 10.7357 5.1431 10.9846 5.55547 11.1371C5.29459 10.4388 5.01266 9.74847 4.78964 9.02607L4.09534 6.65823L3.56515 4.25026C3.41788 3.68438 3.33372 3.09443 3.24956 2.5125C3.18224 2.08308 3.14857 1.82622 3.14857 1.82622C3.34213 2.59677 3.54832 3.40746 3.83025 4.16597L4.63395 6.46961Z" fill="url(#paint56_linear_24_4096)"/>
<path d="M43.7881 33.8362L47.4363 35.59C47.1713 34.8314 46.6747 34.1372 46.1235 33.5352C45.5007 32.873 44.7644 32.3071 43.9102 31.9619C43.056 31.5927 42.1933 31.2315 41.3013 31.0028C40.8594 30.8944 40.3924 30.8342 39.9295 30.762C39.7023 30.7299 39.4666 30.7018 39.2478 30.6978C39.1931 30.6978 39.1384 30.6978 39.0921 30.7018C39.0795 30.7018 39.0669 30.7058 39.0543 30.7058C39.0543 30.7258 39.0501 30.7499 39.0585 30.774C39.0627 30.8222 39.0711 30.8743 39.0837 30.9265C39.2899 31.7813 39.7402 32.596 40.2619 33.3385C40.7879 34.085 41.3981 34.7712 42.1008 35.3572C42.7782 35.9712 43.6324 36.3364 44.5455 36.493C45.3703 36.6414 46.2624 36.6896 47.045 36.4448L43.5272 34.2856C43.0307 33.9124 42.5468 33.5151 42.0629 33.1258C40.9352 32.267 40.1189 31.5887 40.1189 31.5887L41.9367 32.7405C42.5426 33.1298 43.1527 33.5151 43.7881 33.8362Z" fill="url(#paint57_linear_24_4096)"/>
<path d="M35.5872 32.2187C36.6812 33.0334 37.75 33.8842 38.8525 34.6908L38.9745 34.7671C38.9198 34.3577 38.781 33.9444 38.6253 33.5551C38.4317 33.0936 38.1918 32.6521 37.9183 32.2387C37.6406 31.8213 37.3208 31.4361 36.9547 31.0949C36.5971 30.7458 36.1552 30.4889 35.7387 30.204L35.726 30.196C34.653 29.4053 33.4327 28.8395 32.1493 28.4582C32.0063 28.4181 31.838 28.3779 31.7286 28.3779C31.7244 28.394 31.7201 28.406 31.7159 28.4301C31.7075 28.4983 31.7075 28.5786 31.7075 28.6548C31.7201 28.9679 31.7706 29.293 31.8422 29.606C31.9852 30.2401 32.2209 30.8541 32.4986 31.4481C33.0667 32.62 33.7778 33.7879 34.8676 34.5263C35.4104 34.8915 36.0206 35.1724 36.6602 35.345C37.2198 35.4975 37.8216 35.5818 38.3938 35.5256L35.3936 32.7324C34.8803 32.2227 34.4174 31.6648 33.9587 31.111L32.5912 29.4415L34.0723 30.8541C34.5605 31.3277 35.0528 31.8013 35.5872 32.2187Z" fill="url(#paint58_linear_24_4096)"/>
<defs>
<linearGradient id="paint0_linear_24_4096" x1="82.7233" y1="29.3697" x2="82.7144" y2="28.2788" gradientUnits="userSpaceOnUse">
<stop offset="0.00961538" stop-color="#9C7852"/>
<stop offset="0.379808" stop-color="#E1C292"/>
<stop offset="0.778846" stop-color="#F2E1AF"/>
<stop offset="1" stop-color="#EACE9F"/>
</linearGradient>
<linearGradient id="paint1_linear_24_4096" x1="52.8789" y1="39.7203" x2="52.8608" y2="38.2763" gradientUnits="userSpaceOnUse">
<stop offset="0.00961538" stop-color="#9C7852"/>
<stop offset="0.379808" stop-color="#E1C292"/>
<stop offset="0.778846" stop-color="#F2E1AF"/>
<stop offset="1" stop-color="#EACE9F"/>
</linearGradient>
<linearGradient id="paint2_linear_24_4096" x1="60.5177" y1="42.0789" x2="60.4593" y2="37.4643" gradientUnits="userSpaceOnUse">
<stop offset="0.00961538" stop-color="#9C7852"/>
<stop offset="0.379808" stop-color="#E1C292"/>
<stop offset="0.778846" stop-color="#F2E1AF"/>
<stop offset="1" stop-color="#EACE9F"/>
</linearGradient>
<linearGradient id="paint3_linear_24_4096" x1="77.4581" y1="28.8147" x2="76.9572" y2="19.7923" gradientUnits="userSpaceOnUse">
<stop offset="0.00961538" stop-color="#9C7852"/>
<stop offset="0.379808" stop-color="#E1C292"/>
<stop offset="0.778846" stop-color="#F2E1AF"/>
<stop offset="1" stop-color="#EACE9F"/>
</linearGradient>
<linearGradient id="paint4_linear_24_4096" x1="82.8976" y1="23.3666" x2="82.2617" y2="13.8842" gradientUnits="userSpaceOnUse">
<stop offset="0.00961538" stop-color="#9C7852"/>
<stop offset="0.379808" stop-color="#E1C292"/>
<stop offset="0.778846" stop-color="#F2E1AF"/>
<stop offset="1" stop-color="#EACE9F"/>
</linearGradient>
<linearGradient id="paint5_linear_24_4096" x1="78.6538" y1="30.0259" x2="78.6506" y2="29.3941" gradientUnits="userSpaceOnUse">
<stop offset="0.00961538" stop-color="#9C7852"/>
<stop offset="0.379808" stop-color="#E1C292"/>
<stop offset="0.778846" stop-color="#F2E1AF"/>
<stop offset="1" stop-color="#EACE9F"/>
</linearGradient>
<linearGradient id="paint6_linear_24_4096" x1="62.142" y1="37.9573" x2="62.1373" y2="37.1959" gradientUnits="userSpaceOnUse">
<stop offset="0.00961538" stop-color="#9C7852"/>
<stop offset="0.379808" stop-color="#E1C292"/>
<stop offset="0.778846" stop-color="#F2E1AF"/>
<stop offset="1" stop-color="#EACE9F"/>
</linearGradient>
<linearGradient id="paint7_linear_24_4096" x1="79.6664" y1="23.4609" x2="79.6657" y2="23.4175" gradientUnits="userSpaceOnUse">
<stop offset="0.00961538" stop-color="#9C7852"/>
<stop offset="0.379808" stop-color="#E1C292"/>
<stop offset="0.778846" stop-color="#F2E1AF"/>
<stop offset="1" stop-color="#EACE9F"/>
</linearGradient>
<linearGradient id="paint8_linear_24_4096" x1="70.0277" y1="40.0959" x2="69.9836" y2="36.0232" gradientUnits="userSpaceOnUse">
<stop offset="0.00961538" stop-color="#9C7852"/>
<stop offset="0.379808" stop-color="#E1C292"/>
<stop offset="0.778846" stop-color="#F2E1AF"/>
<stop offset="1" stop-color="#EACE9F"/>
</linearGradient>
<linearGradient id="paint9_linear_24_4096" x1="57.598" y1="36.5841" x2="57.4741" y2="30.6909" gradientUnits="userSpaceOnUse">
<stop offset="0.00961538" stop-color="#9C7852"/>
<stop offset="0.379808" stop-color="#E1C292"/>
<stop offset="0.778846" stop-color="#F2E1AF"/>
<stop offset="1" stop-color="#EACE9F"/>
</linearGradient>
<linearGradient id="paint10_linear_24_4096" x1="65.8146" y1="34.108" x2="65.8132" y2="34.0528" gradientUnits="userSpaceOnUse">
<stop offset="0.00961538" stop-color="#9C7852"/>
<stop offset="0.379808" stop-color="#E1C292"/>
<stop offset="0.778846" stop-color="#F2E1AF"/>
<stop offset="1" stop-color="#EACE9F"/>
</linearGradient>
<linearGradient id="paint11_linear_24_4096" x1="62.6838" y1="38.115" x2="62.6832" y2="37.9737" gradientUnits="userSpaceOnUse">
<stop offset="0.00961538" stop-color="#9C7852"/>
<stop offset="0.379808" stop-color="#E1C292"/>
<stop offset="0.778846" stop-color="#F2E1AF"/>
<stop offset="1" stop-color="#EACE9F"/>
</linearGradient>
<linearGradient id="paint12_linear_24_4096" x1="73.5432" y1="34.4699" x2="73.5428" y2="34.2658" gradientUnits="userSpaceOnUse">
<stop offset="0.00961538" stop-color="#9C7852"/>
<stop offset="0.379808" stop-color="#E1C292"/>
<stop offset="0.778846" stop-color="#F2E1AF"/>
<stop offset="1" stop-color="#EACE9F"/>
</linearGradient>
<linearGradient id="paint13_linear_24_4096" x1="71.3765" y1="32.8671" x2="71.0426" y2="24.6978" gradientUnits="userSpaceOnUse">
<stop offset="0.00961538" stop-color="#9C7852"/>
<stop offset="0.379808" stop-color="#E1C292"/>
<stop offset="0.778846" stop-color="#F2E1AF"/>
<stop offset="1" stop-color="#EACE9F"/>
</linearGradient>
<linearGradient id="paint14_linear_24_4096" x1="78.6983" y1="36.596" x2="78.6556" y2="32.5739" gradientUnits="userSpaceOnUse">
<stop offset="0.00961538" stop-color="#9C7852"/>
<stop offset="0.379808" stop-color="#E1C292"/>
<stop offset="0.778846" stop-color="#F2E1AF"/>
<stop offset="1" stop-color="#EACE9F"/>
</linearGradient>
<linearGradient id="paint15_linear_24_4096" x1="64.7569" y1="35.4497" x2="64.5525" y2="28.3855" gradientUnits="userSpaceOnUse">
<stop offset="0.00961538" stop-color="#9C7852"/>
<stop offset="0.379808" stop-color="#E1C292"/>
<stop offset="0.778846" stop-color="#F2E1AF"/>
<stop offset="1" stop-color="#EACE9F"/>
</linearGradient>
<linearGradient id="paint16_linear_24_4096" x1="57.0158" y1="40.9848" x2="57.0046" y2="39.7525" gradientUnits="userSpaceOnUse">
<stop offset="0.00961538" stop-color="#9C7852"/>
<stop offset="0.379808" stop-color="#E1C292"/>
<stop offset="0.778846" stop-color="#F2E1AF"/>
<stop offset="1" stop-color="#EACE9F"/>
</linearGradient>
<linearGradient id="paint17_linear_24_4096" x1="85.2844" y1="24.2322" x2="85.2701" y2="22.9333" gradientUnits="userSpaceOnUse">
<stop offset="0.00961538" stop-color="#9C7852"/>
<stop offset="0.379808" stop-color="#E1C292"/>
<stop offset="0.778846" stop-color="#F2E1AF"/>
<stop offset="1" stop-color="#EACE9F"/>
</linearGradient>
<linearGradient id="paint18_linear_24_4096" x1="92.0905" y1="3.27704" x2="91.9537" y2="2.09984" gradientUnits="userSpaceOnUse">
<stop offset="0.00961538" stop-color="#9C7852"/>
<stop offset="0.379808" stop-color="#E1C292"/>
<stop offset="0.778846" stop-color="#F2E1AF"/>
<stop offset="1" stop-color="#EACE9F"/>
</linearGradient>
<linearGradient id="paint19_linear_24_4096" x1="88.7026" y1="22.8993" x2="88.6781" y2="21.2238" gradientUnits="userSpaceOnUse">
<stop offset="0.00961538" stop-color="#9C7852"/>
<stop offset="0.379808" stop-color="#E1C292"/>
<stop offset="0.778846" stop-color="#F2E1AF"/>
<stop offset="1" stop-color="#EACE9F"/>
</linearGradient>
<linearGradient id="paint20_linear_24_4096" x1="70.8415" y1="34.473" x2="70.8415" y2="34.4141" gradientUnits="userSpaceOnUse">
<stop offset="0.00961538" stop-color="#9C7852"/>
<stop offset="0.379808" stop-color="#E1C292"/>
<stop offset="0.778846" stop-color="#F2E1AF"/>
<stop offset="1" stop-color="#EACE9F"/>
</linearGradient>
<linearGradient id="paint21_linear_24_4096" x1="96.4851" y1="18.3464" x2="96.3123" y2="11.1168" gradientUnits="userSpaceOnUse">
<stop offset="0.00961538" stop-color="#9C7852"/>
<stop offset="0.379808" stop-color="#E1C292"/>
<stop offset="0.778846" stop-color="#F2E1AF"/>
<stop offset="1" stop-color="#EACE9F"/>
</linearGradient>
<linearGradient id="paint22_linear_24_4096" x1="90.5091" y1="17.3927" x2="90.4718" y2="15.329" gradientUnits="userSpaceOnUse">
<stop offset="0.00961538" stop-color="#9C7852"/>
<stop offset="0.379808" stop-color="#E1C292"/>
<stop offset="0.778846" stop-color="#F2E1AF"/>
<stop offset="1" stop-color="#EACE9F"/>
</linearGradient>
<linearGradient id="paint23_linear_24_4096" x1="93.4902" y1="15.2772" x2="93.4389" y2="12.9942" gradientUnits="userSpaceOnUse">
<stop offset="0.00961538" stop-color="#9C7852"/>
<stop offset="0.379808" stop-color="#E1C292"/>
<stop offset="0.778846" stop-color="#F2E1AF"/>
<stop offset="1" stop-color="#EACE9F"/>
</linearGradient>
<linearGradient id="paint24_linear_24_4096" x1="92.1879" y1="25.5283" x2="92.0894" y2="19.7304" gradientUnits="userSpaceOnUse">
<stop offset="0.00961538" stop-color="#9C7852"/>
<stop offset="0.379808" stop-color="#E1C292"/>
<stop offset="0.778846" stop-color="#F2E1AF"/>
<stop offset="1" stop-color="#EACE9F"/>
</linearGradient>
<linearGradient id="paint25_linear_24_4096" x1="87.4535" y1="16.7701" x2="86.7761" y2="7.17115" gradientUnits="userSpaceOnUse">
<stop offset="0.00961538" stop-color="#9C7852"/>
<stop offset="0.379808" stop-color="#E1C292"/>
<stop offset="0.778846" stop-color="#F2E1AF"/>
<stop offset="1" stop-color="#EACE9F"/>
</linearGradient>
<linearGradient id="paint26_linear_24_4096" x1="86.1844" y1="31.6836" x2="86.1286" y2="27.1615" gradientUnits="userSpaceOnUse">
<stop offset="0.00961538" stop-color="#9C7852"/>
<stop offset="0.379808" stop-color="#E1C292"/>
<stop offset="0.778846" stop-color="#F2E1AF"/>
<stop offset="1" stop-color="#EACE9F"/>
</linearGradient>
<linearGradient id="paint27_linear_24_4096" x1="90.72" y1="6.57894" x2="90.7087" y2="6.43066" gradientUnits="userSpaceOnUse">
<stop offset="0.00961538" stop-color="#9C7852"/>
<stop offset="0.379808" stop-color="#E1C292"/>
<stop offset="0.778846" stop-color="#F2E1AF"/>
<stop offset="1" stop-color="#EACE9F"/>
</linearGradient>
<linearGradient id="paint28_linear_24_4096" x1="85.0782" y1="16.8025" x2="85.0775" y2="16.7715" gradientUnits="userSpaceOnUse">
<stop offset="0.00961538" stop-color="#9C7852"/>
<stop offset="0.379808" stop-color="#E1C292"/>
<stop offset="0.778846" stop-color="#F2E1AF"/>
<stop offset="1" stop-color="#EACE9F"/>
</linearGradient>
<linearGradient id="paint29_linear_24_4096" x1="73.6324" y1="29.8856" x2="73.6293" y2="29.8068" gradientUnits="userSpaceOnUse">
<stop offset="0.00961538" stop-color="#9C7852"/>
<stop offset="0.379808" stop-color="#E1C292"/>
<stop offset="0.778846" stop-color="#F2E1AF"/>
<stop offset="1" stop-color="#EACE9F"/>
</linearGradient>
<linearGradient id="paint30_linear_24_4096" x1="94.198" y1="10.9422" x2="93.5178" y2="0.220108" gradientUnits="userSpaceOnUse">
<stop offset="0.00961538" stop-color="#9C7852"/>
<stop offset="0.379808" stop-color="#E1C292"/>
<stop offset="0.778846" stop-color="#F2E1AF"/>
<stop offset="1" stop-color="#EACE9F"/>
</linearGradient>
<linearGradient id="paint31_linear_24_4096" x1="91.8675" y1="5.95873" x2="91.6319" y2="3.3505" gradientUnits="userSpaceOnUse">
<stop offset="0.00961538" stop-color="#9C7852"/>
<stop offset="0.379808" stop-color="#E1C292"/>
<stop offset="0.778846" stop-color="#F2E1AF"/>
<stop offset="1" stop-color="#EACE9F"/>
</linearGradient>
<linearGradient id="paint32_linear_24_4096" x1="10.839" y1="18.3228" x2="10.6679" y2="11.1128" gradientUnits="userSpaceOnUse">
<stop offset="0.00961538" stop-color="#9C7852"/>
<stop offset="0.379808" stop-color="#E1C292"/>
<stop offset="0.778846" stop-color="#F2E1AF"/>
<stop offset="1" stop-color="#EACE9F"/>
</linearGradient>
<linearGradient id="paint33_linear_24_4096" x1="9.70639" y1="17.7624" x2="9.68391" y2="16.4716" gradientUnits="userSpaceOnUse">
<stop offset="0.00961538" stop-color="#9C7852"/>
<stop offset="0.379808" stop-color="#E1C292"/>
<stop offset="0.778846" stop-color="#F2E1AF"/>
<stop offset="1" stop-color="#EACE9F"/>
</linearGradient>
<linearGradient id="paint34_linear_24_4096" x1="3.35316" y1="2.50913" x2="3.27055" y2="1.8324" gradientUnits="userSpaceOnUse">
<stop offset="0.00961538" stop-color="#9C7852"/>
<stop offset="0.379808" stop-color="#E1C292"/>
<stop offset="0.778846" stop-color="#F2E1AF"/>
<stop offset="1" stop-color="#EACE9F"/>
</linearGradient>
<linearGradient id="paint35_linear_24_4096" x1="9.2697" y1="17.4006" x2="9.26274" y2="17.3382" gradientUnits="userSpaceOnUse">
<stop offset="0.00961538" stop-color="#9C7852"/>
<stop offset="0.379808" stop-color="#E1C292"/>
<stop offset="0.778846" stop-color="#F2E1AF"/>
<stop offset="1" stop-color="#EACE9F"/>
</linearGradient>
<linearGradient id="paint36_linear_24_4096" x1="14.8568" y1="24.2194" x2="14.8533" y2="24.1565" gradientUnits="userSpaceOnUse">
<stop offset="0.00961538" stop-color="#9C7852"/>
<stop offset="0.379808" stop-color="#E1C292"/>
<stop offset="0.778846" stop-color="#F2E1AF"/>
<stop offset="1" stop-color="#EACE9F"/>
</linearGradient>
<linearGradient id="paint37_linear_24_4096" x1="15.2823" y1="24.5756" x2="15.2759" y2="23.9595" gradientUnits="userSpaceOnUse">
<stop offset="0.00961538" stop-color="#9C7852"/>
<stop offset="0.379808" stop-color="#E1C292"/>
<stop offset="0.778846" stop-color="#F2E1AF"/>
<stop offset="1" stop-color="#EACE9F"/>
</linearGradient>
<linearGradient id="paint38_linear_24_4096" x1="16.6764" y1="25.507" x2="16.5788" y2="19.7259" gradientUnits="userSpaceOnUse">
<stop offset="0.00961538" stop-color="#9C7852"/>
<stop offset="0.379808" stop-color="#E1C292"/>
<stop offset="0.778846" stop-color="#F2E1AF"/>
<stop offset="1" stop-color="#EACE9F"/>
</linearGradient>
<linearGradient id="paint39_linear_24_4096" x1="31.8077" y1="32.8042" x2="31.477" y2="24.6937" gradientUnits="userSpaceOnUse">
<stop offset="0.00961538" stop-color="#9C7852"/>
<stop offset="0.379808" stop-color="#E1C292"/>
<stop offset="0.778846" stop-color="#F2E1AF"/>
<stop offset="1" stop-color="#EACE9F"/>
</linearGradient>
<linearGradient id="paint40_linear_24_4096" x1="24.2767" y1="28.6894" x2="23.7889" y2="19.8112" gradientUnits="userSpaceOnUse">
<stop offset="0.00961538" stop-color="#9C7852"/>
<stop offset="0.379808" stop-color="#E1C292"/>
<stop offset="0.778846" stop-color="#F2E1AF"/>
<stop offset="1" stop-color="#EACE9F"/>
</linearGradient>
<linearGradient id="paint41_linear_24_4096" x1="14.9459" y1="17.1978" x2="14.6757" y2="15.2574" gradientUnits="userSpaceOnUse">
<stop offset="0.00961538" stop-color="#9C7852"/>
<stop offset="0.379808" stop-color="#E1C292"/>
<stop offset="0.778846" stop-color="#F2E1AF"/>
<stop offset="1" stop-color="#EACE9F"/>
</linearGradient>
<linearGradient id="paint42_linear_24_4096" x1="10.6746" y1="9.40336" x2="10.5052" y2="9.37023" gradientUnits="userSpaceOnUse">
<stop offset="0.00961538" stop-color="#9C7852"/>
<stop offset="0.379808" stop-color="#E1C292"/>
<stop offset="0.778846" stop-color="#F2E1AF"/>
<stop offset="1" stop-color="#EACE9F"/>
</linearGradient>
<linearGradient id="paint43_linear_24_4096" x1="18.0088" y1="23.2099" x2="17.3904" y2="13.8986" gradientUnits="userSpaceOnUse">
<stop offset="0.00961538" stop-color="#9C7852"/>
<stop offset="0.379808" stop-color="#E1C292"/>
<stop offset="0.778846" stop-color="#F2E1AF"/>
<stop offset="1" stop-color="#EACE9F"/>
</linearGradient>
<linearGradient id="paint44_linear_24_4096" x1="13.2422" y1="16.5815" x2="12.5839" y2="7.18492" gradientUnits="userSpaceOnUse">
<stop offset="0.00961538" stop-color="#9C7852"/>
<stop offset="0.379808" stop-color="#E1C292"/>
<stop offset="0.778846" stop-color="#F2E1AF"/>
<stop offset="1" stop-color="#EACE9F"/>
</linearGradient>
<linearGradient id="paint45_linear_24_4096" x1="40.2075" y1="40.0921" x2="40.1634" y2="36.0154" gradientUnits="userSpaceOnUse">
<stop offset="0.00961538" stop-color="#9C7852"/>
<stop offset="0.379808" stop-color="#E1C292"/>
<stop offset="0.778846" stop-color="#F2E1AF"/>
<stop offset="1" stop-color="#EACE9F"/>
</linearGradient>
<linearGradient id="paint46_linear_24_4096" x1="38.6217" y1="37.3355" x2="38.6193" y2="36.9744" gradientUnits="userSpaceOnUse">
<stop offset="0.00961538" stop-color="#9C7852"/>
<stop offset="0.379808" stop-color="#E1C292"/>
<stop offset="0.778846" stop-color="#F2E1AF"/>
<stop offset="1" stop-color="#EACE9F"/>
</linearGradient>
<linearGradient id="paint47_linear_24_4096" x1="21.9471" y1="30.1818" x2="21.9272" y2="29.7038" gradientUnits="userSpaceOnUse">
<stop offset="0.00961538" stop-color="#9C7852"/>
<stop offset="0.379808" stop-color="#E1C292"/>
<stop offset="0.778846" stop-color="#F2E1AF"/>
<stop offset="1" stop-color="#EACE9F"/>
</linearGradient>
<linearGradient id="paint48_linear_24_4096" x1="38.4194" y1="36.9687" x2="38.4142" y2="36.7098" gradientUnits="userSpaceOnUse">
<stop offset="0.00961538" stop-color="#9C7852"/>
<stop offset="0.379808" stop-color="#E1C292"/>
<stop offset="0.778846" stop-color="#F2E1AF"/>
<stop offset="1" stop-color="#EACE9F"/>
</linearGradient>
<linearGradient id="paint49_linear_24_4096" x1="49.1871" y1="42.098" x2="49.128" y2="37.4614" gradientUnits="userSpaceOnUse">
<stop offset="0.00961538" stop-color="#9C7852"/>
<stop offset="0.379808" stop-color="#E1C292"/>
<stop offset="0.778846" stop-color="#F2E1AF"/>
<stop offset="1" stop-color="#EACE9F"/>
</linearGradient>
<linearGradient id="paint50_linear_24_4096" x1="47.5599" y1="38.6041" x2="47.5503" y2="37.8742" gradientUnits="userSpaceOnUse">
<stop offset="0.00961538" stop-color="#9C7852"/>
<stop offset="0.379808" stop-color="#E1C292"/>
<stop offset="0.778846" stop-color="#F2E1AF"/>
<stop offset="1" stop-color="#EACE9F"/>
</linearGradient>
<linearGradient id="paint51_linear_24_4096" x1="23.7134" y1="31.6684" x2="23.6581" y2="27.1541" gradientUnits="userSpaceOnUse">
<stop offset="0.00961538" stop-color="#9C7852"/>
<stop offset="0.379808" stop-color="#E1C292"/>
<stop offset="0.778846" stop-color="#F2E1AF"/>
<stop offset="1" stop-color="#EACE9F"/>
</linearGradient>
<linearGradient id="paint52_linear_24_4096" x1="22.1923" y1="30.1856" x2="22.191" y2="29.8992" gradientUnits="userSpaceOnUse">
<stop offset="0.00961538" stop-color="#9C7852"/>
<stop offset="0.379808" stop-color="#E1C292"/>
<stop offset="0.778846" stop-color="#F2E1AF"/>
<stop offset="1" stop-color="#EACE9F"/>
</linearGradient>
<linearGradient id="paint53_linear_24_4096" x1="30.0904" y1="34.4364" x2="30.0904" y2="34.3775" gradientUnits="userSpaceOnUse">
<stop offset="0.00961538" stop-color="#9C7852"/>
<stop offset="0.379808" stop-color="#E1C292"/>
<stop offset="0.778846" stop-color="#F2E1AF"/>
<stop offset="1" stop-color="#EACE9F"/>
</linearGradient>
<linearGradient id="paint54_linear_24_4096" x1="29.8517" y1="34.3689" x2="29.8404" y2="33.965" gradientUnits="userSpaceOnUse">
<stop offset="0.00961538" stop-color="#9C7852"/>
<stop offset="0.379808" stop-color="#E1C292"/>
<stop offset="0.778846" stop-color="#F2E1AF"/>
<stop offset="1" stop-color="#EACE9F"/>
</linearGradient>
<linearGradient id="paint55_linear_24_4096" x1="31.641" y1="36.5844" x2="31.5986" y2="32.5705" gradientUnits="userSpaceOnUse">
<stop offset="0.00961538" stop-color="#9C7852"/>
<stop offset="0.379808" stop-color="#E1C292"/>
<stop offset="0.778846" stop-color="#F2E1AF"/>
<stop offset="1" stop-color="#EACE9F"/>
</linearGradient>
<linearGradient id="paint56_linear_24_4096" x1="7.73108" y1="10.9034" x2="7.0496" y2="0.22873" gradientUnits="userSpaceOnUse">
<stop offset="0.00961538" stop-color="#9C7852"/>
<stop offset="0.379808" stop-color="#E1C292"/>
<stop offset="0.778846" stop-color="#F2E1AF"/>
<stop offset="1" stop-color="#EACE9F"/>
</linearGradient>
<linearGradient id="paint57_linear_24_4096" x1="48.8118" y1="36.4902" x2="48.6923" y2="30.7048" gradientUnits="userSpaceOnUse">
<stop offset="0.00961538" stop-color="#9C7852"/>
<stop offset="0.379808" stop-color="#E1C292"/>
<stop offset="0.778846" stop-color="#F2E1AF"/>
<stop offset="1" stop-color="#EACE9F"/>
</linearGradient>
<linearGradient id="paint58_linear_24_4096" x1="40.1668" y1="35.3903" x2="39.9649" y2="28.3893" gradientUnits="userSpaceOnUse">
<stop offset="0.00961538" stop-color="#9C7852"/>
<stop offset="0.379808" stop-color="#E1C292"/>
<stop offset="0.778846" stop-color="#F2E1AF"/>
<stop offset="1" stop-color="#EACE9F"/>
</linearGradient>
</defs>
</svg>
