<svg width="44" height="45" viewBox="0 0 44 45" fill="none" xmlns="http://www.w3.org/2000/svg">
<g clip-path="url(#clip0_13_4564)">
<path d="M30.2493 9.76845C32.5153 9.70343 32.759 9.79754 32.85 10.73C33.0869 13.1494 32.1719 14.6586 30.2717 14.9648C29.9747 15.0127 29.6726 15.0401 29.379 15.2369C31.0184 15.2369 32.6577 15.2386 34.2971 15.2369C35.1571 15.2352 36.0154 15.2318 36.7999 15.6698C37.6307 16.1335 38.2127 16.8042 38.5405 17.7025C38.6195 17.9198 38.6075 18.2141 38.9611 18.2723C40.2056 18.4759 40.6846 19.3673 40.894 20.4795C40.9987 21.0338 41.2081 21.4069 41.8244 21.631C42.6535 21.9321 42.9471 22.6764 42.9745 23.5542C43.0054 24.5774 42.9059 25.551 41.8656 26.0266C41.3403 26.2662 41.2528 26.5622 41.2579 27.0635C41.2785 29.8285 41.2717 32.5953 41.2631 35.3603C41.2631 35.8086 41.2974 36.096 41.821 36.3287C43.1513 36.9224 43.0844 37.9764 42.9059 39.5181C42.796 40.4728 41.948 40.9981 40.803 40.9981C27.5886 41.0015 14.3725 41.0015 1.15805 40.9981C-0.230683 40.9981 -0.93449 40.2624 -0.989422 38.9021C-1.03749 37.6821 -0.895008 36.6025 0.492008 36.1713C0.80443 36.0738 0.711733 35.8034 0.71345 35.5947C0.720316 32.6586 0.71345 29.7207 0.723749 26.7846C0.723749 26.4612 0.648219 26.2576 0.327214 26.131C-0.975689 25.6177 -1.05122 24.5175 -0.980838 23.3574C-0.922474 22.3992 -0.440108 21.7354 0.485141 21.477C0.979523 21.3384 0.977807 20.9432 1.04475 20.6181C1.28336 19.458 1.70565 18.4793 3.04116 18.2637C3.35702 18.2124 3.34844 17.9523 3.42053 17.7589C4.06254 16.0616 5.31223 15.2489 7.10437 15.2369C8.93255 15.2249 10.7607 15.2352 12.6164 15.112C12.419 15.0726 12.2233 15.0179 12.0242 14.9939C10.2337 14.7852 9.24669 13.7654 9.11966 11.9859C8.96688 9.86085 9.20721 9.62815 11.3856 9.78556C11.468 9.79069 11.5521 9.77529 11.6997 9.76503C11.1865 8.7829 11.08 7.76826 11.1641 6.704C11.2122 6.0983 11.5057 5.83138 12.0619 5.7732C13.0764 5.66712 14.0789 5.72358 14.9578 6.28822C15.3235 6.52263 15.4934 6.44221 15.8076 6.2078C16.35 5.80571 16.9474 5.45837 17.5636 5.18119C18.2932 4.85267 19.0004 4.9964 19.6562 5.47719C20.7617 6.28993 21.1977 6.27624 22.3375 5.46864C23.213 4.84754 24.0816 4.83043 24.945 5.48575C25.4222 5.84678 26.0574 5.93404 26.4522 6.43195C26.641 6.66978 26.8058 6.39431 26.9535 6.30533C27.853 5.76123 28.8349 5.67567 29.8494 5.76465C30.4365 5.81598 30.7695 6.07263 30.8124 6.72624C30.8811 7.76997 30.8141 8.77263 30.2442 9.76674L30.2493 9.76845ZM20.9934 39.7388C26.3132 39.7388 31.6329 39.7388 36.9527 39.7388C38.1818 39.7388 39.4126 39.7388 40.6417 39.7388C41.0193 39.7388 41.3987 39.7319 41.5875 39.3127C42.0716 38.2348 41.536 37.3981 40.355 37.3981C33.0337 37.3981 25.7106 37.4032 18.3893 37.3861C17.8812 37.3861 17.0658 37.6873 17.0366 36.8044C17.0057 35.8342 17.8709 36.1456 18.3962 36.1439C25.2884 36.1251 32.1822 36.1234 39.0744 36.1439C39.7525 36.1456 40.0254 36.0088 40.0134 35.261C39.9688 32.5251 39.9739 29.7875 40.0117 27.0515C40.0203 26.3894 39.8022 26.2559 39.1791 26.2576C27.053 26.2747 14.9252 26.2781 2.79912 26.2525C2.06785 26.2525 1.96485 26.5143 1.97172 27.1371C1.99919 29.7875 2.01464 32.4396 1.96485 35.0899C1.9494 35.8941 2.14338 36.1593 2.99138 36.1508C6.88121 36.1063 10.771 36.1302 14.6609 36.1319C15.1243 36.1319 15.6616 36.1029 15.6582 36.7616C15.6548 37.4067 15.1364 37.3981 14.6609 37.3981C12.3434 37.3964 10.0277 37.3981 7.71033 37.3981C5.59376 37.3981 3.47718 37.3981 1.36061 37.3981C0.953774 37.3981 0.548656 37.3861 0.373562 37.8755C-0.0487225 39.0527 0.431927 39.7388 1.68676 39.7388C8.12231 39.7388 14.5579 39.7388 20.9917 39.7388H20.9934ZM4.62902 18.2449C5.29507 18.2449 5.8358 18.2449 6.37481 18.2449C7.34812 18.2449 8.31972 18.2397 9.29304 18.25C9.74794 18.2551 10.1033 18.4553 10.0878 18.9464C10.0758 19.3844 9.74794 19.5743 9.32222 19.5795C9.12138 19.5812 8.92225 19.5812 8.72141 19.5812C6.94816 19.5812 5.1749 19.5726 3.40165 19.588C2.75449 19.5932 2.20861 20.2793 2.31332 21.0304C2.39744 21.6396 2.94847 21.3453 3.27462 21.347C11.456 21.3641 19.6373 21.3607 27.8169 21.3624C28.1019 21.3624 28.392 21.3521 28.6735 21.3915C29.0615 21.4445 29.3052 21.6686 29.2692 22.0861C29.2365 22.4506 29.0082 22.6456 28.646 22.6645C28.3885 22.6781 28.1311 22.6713 27.8736 22.6713C19.0914 22.6713 10.311 22.6713 1.52884 22.6713C0.524623 22.6713 0.340947 22.8475 0.330647 23.7783C0.318631 24.793 0.488575 24.9846 1.51682 24.9846C14.5029 24.988 27.489 24.988 40.4769 24.9846C41.5 24.9846 41.6716 24.7896 41.6596 23.7749C41.6476 22.8475 41.4639 22.673 40.4563 22.6713C37.5964 22.6679 34.7348 22.6713 31.875 22.6713C31.6741 22.6713 31.4733 22.6781 31.2742 22.6662C30.8793 22.6405 30.6253 22.4386 30.6133 22.0297C30.5995 21.6002 30.8896 21.4291 31.2656 21.3829C31.4922 21.3555 31.7222 21.3607 31.9505 21.3607C34.1821 21.3607 36.4137 21.3607 38.6435 21.3607C39.8246 21.3607 39.9104 21.2032 39.4469 20.1082C39.1928 19.5076 38.7036 19.5829 38.223 19.5829C29.7275 19.5829 21.232 19.5829 12.7365 19.5795C12.1907 19.5795 11.4148 19.742 11.4319 18.9036C11.4474 18.0806 12.2233 18.2517 12.7674 18.2517C20.6055 18.2449 28.4435 18.2466 36.2798 18.2466C36.6059 18.2466 36.9321 18.2466 37.2977 18.2466C36.8085 16.9856 36.0944 16.5219 34.7331 16.5202C29.1559 16.5167 23.5769 16.5184 17.9997 16.5184C14.3948 16.5184 10.7916 16.5202 7.18676 16.5184C6.01947 16.5184 5.1646 16.9821 4.63246 18.2466L4.62902 18.2449ZM22.9658 12.4787C22.9795 12.0732 21.5324 10.843 21.0501 10.896C20.372 10.9713 19.8639 11.4966 19.2957 11.82C18.5884 12.2238 19.4073 13.0913 19.0313 13.7363C18.8717 14.0118 20.4853 15.2608 20.9711 15.1873C21.644 15.0863 22.1727 14.5918 22.7237 14.2513C23.3692 13.8527 22.5092 12.9972 22.9641 12.4787H22.9658ZM20.3033 7.94449C20.3308 7.51845 18.8065 6.23176 18.3516 6.32244C17.6907 6.45419 17.1757 6.94697 16.6092 7.28062C15.9346 7.67757 16.7809 8.4886 16.386 9.10115C16.2213 9.3578 17.8829 10.73 18.3292 10.6428C18.9918 10.5145 19.4982 10.0097 20.0699 9.6829C20.7514 9.2945 19.809 8.44069 20.3033 7.94278V7.94449ZM21.6749 9.05837C21.6646 9.43822 23.1598 10.6907 23.5872 10.6394C24.267 10.5572 24.7459 10.008 25.3347 9.70343C26.0694 9.32529 25.1957 8.44925 25.5956 7.8213C25.745 7.58689 24.1502 6.27624 23.6936 6.32586C23.0121 6.39944 22.5178 6.9367 21.9427 7.24982C21.2114 7.64678 22.1744 8.54164 21.6766 9.05495L21.6749 9.05837ZM17.6735 12.53C17.7198 12.104 16.3191 10.8618 15.7595 10.8994C15.078 10.9473 14.6008 11.5137 14.012 11.8097C13.3219 12.157 14.0412 12.9492 13.7837 13.5396C13.6051 13.9485 15.0282 15.2198 15.6445 15.1873C16.3345 15.1496 16.81 14.5781 17.3988 14.2821C18.1232 13.9194 17.1946 13.0451 17.6735 12.53ZM28.2358 12.4873C28.2495 12.027 26.7561 10.7951 26.2737 10.8977C25.6214 11.038 25.1098 11.5291 24.5502 11.8627C23.891 12.2563 24.6738 13.0605 24.3253 13.685C24.1365 14.0221 25.7106 15.2677 26.2823 15.1873C26.9517 15.0932 27.4736 14.5901 28.0178 14.2462C28.6546 13.8441 27.8118 13.0057 28.2358 12.4856V12.4873ZM26.9723 9.02073C27.0788 9.17986 26.7629 9.60419 27.2298 9.64526C27.8976 9.70343 28.5654 9.60419 29.0494 9.08746C29.5043 8.60153 29.5816 7.96845 29.549 7.33024C29.5335 7.03936 29.288 7.08898 29.0958 7.07358C27.7929 6.97605 27.0256 7.65704 26.9706 9.02244L26.9723 9.02073ZM13.085 7.07872C12.8498 7.12834 12.4842 6.90419 12.407 7.43119C12.225 8.69221 13.4421 9.89507 14.6849 9.6675C14.9475 9.61959 14.9904 9.4964 15.0179 9.27396C15.1844 7.9924 14.4411 7.12834 13.0833 7.07872H13.085ZM12.3984 12.1947C12.34 11.95 12.7074 11.5736 12.225 11.3477C11.7495 11.1253 11.2551 11.0175 10.7316 11.0397C10.5462 11.0483 10.4226 11.0945 10.3642 11.3067C10.2063 11.8764 10.6835 13.1186 11.2122 13.4249C11.5384 13.6148 11.9658 13.8338 12.2542 13.6833C12.5735 13.5156 12.4928 13.0399 12.4241 12.6721C12.3984 12.5335 12.4087 12.388 12.4001 12.193L12.3984 12.1947ZM29.5009 12.9356C29.4786 13.4643 29.6005 13.7089 29.8871 13.7175C30.8296 13.7449 31.566 12.8432 31.6158 11.6403C31.6329 11.2194 31.5419 11.0261 31.0613 11.0278C29.8477 11.0312 29.5644 11.3546 29.5009 12.9356Z" fill="#71553D"/>
<path d="M37.1292 30.7716C37.0383 31.2559 36.707 31.4253 36.2572 31.3876C35.816 31.35 35.5585 31.4424 35.5757 31.9659C35.5877 32.3407 35.2873 32.5306 34.9457 32.5186C34.6007 32.5066 34.3398 32.2859 34.3518 31.9163C34.3672 31.4201 34.0891 31.3859 33.6995 31.3876C31.4404 31.3979 29.1831 31.3962 26.924 31.3876C26.5515 31.3876 26.258 31.3876 26.2872 31.9061C26.3078 32.262 26.0365 32.4981 25.6932 32.5203C25.2967 32.5443 25.0203 32.2842 25.0083 31.9026C24.9928 31.4099 24.7319 31.3842 24.3457 31.3859C22.1158 31.3979 19.8859 31.3945 17.6561 31.3893C17.2973 31.3893 16.9832 31.3551 16.9763 31.8804C16.9712 32.2568 16.7085 32.5357 16.3085 32.5186C15.9206 32.5032 15.67 32.2431 15.6837 31.8428C15.6974 31.4407 15.5017 31.3842 15.1636 31.3859C12.8479 31.3962 10.5322 31.391 8.21647 31.3893C7.9195 31.3893 7.63455 31.3722 7.64141 31.8051C7.64828 32.2414 7.41825 32.5357 6.97194 32.5135C6.58227 32.4929 6.35911 32.2226 6.38314 31.8137C6.41404 31.2952 6.04325 31.391 5.74456 31.391C5.26391 31.391 4.85708 31.2644 4.86738 30.7015C4.87596 30.1831 5.28451 30.0547 5.71366 30.0667C6.14797 30.0804 6.41919 30.0051 6.40374 29.4798C6.39344 29.1513 6.64406 28.9751 6.97194 28.9631C7.33586 28.9494 7.61566 29.112 7.61738 29.4901C7.61738 30.0188 7.9092 30.0667 8.3332 30.065C10.5631 30.053 12.7929 30.0564 15.0228 30.0616C15.3816 30.0616 15.7026 30.0907 15.6906 29.5602C15.682 29.2129 15.924 28.9853 16.2931 28.9631C16.6673 28.9391 16.9368 29.1513 16.9523 29.4935C16.978 30.0872 17.3419 30.065 17.7608 30.0633C19.934 30.0547 22.1055 30.053 24.2787 30.065C24.6873 30.0667 24.9928 30.0547 25.0186 29.5158C25.034 29.1804 25.2795 28.9494 25.6606 28.9614C26.0314 28.9734 26.2889 29.1924 26.282 29.5363C26.2717 30.0479 26.555 30.0633 26.9309 30.0616C29.1608 30.0547 31.3906 30.0547 33.6205 30.0616C34.0205 30.0616 34.3604 30.0667 34.3552 29.5123C34.3518 29.1359 34.6178 28.9545 34.9818 28.9614C35.3491 28.9682 35.598 29.1701 35.5826 29.5414C35.562 30.0547 35.8658 30.0667 36.24 30.0633C36.7104 30.0599 37.0932 30.1985 37.1275 30.7665L37.1292 30.7716Z" fill="#71553D"/>
<path d="M21.6917 12.9547C21.6677 13.4817 21.4188 13.7452 20.9982 13.7435C20.5759 13.7435 20.3064 13.4732 20.3167 13.0368C20.3253 12.6484 20.5622 12.4106 20.9621 12.3867C21.417 12.3593 21.6179 12.633 21.6934 12.9547H21.6917Z" fill="#71553D"/>
<path d="M19.0587 8.46846C18.9832 8.87056 18.7961 9.15972 18.3394 9.15288C17.9309 9.14603 17.7009 8.9082 17.682 8.5198C17.6614 8.09375 17.8811 7.80972 18.3309 7.7909C18.7823 7.77208 18.9797 8.06466 19.0604 8.46846H19.0587Z" fill="#71553D"/>
<path d="M24.3215 8.46323C24.2786 8.88928 24.0829 9.15449 23.6246 9.1562C23.2057 9.1562 22.9774 8.89612 22.9534 8.52996C22.9259 8.11932 23.1576 7.81647 23.604 7.79422C24.0537 7.77198 24.2648 8.04746 24.3232 8.46323H24.3215Z" fill="#71553D"/>
<path d="M15.7301 12.3779C16.1575 12.4275 16.391 12.662 16.3652 13.1085C16.3412 13.5141 16.082 13.7416 15.7043 13.745C15.2803 13.7485 15.0005 13.4815 15.0039 13.0538C15.0074 12.626 15.282 12.3968 15.7283 12.3796L15.7301 12.3779Z" fill="#71553D"/>
<path d="M26.994 13.0796C26.9081 13.5057 26.6627 13.7811 26.2369 13.7435C25.8215 13.7058 25.5726 13.4287 25.6138 12.9838C25.6516 12.5817 25.8988 12.3781 26.2987 12.3849C26.7502 12.3935 26.9425 12.6758 26.994 13.0796Z" fill="#71553D"/>
</g>
<defs>
<clipPath id="clip0_13_4564">
<rect width="44" height="36" fill="white" transform="translate(-1 5)"/>
</clipPath>
</defs>
</svg>
