<svg width="46" height="46" viewBox="0 0 46 46" fill="none" xmlns="http://www.w3.org/2000/svg">
<g clip-path="url(#clip0_13_4707)">
<path d="M36.0237 25.1334C37.4511 24.2747 37.5756 24.3092 38.3151 25.5838C38.6677 26.1914 39.0317 26.797 39.1926 27.487C39.2904 27.9049 39.4494 27.9183 39.8479 27.8186C42.3348 27.2015 42.1834 27.8186 42.1681 29.6203C42.1566 30.985 41.8003 32.202 40.9534 33.2639C40.7427 33.5284 40.6545 33.6587 41.0243 33.8734C41.5033 34.1494 41.3922 34.6036 41.2734 35.0636C40.8691 36.6295 40.4955 38.2012 40.0912 39.8572C40.8883 39.8572 41.5876 39.838 42.285 39.861C44.2508 39.9224 45.9234 41.494 45.9674 43.4433C46.0307 46.1956 46.228 46.0001 43.5917 45.9963C37.9722 45.9886 32.3527 45.9944 26.7332 45.9925C26.4458 45.9925 26.1489 46.0231 25.8768 45.9541C25.5051 45.8621 25.281 45.5861 25.302 45.1798C25.3212 44.8195 25.5377 44.5722 25.8711 44.4955C26.145 44.4323 26.442 44.4572 26.7275 44.4572C32.3144 44.4572 37.9032 44.4265 43.4901 44.484C44.4615 44.4936 44.5401 44.1007 44.427 43.3743C44.2527 42.2626 43.3368 41.448 42.1739 41.3982C41.5052 41.3695 40.8327 41.3925 40.1621 41.3925C28.1894 41.3925 16.2166 41.3925 4.24384 41.3925C2.59804 41.3925 1.59792 42.2722 1.52703 43.704C1.49829 44.2732 1.63624 44.4879 2.25126 44.4687C3.75144 44.4227 5.25163 44.4534 6.75182 44.4534C11.9249 44.4534 17.096 44.4534 22.2691 44.4534C22.5565 44.4534 22.8515 44.4246 23.1293 44.4783C23.5087 44.553 23.7463 44.8156 23.7463 45.22C23.7463 45.6245 23.5087 45.887 23.1293 45.9618C22.8515 46.0174 22.5565 45.9886 22.2691 45.9886C15.5 45.9886 8.73099 45.9886 1.96195 45.9886C0.650162 45.9912 -0.00381515 45.3197 1.67413e-05 43.9742C0.00768053 41.8678 1.15917 40.3153 3.08086 39.9358C3.6978 39.8131 4.3588 39.8055 4.98723 39.8725C5.87815 39.9703 5.86665 39.5659 5.68847 38.9104C5.34743 37.6511 5.08303 36.3689 4.719 35.1154C4.51782 34.4273 4.60404 33.9385 5.34743 33.6357C4.06183 32.2749 3.73995 30.663 3.82233 28.9073C3.87598 27.7477 4.13272 27.4851 5.24971 27.604C5.74786 27.6557 6.32839 28.133 6.68284 27.8397C7.16949 27.4391 6.88402 26.6974 6.88785 26.109C6.90893 22.659 6.87635 19.209 6.90509 15.7609C6.93192 12.6501 7.8669 9.80388 9.57209 7.20871C9.87673 6.74296 10.2293 6.22546 10.8673 6.63946C11.4938 7.04579 11.2045 7.55754 10.8826 8.04246C9.1889 10.5878 8.40337 13.3938 8.42827 16.447C8.45318 19.2895 8.43402 22.13 8.43402 24.9839C9.45331 24.6529 9.96295 23.991 9.96295 22.9982C9.96295 20.635 9.95337 18.2717 9.96486 15.9085C10.0108 7.01321 19.1403 0.722707 27.4728 3.83921C27.6222 3.89479 27.7698 3.95804 27.9135 4.02321C28.3733 4.23212 28.5208 4.61162 28.3331 5.04671C28.1453 5.48179 27.7813 5.61787 27.3042 5.43579C26.4708 5.11571 25.6162 4.87804 24.7272 4.74196C17.8624 3.69162 11.5781 8.97779 11.5072 15.9142C11.4708 19.4907 11.4938 23.0691 11.5015 26.6456C11.5034 27.9279 11.5417 27.947 12.8158 27.6749C14.2087 27.3778 14.5229 27.6576 14.5746 29.0491C14.6321 30.6361 14.3447 32.0947 13.3101 33.3482C13.2162 33.4613 12.9537 33.5859 13.2852 33.7584C13.973 34.1168 13.7853 34.6707 13.6358 35.2515C13.2469 36.7541 12.8924 38.2645 12.5054 39.8553H15.2759C21.0544 39.8553 26.8348 39.838 32.6133 39.8764C33.4218 39.8821 33.4889 39.6406 33.3011 38.9717C32.9313 37.653 32.6229 36.319 32.2799 34.9927C32.1994 34.6784 32.0538 34.2663 32.3412 34.0995C33.098 33.6587 32.6439 33.2965 32.3527 32.8959C31.3373 31.5063 31.3622 29.9059 31.4407 28.3035C31.4618 27.8627 31.7626 27.6212 32.2033 27.5982C32.4562 27.5848 32.7167 27.5905 32.9677 27.6289C33.9819 27.7873 34.489 27.3344 34.489 26.27C34.489 22.9484 34.4928 19.6268 34.489 16.3052C34.4832 12.6425 33.1019 9.61221 30.3141 7.22787C30.1934 7.12437 30.0689 7.02279 29.9482 6.91929C29.5746 6.60112 29.4826 6.19096 29.7738 5.81721C30.1053 5.39171 30.5479 5.44729 30.9598 5.75779C31.9599 6.51487 32.826 7.40612 33.554 8.42579C35.1787 10.699 36.0179 13.2309 36.0256 16.0292C36.0333 19.0211 36.0256 22.0111 36.0256 25.1353L36.0237 25.1334ZM6.37629 35.2591C6.55447 35.9817 6.70009 36.6257 6.87444 37.262C7.10435 38.1111 6.99131 39.3052 7.64848 39.7173C8.29416 40.1236 9.37475 39.8361 10.2657 39.8515C10.2982 39.8515 10.3308 39.8476 10.3615 39.8515C10.7466 39.9128 10.9305 39.7403 11.0186 39.3646C11.3003 38.1571 11.5953 36.9535 11.9095 35.7536C12.0092 35.376 11.9306 35.2457 11.5283 35.2495C9.84224 35.2649 8.15621 35.2553 6.37821 35.2553L6.37629 35.2591ZM33.9659 35.2591C34.1422 35.976 34.2917 36.6161 34.4603 37.2525C34.6863 38.1054 34.5829 39.2975 35.2286 39.7135C35.8647 40.1236 36.9529 39.8361 37.8419 39.8534C37.8745 39.8534 37.9071 39.8495 37.9377 39.8534C38.3132 39.909 38.5125 39.7633 38.6025 39.378C38.8823 38.1705 39.1831 36.9669 39.4935 35.767C39.5854 35.4105 39.5529 35.2476 39.1256 35.2515C37.4396 35.2668 35.7535 35.2572 33.964 35.2572L33.9659 35.2591ZM8.42827 32.9457C8.40145 31.4028 7.42432 29.9864 6.09656 29.4363C5.608 29.2331 5.35318 29.214 5.35701 29.881C5.36659 31.351 6.34372 32.8288 7.70021 33.4057C8.33439 33.676 8.51449 33.4862 8.42827 32.9438V32.9457ZM9.96678 32.9189C9.8614 33.5475 10.1162 33.6702 10.7542 33.3808C12.0801 32.779 13.0151 31.3606 13.0361 29.9135C13.0457 29.3194 12.8848 29.1967 12.3272 29.4229C11.0052 29.9595 10.0089 31.3683 9.96678 32.9189ZM36.0179 32.938C35.9949 31.4105 35.0178 30.0036 33.6939 29.4363C33.075 29.1718 32.9275 29.3424 32.9486 29.971C32.9984 31.4296 33.9564 32.8365 35.2822 33.4038C35.8972 33.6683 36.1061 33.513 36.0179 32.938ZM37.5583 32.8039C37.4645 33.4862 37.6541 33.6913 38.3305 33.3865C39.6563 32.7885 40.5894 31.3798 40.6258 29.927C40.6449 29.2044 40.369 29.214 39.8441 29.4593C38.4148 30.1301 37.7097 31.282 37.5583 32.802V32.8039ZM10.2044 28.8632C10.1871 27.9106 9.94954 27.3356 9.62191 26.7855C9.46097 26.5134 9.30194 26.5115 9.11418 26.73C8.63519 27.2915 8.27116 27.9164 8.22135 28.6715C8.20027 28.9955 9.13717 30.1244 9.23872 29.9979C9.59892 29.5494 10.1756 29.2331 10.2024 28.8632H10.2044ZM37.8093 28.5527C37.7844 27.9279 37.5545 27.3778 37.2556 26.8507C37.1062 26.5881 36.9472 26.4367 36.6923 26.7415C36.2383 27.2839 35.8896 27.88 35.8187 28.5968C35.7803 28.9782 36.723 30.155 36.8456 29.994C37.1943 29.5379 37.8036 29.235 37.8113 28.5546L37.8093 28.5527Z" fill="#71553D"/>
<path d="M30.6595 17.645C30.6595 19.6249 30.6691 21.6029 30.6556 23.5828C30.6461 25.1046 29.7264 26.0496 28.2262 26.0553C24.7488 26.0687 21.2694 26.0668 17.7901 26.0553C16.2803 26.0496 15.3491 25.1142 15.33 23.6135C15.3185 22.6877 15.33 21.762 15.3281 20.8362C15.3281 20.313 15.5503 19.9431 16.0944 19.9431C16.6386 19.9431 16.8646 20.313 16.8627 20.8362C16.8627 21.6987 16.8742 22.5612 16.8608 23.4218C16.8512 23.9987 17.0045 24.3993 17.6521 24.5258C18.3514 24.66 18.3897 24.2019 18.5124 23.7304C18.6005 23.3988 18.7614 23.073 18.9473 22.7816C19.3477 22.1568 19.5336 20.957 19.3266 20.2076C19.2423 19.9028 19.1695 19.5846 19.1676 19.2722C19.1523 17.2923 19.1734 15.3143 19.1523 13.3344C19.1446 12.5601 19.4723 12.2285 20.2425 12.2496C21.1985 12.2764 22.1584 12.2361 23.1145 12.2611C25.0074 12.3109 26.6494 13.7676 26.7912 15.6382C26.8908 16.9396 26.841 18.2545 26.8027 19.5616C26.7797 20.3494 26.0152 21.0241 26.044 21.6527C26.0689 22.2277 27.1207 22.6111 27.3698 23.3701C27.4292 23.5521 27.5212 23.7323 27.5365 23.9182C27.5691 24.3092 27.6419 24.5776 28.1496 24.5335C28.6132 24.4932 28.9581 24.3571 29.0903 23.8876C29.1325 23.7381 29.1191 23.5713 29.1191 23.4122C29.1191 19.5501 29.1133 15.6861 29.1267 11.8241C29.1286 11.0612 28.8144 10.7181 28.0404 10.722C24.6894 10.7354 21.3384 10.7373 17.9874 10.7201C17.1655 10.7162 16.8436 11.0689 16.8551 11.8758C16.88 13.6641 16.8551 15.4504 16.8666 17.2386C16.8704 17.8347 16.788 18.3982 16.0485 18.3676C15.376 18.3388 15.3204 17.7926 15.3223 17.2406C15.3338 15.3565 15.3127 13.4743 15.33 11.5902C15.3434 10.1431 16.2841 9.20014 17.7364 9.19439C21.2464 9.18097 24.7564 9.17905 28.2665 9.19439C29.7092 9.20014 30.6403 10.1546 30.6518 11.6113C30.6671 13.6219 30.6556 15.6344 30.6556 17.645H30.6595ZM20.6965 18.9368C20.7042 20.4241 21.7503 21.4975 23.0685 21.4515C24.3464 21.4074 25.3389 20.2996 25.2852 18.9617C25.2776 18.7586 25.3868 18.404 25.1032 18.3982C23.8157 18.3752 22.693 16.6809 21.233 18.0781C20.913 18.3848 20.6199 18.5477 20.6965 18.9368ZM20.7483 16.6406C21.0127 16.4011 21.1679 16.2937 21.2809 16.1519C22.1163 15.1035 22.1105 15.1054 23.2026 15.9104C23.808 16.357 24.4518 16.7192 25.2431 16.7231C25.36 14.8658 24.4882 13.8346 22.8443 13.7944C21.3805 13.7586 20.6659 14.5221 20.7004 16.0848C20.7023 16.2094 20.7215 16.3321 20.7502 16.6406H20.7483ZM22.9401 24.5239C23.6394 24.5239 24.3388 24.5469 25.0362 24.5143C25.36 24.499 25.86 24.7251 25.9731 24.3629C26.1129 23.9221 25.747 23.5368 25.3676 23.2723C25.1032 23.0883 24.8063 22.9906 24.4748 22.9944C23.49 23.0021 22.5052 22.9886 21.5204 23.0001C20.8613 23.0078 20.3747 23.303 20.0815 23.9106C19.8727 24.3418 19.9225 24.5469 20.4628 24.5316C21.2886 24.5066 22.1143 24.5258 22.9401 24.5258V24.5239Z" fill="#71553D"/>
<path d="M39.0892 18.6876C39.0892 19.9316 39.0835 21.1774 39.0911 22.4213C39.0949 22.9637 38.9455 23.4007 38.319 23.3988C37.6925 23.3988 37.5507 22.958 37.5507 22.4156C37.5564 20.3091 37.5622 18.2027 37.5507 16.0963C37.5085 7.68981 30.5537 1.09073 22.1599 1.55264C18.7725 1.73856 15.7932 3.01698 13.2507 5.28056C12.9135 5.58148 12.5648 5.94373 12.0839 5.59106C11.4133 5.09848 11.6873 4.62123 12.174 4.17656C14.27 2.26948 16.6975 0.975728 19.4641 0.381561C29.7432 -1.82069 39.0815 5.76356 39.0873 16.2918C39.0873 17.0891 39.0873 17.8884 39.0873 18.6857L39.0892 18.6876Z" fill="#71553D"/>
<path d="M26.1293 27.5883C27.0222 27.5883 27.9169 27.5979 28.8097 27.5845C29.3826 27.5749 29.8788 27.7052 29.8693 28.378C29.8597 28.9836 29.4037 29.1312 28.8615 29.1274C26.9781 29.1178 25.0966 29.1197 23.2133 29.1274C22.6595 29.1293 22.2323 28.9395 22.2495 28.3339C22.2649 27.7263 22.717 27.5768 23.2592 27.5845C24.2172 27.5979 25.1733 27.5883 26.1312 27.5883H26.1293Z" fill="#71553D"/>
<path d="M26.0532 32.1925C25.0952 32.1925 24.1392 32.1867 23.1812 32.1944C22.6658 32.1982 22.2692 32.0085 22.2481 31.466C22.2232 30.8623 22.6333 30.6534 23.1927 30.6553C25.1067 30.6591 27.0208 30.661 28.9367 30.6553C29.4521 30.6553 29.8487 30.8393 29.8698 31.3836C29.8928 31.9855 29.4828 32.2001 28.9252 32.1963C27.9673 32.1905 27.0112 32.1963 26.0532 32.1963V32.1925Z" fill="#71553D"/>
<path d="M26.0225 35.2569C25.0646 35.2569 24.1085 35.2531 23.1505 35.2569C22.6294 35.2588 22.2539 35.0423 22.2462 34.4998C22.2385 33.9555 22.6026 33.7217 23.1275 33.7217C25.0742 33.7217 27.0208 33.7236 28.9674 33.7217C29.4885 33.7217 29.864 33.9344 29.8717 34.4788C29.8793 35.0212 29.5153 35.2588 28.9903 35.2569C28.0017 35.2569 27.0112 35.2569 26.0225 35.2569Z" fill="#71553D"/>
<path d="M17.9237 32.1886C17.3183 32.1886 16.7109 32.2078 16.1055 32.1828C15.6207 32.1618 15.3257 31.8743 15.3468 31.3836C15.3659 30.9447 15.6514 30.6725 16.0921 30.6668C17.3681 30.6495 18.6441 30.6457 19.9201 30.6668C20.4029 30.6744 20.6999 30.9734 20.6788 31.4641C20.6597 31.903 20.3742 32.1675 19.9335 32.1809C19.2649 32.202 18.5943 32.1867 17.9237 32.1886Z" fill="#71553D"/>
<path d="M19.1036 29.1162C18.8488 29.1162 18.5901 29.1411 18.3391 29.1105C17.9023 29.0568 17.6379 28.7885 17.6436 28.3457C17.6513 27.9049 17.9195 27.6308 18.3602 27.6021C18.8373 27.5714 19.3163 27.5906 19.7933 27.5886C20.3183 27.5886 20.6823 27.8225 20.6747 28.3668C20.667 28.9092 20.2934 29.1316 19.7723 29.1239C19.55 29.1201 19.3258 29.1239 19.1036 29.1239C19.1036 29.122 19.1036 29.1181 19.1036 29.1162Z" fill="#71553D"/>
<path d="M19.1503 35.257C18.9281 35.257 18.7039 35.2589 18.4817 35.257C17.9969 35.2494 17.6655 35.0136 17.6482 34.5268C17.6291 33.9844 17.9758 33.7314 18.5046 33.7256C18.8878 33.7199 19.271 33.7352 19.6523 33.7199C20.1907 33.7007 20.6543 33.8483 20.6735 34.4539C20.6946 35.1229 20.2079 35.2839 19.6293 35.2609C19.4703 35.2532 19.3113 35.2609 19.1503 35.2589V35.257Z" fill="#71553D"/>
</g>
<defs>
<clipPath id="clip0_13_4707">
<rect width="46" height="46" fill="white"/>
</clipPath>
</defs>
</svg>
