<svg width="44" height="44" viewBox="0 0 44 44" fill="none" xmlns="http://www.w3.org/2000/svg">
<g clip-path="url(#clip0_13_4852)">
<path d="M36.7667 15.4955C37.3695 13.5167 38.7125 12.5749 40.6877 12.4723C41.4518 12.432 41.8274 12.738 41.7962 13.5405C41.7687 14.2477 41.6735 14.9367 41.4389 15.6036C40.9387 17.0273 40.0336 17.7254 38.5128 17.7803C38.0236 17.7987 37.833 17.9196 37.976 18.4052C37.9851 18.4345 37.9906 18.4638 37.9961 18.4949C38.1415 19.3671 38.6692 19.8032 39.5792 19.8032C41.1678 19.8032 41.5067 20.2283 40.6071 21.5603C38.991 23.9514 38.7858 26.3938 39.6946 29.0598C39.9969 29.9466 40.0867 30.9049 40.2681 31.832C40.4477 32.7481 40.2718 33.4022 39.3575 35.196C40.5521 35.196 41.6973 35.2235 42.8406 35.1869C43.6505 35.1612 44.0114 35.4544 44.0004 36.3009C43.9693 38.4996 43.9748 40.6983 43.9986 42.8952C44.0078 43.6629 43.7256 44.0037 42.9286 44.0019C28.9759 43.9909 15.0213 43.9909 1.06865 44.0019C0.267953 44.0019 -0.005054 43.6538 0.00410732 42.8897C0.0279268 40.691 0.0334236 38.4923 0.00227506 36.2954C-0.0105508 35.4452 0.359567 35.1502 1.16576 35.1887C1.92799 35.2253 2.6957 35.1466 3.45426 35.2107C4.19083 35.273 4.48033 35.0843 4.42903 34.2836C4.3539 33.0981 4.40887 31.9034 4.4107 30.7125C4.4107 29.3969 4.47667 29.3346 5.83254 29.3328C6.5343 29.3328 7.24338 29.276 7.93781 29.3474C8.70003 29.4262 8.82463 29.1092 8.82096 28.4258C8.79898 21.1902 8.82463 13.9528 8.78432 6.71714C8.77882 5.81749 9.06649 5.26965 9.77374 4.74562C11.6133 3.38608 13.4016 1.95508 15.1954 0.535076C15.6443 0.175952 16.0969 -0.00360956 16.6905 5.49716e-05C20.2323 0.0275389 23.7741 0.0275389 27.3158 5.49716e-05C27.9095 -0.00360956 28.3621 0.179617 28.811 0.533244C30.7055 2.02471 32.6074 3.50518 34.5221 4.96916C34.9985 5.33378 35.2202 5.73321 35.2074 6.35435C35.1708 8.39916 35.2386 10.4476 35.1744 12.4906C35.1451 13.4379 35.2734 14.2148 36.1089 14.7791C36.3507 14.9422 36.5193 15.2188 36.7685 15.4955H36.7667ZM32.2721 14.2276C32.3344 15.2133 32.0504 16.0507 31.1654 16.5711C29.8609 17.3406 28.4115 16.036 27.0722 16.8459C26.7625 17.0328 26.266 16.7836 25.9783 16.5161C25.5697 16.1368 25.1116 16.1368 24.6206 16.1386C21.11 16.1441 17.5993 16.1386 14.0887 16.146C13.5775 16.146 13.1873 16.2101 13.1726 15.4351C13.1579 14.6142 13.5757 14.6655 14.1254 14.6673C17.3318 14.6783 20.5365 14.6527 23.7411 14.6875C24.5143 14.6966 25.0054 14.6142 25.2106 13.7072C25.4158 12.7929 25.3004 12.4814 24.3476 12.4796C20.9286 12.4759 17.5096 12.4741 14.0906 12.4833C13.5794 12.4833 13.1873 12.5492 13.1744 11.7724C13.1598 10.9515 13.5757 11.001 14.1254 11.0028C17.4839 11.0138 20.8425 11.001 24.1992 11.0156C24.7122 11.0175 25.0732 10.9515 25.3975 10.4531C25.9563 9.59562 26.8798 9.32262 27.8032 9.70739C28.3841 9.94925 28.8604 9.89795 29.4303 9.69457C30.8704 9.1797 32.4132 10.323 32.2263 11.8292C32.1365 12.5529 32.404 12.7105 32.9574 12.8131C33.1901 12.8571 33.4173 12.9322 33.7251 13.0146C33.7251 10.8544 33.7141 8.75462 33.7343 6.65301C33.7379 6.24075 33.4887 6.05935 33.2267 5.85414C31.5172 4.52208 29.8022 3.19919 28.1037 1.85431C27.7464 1.57031 27.3781 1.4732 26.9292 1.47503C23.6623 1.48969 20.3954 1.49335 17.1303 1.47136C16.6081 1.4677 16.2013 1.61428 15.7982 1.93309C14.2206 3.18453 12.6449 4.43963 11.027 5.63977C10.4498 6.06851 10.2593 6.53391 10.2611 7.23933C10.2868 14.3522 10.2868 21.4669 10.2611 28.5797C10.2593 29.2833 10.3857 29.7579 11.0453 30.1225C11.672 30.4688 12.0329 31.1137 12.262 31.7898C12.3627 32.0848 12.4672 32.2699 12.8153 32.2626C13.6581 32.2479 14.501 32.2571 15.4831 32.2571C15.0946 31.5535 14.8326 30.9452 14.7135 30.2892C14.4588 28.8967 14.8216 28.5028 16.238 28.6072C18.5375 28.7776 19.4573 29.571 19.9813 31.9163C20.0784 32.3505 20.3441 32.2497 20.5878 32.2516C21.9913 32.2607 23.3966 32.2699 24.8001 32.2497C25.3333 32.2424 25.7016 32.2259 25.6961 32.9808C25.6925 33.6991 25.3883 33.7394 24.8221 33.7357C21.1283 33.7174 17.4326 33.787 13.7406 33.6899C12.5826 33.6606 12.0842 34.0655 11.9157 35.1337H32.5543C31.6198 33.8585 31.3523 32.5612 31.7096 31.0972C32.1145 29.4427 32.3949 27.757 32.7522 26.0897C32.9043 25.3824 32.8786 24.7521 32.492 24.0907C31.924 23.1214 31.4568 22.0898 30.9749 21.0711C30.5974 20.2722 30.8649 19.8361 31.7298 19.7995C32.186 19.7794 32.6477 19.7702 33.1021 19.8032C33.5712 19.838 33.7489 19.6859 33.7343 19.1912C33.7013 18.0937 33.7251 16.9943 33.7251 15.8949C33.7251 14.5134 33.7141 14.5006 32.2721 14.2221V14.2276ZM22.0499 36.6637C15.4886 36.6637 8.92724 36.6765 2.3659 36.6472C1.64215 36.6435 1.43327 36.8359 1.46442 37.5541C1.52305 38.8935 1.52672 40.2402 1.46442 41.5815C1.42961 42.3345 1.63116 42.5471 2.40621 42.5434C8.56994 42.5086 14.7355 42.5251 20.8993 42.5251C27.827 42.5251 34.7548 42.5141 41.6808 42.5416C42.3697 42.5434 42.5639 42.3657 42.5365 41.6804C42.4815 40.3099 42.4815 38.9338 42.5365 37.5615C42.5639 36.8579 42.3789 36.6435 41.6423 36.6472C35.1121 36.6783 28.5801 36.6655 22.0499 36.6655V36.6637ZM32.754 21.2983C33.245 22.2987 33.661 23.2057 34.1319 24.0815C34.4067 24.5927 34.4708 25.0636 34.3407 25.6481C33.8754 27.7589 33.4631 29.8825 33.0637 32.0079C32.842 33.1934 33.3843 34.0893 34.3114 34.7581C35.2074 35.4049 36.5853 35.3902 37.5106 34.7838C38.4762 34.1516 38.9892 33.0083 38.7785 31.9566C38.3626 29.866 37.9778 27.768 37.5142 25.6866C37.3768 25.0691 37.4519 24.5707 37.7378 24.0339C38.205 23.1599 38.6191 22.2584 39.09 21.2983H32.7522H32.754ZM30.7697 14.6032C30.7403 14.5336 30.722 14.398 30.6432 14.3155C29.936 13.5643 30.0001 12.8387 30.6487 12.082C30.8723 11.8218 30.8118 11.5103 30.5681 11.2557C30.2878 10.9625 29.9488 10.946 29.6648 11.1824C28.9649 11.7614 28.3108 11.8805 27.5834 11.2117C27.2975 10.9478 26.9146 10.9368 26.6031 11.274C26.3209 11.58 26.3576 11.9336 26.5921 12.1864C27.2499 12.9029 27.1876 13.5551 26.5774 14.2587C26.3411 14.5299 26.3374 14.8744 26.6251 15.1675C26.9109 15.457 27.259 15.479 27.5284 15.2335C28.2705 14.5629 28.9227 14.6472 29.6941 15.2317C30.187 15.6036 30.8008 15.2097 30.7678 14.6032H30.7697ZM7.22323 35.1227C10.1494 35.3884 11.5932 34.1187 10.7284 32.1105C9.58868 33.0889 8.46734 34.0545 7.22323 35.1227ZM35.1964 16.0305C35.1964 17.2985 35.1909 18.3264 35.1982 19.3543C35.2037 20.1421 35.8102 19.7152 36.1492 19.7922C36.5413 19.8838 36.6989 19.6767 36.6366 19.2773C36.4607 18.1541 36.1474 17.0914 35.1946 16.0305H35.1964ZM16.5916 30.1152C16.117 30.106 16.2563 30.3808 16.3094 30.6062C16.4872 31.3483 17.3666 32.0738 18.1252 32.1893C18.6163 32.2626 18.5191 31.9456 18.5045 31.7001C18.4623 30.9525 17.3648 30.0748 16.5898 30.117L16.5916 30.1152ZM40.2681 14.4053C40.3084 13.9711 40.0574 14.037 39.8101 14.1122C38.9489 14.3723 38.4872 14.9806 38.238 15.8198C38.1024 16.2779 38.2856 16.3439 38.6631 16.32C39.4198 16.2742 40.2736 15.2482 40.2681 14.4035V14.4053ZM9.66381 31.0056C8.77149 30.6703 7.95797 30.8206 7.08215 30.8334C7.87002 31.8607 8.73057 31.9181 9.66381 31.0056ZM5.90583 34.1645C6.41703 33.9446 7.01985 33.5891 7.03451 33.219C7.05466 32.6858 6.41703 32.3688 5.90583 31.9621V34.1645Z" fill="#71553D"/>
<path d="M21.9629 25.6646C24.649 25.6646 27.3351 25.6774 30.0194 25.6536C30.5709 25.6481 30.8311 25.736 30.8201 26.3847C30.8091 26.9838 30.6442 27.1487 30.0468 27.145C24.6765 27.1231 19.3043 27.1212 13.9339 27.145C13.3073 27.1487 13.1863 26.9362 13.1827 26.3645C13.179 25.8002 13.3421 25.6426 13.9064 25.6481C16.5925 25.6774 19.2768 25.6609 21.9629 25.6609V25.6646Z" fill="#71553D"/>
<path d="M24.173 5.10643C24.3361 5.7917 24.0081 5.96393 23.4438 5.87964C22.8941 5.79719 22.6834 5.99691 22.7237 6.57407C22.7731 7.27033 22.72 7.97209 22.7402 8.67202C22.7548 9.19055 22.7878 9.56433 22.0256 9.57715C21.2066 9.59181 21.245 9.17589 21.2615 8.62804C21.2799 7.95926 21.2267 7.28682 21.278 6.62171C21.3238 6.01523 21.1058 5.77887 20.5158 5.88148C19.8672 5.99508 19.7957 5.65061 19.7811 5.1046C19.7664 4.52926 19.9551 4.32222 20.5066 4.41017C21.0801 4.50178 21.3751 4.30023 21.267 3.68093C21.1608 3.06895 21.4411 2.9187 22.0237 2.92603C22.5606 2.93336 22.8428 3.04513 22.7365 3.63146C22.6192 4.28741 22.9161 4.50728 23.539 4.41383C24.1107 4.32772 24.3361 4.58057 24.1748 5.10643H24.173Z" fill="#71553D"/>
<path d="M21.9062 20.5377C20.7171 20.5377 19.5261 20.5047 18.3388 20.5523C17.7231 20.5762 17.5747 20.3636 17.5802 19.7791C17.5857 19.2295 17.7176 19.0481 18.2948 19.0554C20.7647 19.0865 23.2364 19.0884 25.7063 19.0554C26.2871 19.0481 26.4117 19.2368 26.4191 19.781C26.4264 20.3691 26.2707 20.5743 25.6587 20.5505C24.4091 20.5047 23.1576 20.5359 21.908 20.5359L21.9062 20.5377Z" fill="#71553D"/>
<path d="M21.9996 23.4693C20.7794 23.4693 19.5591 23.4363 18.3406 23.484C17.7286 23.5078 17.5747 23.3008 17.5802 22.7126C17.5857 22.1666 17.714 21.9797 18.293 21.987C20.7629 22.02 23.2346 22.02 25.7045 21.987C26.2816 21.9797 26.4136 22.1629 26.4191 22.7126C26.4246 23.2989 26.2743 23.5078 25.6605 23.484C24.4421 23.4363 23.2218 23.4693 22.0015 23.4693H21.9996Z" fill="#71553D"/>
<path d="M38.1077 38.824C38.2378 39.4195 38.0179 39.6174 37.3986 39.6155C36.7976 39.6155 36.6236 39.4378 36.6364 38.8441C36.6492 38.3165 36.739 38.0709 37.3363 38.1076C37.8475 38.1387 38.2781 38.1241 38.1059 38.824H38.1077Z" fill="#71553D"/>
<path d="M40.3081 39.6191C41.0538 39.4358 41.0318 39.8664 41.074 40.3758C41.1363 41.0904 40.735 41.0354 40.2458 41.0739C39.6137 41.1234 39.5844 40.81 39.5715 40.3153C39.555 39.7198 39.7016 39.4157 40.3081 39.6172V39.6191Z" fill="#71553D"/>
</g>
<defs>
<clipPath id="clip0_13_4852">
<rect width="44" height="44" fill="white"/>
</clipPath>
</defs>
</svg>
