<svg width="34" height="50" viewBox="0 0 34 50" fill="none" xmlns="http://www.w3.org/2000/svg">
<g clip-path="url(#clip0_13_4994)">
<path d="M16.973 49.9978C12.0858 49.9978 7.19863 49.9978 2.31145 49.9978C0.64251 49.9978 0.00387664 49.3382 0.00194724 47.6247C1.78311e-05 45.3803 -0.00577039 43.136 0.00194724 40.8936C0.0115943 38.0384 1.60143 35.6731 4.23314 34.627C6.7703 33.618 9.31712 32.6383 11.8581 31.643C12.8711 31.2468 13.1586 29.7695 12.3309 29.0162C11.1694 27.9604 10.3629 26.7016 10.0599 25.154C9.97312 24.7129 9.75124 24.5841 9.3943 24.4592C7.2623 23.7195 6.49633 22.0099 7.38386 19.9393C7.52277 19.6134 7.5575 19.3401 7.44753 19.0123C7.27581 18.499 7.24494 17.9194 7.55171 17.5037C8.05915 16.8128 7.8527 16.2 7.61731 15.5111C7.29317 14.5626 6.93045 13.6044 6.7896 12.6208C6.52141 10.7394 7.13303 9.09618 8.47011 7.74958C10.7719 5.43303 13.0756 3.11648 15.387 0.80969C16.4636 -0.265642 17.3145 -0.271497 18.3815 0.794077C20.6929 3.10087 23.0043 5.40961 25.2926 7.73982C26.9866 9.46699 27.4516 11.5123 26.7107 13.8327C26.5429 14.3577 26.4039 14.8924 26.2091 15.4057C25.9254 16.1434 26.0277 16.7835 26.1859 17.5837C26.4541 18.9283 26.7686 20.3276 26.7512 21.7055C26.7339 23.0443 25.8599 23.9986 24.5845 24.3987C24.0038 24.5802 23.7896 24.8436 23.6565 25.4272C23.3613 26.7172 22.6898 27.814 21.7348 28.741C20.7199 29.7266 21.0286 31.2312 22.3271 31.7406C24.7176 32.6793 27.1101 33.6161 29.4987 34.5587C32.6186 35.7902 34.2778 38.5166 33.9595 41.844C33.9132 42.3339 33.7183 42.691 33.2302 42.7027C32.7324 42.7145 32.5028 42.3436 32.4719 41.8694C32.4507 41.5454 32.4623 41.2195 32.4584 40.8936C32.4411 38.5088 31.2796 36.8987 29.1456 36.0029C27.4883 35.3062 25.7943 34.6973 24.1292 34.022C23.5967 33.8054 23.4076 33.8698 23.4095 34.5041C23.4288 38.9264 23.4269 43.3507 23.4134 47.773C23.4134 48.3058 23.5658 48.5302 24.1234 48.5263C26.6316 48.5068 29.1398 48.5048 31.6461 48.5263C32.2848 48.5322 32.5009 48.2707 32.4661 47.6539C32.4314 47.0372 32.4546 46.4186 32.4623 45.7999C32.4681 45.2496 32.526 44.6895 33.2475 44.7148C33.8958 44.7363 33.9614 45.2476 33.9556 45.7726C33.9499 46.4888 33.9672 47.2031 33.9518 47.9194C33.9228 49.264 33.18 49.9978 31.8256 49.9998C26.8747 50.0076 21.9239 50.0017 16.9711 50.0017L16.973 49.9978ZM16.9132 18.944C19.2594 18.944 21.6036 18.9498 23.9497 18.9381C24.3665 18.9381 24.9357 19.0962 24.9067 18.3487C24.8797 17.6754 24.3491 17.8413 23.9671 17.8374C22.2634 17.8218 20.5617 17.8276 18.858 17.8296C18.3487 17.8296 17.9396 17.6754 17.9589 17.0763C17.9782 16.5396 18.3622 16.3932 18.833 16.3971C19.6047 16.401 20.3765 16.4205 21.1463 16.3893C22.1959 16.3464 23.479 16.8167 24.2353 16.2078C25.0167 15.5794 25.036 14.2211 25.3775 13.1809C25.9004 11.5884 25.5569 10.1325 24.4109 8.95177C22.0917 6.56301 19.7147 4.23475 17.3743 1.86941C17.027 1.51812 16.7723 1.49665 16.4154 1.8577C14.0538 4.24841 11.6556 6.60204 9.31905 9.01812C8.19807 10.1774 7.92023 11.6118 8.39679 13.1711C8.66305 14.0376 8.99298 14.8846 9.22837 15.7589C9.36536 16.2683 9.6239 16.4127 10.1159 16.4049C11.6903 16.3796 13.2647 16.3991 14.8391 16.3952C15.3735 16.3952 15.9697 16.3815 15.9851 17.0977C16.0006 17.814 15.414 17.8374 14.8719 17.8354C13.1682 17.8315 11.4665 17.8296 9.76281 17.8374C9.36536 17.8394 8.85985 17.7223 8.8695 18.3975C8.87722 19.0747 9.38851 18.9381 9.78018 18.9401C12.1572 18.9498 14.5362 18.944 16.9132 18.944ZM10.44 33.7937C8.58974 34.5197 6.8031 35.2125 5.02226 35.917C2.58349 36.8831 1.49724 38.46 1.47215 41.1219C1.45286 43.2355 1.49531 45.3491 1.45286 47.4607C1.43743 48.2628 1.69211 48.5419 2.49667 48.5263C4.84283 48.4834 7.18899 48.4834 9.53514 48.5263C10.2857 48.54 10.5191 48.3253 10.5134 47.5486C10.4786 43.257 10.4979 38.9654 10.4941 34.6739C10.4941 34.4182 10.4632 34.1625 10.44 33.7898V33.7937ZM16.9827 20.3862C15.3774 20.3862 13.7702 20.4135 12.1649 20.3725C11.5244 20.3569 11.3237 20.5735 11.3604 21.2078C11.4105 22.049 11.3642 22.8959 11.3758 23.741C11.4163 26.4615 13.4499 28.8015 16.0295 29.1118C19.022 29.4728 21.4705 27.8764 22.2191 25.0837C22.5625 23.8034 22.3155 22.4959 22.412 21.2059C22.4602 20.5696 22.2461 20.355 21.6074 20.3706C20.0678 20.4116 18.5242 20.3842 16.9827 20.3842V20.3862ZM21.9837 38.4034C21.0383 39.2269 20.2858 40.0115 19.2806 40.3511C18.6651 40.5599 18.4779 40.8878 18.5513 41.4869C18.6477 42.2578 19.2343 41.9201 19.6047 41.9319C20.2761 41.9514 20.828 42.0782 21.0055 42.8257C21.401 44.4943 20.8936 45.2066 19.213 45.273C18.7249 45.2925 18.5628 45.4291 18.5397 45.9404C18.4181 48.538 18.4027 48.538 20.9997 48.5146C21.0961 48.5146 21.1926 48.5048 21.2891 48.5146C21.839 48.579 21.9991 48.3292 21.9953 47.7847C21.974 44.7344 21.9856 41.684 21.9856 38.4014L21.9837 38.4034ZM11.9662 38.4034C11.9662 41.7113 11.9662 44.7929 11.9643 47.8745C11.9643 48.2258 11.9855 48.46 12.4485 48.5244C15.0378 48.8776 15.3118 48.6317 15.2732 46.0302C15.2636 45.4233 15.0899 45.2223 14.5053 45.2789C13.911 45.3354 13.3206 45.2652 13.0216 44.629C12.3694 43.2414 13.0775 42.0236 14.5593 41.9494C14.8584 41.9338 15.2655 42.0529 15.2462 41.5279C15.2308 41.1376 15.4333 40.6633 14.8603 40.4584C13.7837 40.0739 12.9405 39.3284 11.9662 38.4053V38.4034ZM11.9565 35.4311C12.9618 37.892 15.1883 39.5333 17.1505 39.4026C19.161 39.2679 21.3431 37.492 21.8698 35.4525C18.5744 36.9924 15.3079 36.9143 11.9565 35.4311ZM19.7321 30.1422C18.2175 30.6399 16.7955 30.9229 15.3735 30.474C14.4262 30.1754 14.1734 30.3433 14.1059 31.3971C14.0519 32.2226 14.2969 32.3534 14.951 32.4861C16.1299 32.7281 17.3087 32.7145 18.4818 32.5837C19.8015 32.4373 19.7938 32.3944 19.7359 31.0614C19.7243 30.8077 19.7359 30.5521 19.7359 30.1422H19.7321ZM16.9286 40.8019C16.5659 41.6235 17.0135 42.4412 16.4964 43.0677C15.9601 43.7156 15.086 43.1145 14.4667 43.5536C14.6153 43.8347 14.8256 43.7527 14.9954 43.7605C16.6489 43.8327 16.7434 43.9459 16.7627 45.6458C16.7743 46.5572 16.6643 47.4783 16.8669 48.5283C17.2123 48.1516 17.1177 47.8198 17.1235 47.5271C17.137 46.6528 17.1389 45.7765 17.1274 44.9022C17.1177 44.1294 17.4997 43.7878 18.2426 43.7605C18.6458 43.7468 19.0818 43.8659 19.5835 43.5868C18.8002 43.1536 17.9454 43.7137 17.382 43.0931C16.8283 42.4842 17.3531 41.6411 16.9286 40.8038V40.8019ZM23.9092 23.0189C25.1074 22.5661 25.5473 21.7738 25.2309 20.8487C25.0881 20.4311 24.8103 20.3667 24.4167 20.3745C23.9613 20.3842 23.9015 20.6282 23.9073 20.9951C23.9189 21.6391 23.9112 22.2831 23.9112 23.0189H23.9092ZM9.86507 23.0365C9.86507 22.3378 9.87279 21.7308 9.86314 21.1219C9.85736 20.7882 9.95961 20.4057 9.3943 20.3764C8.883 20.3491 8.62446 20.5579 8.5087 21.0302C8.29646 21.8987 8.71129 22.5661 9.86507 23.0365ZM16.9344 34.1157C16.6489 34.4241 15.8848 33.7566 15.9118 34.67C15.9331 35.4057 16.5582 35.1422 16.9325 35.1364C17.3299 35.1305 18.0091 35.4369 17.9879 34.6134C17.9686 33.8152 17.301 34.3577 16.9325 34.1157H16.9344ZM12.3347 33.1731C12.2035 33.0872 12.0704 33.1536 12.0318 33.2648C11.9971 33.3624 12.026 33.5224 12.0877 33.6102C12.599 34.3284 13.3978 34.4436 14.1734 34.5977C14.3046 34.6231 14.4185 34.5529 14.4378 34.3967C14.4628 34.2035 14.4899 33.9557 14.2969 33.8796C13.6525 33.62 12.9907 33.4053 12.3347 33.1731ZM21.8158 33.4268C21.8293 33.2433 21.7772 33.0872 21.5631 33.1633C20.9071 33.3936 20.2414 33.6083 19.6163 33.9088C19.3906 34.0162 19.3963 34.4045 19.6009 34.5821C19.979 34.91 21.7695 33.9557 21.8158 33.4268Z" fill="#71553D"/>
<path d="M15.2478 12.4767C15.2478 12.1839 15.2228 11.8892 15.2517 11.6004C15.3501 10.6519 15.2575 9.93567 13.9957 10.1679C13.55 10.2499 13.2007 9.9181 13.0792 9.46338C12.9075 8.82716 12.8959 8.17532 13.0888 7.54301C13.2914 6.88337 13.8394 6.79945 14.4143 6.85019C14.9835 6.89898 15.3482 6.79164 15.2556 6.08321C15.1745 5.47236 15.2517 4.79125 15.9 4.6117C16.6216 4.41069 17.4339 4.31701 18.1477 4.71709C18.6494 4.99617 18.6069 5.54847 18.5684 6.03052C18.5182 6.66283 18.7324 6.9224 19.3806 6.85604C19.9247 6.8014 20.5653 6.76627 20.793 7.40639C21.0669 8.17728 21.1152 9.01256 20.7119 9.76783C20.4669 10.2284 19.9595 10.2499 19.508 10.1855C18.715 10.0723 18.5182 10.4216 18.5626 11.1652C18.6185 12.1371 18.5934 13.1148 18.5703 14.0887C18.5452 15.1347 18.1748 15.4099 16.8936 15.406C15.653 15.4021 15.2768 15.0937 15.2498 14.0379C15.2363 13.5188 15.2478 12.9977 15.2478 12.4786V12.4767ZM16.8512 13.835C16.9515 13.833 17.0518 13.8311 17.1541 13.8291C17.1541 12.5118 17.1676 11.1944 17.1483 9.87907C17.1367 9.10038 17.5072 8.76666 18.25 8.72568C18.6532 8.70421 19.1124 8.8818 19.5292 8.47392C18.8423 8.05432 18.0571 8.54613 17.4686 8.06213C16.8126 7.52154 17.4435 6.62771 16.8126 5.91342C17.0924 7.8455 16.2125 8.59492 14.3314 8.32169C14.7693 8.8818 15.1514 8.72568 15.4717 8.72177C16.3746 8.71006 16.7586 9.15503 16.7373 10.0372C16.7258 10.5231 16.7142 11.011 16.7412 11.4969C16.7836 12.2756 16.6042 13.0758 16.8531 13.8369L16.8512 13.835Z" fill="#71553D"/>
</g>
<defs>
<clipPath id="clip0_13_4994">
<rect width="34" height="50" fill="white"/>
</clipPath>
</defs>
</svg>
