<svg width="48" height="48" viewBox="0 0 48 48" fill="none" xmlns="http://www.w3.org/2000/svg">
<g clip-path="url(#clip0_13_5132)">
<path d="M28.3505 23.1388C30.5387 24.4355 32.5572 25.643 34.5892 26.8299C35.4287 27.3216 35.9758 27.9916 35.9467 29.0139C35.8976 30.7222 34.1426 31.669 32.5907 30.7771C30.0631 29.3272 27.5467 27.8544 25.0749 26.3107C24.2554 25.7985 23.657 25.8511 22.8644 26.345C20.4841 27.8247 18.0548 29.222 15.6366 30.6376C14.2544 31.4471 12.9906 31.2047 12.3431 30.0361C11.6911 28.8584 12.1109 27.6097 13.4617 26.8001C15.4691 25.5972 17.4876 24.4126 19.6468 23.1365C17.4206 21.8215 15.3329 20.5957 13.2563 19.3494C12.8678 19.1161 12.7316 19.3196 12.5708 19.6101C12.314 20.0743 12.0707 20.5454 11.7804 20.9868C10.8783 22.3544 9.18133 22.3338 8.42216 20.8976C8.15421 20.3922 7.86171 20.1818 7.33922 20.0926C5.25372 19.7359 3.17268 19.3379 1.09165 18.956C-0.0672126 18.7433 -0.265938 18.3752 0.314608 17.3438C2.6234 13.2182 4.94558 9.10173 7.2767 4.98986C7.81705 4.03622 8.27032 4.00877 8.98038 4.8595C10.3335 6.48092 11.6732 8.11378 12.9995 9.75807C13.368 10.2155 13.6962 10.5059 14.3728 10.4762C15.8509 10.4121 16.7217 11.8369 16.1546 13.2227C16.1256 13.2936 16.0787 13.3554 16.0519 13.4263C15.8152 14.0803 14.9578 14.6452 15.2637 15.2878C15.5071 15.8047 16.3332 16.0379 16.9115 16.3787C18.9993 17.6182 21.1049 18.8302 23.1747 20.0995C23.7486 20.4517 24.1684 20.5043 24.7735 20.1315C27.2586 18.6061 29.7751 17.1379 32.2982 15.6789C32.8364 15.3679 32.986 15.098 32.5885 14.556C32.3005 14.1649 32.066 13.719 31.8673 13.2708C31.2555 11.8872 32.0995 10.4327 33.5665 10.4739C34.2699 10.4945 34.6383 10.2132 35.0357 9.71462C36.3286 8.0932 37.6527 6.49465 38.979 4.90067C39.7359 3.98819 40.1646 4.01563 40.7452 5.0356C43.0607 9.11316 45.365 13.1953 47.6604 17.2843C48.2744 18.3797 48.0891 18.7342 46.8521 18.9606C44.7688 19.3448 42.6878 19.7336 40.6023 20.0972C40.1244 20.1795 39.8476 20.3762 39.5975 20.8427C38.778 22.3658 37.1235 22.3864 36.179 20.9365C35.4168 19.7656 34.4388 19.5331 33.245 20.239C31.673 21.1675 30.1033 22.1005 28.3528 23.1365L28.3505 23.1388ZM39.7225 6.35743C38.3605 8.00858 37.052 9.60942 35.7212 11.192C35.46 11.503 35.4376 11.7431 35.6386 12.093C36.8198 14.1558 37.9876 16.2277 39.1487 18.302C39.3117 18.5947 39.5037 18.7845 39.8543 18.7182C41.904 18.3386 43.9538 17.9612 46.1041 17.5633C45.6262 16.7103 45.2109 16.0356 44.8604 15.329C44.5924 14.7893 44.2843 14.7595 43.7886 15.0088C43.1254 15.345 42.4288 15.6103 41.741 15.8916C41.2833 16.0791 40.8278 16.0882 40.6045 15.5577C40.3768 15.018 40.7072 14.7069 41.1694 14.5103C41.8527 14.2175 42.5404 13.934 43.2147 13.623C43.4224 13.5269 43.7819 13.4446 43.5653 13.0695C43.0964 12.2577 42.7548 11.2491 42.067 10.7392C41.6897 10.4602 40.9819 11.455 40.3969 11.8369C40.2718 11.9192 40.1512 12.0084 40.0351 12.1022C39.6042 12.4452 39.1464 12.7837 38.7066 12.1639C38.2555 11.5304 38.7825 11.2057 39.1844 10.8741C40.7013 9.6239 40.8814 8.11912 39.7248 6.35972L39.7225 6.35743ZM8.23013 6.30483C7.75676 7.15556 7.40843 7.87365 6.97303 8.53C6.62916 9.04913 6.7877 9.3327 7.22087 9.64601C7.85724 10.108 8.47351 10.5997 9.08309 11.1005C9.43588 11.3886 9.62344 11.7523 9.28628 12.1822C8.97368 12.5824 8.60302 12.5893 8.21227 12.292C7.67638 11.8826 7.1003 11.5167 6.61353 11.0525C6.03299 10.5013 5.76728 10.6454 5.39885 11.3109C4.25116 13.3805 4.22213 13.3645 6.35229 14.3045C6.42151 14.3342 6.49296 14.3548 6.55994 14.3868C7.03108 14.6086 7.64959 14.7984 7.40174 15.4936C7.13156 16.2483 6.55101 16.0013 5.99949 15.7818C4.14919 15.0439 2.80872 15.6415 1.9781 17.5747C3.99884 17.9544 6.00173 18.3248 8.00015 18.7136C8.51147 18.812 8.73476 18.5261 8.95135 18.135C10.0566 16.1523 11.1731 14.1764 12.2917 12.2028C12.4882 11.8552 12.611 11.583 12.2828 11.1988C10.9408 9.62314 9.63461 8.01087 8.2279 6.30712L8.23013 6.30483ZM14.3013 29.6428C14.5625 29.5056 14.8685 29.3661 15.1543 29.1945C21.2589 25.5858 27.3614 21.977 33.4593 18.3591C33.8947 18.1007 34.5668 18.0001 34.0577 17.1379C33.571 16.3192 33.1914 16.8955 32.8096 17.1196C26.6982 20.7147 20.5958 24.3234 14.4911 27.9322C14.2343 28.0831 13.9798 28.2432 13.7498 28.4307C13.531 28.6091 13.4416 28.8675 13.56 29.1465C13.6873 29.4507 13.9306 29.6085 14.2991 29.6428H14.3013ZM25.5684 24.886C28.087 26.3771 30.5856 27.8521 33.0797 29.334C33.5196 29.5947 33.9841 29.8646 34.3368 29.2883C34.7522 28.6137 34.185 28.3529 33.734 28.0854C31.8092 26.9419 29.8443 25.8648 27.9754 24.6367C27.0622 24.0353 26.3767 24.0604 25.5684 24.886ZM22.3932 21.3779C19.8701 19.8799 17.4072 18.4278 14.9555 16.955C14.5 16.6806 14.2366 16.6234 13.915 17.186C13.5712 17.7874 13.857 17.9772 14.279 18.2265C16.2372 19.3745 18.22 20.486 20.1313 21.7118C20.9776 22.2538 21.614 22.208 22.3932 21.3779ZM14.8238 12.5184C14.8372 12.2051 14.7322 12.0404 14.5447 11.9832C14.1026 11.846 13.9731 12.2325 13.8145 12.5115C12.5306 14.771 11.2512 17.035 9.9874 19.3036C9.80207 19.6352 9.39569 20.0766 9.94051 20.3693C10.4697 20.6529 10.6081 20.056 10.7912 19.7336C12.0439 17.5427 13.2764 15.3404 14.5112 13.1404C14.6385 12.914 14.7456 12.6762 14.8216 12.5207L14.8238 12.5184ZM33.5687 11.9283C33.4884 11.9764 33.3321 12.0221 33.2539 12.1296C33.0686 12.3789 33.1891 12.6213 33.3254 12.8614C34.6606 15.2215 35.9892 17.5839 37.3222 19.9463C37.4874 20.2413 37.6616 20.6163 38.0724 20.3671C38.4699 20.1269 38.2734 19.7885 38.1015 19.482C36.7684 17.1219 35.4354 14.7595 34.1091 12.3949C33.993 12.1891 33.8657 12.0175 33.571 11.9283H33.5687Z" fill="#71553D"/>
<path d="M4.58635 41.0229C4.58635 39.4609 4.57742 37.8989 4.58858 36.337C4.59975 34.775 5.24728 34.0958 6.74554 34.0684C7.52704 34.0546 8.30854 34.0707 9.09005 34.0638C9.6304 34.0592 10.2355 34.1278 10.5124 34.5761C11.0215 35.4039 11.6087 35.1981 12.321 35.022C13.4553 34.7407 14.4869 34.233 15.5051 33.691C17.2445 32.7648 18.9995 32.5887 20.8796 33.2702C22.59 33.89 24.3495 34.3725 26.0934 34.8985C26.8883 35.1386 27.5827 35.5777 27.8082 36.385C28.0962 37.4164 28.6991 37.158 29.3132 36.9247C31.5393 36.0786 33.7543 35.2073 35.976 34.3519C37.2957 33.8443 38.6108 33.3205 39.9416 32.8494C41.4667 32.3074 42.7327 32.8037 43.3333 34.1255C43.9184 35.4108 43.5633 36.4742 42.2035 37.4027C38.6175 39.8497 35.0472 42.3287 31.4232 44.7162C28.8442 46.4154 26.071 47.568 22.9003 47.0443C21.1431 46.7539 19.4193 46.2851 17.6397 46.093C15.7083 45.8826 13.7768 45.9603 11.8454 45.9031C11.3787 45.8894 11.1309 45.9832 11.0349 46.5503C10.8629 47.5612 10.1417 47.9819 9.17713 47.9911C8.32194 47.998 7.46452 48.0094 6.60933 47.9911C5.30087 47.9614 4.61315 47.2776 4.59305 45.942C4.56849 44.3046 4.58635 42.6649 4.58635 41.0274V41.0229ZM11.1108 40.5129C11.1108 40.5129 11.0974 40.5129 11.0907 40.5129C11.0907 41.4277 11.1555 42.347 11.0728 43.2526C10.9858 44.204 11.3743 44.3823 12.2116 44.3641C15.6391 44.2932 19.0397 44.5539 22.3823 45.4137C24.4053 45.9329 26.3591 45.6333 28.2436 44.7414C29.6302 44.085 30.9387 43.2961 32.207 42.427C35.0472 40.4809 37.903 38.5553 40.7187 36.5725C41.3171 36.1517 42.5005 35.9345 41.9713 34.7842C41.4086 33.5584 40.4462 34.2719 39.6491 34.5486C35.7929 35.891 32.1221 37.7709 28.1297 38.7222C27.9578 38.7634 27.7524 38.848 27.6497 38.9829C26.6292 40.3185 25.3163 40.2407 23.9074 39.8657C21.8777 39.326 19.8391 38.9098 17.7915 39.8017C17.3003 40.0143 16.8761 39.9183 16.6907 39.4014C16.492 38.8503 16.8537 38.5507 17.3204 38.3883C18.7003 37.9127 20.0914 37.517 21.574 37.8464C22.7329 38.1048 23.894 38.3632 25.0595 38.5873C25.754 38.7199 26.3658 38.5164 26.5623 37.7594C26.761 36.991 26.3122 36.5451 25.6289 36.3278C24.4969 35.9665 23.3246 35.7012 22.235 35.2393C19.6314 34.137 17.1373 34.0547 14.7347 35.7561C14.5249 35.9048 14.2524 35.9551 14.0247 36.0809C13.1047 36.5885 11.6199 36.1838 11.1956 37.2357C10.8161 38.178 11.1153 39.4106 11.1153 40.5152L11.1108 40.5129ZM9.66836 41.0549C9.66836 40.1401 9.66836 39.2276 9.66836 38.3129C9.66836 35.5206 9.66836 35.5503 6.94873 35.6075C6.22751 35.6235 6.08907 35.8956 6.09577 36.552C6.1248 38.9875 6.10694 41.4254 6.10694 43.8632C6.10694 46.6715 6.10694 46.6532 8.90919 46.4566C9.49197 46.4154 9.68176 46.2004 9.67283 45.6264C9.6505 44.1033 9.6639 42.5803 9.66613 41.0572L9.66836 41.0549Z" fill="#71553D"/>
<path d="M24.1801 12.7883C23.5973 12.8135 23.3718 12.5825 23.2824 12.1434C23.1708 11.5854 23.0614 11.0251 22.8872 10.4854C22.4183 9.0309 21.6681 7.79597 20.2055 7.18536C19.8773 7.04815 19.5982 6.84918 19.5781 6.4627C19.5602 6.08078 19.7925 5.8338 20.1274 5.68515C21.9896 4.855 22.7666 3.23815 23.1418 1.32629C23.1931 1.06558 23.2579 0.807163 23.3182 0.548742C23.3963 0.207992 23.6285 0.0227522 23.9501 0.00445694C24.323 -0.0161253 24.5931 0.171402 24.6802 0.562464C24.7628 0.932943 24.812 1.31257 24.9057 1.67848C25.3456 3.39137 26.1093 4.85042 27.7705 5.66228C28.6324 6.08536 28.6815 6.7417 27.8688 7.12361C25.9753 8.01551 25.2183 9.65751 24.8231 11.6014C24.7249 12.0794 24.7919 12.7334 24.1801 12.7906V12.7883ZM24.0528 8.98973C24.5329 8.08869 25.0486 7.31114 25.7587 6.69596C25.9797 6.50386 25.9864 6.33234 25.7587 6.14939C25.0085 5.53878 24.5753 4.64918 23.9367 3.80073C23.4544 4.86643 22.3245 5.55708 22.2174 6.37122C22.1169 7.15106 23.441 7.82798 23.834 8.78163C23.8474 8.81364 23.8876 8.83422 24.055 8.99202L24.0528 8.98973Z" fill="#71553D"/>
<path d="M46.8589 26.6884C46.8455 27.0726 46.6446 27.2967 46.3052 27.4545C45.0749 28.0285 44.5546 29.1217 44.2755 30.4001C44.1683 30.8895 44.2063 31.555 43.4828 31.5915C42.6589 31.6327 42.7214 30.894 42.6031 30.3818C42.3061 29.1102 41.7769 28.0537 40.5645 27.4294C39.8187 27.0452 39.8031 26.3797 40.5399 26.0069C41.8461 25.346 42.3619 24.1865 42.6455 22.8441C42.7482 22.357 42.7973 21.799 43.4449 21.8013C44.0924 21.8036 44.1527 22.3776 44.2442 22.8555C44.5032 24.2208 45.0391 25.3849 46.3588 25.9932C46.6624 26.1327 46.8232 26.3545 46.8567 26.6861L46.8589 26.6884ZM43.4583 25.2659C43.0898 25.7188 42.8264 26.0801 42.5205 26.4003C42.2012 26.7341 42.411 26.956 42.65 27.1389C42.9871 27.3996 43.0362 28.0583 43.5409 28.0057C44.0567 27.9531 44.4385 26.5741 44.1147 26.1487C43.9138 25.8834 43.7173 25.6136 43.4583 25.2637V25.2659Z" fill="#71553D"/>
<path d="M8.6409 26.6724C8.65207 27.0109 8.52033 27.2716 8.21443 27.4019C6.86354 27.976 6.33658 29.1423 6.04854 30.4961C5.94137 30.997 5.92797 31.6373 5.18666 31.5984C4.53019 31.5641 4.51456 30.9764 4.41855 30.5099C4.13721 29.1514 3.58569 28.0331 2.27276 27.3882C1.60513 27.0612 1.63193 26.366 2.32412 26.0115C3.61918 25.3483 4.16177 24.2163 4.42971 22.8556C4.52349 22.3776 4.58155 21.8059 5.22908 21.8013C5.87661 21.7967 5.93243 22.3593 6.03068 22.8441C6.31202 24.2391 6.85461 25.4421 8.24122 26.0389C8.50247 26.151 8.62751 26.382 8.6409 26.6724ZM5.20229 28.1886C5.60867 27.6581 6.21824 27.2121 6.2428 26.7342C6.26736 26.2471 5.71361 25.5244 5.22238 25.4649C4.91871 25.4283 4.22875 26.2219 4.23545 26.6335C4.24215 27.1229 4.81153 27.6032 5.20452 28.1886H5.20229Z" fill="#71553D"/>
</g>
<defs>
<clipPath id="clip0_13_5132">
<rect width="48" height="48" fill="white"/>
</clipPath>
</defs>
</svg>
