<svg width="52" height="52" viewBox="0 0 52 52" fill="none" xmlns="http://www.w3.org/2000/svg">
<g clip-path="url(#clip0_13_5272)">
<path d="M26.5132 49.998C23.761 49.998 21.0069 50.0018 18.2547 49.998C16.8567 49.9962 16.3173 49.4577 16.2888 48.057C16.2831 47.7746 16.2812 47.4922 16.2888 47.2098C16.3268 45.9277 16.8529 45.346 18.1312 45.3291C18.6839 45.3215 18.9746 45.1596 19.0049 44.6325C19.0372 44.0828 19.6071 43.55 18.7846 42.9965C13.9507 39.7376 11.1263 35.191 10.2317 29.4791C9.93156 27.5531 9.98854 25.5989 10.0455 23.656C10.0702 22.8201 10.5014 22.2139 11.4017 22.1085C11.812 22.0614 12.0095 21.8656 12.1519 21.5155C12.6173 20.3783 12.9326 19.2073 13.0713 17.9836C13.1168 17.5807 12.9839 17.4226 12.642 17.2983C11.8841 17.0216 11.6049 16.4379 11.6258 15.6717C11.6372 15.2651 11.6163 14.8565 11.6296 14.448C11.6619 13.4408 12.0722 12.9099 13.0447 12.7611C13.4245 12.7028 13.6715 12.5748 13.9032 12.2867C15.833 9.88445 18.3762 8.77369 21.4495 8.88853C22.3004 8.92053 22.6081 8.70403 22.5701 7.81166C22.5321 6.90798 22.8056 6.02502 22.6005 5.07993C22.4542 4.40406 22.9025 3.75643 23.5084 3.32342C23.6869 3.1954 23.8807 3.08809 24.0763 2.98643C26.65 1.64975 26.6899 1.65351 29.1819 3.13327C29.9492 3.58887 30.5589 4.30616 30.3576 5.11759C30.1031 6.14551 30.4887 7.07554 30.4165 8.04322C30.3671 8.71533 30.6235 8.91489 31.2769 8.88288C33.7765 8.75863 36.0311 9.40814 37.9305 11.0818C38.2363 11.351 38.5421 11.6353 38.789 11.9572C39.1442 12.4166 39.507 12.7367 40.149 12.8195C40.8156 12.9042 41.2753 13.3994 41.3152 14.1166C41.3513 14.7737 41.3399 15.4326 41.3133 16.0897C41.2943 16.5603 41.0531 17.0084 40.6276 17.1402C39.8489 17.3793 39.8432 17.8537 39.9571 18.4957C40.1015 19.2996 40.2914 20.0884 40.5573 20.8584C40.7815 21.5079 40.9828 22.0859 41.8869 22.1989C42.603 22.2873 42.8955 22.9858 42.9373 23.7012C43.3988 31.6573 41.0018 38.3482 34.1545 43.0304C33.3339 43.5914 33.9626 44.1298 33.9854 44.6796C34.0063 45.1615 34.2798 45.3197 34.7908 45.331C36.145 45.3611 36.6503 45.9127 36.6826 47.2588C36.6902 47.6033 36.6997 47.9497 36.6788 48.2942C36.6104 49.437 36.0254 49.9943 34.8611 49.998C32.0765 50.0074 29.292 50.0018 26.5075 50.0018L26.5132 49.998ZM26.536 26.7116C21.8863 26.7116 17.2347 26.7266 12.585 26.6965C11.8423 26.6908 11.5992 26.881 11.6505 27.6397C12.0684 33.8204 14.9175 38.5817 20.0914 42.0137C20.4276 42.2359 20.7904 42.2566 21.1759 42.2566C24.7183 42.2509 28.2626 42.2509 31.8049 42.2566C32.2247 42.2566 32.6046 42.2058 32.9674 41.961C38.0976 38.5289 40.9087 33.7771 41.3285 27.6378C41.3798 26.881 41.1347 26.6908 40.3921 26.6965C35.7728 26.7285 31.1553 26.7116 26.536 26.7116ZM26.4904 15.8675C30.6045 15.8675 34.7186 15.86 38.8327 15.875C39.431 15.8769 39.8261 15.8788 39.8166 15.0617C39.8071 14.288 39.4291 14.303 38.8764 14.303C30.6159 14.3106 22.3555 14.3124 14.095 14.303C13.5366 14.303 13.17 14.3011 13.1605 15.0655C13.1491 15.8882 13.5556 15.875 14.1482 15.8732C18.2623 15.86 22.3764 15.8656 26.4904 15.8656V15.8675ZM26.4904 25.1508C31.1401 25.1508 35.7899 25.1433 40.4396 25.1603C41.0132 25.1621 41.3589 25.1414 41.3589 24.3921C41.3589 23.6353 41.0037 23.6278 40.4358 23.6278C31.1364 23.6391 21.835 23.6391 12.5356 23.6278C11.962 23.6278 11.6163 23.6466 11.6163 24.3959C11.6163 25.1527 11.9715 25.1621 12.5394 25.1603C17.1891 25.1452 21.8388 25.1527 26.4885 25.1527L26.4904 25.1508ZM26.4828 48.4599C29.0755 48.4599 31.6701 48.4448 34.2627 48.4712C34.863 48.4769 35.0947 48.33 35.089 47.6899C35.0833 47.0705 34.8838 46.8954 34.2741 46.8973C29.0869 46.9161 23.9016 46.9161 18.7143 46.8973C18.1179 46.8954 17.8881 47.0423 17.8881 47.6786C17.8881 48.3036 18.0894 48.4787 18.7048 48.4712C21.2975 48.443 23.8921 48.4599 26.4847 48.4599H26.4828ZM22.7657 17.4339C22.4789 17.4696 22.0554 17.2588 22.1256 17.8951C22.3878 20.2691 24.2454 22.1085 26.4885 22.0501C28.7849 21.9899 30.3671 20.6024 30.8419 17.8914C30.8951 17.5864 30.8438 17.4169 30.4811 17.4226C29.9226 17.432 29.4307 17.3153 29.2465 18.153C28.9027 19.7288 27.8884 20.4988 26.4847 20.4969C25.0811 20.4969 24.1105 19.7213 23.7154 18.1512C23.573 17.5845 23.3735 17.3058 22.7638 17.4339H22.7657ZM26.4639 45.3102C28.2322 45.3102 30.0024 45.3178 31.7707 45.3008C31.9854 45.2989 32.2912 45.4552 32.4127 45.1107C32.6008 44.5741 32.0291 43.7909 31.4384 43.7891C29.3851 43.7834 27.3319 43.7872 25.2786 43.7891C23.9529 43.7891 22.6252 43.7778 21.2994 43.7947C20.4561 43.8041 20.6802 44.5402 20.5947 44.9789C20.4865 45.5324 21.0145 45.2952 21.2519 45.2989C22.9899 45.3215 24.7259 45.3121 26.4639 45.3121V45.3102ZM19.9091 17.4414C19.3411 17.5807 18.5966 16.967 18.3155 18.0476C17.7969 20.0395 16.7561 20.6814 14.7047 20.3877C14.4844 20.3557 14.3249 20.2541 14.1653 20.5327C13.6525 21.4232 13.8139 21.8016 14.8187 21.9692C15.1929 22.0313 15.5614 22.0746 15.945 22.0256C18.2395 21.7376 19.5444 20.2503 19.9072 17.4395L19.9091 17.4414ZM33.0243 17.5073C33.1516 18.0363 33.2466 18.5597 33.4042 19.0624C34.0728 21.1992 36.1545 22.4097 38.3616 21.9315C38.6598 21.8675 39.2638 21.9466 39.0283 21.3291C38.8688 20.913 39.0682 20.1731 38.0596 20.4066C36.4736 20.7737 35.1384 19.998 34.7965 18.475C34.5571 17.4113 34.0253 17.2701 33.0243 17.5092V17.5073ZM15.7589 12.5484C18.4256 13.4201 20.3022 12.7555 21.5121 10.4737C19.2538 10.3137 17.3791 11.0253 15.7589 12.5484ZM31.3168 10.4944C31.8448 11.1477 32.2456 11.6598 32.6654 12.1568C32.8591 12.3865 32.9788 12.7235 33.3605 12.7254C34.6274 12.7291 35.8943 12.7254 37.4062 12.7254C35.6018 11.0347 33.7347 10.3024 31.3149 10.4925L31.3168 10.4944ZM26.3993 8.8697C26.9995 8.8697 27.6016 8.84335 28.1999 8.87723C28.8362 8.913 28.8077 8.51765 28.8096 8.08652C28.8115 7.64786 28.821 7.28263 28.1885 7.30522C27.1476 7.34099 26.103 7.34099 25.0602 7.30522C24.46 7.28451 24.1485 7.37676 24.1428 8.0997C24.1371 8.84523 24.4923 8.91489 25.0716 8.87912C25.5123 8.85088 25.9567 8.87347 26.3993 8.87159V8.8697ZM26.3955 5.7558C26.9615 5.7558 27.5275 5.75015 28.0935 5.75769C28.3993 5.76145 28.6671 5.71438 28.7564 5.37551C28.8419 5.04793 28.7602 4.77683 28.481 4.54714C27.2844 3.56252 25.7003 3.56252 24.4961 4.54903C24.215 4.77871 24.1333 5.04981 24.2226 5.37739C24.3137 5.71438 24.5835 5.76145 24.8874 5.75769C25.3907 5.74827 25.894 5.7558 26.3955 5.7558ZM21.892 12.731C22.7562 12.731 23.4552 12.731 24.1542 12.731C25.7763 12.731 26.008 12.4411 25.7174 10.8502C25.6699 10.5904 25.5882 10.4605 25.3147 10.4549C24.4429 10.4342 23.554 10.2798 23.0317 11.2889C22.7923 11.752 22.3802 12.1267 21.892 12.7329V12.731ZM31.0718 12.731C30.5399 12.0627 30.0822 11.5882 29.7441 11.0404C29.1705 10.1141 28.2664 10.3815 27.5427 10.5208C26.9482 10.6337 27.3737 11.3774 27.2654 11.8255C27.2445 11.9139 27.273 12.0137 27.2616 12.106C27.1913 12.6086 27.4268 12.7536 27.9093 12.7404C28.8856 12.7122 29.8619 12.7329 31.0737 12.7329L31.0718 12.731ZM21.0525 19.8757C20.5548 20.657 20.1389 21.3121 19.6963 22.0106H22.3859C21.8502 21.3065 21.383 20.6908 21.0525 19.8757ZM30.5608 21.9842H33.3776C32.7337 21.3084 32.3861 20.6174 31.9398 19.8757C31.5732 20.6551 31.1705 21.3046 30.5608 21.9842ZM27.7649 17.4263C27.0109 17.4263 26.2967 17.4339 25.5825 17.4226C25.2292 17.4169 25.1685 17.5449 25.2653 17.8706C25.4496 18.4994 25.7877 18.9494 26.4961 18.9249C27.4097 18.8948 27.6681 18.2622 27.7649 17.4245V17.4263ZM15.5158 18.9419C16.2831 18.9061 16.72 18.4373 16.7447 17.7727C16.7713 17.095 16.135 17.4621 15.8235 17.4489C15.3524 17.4282 14.6553 17.1195 14.6648 18.1116C14.6705 18.7687 15.02 18.8892 15.5158 18.9419ZM37.1251 17.4263C36.8858 17.6014 36.3217 17.0799 36.2039 17.7257C36.0976 18.3112 36.825 18.9682 37.4822 18.9306C37.9571 18.9023 38.2781 18.7649 38.3065 18.1643C38.3502 17.223 37.7215 17.4376 37.1251 17.4263Z" fill="#71553D"/>
<path d="M31.9895 33.6925C31.9895 35.592 31.5641 36.0533 29.6818 36.042C29.0436 36.0382 28.7644 36.1851 28.8157 36.8666C28.8707 37.582 28.8442 38.3068 28.8195 39.026C28.7834 40.0822 28.2439 40.6263 27.1803 40.6978C26.7719 40.7241 26.3598 40.7166 25.9495 40.7016C24.7149 40.6564 24.1793 40.1217 24.1527 38.8961C24.1375 38.1449 24.1299 37.3919 24.1527 36.6426C24.1679 36.1907 23.9893 36.0213 23.543 36.0514C23.1973 36.0759 22.8478 36.0627 22.5021 36.042C22.3482 36.0326 22.1925 35.9818 22.0481 35.9253C21.0567 35.5431 20.6882 34.406 21.0054 32.7191C21.163 31.8832 21.8107 31.3862 22.7832 31.3617C23.0035 31.3561 23.2277 31.3391 23.4461 31.3636C23.9722 31.4239 24.1944 31.2337 24.1584 30.6859C24.1261 30.1907 24.0767 29.673 24.2704 29.1986C24.6218 28.342 25.9837 27.9824 27.5906 28.3269C28.4681 28.5133 28.8252 29.1176 28.8252 29.9705C28.8252 30.1587 28.8499 30.3489 28.8233 30.5334C28.7302 31.1867 28.9923 31.3843 29.659 31.3787C31.5717 31.3636 31.9895 31.8117 31.9895 33.6943V33.6925ZM25.7235 36.7913C25.7235 37.2601 25.7406 37.7307 25.7197 38.1995C25.695 38.7361 25.676 39.1408 26.4661 39.1314C27.1898 39.1239 27.3094 38.8434 27.2601 38.2428C27.2202 37.7458 27.2525 37.2431 27.2525 36.7423C27.2525 34.502 27.2525 34.4926 29.4823 34.4813C30.037 34.4775 30.4434 34.4869 30.432 33.715C30.4206 33.0072 30.1243 32.9074 29.5184 32.9074C27.2734 32.9036 27.2525 32.8848 27.2639 30.6972C27.2677 30.0909 27.1765 29.8123 26.4604 29.818C25.7804 29.8236 25.7007 30.0966 25.7083 30.652C25.7178 31.3636 26.0217 32.2786 25.581 32.738C25.0929 33.2463 24.147 32.8942 23.4024 32.9036C22.8307 32.9112 22.5515 33.0109 22.542 33.6717C22.5325 34.374 22.8288 34.4869 23.4442 34.4888C25.7197 34.4963 25.7197 34.5152 25.7197 36.7932L25.7235 36.7913Z" fill="#71553D"/>
</g>
<defs>
<clipPath id="clip0_13_5272">
<rect width="33" height="48" fill="white" transform="translate(10 2)"/>
</clipPath>
</defs>
</svg>
