<svg width="34" height="38" viewBox="0 0 34 38" fill="none" xmlns="http://www.w3.org/2000/svg">
<g clip-path="url(#clip0_13_6929)">
<path d="M7.53295 15.1623C6.07604 12.5331 6.34239 10.5096 8.2598 9.04723C9.90124 7.79422 12.3578 7.78234 14.0425 9.01754C16.0065 10.4591 16.2825 12.4381 14.8785 15.0807C15.1465 15.2351 15.4433 15.1549 15.7209 15.1564C20.2938 15.1623 24.8667 15.1594 29.4396 15.1608C32.3711 15.1608 33.9965 16.6707 33.9981 19.3905C33.9997 24.2155 34.0013 29.0404 33.9981 33.8654C33.9965 36.4961 32.3631 38 29.5182 38C21.1474 38 12.7782 38 4.40733 38C1.67321 38 0.0157255 36.4694 0.00770282 33.9396C0.00449376 32.703 0.0109119 31.4648 0.00609829 30.2281C0.00449376 29.6788 0.134461 29.2008 0.853291 29.2082C1.53843 29.2171 1.62828 29.6833 1.62347 30.2014C1.61384 31.4885 1.61063 32.7742 1.62347 34.0614C1.63951 35.6039 2.61667 36.5095 4.27094 36.511C11.5716 36.5154 18.8722 36.5139 26.1728 36.511C27.8816 36.511 28.8459 35.6128 28.8572 34.0228C28.8652 32.9835 28.8347 31.9443 28.87 30.9051C28.886 30.4211 28.7272 30.2712 28.1977 30.2771C25.7107 30.3009 23.2237 30.292 20.7366 30.286C18.3058 30.2801 16.5247 28.7212 16.5199 26.6042C16.5135 24.4901 18.2977 22.8838 20.7045 22.8674C23.1643 22.8511 25.6256 22.8422 28.0854 22.8778C28.7352 22.8882 28.9005 22.6997 28.8732 22.1281C28.8251 21.1156 28.87 20.1001 28.8572 19.0847C28.8379 17.5956 27.8672 16.6618 26.2546 16.6588C18.9011 16.6454 11.5459 16.644 4.19232 16.6588C2.62148 16.6618 1.64914 17.5941 1.62507 19.0416C1.60421 20.3525 1.60742 21.6649 1.62507 22.9758C1.63309 23.5118 1.48548 23.972 0.850081 23.9824C0.169761 23.9928 -0.00192436 23.5118 0.00288923 22.9506C0.0125164 21.6144 -0.0147606 20.2783 0.0125164 18.9421C0.0558387 16.7895 1.74541 15.2217 4.08321 15.1623C5.20317 15.1341 6.32474 15.1579 7.53295 15.1579V15.1623ZM26.0717 28.7984C27.9442 28.7984 29.8151 28.7777 31.6876 28.8103C32.2588 28.8207 32.4176 28.6559 32.3968 28.1408C32.3566 27.0778 32.3647 26.0133 32.3935 24.9503C32.4048 24.505 32.2652 24.3491 31.763 24.352C28.0453 24.3699 24.3292 24.3476 20.6115 24.3699C19.1786 24.3788 18.1261 25.3601 18.1277 26.5938C18.1277 27.875 19.1899 28.791 20.6949 28.797C22.4872 28.8044 24.2778 28.7984 26.0701 28.7984H26.0717ZM11.1704 15.1504C12.8439 15.1519 14.1789 13.9375 14.195 12.3995C14.2126 10.8391 12.8423 9.58317 11.1415 9.59802C9.46481 9.61287 8.16514 10.8347 8.17155 12.3891C8.17797 13.939 9.49048 15.1475 11.1688 15.149L11.1704 15.1504ZM29.7445 36.4546C31.2046 36.5585 32.3101 35.6722 32.3711 34.3167C32.4224 33.132 32.3871 31.9458 32.3823 30.7596C32.3823 30.574 32.424 30.3795 32.1272 30.292C31.0506 29.9728 30.5114 30.3484 30.4649 31.3876C30.3863 33.0919 30.8628 34.8631 29.7445 36.4546ZM29.7188 16.7167C30.6173 17.9029 30.4777 19.2198 30.4745 20.5173C30.4745 21.0844 30.5114 21.656 30.4633 22.2201C30.4184 22.7472 30.6189 22.9402 31.1757 22.8689C31.4116 22.8392 31.6571 22.8481 31.8945 22.866C32.2893 22.8956 32.3952 22.7249 32.3903 22.3864C32.3743 21.2017 32.4256 20.014 32.3679 18.8323C32.3037 17.5199 31.2736 16.6944 29.7188 16.7167Z" fill="#AE8456"/>
<path d="M27.4451 5.86867C27.4547 8.23811 25.4121 10.177 22.8673 10.2111C20.3579 10.2453 18.2206 8.29749 18.1869 5.9429C18.1532 3.60168 20.2471 1.63606 22.7887 1.62567C25.3672 1.61379 27.4354 3.49924 27.4451 5.87016V5.86867ZM25.8325 5.91767C25.8357 4.37367 24.5152 3.12512 22.8593 3.11324C21.1681 3.09988 19.7931 4.37219 19.8107 5.93103C19.8284 7.4572 21.2002 8.71912 22.8336 8.71169C24.4751 8.70427 25.8277 7.44384 25.8325 5.91767Z" fill="#AE8456"/>
<path d="M15.8267 3.59418C15.8267 4.51019 15.8347 5.4247 15.8235 6.34071C15.8171 6.82469 15.6647 7.25226 15.0373 7.26859C14.3505 7.2864 14.2077 6.84102 14.2077 6.32141C14.2061 4.53988 14.2077 2.75835 14.2077 0.976823C14.2077 0.458695 14.3441 -0.00301797 15.0196 0.00737428C15.6823 0.0177665 15.8267 0.482448 15.8283 0.997607C15.8331 1.86313 15.8283 2.73014 15.8283 3.59567L15.8267 3.59418Z" fill="#AE8456"/>
<path d="M10.3816 2.34126C10.3816 1.79938 10.3672 1.2575 10.3864 0.717099C10.4009 0.286563 10.6624 0.0237876 11.1293 0.00151845C11.6043 -0.0207507 11.93 0.250932 11.946 0.653261C11.991 1.78305 11.9877 2.9158 11.9524 4.04707C11.9396 4.45386 11.6283 4.7389 11.1598 4.72851C10.6544 4.71811 10.3896 4.42862 10.38 3.96542C10.3688 3.42354 10.3768 2.88314 10.3768 2.34126C10.3768 2.34126 10.3784 2.34126 10.38 2.34126H10.3816Z" fill="#AE8456"/>
<path d="M1.61728 26.5566C1.59321 27.0243 1.35253 27.3063 0.837478 27.3108C0.324028 27.3152 0.0400263 27.0168 0.0352127 26.5774C0.0303991 26.1647 0.333655 25.8752 0.779715 25.8559C1.26428 25.8351 1.55952 26.0994 1.61728 26.5566Z" fill="#AE8456"/>
<path d="M20.2986 25.8351C20.7944 25.8885 21.1185 26.1424 21.1105 26.5893C21.1041 27.0272 20.8136 27.3227 20.2986 27.3123C19.8285 27.3019 19.5669 27.0554 19.5461 26.6219C19.5236 26.1424 19.8349 25.9212 20.2986 25.8366V25.8351Z" fill="#AE8456"/>
</g>
<defs>
<clipPath id="clip0_13_6929">
<rect width="34" height="38" fill="white"/>
</clipPath>
</defs>
</svg>
