<svg width="32" height="35" viewBox="0 0 32 35" fill="none" xmlns="http://www.w3.org/2000/svg">
<g clip-path="url(#clip0_13_6941)">
<path d="M0.692605 16.2379C0.692605 11.6794 0.692605 7.12218 0.692605 2.56362C0.693992 1.22465 1.01996 0.907092 2.37239 0.907092C8.22042 0.907092 14.0671 0.913966 19.9151 0.897469C20.5157 0.896095 20.9748 1.06518 21.3896 1.49272C22.2704 2.40141 23.1609 3.30185 24.0889 4.16104C24.6201 4.65182 24.8407 5.18796 24.8338 5.91243C24.8046 9.21037 24.8171 12.5097 24.8268 15.8076C24.8268 16.1389 24.652 16.5788 24.9586 16.7864C25.5023 17.1521 25.9323 17.7157 26.6356 17.8298C26.7271 17.845 26.8201 17.8422 26.9116 17.8505C29.0741 18.0305 29.3141 18.2093 29.8426 20.3181C29.9785 20.8611 30.3392 21.1759 30.7054 21.5168C31.7554 22.4929 31.9343 23.2613 31.2352 24.5C30.8566 25.1708 30.8094 25.8279 30.9079 26.5442C31.0702 27.7209 30.704 28.4605 29.6359 28.9265C29.1837 29.1231 29.1893 29.3128 29.3765 29.6881C29.8065 30.5473 30.2074 31.4216 30.6069 32.296C30.9994 33.1565 30.6582 33.7078 29.7788 33.4631C28.6511 33.1497 28.0047 33.4548 27.6246 34.5134C27.522 34.7979 27.2862 35.0083 26.9352 35.0014C26.5538 34.9932 26.3748 34.7443 26.232 34.435C25.7978 33.5002 25.3331 32.5805 24.9267 31.6347C24.7464 31.2154 24.4287 31.1096 24.0514 31.1041C23.6492 31.0986 23.301 31.1962 23.1096 31.6416C22.7129 32.5668 22.2676 33.47 21.8418 34.3828C21.692 34.7045 21.5158 35 21.0969 35.0014C20.7141 35.0014 20.4866 34.7526 20.3798 34.446C20.0205 33.4177 19.3644 33.1057 18.3255 33.4755C18.0106 33.5868 17.625 33.5992 17.3808 33.2528C17.1478 32.9215 17.2851 32.6025 17.4308 32.2822C17.754 31.5701 17.7512 31.5674 16.9356 31.5674C12.0363 31.5674 7.1357 31.5674 2.23645 31.5674C1.07267 31.5674 0.696766 31.2058 0.695379 30.0511C0.691218 25.4458 0.692605 20.8418 0.692605 16.2379ZM16.8427 24.7144C16.6915 24.2099 16.353 23.8222 16.4307 23.3507C16.5264 22.7719 16.2226 22.7444 15.7663 22.7472C12.207 22.7623 8.64764 22.7596 5.08834 22.7582C4.85946 22.7582 4.61949 22.7678 4.40311 22.7087C4.13262 22.6358 3.98281 22.4131 4.02165 22.1313C4.05356 21.8935 4.19227 21.6983 4.46136 21.6708C4.66804 21.6488 4.87611 21.6529 5.08417 21.6529C8.87513 21.6488 12.6647 21.6474 16.4556 21.6447C17.3795 21.6447 17.9468 21.1896 18.1992 20.3291C18.3657 19.7654 18.1923 19.6252 17.6236 19.6321C15.382 19.6582 13.1405 19.6431 10.8975 19.6431C8.84045 19.6431 6.78338 19.6403 4.7263 19.6431C4.32959 19.6431 4.00917 19.5194 4.02027 19.0836C4.02998 18.7042 4.32543 18.5461 4.69024 18.5309C4.87472 18.5241 5.06059 18.5268 5.24508 18.5268C9.58949 18.5268 13.9353 18.5268 18.2797 18.5241C18.5502 18.5241 18.8359 18.5887 19.0745 18.3797C19.4976 18.0099 20.0177 17.9481 20.5559 17.8917C21.0275 17.8422 21.5338 17.9343 21.9625 17.6236C22.4438 17.2745 22.8766 16.8497 23.4716 16.671C23.7352 16.5926 23.6894 16.352 23.6894 16.1499C23.6894 12.8286 23.6838 9.50731 23.6991 6.186C23.7005 5.76259 23.5188 5.69798 23.1595 5.70897C22.4674 5.72822 21.7724 5.72134 21.0803 5.7131C20.2938 5.70347 19.9997 5.41753 19.9803 4.6312C19.9636 3.96721 19.9414 3.30047 19.9858 2.63923C20.0219 2.10997 19.8277 1.99587 19.32 1.99724C13.7036 2.01511 8.08725 2.01511 2.47226 1.99724C1.95071 1.99587 1.81338 2.13609 1.81477 2.64886C1.83003 11.6959 1.83003 20.7442 1.81477 29.7912C1.81477 30.3301 1.96458 30.4772 2.50971 30.4758C7.45612 30.4552 12.4011 30.4401 17.3476 30.4882C18.1507 30.4965 18.503 30.2009 18.7374 29.5287C18.8304 29.2606 18.8359 29.1025 18.5516 28.9953C17.3781 28.5526 16.93 27.6934 17.1395 26.496C17.2421 25.9132 16.9883 25.8169 16.4667 25.8211C13.4165 25.8417 10.3649 25.8307 7.31464 25.8307C6.4366 25.8307 5.55856 25.8266 4.68053 25.8307C4.30462 25.8307 4.02027 25.6808 4.02165 25.2932C4.02165 24.9137 4.3074 24.7433 4.67359 24.7213C4.85808 24.7103 5.04395 24.7158 5.22843 24.7158C8.83352 24.7158 12.4386 24.7158 16.0451 24.7158C16.292 24.7158 16.5403 24.7158 16.844 24.7158L16.8427 24.7144ZM30.4959 23.2228C30.5056 22.9397 30.3738 22.7005 30.1464 22.5245C29.2753 21.8468 28.7246 21.0013 28.59 19.8837C28.5221 19.3145 28.1351 19.0162 27.5275 19.0245C26.4761 19.0396 25.5329 18.7701 24.7491 18.025C24.3025 17.6003 23.7809 17.5728 23.3246 18.0031C22.5215 18.7619 21.5602 19.0368 20.4838 19.0286C19.9179 19.0245 19.5461 19.2898 19.4698 19.8507C19.3214 20.9518 18.8068 21.8193 17.9218 22.4984C17.4779 22.8393 17.403 23.3177 17.6957 23.7851C18.2686 24.702 18.4725 25.6685 18.245 26.7297C18.1077 27.3717 18.3962 27.7965 19.019 27.9849C19.9997 28.2818 20.703 28.8867 21.1732 29.7844C21.4908 30.3879 22.0068 30.5597 22.6296 30.2985C23.5757 29.8998 24.5008 29.9163 25.4427 30.3054C26.0794 30.5679 26.5732 30.3562 26.8867 29.7596C27.3472 28.8853 28.0366 28.2928 28.9895 27.9986C29.6706 27.7883 29.9425 27.3456 29.7954 26.6335C29.5985 25.6795 29.7136 24.7735 30.2767 23.9446C30.4168 23.737 30.5112 23.4978 30.4959 23.2201V23.2228ZM28.228 29.8586C27.7758 30.3315 27.5663 30.8869 27.0628 31.2209C26.7812 31.4065 26.2486 31.3158 26.225 31.676C26.2028 31.9977 26.4802 32.3441 26.6439 32.6699C26.7424 32.8637 26.7757 33.1043 27.0712 33.2913C27.4124 32.1379 28.2114 31.8698 29.3973 32.3345C28.9604 31.4093 28.6039 30.6532 28.228 29.8586ZM21.0234 33.4191C21.1968 33.0809 21.3022 32.8885 21.3965 32.6905C21.5449 32.3812 21.7904 32.0746 21.8085 31.7557C21.8376 31.2484 21.2051 31.5014 20.9901 31.2113C20.911 31.1055 20.7543 31.0573 20.6697 30.9542C20.3909 30.6133 20.1287 30.26 19.8111 29.849C19.4241 30.6862 19.0773 31.434 18.6251 32.4101C19.9401 31.7804 20.6253 32.2506 21.0234 33.4191ZM22.5991 4.59408C22.1525 4.07994 21.6836 3.53967 21.1898 2.96917C20.9415 4.60095 20.9901 4.65869 22.5298 4.60508C22.5936 4.60233 22.6574 4.58171 22.5991 4.5927V4.59408Z" fill="#AE8456"/>
<path d="M12.5661 9.2791C15.1087 9.2791 17.6512 9.2791 20.1924 9.27772C20.5253 9.27772 20.8596 9.26948 21.0039 9.64752C21.1634 10.0668 20.8346 10.383 20.2132 10.3844C18.4793 10.3912 16.7468 10.3871 15.013 10.3871C11.7075 10.3871 8.40341 10.3871 5.09794 10.3871C4.91346 10.3871 4.72481 10.4022 4.54449 10.3747C4.20326 10.3225 3.98964 10.1108 4.02294 9.76575C4.05345 9.46194 4.25874 9.28185 4.59165 9.28185C5.12291 9.28185 5.65417 9.2791 6.18682 9.27772C8.31325 9.27772 10.4397 9.27772 12.5661 9.27772V9.2791Z" fill="#AE8456"/>
<path d="M12.548 13.4569C10.0069 13.4569 7.46568 13.4569 4.92312 13.4569C4.51947 13.4569 4.04647 13.4789 4.02705 12.951C4.00625 12.4025 4.4626 12.3392 4.91341 12.3392C9.99576 12.342 15.0795 12.3392 20.1618 12.342C20.5696 12.342 21.008 12.3654 21.0163 12.9056C21.0246 13.4679 20.5752 13.4555 20.1715 13.4555C17.6304 13.4555 15.0892 13.4555 12.5466 13.4555L12.548 13.4569Z" fill="#AE8456"/>
<path d="M12.5659 15.4654C15.1084 15.4654 17.651 15.4654 20.1922 15.464C20.5251 15.464 20.8594 15.4585 21.0023 15.8352C21.1618 16.2545 20.8316 16.5693 20.2102 16.572C18.4306 16.5789 16.6509 16.5748 14.8713 16.5748C11.6129 16.5748 8.35325 16.5748 5.09495 16.5748C4.91046 16.5748 4.7232 16.5871 4.54149 16.5624C4.22939 16.5211 4.01855 16.3273 4.01855 16.0194C4.01855 15.6784 4.22523 15.4722 4.59143 15.4709C5.12269 15.4681 5.65395 15.4667 6.1866 15.4667C8.31303 15.4667 10.4395 15.4667 12.5659 15.4667V15.4654Z" fill="#AE8456"/>
<path d="M10.6723 7.27069C8.75392 7.27069 6.83556 7.26931 4.91719 7.27206C4.51077 7.27206 4.04054 7.28443 4.02667 6.75929C4.0128 6.21216 4.47332 6.15442 4.92274 6.15442C8.73589 6.15717 12.5504 6.15579 16.3636 6.15579C16.4565 6.15579 16.5494 6.15167 16.641 6.15992C16.9947 6.19291 17.2846 6.31251 17.2846 6.7263C17.2846 7.14696 17.0003 7.26519 16.6354 7.26656C15.5715 7.26931 14.509 7.26931 13.4451 7.26931C12.5199 7.26931 11.5961 7.26931 10.6709 7.26931L10.6723 7.27069Z" fill="#AE8456"/>
<path d="M19.3461 24.0572C19.3461 21.4838 21.3935 19.4437 23.9901 19.4286C26.6145 19.4121 28.698 21.4659 28.6952 24.0682C28.6938 26.6678 26.6145 28.7079 23.9804 28.6955C21.3921 28.6832 19.3433 26.6334 19.3447 24.0586L19.3461 24.0572ZM24.0345 20.5448C22.0399 20.5393 20.4683 22.0818 20.4655 24.049C20.4627 26.0203 22.0274 27.582 24.0068 27.5861C26 27.5903 27.5647 26.0492 27.5703 24.0765C27.5758 22.0955 26.0292 20.5503 24.0345 20.5448Z" fill="#AE8456"/>
<path d="M23.1161 25.7908C23.0717 25.7688 22.9275 25.7358 22.8345 25.6492C22.4517 25.2876 22.073 24.9206 21.7165 24.5343C21.5043 24.3047 21.5057 24.0298 21.7304 23.7974C21.9565 23.5624 22.2145 23.5706 22.4739 23.7534C22.4933 23.7672 22.5113 23.7796 22.5294 23.7933C22.7804 23.9871 22.9441 24.4064 23.2451 24.3831C23.6266 24.3542 23.8582 23.9432 24.1495 23.693C24.5851 23.3204 25.0054 22.9314 25.4298 22.5478C25.7225 22.2825 26.0526 22.1835 26.3328 22.5079C26.5797 22.7939 26.4771 23.1005 26.1983 23.3479C25.3605 24.0957 24.5268 24.8463 23.6918 25.5969C23.5517 25.722 23.4033 25.8251 23.1133 25.7908H23.1161Z" fill="#AE8456"/>
</g>
<defs>
<clipPath id="clip0_13_6941">
<rect width="30.9615" height="34.1026" fill="white" transform="translate(0.692383 0.897461)"/>
</clipPath>
</defs>
</svg>
