<svg width="40" height="40" viewBox="0 0 40 40" fill="none" xmlns="http://www.w3.org/2000/svg">
<path d="M5 18.3333H11.6667M35 18.3333H18.3333M16.6667 23.3333H23.3333M30 15L25 5M10 15L15 5" stroke="#AE8456" stroke-width="2" stroke-linecap="round" stroke-linejoin="round"/>
<path d="M33.3597 27.095C32.548 30.8833 32.143 32.7766 30.768 33.8883C29.393 35 27.4563 35 23.583 35H16.4164C12.543 35 10.6063 35 9.23302 33.8883C7.85635 32.7766 7.44968 30.8833 6.63968 27.095L5.92468 23.7616C4.72802 18.1733 4.12802 15.3783 5.62968 13.5233C7.12968 11.6666 9.98802 11.6666 15.703 11.6666H24.2963C30.013 11.6666 32.868 11.6666 34.3697 13.5233C35.4863 14.9066 35.4413 16.81 34.8497 20" stroke="#AE8456" stroke-width="2" stroke-linecap="round"/>
</svg>
