<svg width="36" height="36" viewBox="0 0 36 36" fill="none" xmlns="http://www.w3.org/2000/svg">
<g clip-path="url(#clip0_13_6961)">
<path d="M19.1588 2.29275C18.7732 2.26428 18.3866 2.25002 18 2.25V0C18.4422 0.000215612 18.8843 0.0167268 19.3252 0.0495L19.1588 2.29275ZM23.6678 3.30525C22.9465 3.02691 22.2058 2.80205 21.4515 2.6325L21.9443 0.4365C22.8083 0.63 23.6527 0.8865 24.4777 1.206L23.6678 3.30525ZM26.7502 4.90275C26.4286 4.68819 26.0991 4.48556 25.7625 4.29525L26.8717 2.33775C27.6411 2.77348 28.3774 3.26531 29.0745 3.80925L27.6908 5.5845C27.3857 5.34653 27.072 5.11987 26.7502 4.905V4.90275ZM30.8767 8.93025C30.4316 8.29799 29.9405 7.69938 29.4075 7.13925L31.0365 5.58675C31.6455 6.23025 32.2058 6.91275 32.7173 7.63425L30.8767 8.93025ZM32.5507 11.9722C32.4032 11.6155 32.2426 11.2642 32.0693 10.9193L34.0785 9.90675C34.4757 10.6968 34.8141 11.515 35.091 12.3548L32.9535 13.059C32.8326 12.6919 32.6983 12.3294 32.5507 11.9722ZM33.7432 17.613C33.725 16.8398 33.6498 16.0689 33.5183 15.3068L35.7345 14.9242C35.8845 15.7942 35.9715 16.6717 35.9955 17.5567L33.7432 17.613ZM33.4485 21.0735C33.5235 20.6925 33.5842 20.31 33.6307 19.926L35.865 20.2028C35.7566 21.0805 35.5836 21.9491 35.3475 22.8015L33.1785 22.2007C33.282 21.8302 33.372 21.4545 33.4485 21.0735ZM31.3065 26.4263C31.7205 25.7722 32.085 25.0912 32.4 24.3832L34.4565 25.2945C34.0965 26.1045 33.6802 26.883 33.2077 27.63L31.3065 26.4263ZM29.1375 29.1375C29.412 28.863 29.6745 28.5795 29.925 28.287L31.6305 29.7563C31.3418 30.0912 31.0408 30.4154 30.7282 30.7282L29.1375 29.1375Z" fill="#AE8456"/>
<path d="M18.0002 2.25C15.4102 2.25019 12.8602 2.88911 10.576 4.11016C8.29192 5.33122 6.34417 7.09673 4.90532 9.25031C3.46647 11.4039 2.58093 13.8791 2.32713 16.4566C2.07333 19.0342 2.45911 21.6346 3.45029 24.0274C4.44147 26.4203 6.00747 28.5318 8.00958 30.1749C10.0117 31.818 12.3881 32.942 14.9283 33.4473C17.4686 33.9526 20.0943 33.8237 22.5728 33.072C25.0513 32.3202 27.3062 30.9688 29.1377 29.1375L30.7284 30.7282C28.6353 32.8225 26.058 34.3681 23.2248 35.2282C20.3916 36.0883 17.3899 36.2363 14.4858 35.6591C11.5817 35.0819 8.86487 33.7972 6.57593 31.919C4.28698 30.0408 2.49665 27.627 1.36355 24.8915C0.230443 22.156 -0.210438 19.1832 0.0799643 16.2366C0.370367 13.29 1.38309 10.4605 3.02839 7.99879C4.6737 5.53711 6.9008 3.51925 9.51235 2.12401C12.1239 0.728764 15.0393 -0.000784647 18.0002 6.33281e-07V2.25Z" fill="#AE8456"/>
<path d="M16.875 6.75C17.1734 6.75 17.4595 6.86853 17.6705 7.07951C17.8815 7.29048 18 7.57663 18 7.875V19.5975L25.308 23.7735C25.5595 23.9252 25.7417 24.1693 25.8157 24.4536C25.8896 24.7379 25.8494 25.0399 25.7037 25.2949C25.5579 25.55 25.3182 25.7379 25.0357 25.8186C24.7532 25.8992 24.4504 25.8662 24.192 25.7265L16.317 21.2265C16.1448 21.1281 16.0017 20.986 15.9021 20.8145C15.8025 20.6431 15.7501 20.4483 15.75 20.25V7.875C15.75 7.57663 15.8685 7.29048 16.0795 7.07951C16.2905 6.86853 16.5766 6.75 16.875 6.75Z" fill="#AE8456"/>
</g>
<defs>
<clipPath id="clip0_13_6961">
<rect width="36" height="36" fill="white"/>
</clipPath>
</defs>
</svg>
