<svg width="107" height="96" viewBox="0 0 107 96" fill="none" xmlns="http://www.w3.org/2000/svg">
<path d="M105.529 40.3887H91.3955V40.9011H105.529V40.3887Z" fill="#0D5144"/>
<path d="M105.529 49.2598H91.3955V49.7722H105.529V49.2598Z" fill="#0D5144"/>
<path d="M91.476 46.4681L93.1201 44.1396C93.1931 44.035 93.2522 43.927 93.2939 43.8189C93.3357 43.7074 93.3565 43.6063 93.3565 43.5122V43.5052C93.3565 43.3658 93.3148 43.2577 93.2314 43.181C93.1479 43.1043 93.0298 43.066 92.8768 43.066C92.7273 43.066 92.6057 43.1183 92.5153 43.2229C92.4249 43.3274 92.3658 43.4773 92.3485 43.6725V43.676H91.4238V43.6725C91.4447 43.3518 91.5142 43.073 91.6393 42.8429C91.7645 42.6094 91.9313 42.4351 92.1399 42.3131C92.3519 42.1911 92.5953 42.1318 92.8699 42.1318C93.1688 42.1318 93.4226 42.1841 93.6346 42.2887C93.8466 42.3933 94.0065 42.5466 94.1178 42.7488C94.229 42.951 94.2846 43.1915 94.2846 43.4773V43.4808C94.2846 43.7143 94.2464 43.9479 94.1699 44.1779C94.0934 44.408 93.9892 44.6171 93.8536 44.8054L92.6752 46.4123H94.3124V47.3499H91.4829V46.4681H91.476Z" fill="#0D5144"/>
<path d="M95.4626 47.0082C95.2193 46.7503 95.0977 46.3912 95.0977 45.9311V43.5817C95.0977 43.1181 95.2193 42.7556 95.4661 42.5012C95.7095 42.2432 96.0675 42.1143 96.5298 42.1143C96.9991 42.1143 97.3536 42.2432 97.5969 42.4977C97.8403 42.7521 97.9619 43.1147 97.9619 43.5817V45.9311C97.9619 46.3947 97.8403 46.7572 97.5935 47.0117C97.3501 47.2696 96.9921 47.3986 96.5298 47.3986C96.064 47.3986 95.7094 47.2661 95.4626 47.0082ZM96.933 46.2588C97.0199 46.1263 97.0616 45.9311 97.0616 45.6801V43.8292C97.0616 43.5783 97.0199 43.3865 96.933 43.2506C96.8461 43.1181 96.714 43.0484 96.5298 43.0484C96.349 43.0484 96.2135 43.1147 96.1266 43.2506C96.0397 43.3831 95.998 43.5783 95.998 43.8292V45.6801C95.998 45.9311 96.0397 46.1228 96.1266 46.2588C96.2135 46.3912 96.3456 46.4609 96.5298 46.4609C96.714 46.4609 96.8461 46.3912 96.933 46.2588Z" fill="#0D5144"/>
<path d="M99.1199 47.0082C98.8765 46.7503 98.7549 46.3912 98.7549 45.9311V43.5817C98.7549 43.1181 98.8765 42.7556 99.1233 42.5012C99.3667 42.2432 99.7247 42.1143 100.187 42.1143C100.656 42.1143 101.011 42.2432 101.254 42.4977C101.497 42.7521 101.619 43.1147 101.619 43.5817V45.9311C101.619 46.3947 101.497 46.7572 101.251 47.0117C101.007 47.2696 100.649 47.3986 100.187 47.3986C99.7177 47.3986 99.3632 47.2661 99.1199 47.0082ZM100.587 46.2588C100.674 46.1263 100.715 45.9311 100.715 45.6801V43.8292C100.715 43.5783 100.674 43.3865 100.587 43.2506C100.5 43.1181 100.368 43.0484 100.184 43.0484C99.9993 43.0484 99.8672 43.1147 99.7803 43.2506C99.6934 43.3831 99.6517 43.5783 99.6517 43.8292V45.6801C99.6517 45.9311 99.6934 46.1228 99.7803 46.2588C99.8672 46.3912 99.9993 46.4609 100.184 46.4609C100.368 46.4609 100.503 46.3912 100.587 46.2588Z" fill="#0D5144"/>
<path d="M103.211 47.2206C102.981 47.102 102.804 46.9347 102.679 46.7186C102.554 46.5025 102.491 46.2515 102.491 45.9622V45.8786C102.491 45.6206 102.557 45.3766 102.689 45.15C102.821 44.9235 102.995 44.7527 103.218 44.6342C103.03 44.5331 102.877 44.3936 102.762 44.2089C102.648 44.0242 102.592 43.829 102.592 43.6198V43.4839C102.592 43.2155 102.651 42.975 102.769 42.7728C102.887 42.5671 103.051 42.4103 103.266 42.2952C103.482 42.1837 103.729 42.1279 104.01 42.1279C104.292 42.1279 104.542 42.1837 104.754 42.2952C104.97 42.4068 105.133 42.5671 105.251 42.7728C105.369 42.9784 105.428 43.2155 105.428 43.4839V43.6198C105.428 43.8324 105.369 44.0311 105.255 44.2159C105.14 44.4006 104.984 44.54 104.792 44.6376C105.015 44.7562 105.192 44.927 105.324 45.1535C105.46 45.3801 105.526 45.6206 105.526 45.8786V45.9622C105.526 46.248 105.463 46.499 105.338 46.7186C105.213 46.9347 105.036 47.102 104.806 47.2206C104.577 47.3391 104.309 47.3983 104.007 47.3983C103.708 47.3983 103.44 47.3391 103.211 47.2206ZM104.33 46.3805C104.424 46.3282 104.497 46.2515 104.549 46.1539C104.601 46.0563 104.626 45.9448 104.626 45.8193V45.7705C104.626 45.6555 104.601 45.5509 104.549 45.4638C104.497 45.3766 104.424 45.3069 104.334 45.2581C104.243 45.2093 104.135 45.1849 104.01 45.1849C103.889 45.1849 103.781 45.2093 103.687 45.2581C103.597 45.3069 103.524 45.3766 103.471 45.4638C103.419 45.5509 103.395 45.6555 103.395 45.7705V45.8228C103.395 45.9483 103.419 46.0598 103.471 46.1539C103.524 46.2515 103.597 46.3247 103.687 46.377C103.777 46.4293 103.889 46.4537 104.007 46.4537C104.125 46.4537 104.236 46.4328 104.33 46.3805ZM104.281 44.1706C104.358 44.1218 104.42 44.052 104.462 43.9649C104.504 43.8778 104.525 43.7732 104.525 43.6582V43.6094C104.525 43.5013 104.504 43.4037 104.462 43.3235C104.42 43.2434 104.358 43.1771 104.281 43.1318C104.205 43.0865 104.111 43.0656 104.01 43.0656C103.906 43.0656 103.816 43.0865 103.739 43.1318C103.663 43.1771 103.6 43.2399 103.558 43.3235C103.517 43.4072 103.496 43.5013 103.496 43.6128V43.6651C103.496 43.7802 103.517 43.8778 103.558 43.9684C103.6 44.0555 103.663 44.1252 103.739 44.174C103.816 44.2228 103.909 44.2472 104.01 44.2472C104.111 44.2438 104.205 44.2194 104.281 44.1706Z" fill="#0D5144"/>
<path d="M15.5412 49.0996H1.47363V49.612H15.5412V49.0996Z" fill="#0D5144"/>
<path d="M15.5412 40.2324H1.47363V40.7448H15.5412V40.2324Z" fill="#0D5144"/>
<path d="M9.31625 37.4118C11.023 30.1441 14.805 23.2494 20.4292 17.348C29.2445 8.10045 41.6505 2.58257 53.6082 2.58257C74.3776 2.58257 91.9456 17.2121 97.2848 37.4118H98.3207C96.1829 29.0914 92.0012 21.4856 86.0746 15.3577C77.4713 6.46914 65.9412 1.5752 53.6047 1.5752C41.3759 1.5752 28.7022 7.21159 19.6992 16.6509C13.8873 22.7474 9.99409 29.8861 8.27344 37.4118H9.31625Z" fill="#0D5144"/>
<path d="M98.8104 52.7385C98.0735 62.129 93.9057 71.1884 86.7868 78.6548C77.9715 87.8989 65.5654 93.4203 53.6078 93.4203C30.8813 93.4203 11.9855 75.9011 8.75274 52.7385H7.74121C9.18377 63.3351 13.8486 73.1055 21.1414 80.6417C29.7447 89.5302 41.2747 94.4242 53.6113 94.4242C65.84 94.4242 78.5137 88.7878 87.5167 79.3485C94.8164 71.6903 99.092 62.387 99.8289 52.7385H98.8104Z" fill="#0D5144"/>
<path d="M27.0369 51.3868L40.1764 63.904V71.3111C40.8508 71.7155 41.546 72.0919 42.2621 72.437V63.0081L26.6963 48.1799C26.7519 49.2605 26.8666 50.3306 27.0369 51.3868Z" fill="url(#paint0_linear_13_12725)"/>
<path d="M49.1339 31.4168L41.4448 24.0933C40.8018 24.4314 40.1691 24.7904 39.5504 25.1739L49.1304 34.2995V44.1257L33.9748 29.6879C33.4916 30.1898 33.0258 30.7092 32.5809 31.246L49.1304 47.0084V56.8346L28.7364 37.4052C28.4305 38.0919 28.1593 38.796 27.916 39.5071L49.1304 59.7173V62.4919V74.6117C49.8152 74.7267 50.5104 74.8174 51.216 74.8801V62.4989V58.8249V21.127C50.5173 21.1967 49.8221 21.2978 49.1304 21.4232V31.4168H49.1339Z" fill="url(#paint1_linear_13_12725)"/>
<path d="M80.5332 48.1658L64.957 63.0044V72.3218C65.6661 71.9802 66.3614 71.6037 67.0427 71.2028V63.9003L80.4463 51.1321C80.5367 50.1561 80.5715 49.1662 80.5332 48.1658Z" fill="url(#paint2_linear_13_12725)"/>
<path d="M78.1977 37.6774L58.0817 56.8383V47.0121L74.5061 31.3648C74.0785 30.8105 73.6336 30.2737 73.1678 29.7544L58.0817 44.126V34.2997L67.7243 25.1149C67.116 24.7245 66.4868 24.3585 65.8472 24.0204L58.0817 31.417V21.3817C57.3969 21.2667 56.7017 21.176 55.9961 21.1133V58.8252V62.4991V74.8769C56.6948 74.8072 57.39 74.7061 58.0817 74.5806V62.4991V59.7245L79.0006 39.8002C78.7573 39.0786 78.4931 38.371 78.1977 37.6774Z" fill="url(#paint3_linear_13_12725)"/>
<path d="M23.2656 30.0991L23.13 30.005L22.3479 31.7199L22.4348 31.7862C22.6781 31.9744 22.8658 32.187 22.991 32.4206C23.1161 32.6506 23.1822 32.8876 23.1926 33.1282C23.203 33.3687 23.1544 33.6057 23.0466 33.8358C22.9076 34.1425 22.7164 34.376 22.4835 34.5364C22.2506 34.6932 21.976 34.7769 21.6701 34.7804C21.3538 34.7874 21.0201 34.7072 20.669 34.5434L18.2914 33.4523C17.9368 33.2885 17.6587 33.0863 17.4571 32.8458C17.2624 32.6088 17.1443 32.3474 17.1095 32.065C17.0747 31.7827 17.1269 31.4864 17.2659 31.1796C17.3702 30.9531 17.5162 30.7648 17.7074 30.6184C17.8986 30.4686 18.128 30.3675 18.3852 30.3117C18.6459 30.2559 18.9275 30.2559 19.2195 30.3082L19.3237 30.3256L20.1059 28.6107L19.9494 28.5688C19.3133 28.405 18.7085 28.3702 18.1454 28.4608C17.5788 28.5514 17.0713 28.7675 16.6402 29.1022C16.2092 29.4368 15.8651 29.8795 15.6183 30.4198C15.3228 31.0681 15.1977 31.7025 15.2498 32.309C15.3019 32.919 15.5244 33.4767 15.9103 33.9647C16.2926 34.4527 16.8314 34.8571 17.5127 35.1673L19.8903 36.2583C20.516 36.5476 21.1243 36.6906 21.6979 36.6906C21.7466 36.6906 21.7952 36.6906 21.8439 36.6871C22.4661 36.6592 23.0327 36.464 23.5228 36.105C24.0129 35.7494 24.4092 35.2405 24.7047 34.5922C24.948 34.0554 25.0592 33.5081 25.028 32.9608C24.9967 32.4136 24.8298 31.8872 24.5274 31.3958C24.225 30.9182 23.8009 30.479 23.2656 30.0991Z" fill="#0D5144"/>
<path d="M22.2612 20.3879L25.414 22.9673L23.2171 25.6687L20.0643 23.0893L18.9033 24.515L26.495 30.73L27.656 29.3008L24.5901 26.7911L26.787 24.0932L29.8529 26.6029L31.0174 25.1738L23.4257 18.9587L22.2612 20.3879Z" fill="#0D5144"/>
<path d="M27.2499 15.6121L25.8301 16.8328L32.2082 24.2928L33.628 23.0722L27.2499 15.6121Z" fill="#0D5144"/>
<path d="M37.2983 15.4594C37.5417 15.0272 37.6529 14.5532 37.6251 14.0512C37.6008 13.5493 37.4374 13.0438 37.1384 12.5454C36.843 12.0504 36.478 11.6705 36.0504 11.409C35.6194 11.1476 35.1536 11.0221 34.66 11.0326C34.1699 11.043 33.6798 11.1929 33.2001 11.4822L29.6719 13.5946L34.7052 22.0335L36.2833 21.0889L34.2637 17.7042L35.3969 17.0245L39.2102 19.3321L41.0907 18.2027L37.0342 15.8394C37.1384 15.7174 37.2253 15.5919 37.2983 15.4594ZM35.6298 14.6508C35.5534 14.8076 35.4317 14.9296 35.2683 15.0307L33.3565 16.1775L32.1607 14.1732L34.0726 13.0264C34.2429 12.9253 34.4132 12.8765 34.5835 12.8835C34.7573 12.887 34.9207 12.9428 35.0806 13.0508C35.244 13.1624 35.3865 13.3192 35.5082 13.5214C35.6298 13.7305 35.6994 13.9362 35.7202 14.1349C35.7376 14.3231 35.7098 14.4974 35.6298 14.6508Z" fill="#0D5144"/>
<path d="M46.0824 6.40332L43.8821 7.07258L42.0502 12.4475L40.7188 8.03463L38.96 8.56795L41.7999 17.9724L43.5588 17.4391L42.8323 15.0374L43.5935 13.0192L47.1669 16.3411L49.2699 15.7032L44.3131 11.109L46.0824 6.40332Z" fill="#0D5144"/>
<path d="M55.2593 7.41755C54.943 6.87726 54.505 6.45897 53.9558 6.18012C53.41 5.90126 52.7809 5.7688 52.0822 5.80018C51.3835 5.82806 50.7682 6.00583 50.2468 6.33C49.7219 6.65417 49.3187 7.10383 49.0476 7.66852C48.7764 8.22972 48.6548 8.87806 48.6826 9.5996L48.7903 12.3045C48.8182 13.0261 48.9954 13.6639 49.3083 14.1973C49.6246 14.7375 50.0626 15.1558 50.6118 15.4347C51.1089 15.6891 51.672 15.8181 52.2942 15.8181C52.3568 15.8181 52.4194 15.8181 52.4854 15.8146C53.1806 15.7867 53.7993 15.609 54.3208 15.2848C54.8456 14.9606 55.2489 14.511 55.52 13.9463C55.7911 13.3851 55.9128 12.7367 55.885 12.0152L55.7772 9.31029C55.7494 8.59223 55.5721 7.95435 55.2593 7.41755ZM53.8376 13.0958C53.7124 13.3677 53.5282 13.5803 53.2849 13.7371C53.0416 13.8905 52.7461 13.9777 52.4159 13.9916C52.0822 14.0055 51.7832 13.9428 51.5295 13.8103C51.2757 13.6779 51.0706 13.4792 50.9246 13.2178C50.7752 12.9529 50.6917 12.6391 50.6778 12.2801L50.5631 9.48457C50.5492 9.12554 50.6048 8.80486 50.7335 8.52949C50.8586 8.2576 51.0463 8.04149 51.2862 7.88812C51.5295 7.73475 51.8249 7.6476 52.1552 7.63366C52.1865 7.63366 52.2143 7.63017 52.2455 7.63017C52.541 7.63017 52.8087 7.69292 53.045 7.81492C53.2988 7.94737 53.5039 8.14955 53.6499 8.40749C53.7993 8.6724 53.8828 8.98612 53.8967 9.34514L54.0114 12.1407C54.0183 12.4962 53.9627 12.8204 53.8376 13.0958Z" fill="#0D5144"/>
<path d="M60.7545 13.2147L60.1115 6.42106L60.101 6.32346L58.2031 5.92261L59.3433 16.2055L60.8449 16.5227L66.0243 7.57135L64.1263 7.17049L60.7545 13.2147Z" fill="#0D5144"/>
<path d="M75.5459 12.1828C74.816 11.7122 74.1103 11.5484 73.4429 11.6913C72.779 11.8377 72.2054 12.2804 71.7362 13.0124C71.5207 13.347 71.3573 13.7095 71.253 14.0895C71.1835 14.3335 71.1348 14.5844 71.1105 14.8424C70.815 14.811 70.53 14.8319 70.2519 14.9016C69.5949 15.0655 69.0422 15.4942 68.6042 16.1774C68.281 16.6793 68.1037 17.1848 68.0724 17.6728C68.0411 18.1677 68.1558 18.6383 68.4165 19.074C68.6738 19.5028 69.07 19.8932 69.5949 20.2348C70.3666 20.7332 71.1487 20.9877 71.9169 20.9981C71.9621 20.9981 72.0038 20.9981 72.0455 20.9981L72.1985 21.7929L74.0756 23.0024L73.6515 20.5973C73.8149 20.5171 73.9782 20.423 74.1416 20.3149C74.8368 19.8548 75.4764 19.1681 76.05 18.2758L76.123 18.1608L74.6317 17.1987L74.5587 17.3137C74.1694 17.9203 73.7558 18.3978 73.3247 18.7394L72.9597 16.6724C72.8937 16.2959 72.8589 15.9299 72.8589 15.5918C72.8589 15.2572 72.8902 14.947 72.9563 14.6681C73.0188 14.3962 73.1127 14.1627 73.2378 13.971C73.4464 13.6468 73.6793 13.4411 73.933 13.3644C74.1833 13.2878 74.4336 13.3331 74.7047 13.5074C74.9515 13.6677 75.0871 13.8594 75.1184 14.0964C75.1497 14.3404 75.0697 14.6123 74.882 14.9121L74.7012 15.191L76.2481 16.1879L76.4288 15.909C76.8807 15.2014 77.0337 14.5112 76.8807 13.8629C76.7174 13.218 76.2724 12.6499 75.5459 12.1828ZM70.742 18.9904C70.3179 18.7185 70.0468 18.4152 69.9391 18.0911C69.8313 17.7739 69.88 17.4636 70.0885 17.1395C70.3353 16.756 70.6308 16.526 70.968 16.4528C71.034 16.4388 71.1035 16.4319 71.1731 16.4284C71.1835 16.4841 71.1904 16.5364 71.2009 16.5922L71.7223 19.325C71.3851 19.3076 71.0583 19.196 70.742 18.9904Z" fill="#0D5144"/>
<path d="M83.2105 29.1687L82.0773 27.6593L81.98 27.7047C81.6984 27.8301 81.4238 27.8929 81.1596 27.8929C80.885 27.8859 80.6556 27.8406 80.4401 27.7325C80.2246 27.628 80.0403 27.4711 79.8874 27.2689C79.6858 27.0005 79.5676 26.7217 79.5433 26.4393C79.5154 26.157 79.5745 25.8781 79.7136 25.6063C79.8561 25.3274 80.089 25.0695 80.3984 24.8359L82.4875 23.2569C82.7968 23.0233 83.1097 22.8735 83.4156 22.8107C83.718 22.748 84.003 22.7724 84.2637 22.8735C84.5279 22.9745 84.7643 23.1628 84.9659 23.4312C85.1154 23.6299 85.2092 23.8495 85.2509 24.09C85.2892 24.3305 85.2718 24.578 85.1988 24.8324C85.1223 25.0904 84.9902 25.3379 84.806 25.5679L84.74 25.6516L85.8732 27.1574L85.9844 27.0389C86.4293 26.5579 86.7491 26.0385 86.9368 25.4982C87.1245 24.9544 87.1767 24.4037 87.0898 23.8634C87.0029 23.3231 86.7769 22.8107 86.4224 22.3367C85.9948 21.7685 85.4977 21.3572 84.9381 21.1132C84.3785 20.8692 83.784 20.7995 83.1723 20.9075C82.5639 21.0121 81.9522 21.2944 81.3543 21.7476L79.2652 23.3266C78.6673 23.7797 78.2293 24.2887 77.9582 24.8464C77.687 25.4076 77.5897 26.0001 77.6697 26.6032C77.7496 27.2027 78.0068 27.7988 78.4344 28.3669C78.7889 28.8375 79.2165 29.1965 79.7101 29.4266C80.1446 29.6323 80.6139 29.7368 81.111 29.7368C81.1805 29.7368 81.25 29.7333 81.3195 29.7299C81.8896 29.6985 82.477 29.5312 83.061 29.2419L83.2105 29.1687Z" fill="#0D5144"/>
<path d="M91.3444 30.7721C91.0628 30.1342 90.67 29.6218 90.1764 29.2558C89.6828 28.8863 89.1162 28.6771 88.494 28.6318C87.8752 28.5865 87.2287 28.712 86.5682 29.0013L84.1002 30.0993C83.4433 30.3921 82.9184 30.7895 82.536 31.281C82.1502 31.7759 81.9277 32.3371 81.8686 32.9506C81.8095 33.5606 81.9242 34.195 82.2058 34.8364C82.4908 35.4743 82.8802 35.9867 83.3738 36.3527C83.8674 36.7222 84.4339 36.9313 85.0562 36.9766C85.1396 36.9836 85.223 36.9871 85.3064 36.9871C85.8487 36.9871 86.4118 36.8581 86.9784 36.6071L89.4464 35.5091C90.1034 35.2163 90.6283 34.819 91.0107 34.3275C91.393 33.8325 91.619 33.2713 91.678 32.6578C91.7406 32.0443 91.6259 31.4099 91.3444 30.7721ZM89.8323 32.4069C89.801 32.6927 89.6932 32.9541 89.5055 33.1877C89.3143 33.4247 89.0536 33.6164 88.7269 33.7628L86.1755 34.8991C85.8487 35.0455 85.5324 35.1118 85.23 35.0909C84.931 35.0734 84.6634 34.9793 84.4339 34.812C84.201 34.6412 84.0133 34.4007 83.8778 34.0939C83.7422 33.7907 83.6901 33.4874 83.7214 33.1981C83.7526 32.9123 83.8604 32.6474 84.0481 32.4173C84.2393 32.1803 84.5 31.9886 84.8267 31.8422L87.3782 30.7058C87.6702 30.5769 87.9587 30.5106 88.2333 30.5106C88.2646 30.5106 88.2959 30.5106 88.3271 30.5141C88.6261 30.5315 88.8937 30.6257 89.1266 30.793C89.3595 30.9638 89.5472 31.2043 89.6828 31.511C89.8114 31.8178 89.8635 32.121 89.8323 32.4069Z" fill="#0D5144"/>
<path d="M2.19025 46.8722C1.95735 46.7432 1.7766 46.555 1.65493 46.3075C1.53327 46.06 1.4707 45.7637 1.4707 45.4151V45.0003C1.4707 44.6343 1.5298 44.3241 1.64798 44.0662C1.76617 43.8082 1.93649 43.613 2.16244 43.4771C2.38838 43.3411 2.65951 43.2749 2.97584 43.2749C3.27478 43.2749 3.52853 43.3551 3.74404 43.5154C3.95608 43.6758 4.11946 43.9093 4.23069 44.216C4.34193 44.5228 4.39754 44.8923 4.39754 45.3245V45.565H2.05816V44.9062H3.57372L3.56329 44.8226C3.53896 44.6099 3.47639 44.4461 3.37906 44.3276C3.27825 44.2126 3.14616 44.1533 2.97931 44.1533C2.76032 44.1533 2.59347 44.223 2.47528 44.3624C2.3571 44.5019 2.29453 44.7006 2.29453 44.955V45.4256C2.29453 45.6766 2.36057 45.8718 2.48919 46.0077C2.62128 46.1436 2.80203 46.2134 3.0384 46.2134C3.16007 46.2134 3.27825 46.189 3.39644 46.1436C3.51463 46.0983 3.62238 46.0321 3.71971 45.945L4.31064 46.5096C4.13336 46.6839 3.93175 46.8199 3.71276 46.9175C3.49029 47.0151 3.26782 47.0604 3.04188 47.0604C2.70818 47.0639 2.42662 47.0011 2.19025 46.8722Z" fill="#0D5144"/>
<path d="M5.96529 47.0085C5.77063 46.9701 5.58987 46.9109 5.42302 46.8377C5.25269 46.761 5.10322 46.6704 4.97461 46.5658L5.53078 45.8164C5.69415 45.9314 5.86796 46.0185 6.04871 46.0778C6.22947 46.1405 6.39979 46.1684 6.56317 46.1684C6.77521 46.1684 6.93858 46.144 7.05329 46.0917C7.168 46.0395 7.22709 45.9697 7.22709 45.8791C7.22709 45.7955 7.20276 45.7327 7.15062 45.6909C7.09848 45.6491 7.03591 45.6177 6.95596 45.6003C6.87601 45.5828 6.76478 45.5654 6.62226 45.5515C6.58402 45.548 6.54231 45.541 6.5006 45.5375C6.45889 45.534 6.41717 45.5271 6.37546 45.5236C6.36851 45.5201 6.35808 45.5201 6.34765 45.5166C6.33722 45.5166 6.3268 45.5131 6.31984 45.5131C6.06609 45.4783 5.861 45.4329 5.70806 45.3807C5.55511 45.3284 5.42302 45.2273 5.31874 45.0809C5.21446 44.9345 5.15884 44.7184 5.15884 44.436C5.15884 44.1885 5.21446 43.9794 5.32222 43.8051C5.43345 43.6308 5.58987 43.4984 5.79843 43.4043C6.007 43.3136 6.26075 43.2683 6.55622 43.2683C6.73002 43.2683 6.90382 43.2857 7.07415 43.3241C7.24795 43.3624 7.41133 43.4147 7.57122 43.4879C7.72765 43.5576 7.87364 43.6448 8.00921 43.7424L7.47389 44.45C7.32442 44.3593 7.168 44.2896 7.00463 44.2408C6.84125 44.192 6.68483 44.1676 6.53883 44.1676C6.35808 44.1676 6.21556 44.1885 6.11476 44.2339C6.01395 44.2792 5.96181 44.3419 5.96181 44.4221C5.96181 44.4848 5.98962 44.5301 6.04176 44.565C6.0939 44.5999 6.16342 44.6243 6.24337 44.6382C6.32332 44.6521 6.44151 44.6696 6.59445 44.6905C6.61531 44.694 6.63269 44.694 6.65354 44.6975C6.6744 44.7009 6.69178 44.7009 6.71264 44.7044C6.72307 44.7079 6.73002 44.7079 6.74392 44.7079C6.75435 44.7079 6.76478 44.7079 6.77521 44.7114C7.03939 44.7463 7.25838 44.7881 7.42523 44.8404C7.59208 44.8927 7.7346 44.9972 7.85278 45.1541C7.97097 45.3109 8.03006 45.541 8.03006 45.8443C8.03006 46.0987 7.97445 46.3183 7.85974 46.5031C7.74503 46.6843 7.57818 46.8237 7.35918 46.9213C7.14019 47.0189 6.87601 47.0643 6.56664 47.0643C6.3546 47.0643 6.15647 47.0468 5.96529 47.0085Z" fill="#0D5144"/>
<path d="M8.55469 43.3238H10.2267V44.1534H8.55469V43.3238ZM9.11433 46.7816C8.97529 46.6178 8.90577 46.3738 8.90577 46.0531V42.2537H9.80607V45.8126C9.80607 45.9032 9.82345 45.9729 9.85473 46.0217C9.88602 46.0705 9.93468 46.0949 10.0007 46.0949H10.2232V47.0326H9.76783C9.47237 47.0291 9.25337 46.9489 9.11433 46.7816Z" fill="#0D5144"/>
<path d="M11.5127 46.8758C11.3389 46.7503 11.2103 46.569 11.1199 46.332C11.0296 46.095 10.9844 45.8056 10.9844 45.471V44.8819C10.9844 44.5438 11.0296 44.2545 11.1199 44.0105C11.2103 43.77 11.3424 43.5853 11.5127 43.4598C11.6865 43.3343 11.8916 43.2715 12.1349 43.2715C12.3157 43.2715 12.4826 43.3308 12.632 43.4458C12.7815 43.5643 12.9032 43.7282 12.997 43.9443L12.9275 44.7599C12.9275 44.6345 12.9066 44.5264 12.8684 44.4392C12.8302 44.3521 12.7711 44.2859 12.6946 44.2371C12.6181 44.1918 12.5277 44.1674 12.42 44.1674C12.2497 44.1674 12.121 44.2301 12.0272 44.3521C11.9333 44.4776 11.8882 44.6519 11.8882 44.875V45.4606C11.8882 45.6802 11.9333 45.851 12.0272 45.973C12.121 46.095 12.2531 46.1542 12.42 46.1542C12.5277 46.1542 12.6181 46.1333 12.6946 46.088C12.7711 46.0427 12.8267 45.9765 12.8684 45.8928C12.9101 45.8091 12.9275 45.7046 12.9275 45.5826L12.9727 46.4226C12.9032 46.6248 12.7954 46.7782 12.6494 46.8897C12.5034 47.0013 12.3331 47.0535 12.1315 47.0535C11.8916 47.064 11.6831 47.0012 11.5127 46.8758ZM12.9275 41.8494H13.8278V47.0152H12.9275V41.8494Z" fill="#0D5144"/>
<path d="M14.6377 46.0388H15.538V47.0113H14.6377V46.0388Z" fill="#0D5144"/>
<path d="M82.661 78.2363L79.3379 79.2054C80.6171 78.8742 81.931 78.4664 82.661 78.2363Z" fill="url(#paint4_linear_13_12725)"/>
<path d="M58.0852 88.2024L55.2383 86.9197C55.9092 87.2369 56.9659 87.7214 58.0852 88.2024Z" fill="url(#paint5_linear_13_12725)"/>
<path d="M61.954 89.4713L59.9796 89.053C59.3226 88.9136 58.6622 88.7741 58.0122 88.5824L54.3623 87.3415C54.484 87.6901 54.6995 88.0143 54.9359 88.3036C55.2174 88.6417 55.5442 88.9415 55.9022 89.1959C56.6183 89.7013 57.4421 90.0604 58.3042 90.1824C59.1697 90.3183 60.0561 90.3392 60.9355 90.28C61.3735 90.2486 61.8115 90.1963 62.246 90.1161C62.4615 90.0743 62.677 90.0255 62.8856 89.9663C62.9899 89.9349 63.0907 89.9 63.188 89.8582C63.2367 89.8373 63.2819 89.8164 63.3201 89.7885C63.3583 89.7711 63.3931 89.7188 63.3792 89.7467V89.7432C63.3757 89.7362 63.3653 89.7013 63.3444 89.6804C63.3201 89.6456 63.2853 89.6072 63.2541 89.5724C63.1845 89.4992 63.1081 89.4295 63.0316 89.3597C62.8752 89.2238 62.7118 89.0913 62.5449 88.9624C62.2112 88.7044 61.8706 88.4535 61.5265 88.2129C60.8347 87.7354 60.1152 87.2927 59.3539 86.9407C58.5961 86.5991 57.7758 86.3655 56.952 86.2505C56.142 86.1668 55.2765 86.1982 54.5361 86.5677L58.0852 88.2025L61.961 89.4399L61.954 89.4713Z" fill="url(#paint6_linear_13_12725)"/>
<path d="M75.2043 78.0523L74.8428 78.875C75.2216 78.7983 75.5727 78.61 75.896 78.3939C76.2297 78.1708 76.5321 77.9024 76.8102 77.6097C77.3768 77.031 77.7731 76.306 77.9364 75.5043C78.1311 74.7165 78.2076 73.8974 78.1937 73.0852C78.1902 72.6774 78.152 72.28 78.072 71.8791C78.0373 71.6805 77.9921 71.4818 77.9399 71.2901C77.9121 71.1959 77.8843 71.0983 77.8461 71.0112C77.8287 70.9659 77.8078 70.9241 77.787 70.8857C77.78 70.8683 77.7661 70.8509 77.7557 70.8369L77.707 70.8613C77.6757 70.8753 77.634 70.9066 77.5993 70.9275C77.5263 70.9763 77.4533 71.0356 77.3838 71.0949C77.2412 71.2134 77.1057 71.3389 76.9736 71.4713C76.7094 71.7362 76.4522 72.0116 76.2123 72.3044C75.7361 72.8865 75.2946 73.5 74.9331 74.1623C74.5508 74.8106 74.3213 75.5322 74.224 76.2851C74.1441 76.9543 74.1302 77.6585 74.2901 78.3068C74.5647 77.8676 74.8254 77.3866 75.0861 76.9299L75.9725 75.337C76.2297 74.7862 76.4661 74.2285 76.7163 73.6708C76.9666 73.1166 77.1995 72.5519 77.4255 71.9872L77.4568 71.9977L77.2795 72.5519C77.0883 73.1933 76.7476 74.3017 76.3409 75.4555V75.459C75.9481 76.4001 75.5102 77.3796 75.2043 78.0523Z" fill="url(#paint7_linear_13_12725)"/>
<path d="M80.3591 74.1512C81.0822 73.8271 81.6244 73.1857 82.0589 72.5304C82.5039 71.8507 82.7437 71.0524 82.7611 70.2368C82.8063 69.4246 82.7298 68.6055 82.563 67.8107C82.483 67.4099 82.3648 67.0299 82.2119 66.6535C82.1389 66.4652 82.0589 66.2805 81.9686 66.1027C81.9234 66.0156 81.8782 65.9249 81.826 65.8448C81.8017 65.8029 81.7739 65.7646 81.7461 65.7332C81.7357 65.7193 81.7183 65.7019 81.7079 65.6914L81.6661 65.7263C81.6349 65.7472 81.6036 65.7855 81.5723 65.8134C81.5097 65.8761 81.4506 65.9493 81.3915 66.0191C81.2768 66.1655 81.1656 66.3153 81.0613 66.4722C80.8493 66.7824 80.6546 67.1066 80.4739 67.4412C80.1158 68.107 79.7995 68.7972 79.5736 69.5222C79.3233 70.2368 79.2294 70.9897 79.2746 71.7461C79.3233 72.4153 79.4415 73.109 79.723 73.7085L80.8388 70.4041L81.6105 66.894L81.6418 66.8975L81.5375 67.741C81.4645 68.4242 81.3463 69.442 81.2004 70.5121C80.9883 71.5125 80.7415 72.5583 80.5642 73.2763L80.3591 74.1512Z" fill="url(#paint8_linear_13_12725)"/>
<path d="M79.3413 79.2058L76.2754 79.767C77.0054 79.645 78.1455 79.4463 79.3413 79.2058Z" fill="url(#paint9_linear_13_12725)"/>
<path d="M65.7042 86.6587L62.6592 85.9824C63.3752 86.1497 64.505 86.4147 65.7042 86.6587Z" fill="url(#paint10_linear_13_12725)"/>
<path d="M80.6691 74.0156C80.6448 74.0296 80.6205 74.0435 80.5996 74.054C80.6205 74.0435 80.6448 74.0331 80.6691 74.0156Z" fill="url(#paint11_linear_13_12725)"/>
<path d="M69.7439 87.0971V87.132L67.8112 87.1215C67.1681 87.1215 66.5216 87.1215 65.875 87.0657L63.9528 86.8426C63.3132 86.7694 62.6736 86.6893 62.034 86.6021H62.0305H62.027L61.8984 86.5742C62.0931 86.9158 62.3886 87.2086 62.7014 87.4561C63.0733 87.7454 63.4835 87.9825 63.918 88.1568C64.3525 88.331 64.8079 88.4565 65.2737 88.5193C65.736 88.5925 66.2087 88.5646 66.678 88.5785L67.5922 88.4356C67.8946 88.3659 68.1971 88.2822 68.496 88.209C69.0974 88.0522 69.7126 87.9232 70.2757 87.6688C70.5573 87.5468 70.8389 87.4073 71.0752 87.2296C71.1239 87.1947 71.183 87.1354 71.1934 87.1145C71.183 87.1006 71.1552 87.0622 71.1204 87.0378C71.0092 86.9472 70.8736 86.867 70.7415 86.7904C70.1993 86.4906 69.6257 86.2257 69.0522 85.9747C67.9016 85.4972 66.7058 85.0684 65.4579 84.9952C64.8392 84.9464 64.2065 84.9325 63.5982 85.0719C63.0038 85.1974 62.4025 85.3996 61.9193 85.7865L65.7047 86.6614C66.3721 86.7799 67.0465 86.8496 67.7208 86.9158C68.3952 86.9786 69.0695 87.0378 69.7439 87.0971Z" fill="url(#paint12_linear_13_12725)"/>
<path d="M55.2831 84.8774L54.5288 85.3585C55.2379 85.6408 56.0374 85.592 56.7743 85.4491C57.5321 85.3062 58.2551 84.975 58.8148 84.4313C59.3953 83.9119 59.8958 83.3089 60.3269 82.6536C60.751 82.0017 61.1194 81.2907 61.2897 80.5447C61.2967 80.4994 61.3071 80.4541 61.3106 80.4088C61.3141 80.3844 61.3141 80.3565 61.3106 80.339C61.3002 80.3356 61.2828 80.3286 61.2654 80.3321C61.2272 80.3286 61.182 80.3251 61.1368 80.3286C60.9526 80.3356 60.7614 80.3635 60.5737 80.3913C60.1948 80.4541 59.8055 80.5098 59.444 80.6074C58.707 80.8096 57.9979 81.1268 57.2923 81.4475C56.5866 81.7473 55.9783 82.2318 55.4639 82.8069C55.012 83.3298 54.6053 83.9293 54.3828 84.5812L57.3896 83.0684C57.9145 82.786 58.415 82.4514 58.9156 82.1168C59.4161 81.7821 59.9167 81.451 60.4103 81.1059L60.4312 81.1338L60.021 81.4614C59.5239 81.8832 58.6166 82.6326 57.6294 83.3786C56.7917 83.9328 55.9018 84.494 55.2831 84.8774Z" fill="url(#paint13_linear_13_12725)"/>
<path d="M69.1768 83.302C69.1945 83.2844 69.2122 83.2668 69.2299 83.2527C69.2086 83.2668 69.1945 83.2844 69.1768 83.302Z" fill="url(#paint14_linear_13_12725)"/>
<path d="M66.518 86.7837C66.2434 86.7453 65.9723 86.707 65.7012 86.6582C65.9758 86.707 66.2504 86.7488 66.518 86.7837Z" fill="url(#paint15_linear_13_12725)"/>
<path d="M72.8789 83.6188C73.7166 83.5978 74.5335 83.5072 75.2357 83.4375C75.1244 83.4445 75.0167 83.4584 74.9054 83.4654L72.8789 83.6188Z" fill="url(#paint16_linear_13_12725)"/>
<path d="M70.6993 79.2651C70.6819 79.2895 70.668 79.3174 70.6506 79.3453C70.5777 79.4533 70.5047 79.5614 70.4317 79.6729C70.3899 79.7357 70.3517 79.8019 70.3065 79.8646L68.5789 82.3778C68.93 82.3708 69.2811 82.2628 69.6113 82.1303C69.9693 81.9839 70.303 81.7922 70.6228 81.5726C71.2659 81.1439 71.8082 80.5653 72.1175 79.8472C72.4582 79.1431 72.6946 78.3902 72.851 77.6233C73.0074 76.8599 73.0804 76.0617 72.9622 75.3053C72.9518 75.2356 72.924 75.1415 72.9101 75.1101C72.9031 75.1101 72.8962 75.1101 72.8823 75.1136C72.8475 75.1241 72.8058 75.1415 72.7641 75.1589C72.6007 75.2356 72.4339 75.3367 72.2705 75.4378C71.9403 75.6434 71.61 75.8421 71.3076 76.0791C70.6819 76.5323 70.1675 77.1214 69.6252 77.686C69.076 78.2333 68.7006 78.9235 68.4329 79.6555C68.1965 80.3456 68.0332 81.0881 68.0818 81.8131L68.2035 81.6946C68.9613 80.8232 69.6982 79.9308 70.4421 79.049C70.8001 78.5958 71.1164 78.1078 71.4328 77.6233L72.3852 76.1663L72.3922 76.1698L71.8777 77.1458C71.5892 77.6756 71.2138 78.4146 70.7827 79.1291C70.7549 79.1744 70.7271 79.2198 70.6993 79.2651Z" fill="url(#paint17_linear_13_12725)"/>
<path d="M76.925 83.2419L76.9285 83.2767L75.0305 83.6497C74.3979 83.7787 73.7652 83.9042 73.1222 83.9809C72.4791 84.0471 71.836 84.0924 71.193 84.1482C70.5499 84.2039 69.9068 84.2562 69.2637 84.2981H69.2603H69.2568L69.1247 84.2946C69.3611 84.5665 69.6739 84.7826 69.9937 84.9569C70.3796 85.159 70.7967 85.3054 71.2208 85.403C72.0724 85.5878 72.9692 85.5878 73.8174 85.3682C74.669 85.159 75.4998 84.8279 76.2889 84.427C76.6851 84.2249 77.0675 84.0018 77.436 83.7578C77.6202 83.6358 77.8009 83.5033 77.9678 83.3674C78.0512 83.2977 78.1346 83.2245 78.2076 83.1478C78.2424 83.1094 78.2772 83.0711 78.305 83.0327C78.3328 83.0014 78.3467 82.9386 78.3467 82.97L78.3432 82.9595C78.3571 82.9874 78.3258 82.9421 78.2876 82.9247C78.2528 82.9003 78.2076 82.8794 78.1625 82.8585C78.0721 82.8166 77.9747 82.7853 77.8774 82.7504C77.6828 82.6842 77.4811 82.6284 77.2795 82.5761C76.8763 82.4715 76.4661 82.3774 76.056 82.2868C75.2391 82.116 74.4083 81.994 73.5741 81.9661C72.7468 81.9522 71.9021 82.0533 71.0991 82.2694C70.3239 82.5169 69.5418 82.8898 68.9961 83.5242L72.8754 83.6218L74.8984 83.451C75.5797 83.3987 76.2506 83.3151 76.925 83.2419Z" fill="url(#paint18_linear_13_12725)"/>
<path d="M63.9008 82.4581L61.7318 84.5739C62.2497 84.6436 62.785 84.567 63.2891 84.4206C63.8244 84.2672 64.3284 84.0162 64.7768 83.692C65.6841 83.0367 66.2507 82.0119 66.7234 80.9941C66.9493 80.4782 67.144 79.9414 67.2622 79.3907C67.3213 79.1153 67.363 78.8364 67.3734 78.5611C67.3734 78.4948 67.3734 78.4251 67.3665 78.3659C67.363 78.345 67.3595 78.3345 67.356 78.3206C67.2657 78.3206 67.1266 78.3589 67.005 78.3938C65.9448 78.7249 64.9367 79.2129 64.0468 79.8996L64.0364 79.9066C63.6888 80.1506 63.3238 80.3736 63.0283 80.6769C62.7259 80.9697 62.4548 81.3078 62.2219 81.6668C61.989 82.0259 61.7909 82.4128 61.631 82.8136C61.4919 83.1727 61.3737 83.5456 61.332 83.9256L61.478 83.828C62.3888 83.1274 63.2821 82.3988 64.1789 81.6843C64.6204 81.3148 65.0201 80.9 65.4234 80.4852L66.633 79.2443L66.64 79.2512L65.9517 80.1087L64.9645 81.3218C64.6378 81.7261 64.2797 82.1026 63.9008 82.4581Z" fill="url(#paint19_linear_13_12725)"/>
<path d="M61.422 89.2967L58.085 88.2021C59.3537 88.6623 60.699 89.0805 61.422 89.2967Z" fill="url(#paint20_linear_13_12725)"/>
<path d="M84.8436 73.5938L81.9307 74.7475C82.6259 74.4861 83.7139 74.0678 84.8436 73.5938Z" fill="url(#paint21_linear_13_12725)"/>
<path d="M90.9022 55.4856L90.6484 56.5453C90.7666 56.0817 90.8535 55.7087 90.9022 55.4856Z" fill="url(#paint22_linear_13_12725)"/>
<path d="M87.6802 72.1094L84.8438 73.5978C85.897 73.0679 86.9781 72.4893 87.6802 72.1094Z" fill="url(#paint23_linear_13_12725)"/>
<path d="M72.8788 83.6187L69.7607 83.5664C70.4977 83.5873 71.6587 83.6187 72.8788 83.6187Z" fill="url(#paint24_linear_13_12725)"/>
<path d="M92.3694 64.4087L89.4008 67.3123H89.3973L86.394 69.6722C86.7416 69.7628 87.1275 69.7628 87.4925 69.721C87.9235 69.6687 88.351 69.5606 88.7577 69.4003C89.5677 69.0761 90.3185 68.5742 90.9059 67.9154C91.5004 67.2566 91.9905 66.5002 92.4389 65.7159C92.6614 65.322 92.8873 64.9316 93.0507 64.5203C93.1341 64.3146 93.2071 64.102 93.2627 63.8894C93.287 63.7813 93.3149 63.6733 93.3288 63.5687C93.3357 63.5164 93.3427 63.4606 93.3461 63.4118C93.3496 63.3874 93.3461 63.3491 93.3461 63.3282C93.3322 63.3247 93.3114 63.3212 93.2905 63.3247C93.2488 63.3247 93.1967 63.3317 93.1515 63.3421C93.0542 63.3595 92.9533 63.3839 92.856 63.4118C92.6579 63.4676 92.4597 63.5338 92.2651 63.6035C91.8758 63.7499 91.4865 63.9138 91.0971 64.0706C90.3254 64.3948 89.5642 64.7538 88.8516 65.2C88.1286 65.6253 87.5307 66.2422 86.9676 66.8662C86.4462 67.5041 85.9873 68.257 85.8691 69.0935L89.1749 66.9882L92.3485 64.3809L92.3694 64.4087Z" fill="url(#paint25_linear_13_12725)"/>
<path d="M89.1751 66.9885L86.3525 68.822C86.9643 68.4421 88.0558 67.7554 89.1751 66.9885Z" fill="url(#paint26_linear_13_12725)"/>
<path d="M91.688 64.9597L89.1748 66.9884C90.1099 66.2599 91.0692 65.4721 91.688 64.9597Z" fill="url(#paint27_linear_13_12725)"/>
<path d="M88.4621 71.6976L85.0521 73.9146C84.4577 74.2318 83.8494 74.5315 83.248 74.8418L81.6108 75.6748C81.9341 75.8352 82.313 75.9119 82.678 75.9432C83.1125 75.9781 83.5504 75.9537 83.978 75.877C84.8331 75.7167 85.6639 75.3751 86.3626 74.8383C87.0717 74.3084 87.7113 73.681 88.2883 72.9978C88.5768 72.6562 88.8514 72.3007 89.0982 71.9312C89.2234 71.7464 89.3416 71.5547 89.4458 71.3595C89.498 71.2619 89.5466 71.1643 89.5849 71.0632C89.6023 71.0144 89.6196 70.9656 89.6301 70.9168C89.6405 70.889 89.637 70.8506 89.6405 70.8402C89.6301 70.8367 89.6023 70.8227 89.5744 70.8227C89.5327 70.8158 89.4806 70.8123 89.4319 70.8088C89.3346 70.8053 89.2303 70.8123 89.1295 70.8192C88.9244 70.8332 88.7193 70.8611 88.5142 70.8924C88.1076 70.9587 87.6904 71.0423 87.2802 71.1155C86.4599 71.2759 85.6465 71.4815 84.8644 71.7778C84.0892 72.0776 83.3558 72.5133 82.6988 73.0362C82.0627 73.559 81.4787 74.2074 81.2041 75.0056L84.8435 73.5974L88.4447 71.6698L88.4621 71.6976Z" fill="url(#paint28_linear_13_12725)"/>
<path d="M84.8823 68.4246C85.5115 67.9819 85.9181 67.2778 86.2206 66.5737C86.3666 66.2077 86.4952 65.8312 86.5334 65.4443C86.5751 65.0539 86.5647 64.6565 86.5195 64.2661C86.3248 62.7115 85.7478 61.1673 84.7502 59.9961C84.6981 59.9369 84.6077 59.8637 84.5833 59.8567C84.5694 59.8741 84.5138 59.9264 84.4895 59.9822C84.3991 60.1425 84.3226 60.3238 84.2427 60.505C84.0932 60.871 83.9194 61.2335 83.7908 61.5961C83.537 62.335 83.3737 63.1089 83.2624 63.8862C83.1303 64.6635 83.1616 65.4443 83.3459 66.2077C83.5162 66.8839 83.7699 67.5671 84.1766 68.1178L84.6494 64.66L84.7363 61.0627H84.7676L84.8267 61.9063C84.8823 62.5895 84.9588 63.6108 85.0178 64.6914C85.0074 65.8556 84.9483 67.0756 84.9101 67.8041L84.8823 68.4246Z" fill="url(#paint29_linear_13_12725)"/>
<path d="M83.2479 78.0661C81.9965 78.568 80.766 79.1257 79.4833 79.5649L77.5402 80.1296C76.9493 80.2934 76.3827 80.4677 75.7744 80.6072C76.0594 80.8302 76.414 80.9801 76.765 81.0882C77.1822 81.2102 77.6167 81.2729 78.0547 81.2799C78.9272 81.2938 79.8031 81.1161 80.5922 80.7326C81.3882 80.3562 82.1356 79.8682 82.8342 79.314C83.1819 79.0386 83.519 78.7423 83.8319 78.4286C83.9883 78.2717 84.1412 78.1079 84.2803 77.9371C84.3498 77.85 84.4159 77.7663 84.4749 77.6757C84.5028 77.6304 84.5306 77.585 84.5479 77.5432C84.5688 77.5084 84.5723 77.4421 84.5758 77.4735L84.5723 77.463C84.5931 77.4944 84.5514 77.4491 84.5132 77.4421C84.4715 77.4247 84.4263 77.4142 84.3776 77.4038C84.2803 77.3794 84.1795 77.3654 84.0787 77.3515C83.8736 77.3236 83.6685 77.3097 83.4599 77.2992C83.0463 77.2818 82.6222 77.2748 82.2051 77.2644C81.3708 77.2574 80.5331 77.3027 79.7093 77.4386C78.8924 77.585 78.086 77.8569 77.3421 78.2369C76.626 78.6273 75.9273 79.1501 75.5137 79.8821L79.3408 79.2129L83.2375 78.0382L83.2479 78.0661Z" fill="url(#paint30_linear_13_12725)"/>
<path d="M89.7827 59.3232C89.7896 59.3023 89.7966 59.2814 89.8036 59.2605C89.7896 59.3058 89.7723 59.3476 89.7549 59.393C89.7653 59.3686 89.7723 59.3476 89.7827 59.3232Z" fill="url(#paint31_linear_13_12725)"/>
<path d="M85.146 68.2432C85.1356 68.2537 85.1217 68.2642 85.1113 68.2712C85.1252 68.2642 85.1356 68.2537 85.146 68.2432Z" fill="url(#paint32_linear_13_12725)"/>
<path d="M75.6387 79.6349C75.6564 79.6102 75.6705 79.5856 75.6882 79.5645C75.6705 79.5891 75.6564 79.6102 75.6387 79.6349Z" fill="url(#paint33_linear_13_12725)"/>
<path d="M90.6483 56.5456L90.9473 55.2559H90.9577C90.8569 55.96 90.7665 56.6676 90.5962 57.3578L90.1443 59.4457L89.5742 61.5023C89.3865 62.1402 89.1467 62.7606 88.9277 63.3845C89.2927 63.2521 89.6264 63.0255 89.9323 62.7745C90.2799 62.4922 90.5823 62.168 90.8291 61.7951C91.3331 61.0596 91.7016 60.2125 91.8684 59.3376C92.0214 58.4488 92.0283 57.5355 91.9379 56.6362C91.8371 55.7439 91.6807 54.8271 91.3366 54.0184C91.3157 53.9696 91.2879 53.9243 91.2636 53.8825C91.2532 53.8546 91.2288 53.8337 91.2184 53.8232C91.2149 53.8302 91.1975 53.8337 91.1593 53.8616C91.1211 53.8825 91.0828 53.9208 91.0446 53.9592C90.8882 54.1056 90.7457 54.2764 90.6066 54.4507C90.3285 54.8027 90.0713 55.1722 89.8245 55.5522C89.3379 56.312 88.8894 57.1033 88.514 57.9259C88.3333 58.3407 88.1456 58.7555 88.0239 59.1878C87.9022 59.6235 87.8327 60.0696 87.8084 60.5228C87.791 61.3942 87.791 62.3144 88.1595 63.1092C88.3993 62.6003 88.6496 62.0914 88.8825 61.579C89.1154 61.0352 89.317 60.4775 89.529 59.9232C89.7585 59.376 89.9288 58.8078 90.1061 58.2431L90.6414 56.5491C90.6483 56.5491 90.6483 56.5491 90.6483 56.5456Z" fill="url(#paint34_linear_13_12725)"/>
<path d="M89.9219 58.9018C90.2 58.0548 90.4363 57.2147 90.6414 56.5664L90.1235 58.25C90.0574 58.4661 89.9914 58.6822 89.9219 58.9018Z" fill="url(#paint35_linear_13_12725)"/>
<path d="M19.5767 65.2075C18.8676 64.7614 18.1064 64.3988 17.3347 64.0712C16.9488 63.9143 16.556 63.747 16.1702 63.6006C15.9755 63.5274 15.7774 63.4612 15.5793 63.4054C15.4819 63.3775 15.3811 63.3531 15.2838 63.3357C15.2351 63.3287 15.1865 63.3218 15.1413 63.3218C15.1204 63.3183 15.0961 63.3218 15.0822 63.3252C15.0822 63.3462 15.0752 63.3845 15.0822 63.4124C15.0857 63.4647 15.0926 63.517 15.0996 63.5692C15.117 63.6773 15.1413 63.7854 15.1656 63.8934C15.2212 64.1095 15.2942 64.3187 15.3777 64.5243C15.541 64.9391 15.7705 65.326 15.9894 65.7199C16.4344 66.5007 16.9245 67.2606 17.5259 67.9159C18.1168 68.5712 18.8711 69.0697 19.681 69.3869C20.0877 69.5438 20.5118 69.6553 20.9428 69.7041C21.287 69.739 21.6485 69.7424 21.9787 69.6623L19.0032 67.3582L18.9997 67.3547L18.9962 67.3512L16.0173 64.4581L16.1354 64.3222L19.2396 66.8946C19.7853 67.2746 20.3415 67.6336 20.8976 68.0066L22.5905 69.122C22.4688 68.268 22.003 67.5081 21.4712 66.8598C20.8976 66.2463 20.2963 65.6328 19.5767 65.2075Z" fill="url(#paint36_linear_13_12725)"/>
<path d="M20.7559 67.9814C21.8022 68.6577 22.5877 69.1282 22.5877 69.1282L20.8949 68.0686C20.8462 68.0407 20.801 68.0128 20.7559 67.9814Z" fill="url(#paint37_linear_13_12725)"/>
<path d="M17.4775 55.259C17.4775 55.2625 17.5262 55.4926 17.6166 55.869C17.5714 55.6669 17.5262 55.4647 17.4775 55.259Z" fill="url(#paint38_linear_13_12725)"/>
<path d="M22.5107 68.7344C22.5143 68.7555 22.5214 68.7731 22.5249 68.7907C22.5214 68.7731 22.5178 68.752 22.5107 68.7344Z" fill="url(#paint39_linear_13_12725)"/>
<path d="M27.1094 74.6572C27.12 74.6784 27.1271 74.696 27.1377 74.7136C27.1271 74.696 27.1165 74.6748 27.1094 74.6572Z" fill="url(#paint40_linear_13_12725)"/>
<path d="M27.2557 75.0333L25.8027 74.4861C26.6648 74.8172 27.2557 75.0333 27.2557 75.0333Z" fill="url(#paint41_linear_13_12725)"/>
<path d="M25.7328 73.0327C25.0724 72.5133 24.3389 72.0811 23.5638 71.7813C22.7816 71.485 21.9682 71.2759 21.1514 71.1121C20.7412 71.0389 20.3241 70.9552 19.9174 70.8855C19.7123 70.8541 19.5072 70.8262 19.3021 70.8123C19.2013 70.8053 19.097 70.8018 18.9997 70.8053C18.951 70.8053 18.9024 70.8088 18.8572 70.8193C18.8155 70.8193 18.7668 70.8541 18.7911 70.8297L18.7842 70.8402C18.7911 70.8158 18.7842 70.8785 18.7981 70.9204C18.8085 70.9657 18.8259 71.018 18.8467 71.0668C18.885 71.1644 18.9371 71.2654 18.9858 71.363C19.0901 71.5582 19.2083 71.7499 19.3299 71.9347C19.5802 72.3077 19.8513 72.6632 20.1398 73.0048C20.7169 73.688 21.3565 74.3189 22.0725 74.8418C22.7747 75.3751 23.6055 75.7097 24.4606 75.8631C25.2253 75.9851 26.07 75.9886 26.7583 75.6749L25.1662 74.8836C24.5614 74.5803 23.9531 74.2841 23.3517 73.9704L19.9313 71.7639L20.0217 71.607L23.5499 73.5172C24.1547 73.7786 24.7699 74.0226 25.3852 74.2771L27.2553 75.037C26.9738 74.2178 26.3794 73.5625 25.7328 73.0327Z" fill="url(#paint42_linear_13_12725)"/>
<path d="M38.018 79.0246C38.7654 79.903 39.4953 80.8023 40.2531 81.6738L40.3331 81.7505C40.3678 81.0498 40.2149 80.3248 39.9855 79.6555C39.7248 78.9235 39.3563 78.2264 38.8071 77.6791C38.2648 77.1145 37.7504 76.5254 37.1247 76.0722C36.8223 75.8352 36.492 75.6365 36.1618 75.4309C35.9984 75.3333 35.8316 75.2287 35.6647 75.1555C35.623 75.1381 35.5848 75.1206 35.5465 75.1102C35.5326 75.1067 35.5292 75.1067 35.5222 75.1067C35.5083 75.1381 35.4805 75.2322 35.4701 75.3019C35.3554 76.0548 35.4284 76.853 35.5848 77.6164C35.7447 78.3833 35.9845 79.1362 36.3287 79.8333C36.645 80.5479 37.1838 81.1091 37.8268 81.5343C38.1466 81.7505 38.4769 81.9422 38.8314 82.0851C39.1269 82.2036 39.4397 82.2977 39.7456 82.3221L37.7712 79.4359C37.4653 78.8991 37.1838 78.3519 36.8883 77.8116C36.5894 77.2783 36.3148 76.7066 36.0401 76.1698L37.0065 77.6164C37.3332 78.0939 37.6565 78.5785 38.018 79.0246Z" fill="url(#paint43_linear_13_12725)"/>
<path d="M32.4555 75.3336L33.3419 76.9266C33.6026 77.3902 33.8633 77.8747 34.1379 78.3174C34.3013 77.6656 34.2909 76.958 34.2074 76.2852C34.1101 75.5358 33.8807 74.8108 33.5018 74.1589C33.1438 73.4932 32.6988 72.8797 32.2157 72.3011C31.9723 72.0117 31.7186 71.7364 31.4509 71.4749C31.3188 71.3425 31.1798 71.217 31.0373 71.102C30.9678 71.0427 30.8948 70.9869 30.8218 70.9381C30.787 70.9172 30.7453 70.8859 30.714 70.8719L30.6758 70.8545C30.6653 70.8649 30.6584 70.8824 30.6514 70.8963C30.6306 70.9347 30.6132 70.9765 30.5958 71.0218C30.5611 71.1089 30.5333 71.2065 30.5054 71.3007C30.4533 71.4924 30.4081 71.6876 30.3734 71.8863C30.3004 72.2871 30.2656 72.681 30.2621 73.0888C30.2552 73.8975 30.3386 74.7132 30.5402 75.494C30.7105 76.2887 31.1033 76.9928 31.6699 77.561C31.948 77.8468 32.2469 78.1117 32.5772 78.3313C32.8518 78.5161 33.1542 78.6764 33.4636 78.7636L32.0662 75.5428C31.8889 75.0095 31.736 74.4657 31.5795 73.9324C31.225 72.8239 30.9886 71.9943 30.9886 71.9943C31.2111 72.5451 31.4614 73.1237 31.7116 73.6709C31.9584 74.2252 32.1983 74.7829 32.4555 75.3336Z" fill="url(#paint44_linear_13_12725)"/>
<path d="M27.1587 68.6511C27.0475 68.069 26.9328 67.4834 26.8076 66.8943C26.8111 66.8943 26.9467 67.6298 27.1587 68.6511Z" fill="url(#paint45_linear_13_12725)"/>
<path d="M23.6826 61.0627C23.6826 61.0662 23.6826 61.3695 23.6861 61.861C23.6861 61.5961 23.6896 61.3311 23.6826 61.0627Z" fill="url(#paint46_linear_13_12725)"/>
<path d="M28.7122 73.7162C29.0007 73.1132 29.1224 72.4161 29.1641 71.7433C29.2093 70.9869 29.1189 70.2305 28.8687 69.5159C28.6427 68.7909 28.3264 68.1007 27.9614 67.435C27.7772 67.1038 27.579 66.7831 27.367 66.4729C27.2627 66.3161 27.148 66.1662 27.0333 66.0233C26.9742 65.9535 26.9151 65.8803 26.8525 65.8176C26.8213 65.7897 26.79 65.7514 26.7587 65.7305L26.7239 65.7061C26.7135 65.7165 26.6996 65.727 26.6926 65.7409C26.6648 65.7723 26.6405 65.8141 26.6127 65.8525C26.5606 65.9326 26.5154 66.0198 26.4702 66.1069C26.3833 66.2847 26.3033 66.4694 26.2303 66.6577C26.0809 67.0341 25.9661 67.4141 25.8897 67.8149C25.7298 68.6062 25.6603 69.4253 25.7124 70.2305C25.7367 71.0427 25.9766 71.82 26.4215 72.4893C26.8282 73.0923 27.3322 73.6849 27.9579 74.0125L27.1723 70.5198V70.5163C27.0959 69.8053 27.0298 69.1011 26.9638 68.4075C26.863 67.5117 26.8039 66.8912 26.8039 66.8912C27.0437 68.0415 27.3288 69.2057 27.5964 70.3978L28.7122 73.7162Z" fill="url(#paint47_linear_13_12725)"/>
<path d="M24.2593 68.1313C24.6695 67.577 24.9302 66.8903 25.097 66.2106C25.2813 65.4473 25.3125 64.6665 25.1839 63.8857C25.0762 63.1049 24.9093 62.331 24.6451 61.5955C24.5165 61.233 24.3358 60.874 24.1863 60.508C24.1064 60.3302 24.0299 60.1455 23.936 59.9886C23.9117 59.9329 23.863 59.8875 23.8491 59.8701C23.8248 59.8806 23.7448 59.9503 23.6962 60.0061C22.702 61.1738 22.1459 62.7214 21.9651 64.2691C21.9234 64.656 21.9164 65.0499 21.9616 65.4333C22.0033 65.8133 22.132 66.1827 22.278 66.5418C22.556 67.1866 22.9419 67.828 23.4737 68.2567L23.3694 64.7536C23.4077 64.1297 23.4772 63.5022 23.5328 62.8853C23.5432 62.7633 23.5537 62.6482 23.5641 62.5262C23.6301 61.6513 23.6858 61.0587 23.6858 61.0587C23.6997 62.2334 23.7588 63.4325 23.7935 64.656L24.2593 68.1313Z" fill="url(#paint48_linear_13_12725)"/>
<path d="M42.9783 84.9922C41.7304 85.0724 40.5347 85.4872 39.3806 85.9647C38.8071 86.2122 38.2335 86.4771 37.6878 86.7734C37.5522 86.8501 37.4201 86.9303 37.3089 87.0209C37.2741 87.0453 37.2463 87.0871 37.2324 87.1011C37.2429 87.122 37.3019 87.1847 37.3541 87.2196C37.5905 87.3974 37.872 87.5403 38.1536 87.6623C38.7167 87.9167 39.332 88.0492 39.9333 88.206C40.2357 88.2827 40.5347 88.3664 40.8406 88.4361L41.7548 88.5755C42.224 88.5581 42.6968 88.579 43.1591 88.5058C43.6214 88.4396 44.0768 88.3106 44.5113 88.1328C44.9458 87.9551 45.356 87.718 45.7244 87.4287C46.0164 87.1952 46.2945 86.9198 46.4822 86.6061L46.4127 86.62H46.4092H46.4057C45.7661 86.7142 45.1265 86.7978 44.487 86.878L42.5647 87.1185C41.9181 87.1812 41.2681 87.1882 40.6251 87.1882L38.6924 87.1987L38.6819 87.0174L40.6702 86.8431C41.3342 86.7839 41.9946 86.7176 42.6481 86.6096L46.5552 85.7835C46.0616 85.3826 45.4463 85.1839 44.838 85.055C44.2297 84.926 43.5971 84.9399 42.9783 84.9922Z" fill="url(#paint49_linear_13_12725)"/>
<path d="M46.5551 85.79L45.2168 86.1107C46.0198 85.9225 46.5551 85.79 46.5551 85.79Z" fill="url(#paint50_linear_13_12725)"/>
<path d="M32.668 79.4746C32.7723 79.6106 32.8696 79.75 32.953 79.8999C32.8904 79.7709 32.7896 79.6245 32.668 79.4746Z" fill="url(#paint51_linear_13_12725)"/>
<path d="M46.2354 85.5605C46.3466 85.6303 46.4543 85.7035 46.5551 85.7906C46.4682 85.7139 46.3605 85.6372 46.2354 85.5605Z" fill="url(#paint52_linear_13_12725)"/>
<path d="M51.4765 86.2509C50.6527 86.3694 49.8358 86.6064 49.078 86.948C48.3168 87.3001 47.5972 87.7393 46.902 88.2133C46.5579 88.4539 46.2173 88.7048 45.8801 88.9593C45.7132 89.0883 45.5498 89.2172 45.3934 89.3567C45.317 89.4264 45.237 89.4961 45.171 89.5693C45.1362 89.6041 45.1049 89.6425 45.0806 89.6808C45.0597 89.7052 45.0493 89.7401 45.0458 89.7471V89.7505C45.0354 89.7296 45.0702 89.7784 45.1084 89.7959C45.1466 89.8203 45.1953 89.8447 45.244 89.8656C45.3413 89.9074 45.4421 89.9423 45.5464 89.9736C45.7549 90.0364 45.9705 90.0852 46.186 90.127C46.617 90.2072 47.055 90.2629 47.4964 90.2943C48.3759 90.3571 49.2623 90.3396 50.1278 90.1932C50.9934 90.0643 51.8102 89.7017 52.5228 89.1928C52.8774 88.9349 53.2041 88.6386 53.4822 88.3005C53.7047 88.0286 53.9063 87.7219 54.028 87.3977L50.4407 88.6491C49.7906 88.8443 49.1302 88.9941 48.4732 89.1336L46.4988 89.5519L46.4571 89.3741L50.2669 88.1785C50.8786 87.9275 51.4765 87.6521 52.0918 87.3907L53.9376 86.5751C53.1728 86.1916 52.2969 86.1637 51.4765 86.2509Z" fill="url(#paint53_linear_13_12725)"/>
<path d="M53.9313 86.571L52.5479 87.2194C53.3752 86.8394 53.9313 86.571 53.9313 86.571Z" fill="url(#paint54_linear_13_12725)"/>
<path d="M31.0898 78.2295C30.3425 77.8531 29.536 77.5847 28.7191 77.4383C27.8953 77.2989 27.0611 77.2535 26.2268 77.257C25.8097 77.264 25.3891 77.271 24.9719 77.2884C24.7634 77.2988 24.5583 77.3128 24.3532 77.3407C24.2524 77.3546 24.1481 77.3686 24.0543 77.393C24.0056 77.4034 23.9569 77.4174 23.9187 77.4348C23.877 77.4452 23.8353 77.4871 23.8561 77.4627L23.8527 77.4731C23.8561 77.4487 23.8596 77.5115 23.8805 77.5463C23.9013 77.5916 23.9257 77.637 23.9569 77.6788C24.016 77.7694 24.0821 77.8566 24.1516 77.9402C24.2906 78.111 24.4436 78.2748 24.6 78.4317C24.9129 78.7454 25.25 79.0417 25.5976 79.3206C26.2929 79.8748 27.0437 80.3663 27.8432 80.7358C28.6357 81.1157 29.5117 81.283 30.3807 81.2656C31.1524 81.2377 31.9797 81.0704 32.5949 80.6207C32.0075 80.4883 31.4548 80.3244 30.8847 80.1711L28.9381 79.6238C27.645 79.1916 26.418 78.6443 25.1666 78.1354L25.2257 77.9646L29.0459 79.1358C29.689 79.2752 30.3355 79.3903 30.989 79.5227L32.9634 79.9027C32.5289 79.1532 31.8198 78.6269 31.0898 78.2295Z" fill="url(#paint55_linear_13_12725)"/>
<path d="M32.9526 79.9L31.4336 79.6455C32.3374 79.8024 32.9526 79.9 32.9526 79.9Z" fill="url(#paint56_linear_13_12725)"/>
<path d="M39.4709 83.5352L37.9102 83.5874C38.8383 83.563 39.4709 83.5352 39.4709 83.5352Z" fill="url(#paint57_linear_13_12725)"/>
<path d="M39.1123 83.1758C39.2374 83.2873 39.3626 83.4024 39.4703 83.5348C39.3834 83.4233 39.2548 83.2978 39.1123 83.1758Z" fill="url(#paint58_linear_13_12725)"/>
<path d="M34.8512 81.9627C34.0169 81.9871 33.1862 82.1091 32.3693 82.2764C31.9626 82.3636 31.5489 82.4577 31.1457 82.5622C30.9441 82.6145 30.7425 82.6703 30.5478 82.7365C30.4505 82.7714 30.3532 82.8028 30.2628 82.8446C30.2176 82.8655 30.1724 82.8864 30.1377 82.9108C30.0994 82.9282 30.0681 82.977 30.082 82.9526L30.0786 82.9631C30.0751 82.9352 30.0925 82.998 30.1203 83.0293C30.1481 83.0677 30.1828 83.106 30.2176 83.1444C30.2906 83.221 30.374 83.2942 30.4575 83.364C30.6278 83.5034 30.8085 83.6324 30.9893 83.7578C31.3578 84.0053 31.7436 84.2284 32.1364 84.4306C32.9255 84.8349 33.7528 85.1661 34.6079 85.3682C35.456 85.5809 36.3528 85.5739 37.201 85.3857C37.9449 85.2079 38.72 84.8837 39.2345 84.326H39.1685H39.165H39.1615C38.5184 84.2912 37.8754 84.2423 37.2323 84.1935C36.5892 84.1413 35.9496 84.1029 35.2996 84.0402C34.6531 83.967 34.0169 83.845 33.3843 83.7195L31.4864 83.3465L31.5107 83.1653C32.1712 83.242 32.8316 83.3256 33.4921 83.3779L35.4769 83.5557C36.1339 83.5661 36.7908 83.5522 37.4582 83.5522L39.4674 83.5348C38.9078 82.8864 38.1117 82.51 37.3261 82.2625C36.5232 82.0464 35.6785 81.9522 34.8512 81.9627Z" fill="url(#paint59_linear_13_12725)"/>
<path d="M18.6972 59.2954C18.9649 59.9438 19.2047 60.6095 19.4655 61.2579C19.7018 61.8435 19.9903 62.4117 20.2615 62.9903C20.5813 62.2374 20.5847 61.3555 20.5708 60.5259C20.55 60.0762 20.4839 59.6301 20.3658 59.1978C20.251 58.7656 20.0668 58.3543 19.8861 57.936C19.5176 57.1099 19.0761 56.3186 18.5895 55.5587C18.3462 55.1788 18.0889 54.8093 17.8108 54.4573C17.6718 54.283 17.5293 54.1087 17.3729 53.9658C17.3346 53.9274 17.2964 53.8926 17.2582 53.8682C17.2269 53.8403 17.2095 53.8368 17.206 53.8298C17.1956 53.8403 17.1747 53.8612 17.1643 53.8856C17.14 53.9239 17.1122 53.9727 17.0913 54.0215C16.7437 54.8267 16.5803 55.7435 16.483 56.6393C16.3926 57.5386 16.403 58.4554 16.5595 59.3407C16.7263 60.2157 17.0983 61.0627 17.6092 61.7912C17.8595 62.1607 18.1619 62.4814 18.5061 62.7637C18.7981 63.0007 19.1178 63.2169 19.4585 63.3493C19.243 62.7428 19.0101 62.1433 18.8259 61.5158L18.2523 59.4593L17.8143 57.3678C17.6927 56.8763 17.6231 56.3639 17.5536 55.8585C17.498 55.4855 17.4702 55.2625 17.4702 55.2625C17.6301 55.9317 17.8004 56.6358 18.0333 57.2946L18.6972 59.2954Z" fill="url(#paint60_linear_13_12725)"/>
<path d="M51.0423 83.0645L54.056 84.5877C53.837 83.9289 53.4269 83.3259 52.9715 82.803C52.457 82.2279 51.8487 81.7364 51.1431 81.4366C50.4375 81.1159 49.7249 80.8022 48.9879 80.6035C48.623 80.5094 48.2371 80.4571 47.8547 80.3944C47.667 80.3665 47.4724 80.3421 47.2916 80.3386C47.2464 80.3386 47.2012 80.3386 47.163 80.3421C47.1526 80.3421 47.1422 80.3456 47.1317 80.3456C47.1317 80.363 47.1283 80.3839 47.1352 80.4049C47.1387 80.4467 47.1456 80.492 47.1561 80.5373C47.3264 81.2798 47.6983 81.9874 48.1294 82.6322C48.5639 83.2806 49.0679 83.8766 49.6484 84.3855C50.208 84.9188 50.9137 85.236 51.668 85.372C52.3493 85.501 53.0862 85.5428 53.7328 85.3302L50.8268 83.4549C50.4166 83.1307 50.0169 82.7856 49.6171 82.4475C48.6855 81.7015 48.0112 81.1125 48.0112 81.1125L49.5128 82.1129C50.0134 82.451 50.5174 82.7856 51.0423 83.0645Z" fill="url(#paint61_linear_13_12725)"/>
<path d="M44.2674 81.66C45.1712 82.3676 46.0541 83.1066 46.9648 83.8072L47.0656 83.8735C47.0205 83.5179 46.9058 83.1589 46.7771 82.8208C46.6172 82.4199 46.4191 82.0365 46.1932 81.6775C45.9637 81.315 45.6996 80.9803 45.3971 80.684C45.1017 80.3808 44.7367 80.1577 44.3926 79.9102L44.3821 79.9032C43.4957 79.2166 42.4877 78.7251 41.4275 78.3939C41.3093 78.3591 41.1703 78.3242 41.0799 78.3242C41.0764 78.3382 41.0729 78.3486 41.0695 78.3695C41.0625 78.4288 41.0625 78.4985 41.0625 78.5647C41.0729 78.8366 41.1146 79.119 41.1737 79.3908C41.2919 79.9416 41.4866 80.4749 41.716 80.9908C42.1853 82.0086 42.7727 83.023 43.673 83.6643C44.1214 83.9815 44.6255 84.2255 45.1538 84.3754C45.6161 84.5079 46.1132 84.5811 46.586 84.5323L44.1075 82.1062C43.6834 81.6635 43.3011 81.179 42.9222 80.698L41.7925 79.2479L43.016 80.4749C43.4193 80.8862 43.826 81.2975 44.2674 81.66Z" fill="url(#paint62_linear_13_12725)"/>
<defs>
<linearGradient id="paint0_linear_13_12725" x1="27.3054" y1="69.0066" x2="39.1565" y2="54.7102" gradientUnits="userSpaceOnUse">
<stop offset="0.0192" stop-color="#8F5D26"/>
<stop offset="0.3879" stop-color="#A77742"/>
<stop offset="0.7599" stop-color="#B98B58"/>
<stop offset="1" stop-color="#C09260"/>
</linearGradient>
<linearGradient id="paint1_linear_13_12725" x1="15.3569" y1="85.2672" x2="70.0943" y2="19.236" gradientUnits="userSpaceOnUse">
<stop offset="0.0192" stop-color="#8F5D26"/>
<stop offset="0.3879" stop-color="#A77742"/>
<stop offset="0.7599" stop-color="#B98B58"/>
<stop offset="1" stop-color="#C09260"/>
</linearGradient>
<linearGradient id="paint2_linear_13_12725" x1="50.3143" y1="86.1291" x2="87.0601" y2="41.8017" gradientUnits="userSpaceOnUse">
<stop offset="0.0192" stop-color="#8F5D26"/>
<stop offset="0.3879" stop-color="#A77742"/>
<stop offset="0.7599" stop-color="#B98B58"/>
<stop offset="1" stop-color="#C09260"/>
</linearGradient>
<linearGradient id="paint3_linear_13_12725" x1="22.9943" y1="89.1454" x2="81.9541" y2="18.0206" gradientUnits="userSpaceOnUse">
<stop offset="0.0192" stop-color="#8F5D26"/>
<stop offset="0.3879" stop-color="#A77742"/>
<stop offset="0.7599" stop-color="#B98B58"/>
<stop offset="1" stop-color="#C09260"/>
</linearGradient>
<linearGradient id="paint4_linear_13_12725" x1="31.7435" y1="116.796" x2="113.841" y2="53.6871" gradientUnits="userSpaceOnUse">
<stop offset="0.0192" stop-color="#8F5D26"/>
<stop offset="0.3879" stop-color="#A77742"/>
<stop offset="0.7599" stop-color="#B98B58"/>
<stop offset="1" stop-color="#C09260"/>
</linearGradient>
<linearGradient id="paint5_linear_13_12725" x1="26.9344" y1="110.54" x2="109.032" y2="47.4315" gradientUnits="userSpaceOnUse">
<stop offset="0.0192" stop-color="#8F5D26"/>
<stop offset="0.3879" stop-color="#A77742"/>
<stop offset="0.7599" stop-color="#B98B58"/>
<stop offset="1" stop-color="#C09260"/>
</linearGradient>
<linearGradient id="paint6_linear_13_12725" x1="28.0794" y1="112.03" x2="110.177" y2="48.9212" gradientUnits="userSpaceOnUse">
<stop offset="0.0192" stop-color="#8F5D26"/>
<stop offset="0.3879" stop-color="#A77742"/>
<stop offset="0.7599" stop-color="#B98B58"/>
<stop offset="1" stop-color="#C09260"/>
</linearGradient>
<linearGradient id="paint7_linear_13_12725" x1="28.2026" y1="112.191" x2="110.3" y2="49.0823" gradientUnits="userSpaceOnUse">
<stop offset="0.0192" stop-color="#8F5D26"/>
<stop offset="0.3879" stop-color="#A77742"/>
<stop offset="0.7599" stop-color="#B98B58"/>
<stop offset="1" stop-color="#C09260"/>
</linearGradient>
<linearGradient id="paint8_linear_13_12725" x1="27.5349" y1="111.322" x2="109.633" y2="48.2132" gradientUnits="userSpaceOnUse">
<stop offset="0.0192" stop-color="#8F5D26"/>
<stop offset="0.3879" stop-color="#A77742"/>
<stop offset="0.7599" stop-color="#B98B58"/>
<stop offset="1" stop-color="#C09260"/>
</linearGradient>
<linearGradient id="paint9_linear_13_12725" x1="30.9227" y1="115.729" x2="113.021" y2="52.62" gradientUnits="userSpaceOnUse">
<stop offset="0.0192" stop-color="#8F5D26"/>
<stop offset="0.3879" stop-color="#A77742"/>
<stop offset="0.7599" stop-color="#B98B58"/>
<stop offset="1" stop-color="#C09260"/>
</linearGradient>
<linearGradient id="paint10_linear_13_12725" x1="29.1365" y1="113.406" x2="111.234" y2="50.2973" gradientUnits="userSpaceOnUse">
<stop offset="0.0192" stop-color="#8F5D26"/>
<stop offset="0.3879" stop-color="#A77742"/>
<stop offset="0.7599" stop-color="#B98B58"/>
<stop offset="1" stop-color="#C09260"/>
</linearGradient>
<linearGradient id="paint11_linear_13_12725" x1="29.3441" y1="113.679" x2="111.444" y2="50.5659" gradientUnits="userSpaceOnUse">
<stop offset="0.0192" stop-color="#8F5D26"/>
<stop offset="0.3879" stop-color="#A77742"/>
<stop offset="0.7599" stop-color="#B98B58"/>
<stop offset="1" stop-color="#C09260"/>
</linearGradient>
<linearGradient id="paint12_linear_13_12725" x1="30.0876" y1="114.642" x2="112.185" y2="51.5331" gradientUnits="userSpaceOnUse">
<stop offset="0.0192" stop-color="#8F5D26"/>
<stop offset="0.3879" stop-color="#A77742"/>
<stop offset="0.7599" stop-color="#B98B58"/>
<stop offset="1" stop-color="#C09260"/>
</linearGradient>
<linearGradient id="paint13_linear_13_12725" x1="25.1852" y1="108.265" x2="107.283" y2="45.1568" gradientUnits="userSpaceOnUse">
<stop offset="0.0192" stop-color="#8F5D26"/>
<stop offset="0.3879" stop-color="#A77742"/>
<stop offset="0.7599" stop-color="#B98B58"/>
<stop offset="1" stop-color="#C09260"/>
</linearGradient>
<linearGradient id="paint14_linear_13_12725" x1="28.7982" y1="114.252" x2="111.924" y2="49.8257" gradientUnits="userSpaceOnUse">
<stop offset="0.0192" stop-color="#8F5D26"/>
<stop offset="0.3879" stop-color="#A77742"/>
<stop offset="0.7599" stop-color="#B98B58"/>
<stop offset="1" stop-color="#C09260"/>
</linearGradient>
<linearGradient id="paint15_linear_13_12725" x1="30.0508" y1="114.594" x2="112.149" y2="51.4857" gradientUnits="userSpaceOnUse">
<stop offset="0.0192" stop-color="#8F5D26"/>
<stop offset="0.3879" stop-color="#A77742"/>
<stop offset="0.7599" stop-color="#B98B58"/>
<stop offset="1" stop-color="#C09260"/>
</linearGradient>
<linearGradient id="paint16_linear_13_12725" x1="31.4731" y1="116.445" x2="113.571" y2="53.3368" gradientUnits="userSpaceOnUse">
<stop offset="0.0192" stop-color="#8F5D26"/>
<stop offset="0.3879" stop-color="#A77742"/>
<stop offset="0.7599" stop-color="#B98B58"/>
<stop offset="1" stop-color="#C09260"/>
</linearGradient>
<linearGradient id="paint17_linear_13_12725" x1="28.0537" y1="111.997" x2="110.151" y2="48.8882" gradientUnits="userSpaceOnUse">
<stop offset="0.0192" stop-color="#8F5D26"/>
<stop offset="0.3879" stop-color="#A77742"/>
<stop offset="0.7599" stop-color="#B98B58"/>
<stop offset="1" stop-color="#C09260"/>
</linearGradient>
<linearGradient id="paint18_linear_13_12725" x1="31.1987" y1="116.088" x2="113.297" y2="52.9793" gradientUnits="userSpaceOnUse">
<stop offset="0.0192" stop-color="#8F5D26"/>
<stop offset="0.3879" stop-color="#A77742"/>
<stop offset="0.7599" stop-color="#B98B58"/>
<stop offset="1" stop-color="#C09260"/>
</linearGradient>
<linearGradient id="paint19_linear_13_12725" x1="27.0327" y1="110.668" x2="109.131" y2="47.5593" gradientUnits="userSpaceOnUse">
<stop offset="0.0192" stop-color="#8F5D26"/>
<stop offset="0.3879" stop-color="#A77742"/>
<stop offset="0.7599" stop-color="#B98B58"/>
<stop offset="1" stop-color="#C09260"/>
</linearGradient>
<linearGradient id="paint20_linear_13_12725" x1="28.6604" y1="112.785" x2="110.758" y2="49.6769" gradientUnits="userSpaceOnUse">
<stop offset="0.0192" stop-color="#8F5D26"/>
<stop offset="0.3879" stop-color="#A77742"/>
<stop offset="0.7599" stop-color="#B98B58"/>
<stop offset="1" stop-color="#C09260"/>
</linearGradient>
<linearGradient id="paint21_linear_13_12725" x1="30.4397" y1="115.1" x2="112.537" y2="51.9919" gradientUnits="userSpaceOnUse">
<stop offset="0.0192" stop-color="#8F5D26"/>
<stop offset="0.3879" stop-color="#A77742"/>
<stop offset="0.7599" stop-color="#B98B58"/>
<stop offset="1" stop-color="#C09260"/>
</linearGradient>
<linearGradient id="paint22_linear_13_12725" x1="24.437" y1="107.293" x2="106.535" y2="44.1836" gradientUnits="userSpaceOnUse">
<stop offset="0.0192" stop-color="#8F5D26"/>
<stop offset="0.3879" stop-color="#A77742"/>
<stop offset="0.7599" stop-color="#B98B58"/>
<stop offset="1" stop-color="#C09260"/>
</linearGradient>
<linearGradient id="paint23_linear_13_12725" x1="30.8742" y1="115.666" x2="112.972" y2="52.5575" gradientUnits="userSpaceOnUse">
<stop offset="0.0192" stop-color="#8F5D26"/>
<stop offset="0.3879" stop-color="#A77742"/>
<stop offset="0.7599" stop-color="#B98B58"/>
<stop offset="1" stop-color="#C09260"/>
</linearGradient>
<linearGradient id="paint24_linear_13_12725" x1="30.4834" y1="115.156" x2="112.579" y2="52.0471" gradientUnits="userSpaceOnUse">
<stop offset="0.0192" stop-color="#8F5D26"/>
<stop offset="0.3879" stop-color="#A77742"/>
<stop offset="0.7599" stop-color="#B98B58"/>
<stop offset="1" stop-color="#C09260"/>
</linearGradient>
<linearGradient id="paint25_linear_13_12725" x1="29.2041" y1="113.493" x2="111.302" y2="50.3842" gradientUnits="userSpaceOnUse">
<stop offset="0.0192" stop-color="#8F5D26"/>
<stop offset="0.3879" stop-color="#A77742"/>
<stop offset="0.7599" stop-color="#B98B58"/>
<stop offset="1" stop-color="#C09260"/>
</linearGradient>
<linearGradient id="paint26_linear_13_12725" x1="29.048" y1="113.29" x2="111.146" y2="50.1812" gradientUnits="userSpaceOnUse">
<stop offset="0.0192" stop-color="#8F5D26"/>
<stop offset="0.3879" stop-color="#A77742"/>
<stop offset="0.7599" stop-color="#B98B58"/>
<stop offset="1" stop-color="#C09260"/>
</linearGradient>
<linearGradient id="paint27_linear_13_12725" x1="29.1114" y1="113.372" x2="111.209" y2="50.2639" gradientUnits="userSpaceOnUse">
<stop offset="0.0192" stop-color="#8F5D26"/>
<stop offset="0.3879" stop-color="#A77742"/>
<stop offset="0.7599" stop-color="#B98B58"/>
<stop offset="1" stop-color="#C09260"/>
</linearGradient>
<linearGradient id="paint28_linear_13_12725" x1="30.7517" y1="115.506" x2="112.85" y2="52.398" gradientUnits="userSpaceOnUse">
<stop offset="0.0192" stop-color="#8F5D26"/>
<stop offset="0.3879" stop-color="#A77742"/>
<stop offset="0.7599" stop-color="#B98B58"/>
<stop offset="1" stop-color="#C09260"/>
</linearGradient>
<linearGradient id="paint29_linear_13_12725" x1="26.1041" y1="109.46" x2="108.202" y2="46.3512" gradientUnits="userSpaceOnUse">
<stop offset="0.0192" stop-color="#8F5D26"/>
<stop offset="0.3879" stop-color="#A77742"/>
<stop offset="0.7599" stop-color="#B98B58"/>
<stop offset="1" stop-color="#C09260"/>
</linearGradient>
<linearGradient id="paint30_linear_13_12725" x1="31.4021" y1="116.353" x2="113.5" y2="53.2442" gradientUnits="userSpaceOnUse">
<stop offset="0.0192" stop-color="#8F5D26"/>
<stop offset="0.3879" stop-color="#A77742"/>
<stop offset="0.7599" stop-color="#B98B58"/>
<stop offset="1" stop-color="#C09260"/>
</linearGradient>
<linearGradient id="paint31_linear_13_12725" x1="25.6569" y1="108.888" x2="107.758" y2="45.7718" gradientUnits="userSpaceOnUse">
<stop offset="0.0192" stop-color="#8F5D26"/>
<stop offset="0.3879" stop-color="#A77742"/>
<stop offset="0.7599" stop-color="#B98B58"/>
<stop offset="1" stop-color="#C09260"/>
</linearGradient>
<linearGradient id="paint32_linear_13_12725" x1="28.3522" y1="112.547" x2="110.836" y2="49.7155" gradientUnits="userSpaceOnUse">
<stop offset="0.0192" stop-color="#8F5D26"/>
<stop offset="0.3879" stop-color="#A77742"/>
<stop offset="0.7599" stop-color="#B98B58"/>
<stop offset="1" stop-color="#C09260"/>
</linearGradient>
<linearGradient id="paint33_linear_13_12725" x1="29.327" y1="115.127" x2="112.455" y2="50.7073" gradientUnits="userSpaceOnUse">
<stop offset="0.0192" stop-color="#8F5D26"/>
<stop offset="0.3879" stop-color="#A77742"/>
<stop offset="0.7599" stop-color="#B98B58"/>
<stop offset="1" stop-color="#C09260"/>
</linearGradient>
<linearGradient id="paint34_linear_13_12725" x1="25.4631" y1="108.627" x2="107.561" y2="45.5187" gradientUnits="userSpaceOnUse">
<stop offset="0.0192" stop-color="#8F5D26"/>
<stop offset="0.3879" stop-color="#A77742"/>
<stop offset="0.7599" stop-color="#B98B58"/>
<stop offset="1" stop-color="#C09260"/>
</linearGradient>
<linearGradient id="paint35_linear_13_12725" x1="25.0822" y1="108.132" x2="107.18" y2="45.0229" gradientUnits="userSpaceOnUse">
<stop offset="0.0192" stop-color="#8F5D26"/>
<stop offset="0.3879" stop-color="#A77742"/>
<stop offset="0.7599" stop-color="#B98B58"/>
<stop offset="1" stop-color="#C09260"/>
</linearGradient>
<linearGradient id="paint36_linear_13_12725" x1="2.56112" y1="78.834" x2="84.6589" y2="15.7256" gradientUnits="userSpaceOnUse">
<stop offset="0.0192" stop-color="#8F5D26"/>
<stop offset="0.3879" stop-color="#A77742"/>
<stop offset="0.7599" stop-color="#B98B58"/>
<stop offset="1" stop-color="#C09260"/>
</linearGradient>
<linearGradient id="paint37_linear_13_12725" x1="4.7282" y1="81.6515" x2="86.8262" y2="18.5431" gradientUnits="userSpaceOnUse">
<stop offset="0.0192" stop-color="#8F5D26"/>
<stop offset="0.3879" stop-color="#A77742"/>
<stop offset="0.7599" stop-color="#B98B58"/>
<stop offset="1" stop-color="#C09260"/>
</linearGradient>
<linearGradient id="paint38_linear_13_12725" x1="-3.07348" y1="71.5034" x2="79.0244" y2="8.39461" gradientUnits="userSpaceOnUse">
<stop offset="0.0192" stop-color="#8F5D26"/>
<stop offset="0.3879" stop-color="#A77742"/>
<stop offset="0.7599" stop-color="#B98B58"/>
<stop offset="1" stop-color="#C09260"/>
</linearGradient>
<linearGradient id="paint39_linear_13_12725" x1="4.81839" y1="82.3329" x2="87.9449" y2="17.9104" gradientUnits="userSpaceOnUse">
<stop offset="0.0192" stop-color="#8F5D26"/>
<stop offset="0.3879" stop-color="#A77742"/>
<stop offset="0.7599" stop-color="#B98B58"/>
<stop offset="1" stop-color="#C09260"/>
</linearGradient>
<linearGradient id="paint40_linear_13_12725" x1="9.38923" y1="88.2809" x2="92.5157" y2="23.8584" gradientUnits="userSpaceOnUse">
<stop offset="0.0192" stop-color="#8F5D26"/>
<stop offset="0.3879" stop-color="#A77742"/>
<stop offset="0.7599" stop-color="#B98B58"/>
<stop offset="1" stop-color="#C09260"/>
</linearGradient>
<linearGradient id="paint41_linear_13_12725" x1="9.52992" y1="87.8988" x2="91.6274" y2="24.7902" gradientUnits="userSpaceOnUse">
<stop offset="0.0192" stop-color="#8F5D26"/>
<stop offset="0.3879" stop-color="#A77742"/>
<stop offset="0.7599" stop-color="#B98B58"/>
<stop offset="1" stop-color="#C09260"/>
</linearGradient>
<linearGradient id="paint42_linear_13_12725" x1="7.40273" y1="85.1322" x2="89.5006" y2="22.0238" gradientUnits="userSpaceOnUse">
<stop offset="0.0192" stop-color="#8F5D26"/>
<stop offset="0.3879" stop-color="#A77742"/>
<stop offset="0.7599" stop-color="#B98B58"/>
<stop offset="1" stop-color="#C09260"/>
</linearGradient>
<linearGradient id="paint43_linear_13_12725" x1="15.5767" y1="95.7647" x2="97.6746" y2="32.6563" gradientUnits="userSpaceOnUse">
<stop offset="0.0192" stop-color="#8F5D26"/>
<stop offset="0.3879" stop-color="#A77742"/>
<stop offset="0.7599" stop-color="#B98B58"/>
<stop offset="1" stop-color="#C09260"/>
</linearGradient>
<linearGradient id="paint44_linear_13_12725" x1="11.6352" y1="90.6387" x2="93.7331" y2="27.5302" gradientUnits="userSpaceOnUse">
<stop offset="0.0192" stop-color="#8F5D26"/>
<stop offset="0.3879" stop-color="#A77742"/>
<stop offset="0.7599" stop-color="#B98B58"/>
<stop offset="1" stop-color="#C09260"/>
</linearGradient>
<linearGradient id="paint45_linear_13_12725" x1="6.33079" y1="83.7366" x2="88.4284" y2="20.6286" gradientUnits="userSpaceOnUse">
<stop offset="0.0192" stop-color="#8F5D26"/>
<stop offset="0.3879" stop-color="#A77742"/>
<stop offset="0.7599" stop-color="#B98B58"/>
<stop offset="1" stop-color="#C09260"/>
</linearGradient>
<linearGradient id="paint46_linear_13_12725" x1="2.05677" y1="78.1793" x2="84.1566" y2="15.0641" gradientUnits="userSpaceOnUse">
<stop offset="0.0192" stop-color="#8F5D26"/>
<stop offset="0.3879" stop-color="#A77742"/>
<stop offset="0.7599" stop-color="#B98B58"/>
<stop offset="1" stop-color="#C09260"/>
</linearGradient>
<linearGradient id="paint47_linear_13_12725" x1="7.54078" y1="85.3116" x2="89.6386" y2="22.2031" gradientUnits="userSpaceOnUse">
<stop offset="0.0192" stop-color="#8F5D26"/>
<stop offset="0.3879" stop-color="#A77742"/>
<stop offset="0.7599" stop-color="#B98B58"/>
<stop offset="1" stop-color="#C09260"/>
</linearGradient>
<linearGradient id="paint48_linear_13_12725" x1="3.42035" y1="79.9506" x2="85.5182" y2="16.8422" gradientUnits="userSpaceOnUse">
<stop offset="0.0192" stop-color="#8F5D26"/>
<stop offset="0.3879" stop-color="#A77742"/>
<stop offset="0.7599" stop-color="#B98B58"/>
<stop offset="1" stop-color="#C09260"/>
</linearGradient>
<linearGradient id="paint49_linear_13_12725" x1="21.1289" y1="102.988" x2="103.227" y2="39.8792" gradientUnits="userSpaceOnUse">
<stop offset="0.0192" stop-color="#8F5D26"/>
<stop offset="0.3879" stop-color="#A77742"/>
<stop offset="0.7599" stop-color="#B98B58"/>
<stop offset="1" stop-color="#C09260"/>
</linearGradient>
<linearGradient id="paint50_linear_13_12725" x1="22.1408" y1="104.304" x2="104.238" y2="41.1953" gradientUnits="userSpaceOnUse">
<stop offset="0.0192" stop-color="#8F5D26"/>
<stop offset="0.3879" stop-color="#A77742"/>
<stop offset="0.7599" stop-color="#B98B58"/>
<stop offset="1" stop-color="#C09260"/>
</linearGradient>
<linearGradient id="paint51_linear_13_12725" x1="14.2472" y1="94.0359" x2="96.345" y2="30.9275" gradientUnits="userSpaceOnUse">
<stop offset="0.0192" stop-color="#8F5D26"/>
<stop offset="0.3879" stop-color="#A77742"/>
<stop offset="0.7599" stop-color="#B98B58"/>
<stop offset="1" stop-color="#C09260"/>
</linearGradient>
<linearGradient id="paint52_linear_13_12725" x1="22.1982" y1="104.378" x2="104.295" y2="41.2699" gradientUnits="userSpaceOnUse">
<stop offset="0.0192" stop-color="#8F5D26"/>
<stop offset="0.3879" stop-color="#A77742"/>
<stop offset="0.7599" stop-color="#B98B58"/>
<stop offset="1" stop-color="#C09260"/>
</linearGradient>
<linearGradient id="paint53_linear_13_12725" x1="24.8811" y1="107.87" x2="106.979" y2="44.7617" gradientUnits="userSpaceOnUse">
<stop offset="0.0192" stop-color="#8F5D26"/>
<stop offset="0.3879" stop-color="#A77742"/>
<stop offset="0.7599" stop-color="#B98B58"/>
<stop offset="1" stop-color="#C09260"/>
</linearGradient>
<linearGradient id="paint54_linear_13_12725" x1="25.3379" y1="108.463" x2="107.436" y2="45.3546" gradientUnits="userSpaceOnUse">
<stop offset="0.0192" stop-color="#8F5D26"/>
<stop offset="0.3879" stop-color="#A77742"/>
<stop offset="0.7599" stop-color="#B98B58"/>
<stop offset="1" stop-color="#C09260"/>
</linearGradient>
<linearGradient id="paint55_linear_13_12725" x1="12.2246" y1="91.4041" x2="94.3224" y2="28.2956" gradientUnits="userSpaceOnUse">
<stop offset="0.0192" stop-color="#8F5D26"/>
<stop offset="0.3879" stop-color="#A77742"/>
<stop offset="0.7599" stop-color="#B98B58"/>
<stop offset="1" stop-color="#C09260"/>
</linearGradient>
<linearGradient id="paint56_linear_13_12725" x1="14.0585" y1="93.791" x2="96.156" y2="30.6824" gradientUnits="userSpaceOnUse">
<stop offset="0.0192" stop-color="#8F5D26"/>
<stop offset="0.3879" stop-color="#A77742"/>
<stop offset="0.7599" stop-color="#B98B58"/>
<stop offset="1" stop-color="#C09260"/>
</linearGradient>
<linearGradient id="paint57_linear_13_12725" x1="18.3065" y1="99.3169" x2="100.408" y2="36.2094" gradientUnits="userSpaceOnUse">
<stop offset="0.0192" stop-color="#8F5D26"/>
<stop offset="0.3879" stop-color="#A77742"/>
<stop offset="0.7599" stop-color="#B98B58"/>
<stop offset="1" stop-color="#C09260"/>
</linearGradient>
<linearGradient id="paint58_linear_13_12725" x1="18.4306" y1="99.4781" x2="100.529" y2="36.3691" gradientUnits="userSpaceOnUse">
<stop offset="0.0192" stop-color="#8F5D26"/>
<stop offset="0.3879" stop-color="#A77742"/>
<stop offset="0.7599" stop-color="#B98B58"/>
<stop offset="1" stop-color="#C09260"/>
</linearGradient>
<linearGradient id="paint59_linear_13_12725" x1="16.853" y1="97.4248" x2="98.9509" y2="34.3164" gradientUnits="userSpaceOnUse">
<stop offset="0.0192" stop-color="#8F5D26"/>
<stop offset="0.3879" stop-color="#A77742"/>
<stop offset="0.7599" stop-color="#B98B58"/>
<stop offset="1" stop-color="#C09260"/>
</linearGradient>
<linearGradient id="paint60_linear_13_12725" x1="-1.25908" y1="73.864" x2="80.8387" y2="10.7556" gradientUnits="userSpaceOnUse">
<stop offset="0.0192" stop-color="#8F5D26"/>
<stop offset="0.3879" stop-color="#A77742"/>
<stop offset="0.7599" stop-color="#B98B58"/>
<stop offset="1" stop-color="#C09260"/>
</linearGradient>
<linearGradient id="paint61_linear_13_12725" x1="22.3383" y1="104.561" x2="104.436" y2="41.453" gradientUnits="userSpaceOnUse">
<stop offset="0.0192" stop-color="#8F5D26"/>
<stop offset="0.3879" stop-color="#A77742"/>
<stop offset="0.7599" stop-color="#B98B58"/>
<stop offset="1" stop-color="#C09260"/>
</linearGradient>
<linearGradient id="paint62_linear_13_12725" x1="19.195" y1="100.473" x2="101.293" y2="37.3642" gradientUnits="userSpaceOnUse">
<stop offset="0.0192" stop-color="#8F5D26"/>
<stop offset="0.3879" stop-color="#A77742"/>
<stop offset="0.7599" stop-color="#B98B58"/>
<stop offset="1" stop-color="#C09260"/>
</linearGradient>
</defs>
</svg>
