<svg width="103" height="93" viewBox="0 0 103 93" fill="none" xmlns="http://www.w3.org/2000/svg">
<path d="M101.281 39.228H87.7578V39.7177H101.281V39.228Z" fill="white"/>
<path d="M101.281 47.7025H87.7578V48.1922H101.281V47.7025Z" fill="white"/>
<path d="M87.8341 45.0347L89.4072 42.8095C89.477 42.7096 89.5335 42.6063 89.5735 42.503C89.6134 42.3964 89.6333 42.2998 89.6333 42.2099V42.2032C89.6333 42.07 89.5934 41.9667 89.5136 41.8934C89.4338 41.8201 89.3207 41.7835 89.1744 41.7835C89.0314 41.7835 88.9149 41.8335 88.8285 41.9334C88.742 42.0333 88.6855 42.1766 88.6688 42.3631V42.3665H87.7842V42.3631C87.8041 42.0567 87.8706 41.7902 87.9904 41.5703C88.1101 41.3471 88.2697 41.1806 88.4693 41.064C88.6722 40.9474 88.905 40.8907 89.1677 40.8907C89.4537 40.8907 89.6965 40.9407 89.8994 41.0406C90.1023 41.1406 90.2552 41.2872 90.3617 41.4804C90.4681 41.6736 90.5213 41.9034 90.5213 42.1766V42.1799C90.5213 42.4031 90.4847 42.6263 90.4116 42.8462C90.3384 43.066 90.2386 43.2659 90.1089 43.4458L88.9815 44.9814H90.5479V45.8775H87.8407V45.0347H87.8341Z" fill="white"/>
<path d="M91.6519 45.5506C91.4191 45.3041 91.3027 44.961 91.3027 44.5213V42.2761C91.3027 41.833 91.4191 41.4866 91.6553 41.2434C91.8881 40.9969 92.2306 40.8737 92.673 40.8737C93.1219 40.8737 93.4612 40.9969 93.694 41.2401C93.9268 41.4833 94.0432 41.8297 94.0432 42.2761V44.5213C94.0432 44.9644 93.9268 45.3108 93.6907 45.554C93.4578 45.8005 93.1153 45.9237 92.673 45.9237C92.224 45.9237 91.8847 45.8005 91.6519 45.5506ZM93.0554 44.8344C93.1386 44.7078 93.1785 44.5213 93.1785 44.2815V42.5126C93.1785 42.2728 93.1386 42.0895 93.0554 41.9596C92.9723 41.833 92.8459 41.7664 92.6696 41.7664C92.4967 41.7664 92.367 41.8297 92.2838 41.9596C92.2007 42.0862 92.1608 42.2728 92.1608 42.5126V44.2815C92.1608 44.5213 92.2007 44.7045 92.2838 44.8344C92.367 44.961 92.4934 45.0276 92.6696 45.0276C92.8459 45.0276 92.9723 44.9644 93.0554 44.8344Z" fill="white"/>
<path d="M95.1471 45.5506C94.9143 45.3041 94.7979 44.961 94.7979 44.5213V42.2761C94.7979 41.833 94.9143 41.4866 95.1504 41.2434C95.3832 40.9969 95.7257 40.8737 96.1681 40.8737C96.6171 40.8737 96.9563 40.9969 97.1891 41.2401C97.4219 41.4833 97.5383 41.8297 97.5383 42.2761V44.5213C97.5383 44.9644 97.4219 45.3108 97.1858 45.554C96.953 45.8005 96.6104 45.9237 96.1681 45.9237C95.7224 45.9237 95.3799 45.8005 95.1471 45.5506ZM96.5539 44.8344C96.637 44.7078 96.6769 44.5213 96.6769 44.2815V42.5126C96.6769 42.2728 96.637 42.0895 96.5539 41.9596C96.4707 41.833 96.3443 41.7664 96.1681 41.7664C95.9951 41.7664 95.8654 41.8297 95.7823 41.9596C95.6991 42.0862 95.6592 42.2728 95.6592 42.5126V44.2815C95.6592 44.5213 95.6991 44.7045 95.7823 44.8344C95.8654 44.961 95.9918 45.0276 96.1681 45.0276C96.341 45.0276 96.4707 44.9644 96.5539 44.8344Z" fill="white"/>
<path d="M99.0615 45.7538C98.842 45.6406 98.6724 45.4807 98.5526 45.2741C98.4329 45.0676 98.373 44.8278 98.373 44.5513V44.4713C98.373 44.2248 98.4362 43.9916 98.5626 43.7751C98.689 43.5586 98.8553 43.3953 99.0681 43.2821C98.8885 43.1855 98.7422 43.0522 98.6325 42.8757C98.5227 42.6991 98.4695 42.5126 98.4695 42.3127V42.1828C98.4695 41.9263 98.526 41.6964 98.6391 41.5032C98.7522 41.3067 98.9085 41.1568 99.1147 41.0469C99.3209 40.9403 99.557 40.887 99.8264 40.887C100.096 40.887 100.335 40.9403 100.538 41.0469C100.744 41.1535 100.901 41.3067 101.014 41.5032C101.127 41.6998 101.183 41.9263 101.183 42.1828V42.3127C101.183 42.5159 101.127 42.7058 101.017 42.8823C100.907 43.0589 100.758 43.1921 100.575 43.2854C100.788 43.3987 100.957 43.5619 101.084 43.7784C101.213 43.995 101.276 44.2248 101.276 44.4713V44.5513C101.276 44.8244 101.217 45.0643 101.097 45.2741C100.977 45.484 100.808 45.6406 100.588 45.7538C100.369 45.8671 100.112 45.9237 99.8231 45.9237C99.5371 45.9237 99.281 45.8671 99.0615 45.7538ZM100.132 44.951C100.222 44.901 100.292 44.8278 100.342 44.7345C100.392 44.6412 100.415 44.5346 100.415 44.4147V44.3681C100.415 44.2581 100.392 44.1582 100.342 44.0749C100.292 43.9916 100.222 43.925 100.136 43.8784C100.049 43.8317 99.9461 43.8084 99.8264 43.8084C99.71 43.8084 99.6069 43.8317 99.5171 43.8784C99.4307 43.925 99.3608 43.9916 99.3109 44.0749C99.261 44.1582 99.2378 44.2581 99.2378 44.3681V44.418C99.2378 44.5379 99.261 44.6445 99.3109 44.7345C99.3608 44.8278 99.4307 44.8977 99.5171 44.9477C99.6069 44.9976 99.71 45.021 99.8231 45.021C99.9362 45.021 100.043 45.001 100.132 44.951ZM100.086 42.839C100.159 42.7924 100.219 42.7258 100.259 42.6425C100.299 42.5592 100.319 42.4593 100.319 42.3494V42.3027C100.319 42.1994 100.299 42.1062 100.259 42.0296C100.219 41.9529 100.159 41.8897 100.086 41.8463C100.013 41.803 99.9229 41.7831 99.8264 41.7831C99.7266 41.7831 99.6402 41.803 99.567 41.8463C99.4938 41.8897 99.434 41.9496 99.3941 42.0296C99.3541 42.1095 99.3342 42.1995 99.3342 42.306V42.356C99.3342 42.4659 99.3541 42.5592 99.3941 42.6458C99.434 42.7291 99.4938 42.7957 99.567 42.8424C99.6402 42.889 99.73 42.9123 99.8264 42.9123C99.9262 42.909 100.013 42.8857 100.086 42.839Z" fill="white"/>
<path d="M15.1822 47.5527H1.72266V48.0424H15.1822V47.5527Z" fill="white"/>
<path d="M15.1822 39.0748H1.72266V39.5645H15.1822V39.0748Z" fill="white"/>
<path d="M9.22488 36.3799C10.8578 29.4343 14.4763 22.8453 19.8575 17.2056C28.2917 8.36794 40.1615 3.09467 51.6022 3.09467C71.4739 3.09467 88.2824 17.0757 93.3909 36.3799H94.382C92.3366 28.4283 88.3357 21.1597 82.6652 15.3035C74.4371 6.80894 63.4055 2.13196 51.6022 2.13196C39.9021 2.13196 27.7762 7.51848 19.1624 16.5393C13.6016 22.3656 9.87674 29.1878 8.23047 36.3799H9.22488Z" fill="white"/>
<path d="M94.8514 51.0271C94.1463 60.0013 90.1587 68.6591 83.3474 75.7945C74.9132 84.6288 63.0434 89.9054 51.6027 89.9054C29.8586 89.9054 11.7796 73.1628 8.68656 51.0271H7.71875C9.09896 61.1539 13.5622 70.4912 20.5397 77.6932C28.7711 86.1878 39.8027 90.8647 51.606 90.8647C63.3062 90.8647 75.432 85.4782 84.0458 76.4574C91.03 69.1388 95.1208 60.2478 95.8258 51.0271H94.8514Z" fill="white"/>
<path d="M26.1804 49.7346L38.7519 61.6969V68.7757C39.3971 69.1621 40.0623 69.5218 40.7474 69.8516V60.8408L25.8545 46.6699C25.9077 47.7059 26.0175 48.7253 26.1804 49.7346Z" fill="url(#paint0_linear_14_4990)"/>
<path d="M47.3222 30.6502L39.9655 23.6514C39.3502 23.9745 38.7449 24.3176 38.1529 24.684L47.3188 33.4051V42.7957L32.8184 28.9979C32.3561 29.4776 31.9104 29.974 31.4847 30.487L47.3188 45.5506V54.9412L27.8064 36.3732C27.5137 37.0294 27.2543 37.7023 27.0215 38.3819L47.3188 57.6961V60.3477V71.9302C47.974 72.0401 48.6392 72.1268 49.3143 72.1867V60.3477V56.8366V20.8165C48.6458 20.8832 47.9807 20.9798 47.3188 21.0997V30.6502H47.3222Z" fill="url(#paint1_linear_14_4990)"/>
<path d="M77.3648 46.6565L62.4619 60.8373V69.7416C63.1404 69.4151 63.8055 69.0554 64.4574 68.6723V61.6935L77.2817 49.4913C77.3681 48.5586 77.4014 47.6125 77.3648 46.6565Z" fill="url(#paint2_linear_14_4990)"/>
<path d="M75.1296 36.633L55.8832 54.9445V45.5539L71.5976 30.6002C71.1885 30.0706 70.7628 29.5576 70.3171 29.0612L55.8832 42.7957V33.4051L65.1089 24.6274C64.5269 24.2543 63.925 23.9046 63.313 23.5814L55.8832 30.6502V21.0597C55.228 20.9498 54.5628 20.8632 53.8877 20.8032V56.8433V60.3544V72.1834C54.5562 72.1168 55.2213 72.0202 55.8832 71.9003V60.3577V57.7061L75.8978 38.665C75.665 37.9721 75.4123 37.2959 75.1296 36.633Z" fill="url(#paint3_linear_14_4990)"/>
<path d="M79.4002 75.3947L76.2207 76.3207C77.4446 76.0043 78.7018 75.6145 79.4002 75.3947Z" fill="#BC9163"/>
<path d="M55.8869 84.9185L53.1631 83.6926C53.8083 83.9958 54.816 84.4588 55.8869 84.9185Z" fill="#BC9163"/>
<path d="M59.5887 86.1344L57.6997 85.7347C57.0711 85.6014 56.4392 85.4682 55.8173 85.285L52.3252 84.0991C52.4416 84.4322 52.6478 84.742 52.874 85.0185C53.1433 85.3416 53.456 85.6281 53.7985 85.8713C54.4836 86.3543 55.2719 86.6974 56.0967 86.814C56.9248 86.9439 57.7729 86.9639 58.6143 86.9073C59.0333 86.8773 59.4524 86.8273 59.8681 86.7507C60.0743 86.7107 60.2805 86.6641 60.4801 86.6074C60.5798 86.5775 60.6763 86.5442 60.7694 86.5042C60.816 86.4842 60.8592 86.4642 60.8958 86.4376C60.9324 86.4209 60.9656 86.3709 60.9523 86.3976V86.3943C60.949 86.3876 60.939 86.3543 60.9191 86.3343C60.8958 86.301 60.8625 86.2643 60.8326 86.231C60.7661 86.1611 60.6929 86.0944 60.6197 86.0278C60.4701 85.8979 60.3138 85.7713 60.1541 85.6481C59.8348 85.4016 59.5089 85.1617 59.1797 84.9319C58.5178 84.4755 57.8294 84.0524 57.101 83.716C56.376 83.3895 55.5911 83.1663 54.8029 83.0564C54.028 82.9765 53.1999 83.0064 52.4915 83.3595L55.8871 84.9219L59.5954 86.1044L59.5887 86.1344Z" fill="#BC9163"/>
<path d="M72.2658 75.2182L71.9199 76.0043C72.2825 75.9311 72.6184 75.7512 72.9277 75.5446C73.2469 75.3314 73.5363 75.0749 73.8024 74.7951C74.3445 74.2421 74.7236 73.5493 74.8799 72.7831C75.0662 72.0302 75.1393 71.2474 75.126 70.4712C75.1227 70.0815 75.0861 69.7017 75.0096 69.3187C74.9764 69.1288 74.9331 68.9389 74.8832 68.7557C74.8566 68.6657 74.83 68.5725 74.7934 68.4892C74.7768 68.4459 74.7569 68.4059 74.7369 68.3693C74.7302 68.3526 74.7169 68.336 74.707 68.3226L74.6604 68.3459C74.6305 68.3593 74.5906 68.3893 74.5573 68.4092C74.4875 68.4559 74.4176 68.5125 74.3511 68.5691C74.2147 68.6824 74.085 68.8023 73.9587 68.9289C73.7059 69.1821 73.4598 69.4452 73.2303 69.7251C72.7747 70.2814 72.3523 70.8677 72.0064 71.5006C71.6406 72.1202 71.4211 72.8097 71.328 73.5293C71.2515 74.1689 71.2382 74.8418 71.3911 75.4614C71.6539 75.0416 71.9033 74.5819 72.1528 74.1455L73.0008 72.6232C73.2469 72.0969 73.4731 71.5639 73.7126 71.0309C73.952 70.5012 74.1748 69.9616 74.391 69.4219L74.4209 69.4319L74.2513 69.9616C74.0684 70.5745 73.7425 71.6338 73.3534 72.7365V72.7398C72.9775 73.6425 72.5585 74.5786 72.2658 75.2182Z" fill="#BC9163"/>
<path d="M77.1985 71.4905C77.8903 71.1807 78.4091 70.5678 78.8248 69.9415C79.2505 69.292 79.48 68.5291 79.4966 67.7496C79.5399 66.9735 79.4667 66.1906 79.3071 65.4311C79.2306 65.048 79.1175 64.6849 78.9712 64.3252C78.9013 64.1453 78.8248 63.9687 78.7384 63.7988C78.6951 63.7156 78.6519 63.629 78.602 63.5523C78.5787 63.5124 78.5521 63.4757 78.5255 63.4457C78.5155 63.4324 78.4989 63.4158 78.4889 63.4058L78.449 63.4391C78.4191 63.4591 78.3891 63.4957 78.3592 63.5224C78.2993 63.5823 78.2428 63.6523 78.1863 63.7189C78.0765 63.8588 77.9701 64.002 77.8703 64.1519C77.6674 64.4484 77.4812 64.7582 77.3083 65.078C76.9657 65.7143 76.6631 66.3738 76.4469 67.0667C76.2074 67.7496 76.1176 68.4692 76.1609 69.192C76.2074 69.8316 76.3205 70.4945 76.5899 71.0675L77.6575 67.9095L78.3958 64.555L78.4257 64.5584L78.326 65.3645C78.2561 66.0174 78.143 66.9901 78.0033 68.0128C77.8005 68.9688 77.5643 69.9682 77.3947 70.6544L77.1985 71.4905Z" fill="#BC9163"/>
<path d="M76.2244 76.3208L73.291 76.8571C73.9894 76.7439 75.0803 76.5507 76.2244 76.3208Z" fill="#BC9163"/>
<path d="M63.1771 83.4429L60.2637 82.7966C60.9488 82.9599 62.033 83.2097 63.1771 83.4429Z" fill="#BC9163"/>
<path d="M77.495 71.364C77.4715 71.3775 77.4479 71.391 77.4277 71.4011C77.4479 71.3876 77.4715 71.3775 77.495 71.364Z" fill="#BC9163"/>
<path d="M67.0415 83.8625V83.8958L65.1923 83.8858C64.5771 83.8858 63.9585 83.8858 63.3399 83.8325L61.5007 83.6193C60.8888 83.5494 60.2768 83.4728 59.6649 83.3895H59.6615H59.6582L59.5352 83.3628C59.7214 83.6893 60.0041 83.9691 60.3034 84.2056C60.6593 84.4821 61.0517 84.7086 61.4674 84.8752C61.8832 85.0417 62.3189 85.1617 62.7645 85.2216C63.2068 85.2916 63.6591 85.2649 64.1081 85.2783L64.9828 85.1417C65.2722 85.0751 65.5615 84.9951 65.8475 84.9252C66.4229 84.7753 67.0116 84.652 67.5503 84.4088C67.8197 84.2922 68.0891 84.159 68.3153 83.9891C68.3618 83.9558 68.4184 83.8992 68.4283 83.8792C68.4184 83.8658 68.3918 83.8292 68.3585 83.8059C68.2521 83.7193 68.1224 83.6426 67.996 83.5694C67.4772 83.2829 66.9284 83.0297 66.3797 82.7899C65.2788 82.3335 64.1347 81.9238 62.9408 81.8538C62.3488 81.8072 61.7435 81.7938 61.1615 81.9271C60.5928 82.047 60.0174 82.2402 59.5551 82.61L63.1769 83.4461C63.8155 83.5594 64.4607 83.626 65.1059 83.6893C65.7511 83.7492 66.3963 83.8059 67.0415 83.8625Z" fill="#BC9163"/>
<path d="M53.2061 81.7405L52.4844 82.2002C53.1629 82.4701 53.9278 82.4234 54.6329 82.2869C55.3579 82.1503 56.0497 81.8338 56.5851 81.3142C57.1405 80.8178 57.6194 80.2415 58.0318 79.6152C58.4376 78.9923 58.7901 78.3128 58.9531 77.5999C58.9597 77.5566 58.9697 77.5133 58.973 77.47C58.9764 77.4466 58.9764 77.42 58.973 77.4033C58.9631 77.4 58.9464 77.3933 58.9298 77.3967C58.8932 77.3933 58.85 77.39 58.8068 77.3933C58.6305 77.4 58.4476 77.4267 58.268 77.4533C57.9055 77.5133 57.533 77.5666 57.1871 77.6598C56.482 77.8531 55.8036 78.1562 55.1284 78.4627C54.4533 78.7491 53.8713 79.2122 53.3791 79.7618C52.9467 80.2615 52.5576 80.8345 52.3447 81.4574L55.2215 80.0117C55.7237 79.7418 56.2027 79.422 56.6816 79.1022C57.1605 78.7825 57.6394 78.466 58.1117 78.1362L58.1316 78.1629L57.7392 78.476C57.2636 78.8791 56.3955 79.5953 55.451 80.3081C54.6495 80.8411 53.7981 81.3741 53.2061 81.7405Z" fill="#BC9163"/>
<path d="M66.499 80.236C66.5162 80.2189 66.5334 80.2019 66.5505 80.1882C66.5299 80.2053 66.5162 80.2189 66.499 80.236Z" fill="#BC9163"/>
<path d="M63.9583 83.5628C63.6956 83.5262 63.4362 83.4895 63.1768 83.4429C63.4395 83.4895 63.6989 83.5295 63.9583 83.5628Z" fill="#BC9163"/>
<path d="M70.041 80.5381C70.8425 80.5181 71.6241 80.4315 72.2959 80.3649C72.1895 80.3715 72.0864 80.3849 71.98 80.3915L70.041 80.5381Z" fill="#BC9163"/>
<path d="M67.9559 76.3774C67.9393 76.4007 67.926 76.4274 67.9094 76.454C67.8395 76.5573 67.7697 76.6605 67.6998 76.7671C67.6599 76.8271 67.6233 76.8904 67.5801 76.9504L65.9272 79.3521C66.2631 79.3455 66.599 79.2422 66.9149 79.1156C67.2575 78.9757 67.5768 78.7925 67.8827 78.5826C68.498 78.1729 69.0168 77.6199 69.3128 76.9337C69.6388 76.2608 69.8649 75.5413 70.0146 74.8084C70.1642 74.0789 70.2341 73.316 70.121 72.5932C70.111 72.5265 70.0844 72.4366 70.0711 72.4066C70.0645 72.4066 70.0578 72.4066 70.0445 72.4099C70.0113 72.4199 69.9713 72.4366 69.9314 72.4533C69.7751 72.5265 69.6155 72.6231 69.4592 72.7197C69.1432 72.9163 68.8273 73.1062 68.5379 73.3327C67.9393 73.7657 67.4471 74.3287 66.9282 74.8684C66.4028 75.3914 66.0436 76.0509 65.7875 76.7505C65.5613 77.4101 65.405 78.1196 65.4516 78.8125L65.568 78.6992C66.293 77.8664 66.9981 77.0136 67.7098 76.1709C68.0524 75.7378 68.355 75.2714 68.6577 74.8084L69.5689 73.416L69.5756 73.4193L69.0834 74.352C68.8073 74.8584 68.4481 75.5646 68.0357 76.2475C68.0091 76.2908 67.9825 76.3341 67.9559 76.3774Z" fill="#BC9163"/>
<path d="M73.9123 80.1783L73.9156 80.2116L72.0998 80.5681C71.4945 80.6913 70.8892 80.8112 70.2739 80.8845C69.6586 80.9478 69.0434 80.9911 68.4281 81.0444C67.8128 81.0977 67.1975 81.1477 66.5823 81.1877H66.5789H66.5756L66.4492 81.1843C66.6754 81.4442 66.9747 81.6507 67.2807 81.8173C67.6498 82.0105 68.0489 82.1504 68.4547 82.2436C69.2695 82.4202 70.1276 82.4202 70.9391 82.2103C71.7539 82.0105 72.5487 81.694 73.3037 81.3109C73.6828 81.1177 74.0487 80.9045 74.4012 80.6713C74.5775 80.5547 74.7504 80.4282 74.9101 80.2982C74.9899 80.2316 75.0697 80.1617 75.1395 80.0884C75.1728 80.0517 75.2061 80.0151 75.2327 79.9784C75.2593 79.9485 75.2726 79.8885 75.2726 79.9185L75.2692 79.9085C75.2826 79.9351 75.2526 79.8918 75.216 79.8752C75.1828 79.8519 75.1395 79.8319 75.0963 79.8119C75.0098 79.7719 74.9167 79.7419 74.8236 79.7086C74.6373 79.6453 74.4444 79.592 74.2516 79.5421C73.8658 79.4421 73.4733 79.3522 73.0809 79.2656C72.2993 79.1023 71.5044 78.9857 70.7063 78.9591C69.9147 78.9458 69.1065 79.0424 68.3383 79.2489C67.5966 79.4854 66.8483 79.8419 66.3262 80.4481L70.0378 80.5414L71.9734 80.3782C72.6252 80.3315 73.2704 80.2516 73.9123 80.1783Z" fill="#BC9163"/>
<path d="M61.4509 79.4287L59.3756 81.4508C59.8712 81.5174 60.3833 81.4441 60.8656 81.3042C61.3778 81.1576 61.86 80.9178 62.289 80.608C63.1571 79.9817 63.6992 79.0023 64.1515 78.0296C64.3677 77.5366 64.5539 77.0236 64.667 76.4973C64.7235 76.2341 64.7634 75.9676 64.7734 75.7045C64.7734 75.6412 64.7734 75.5745 64.7668 75.5179C64.7634 75.4979 64.7601 75.4879 64.7568 75.4746C64.6703 75.4746 64.5373 75.5112 64.4209 75.5446C63.4065 75.861 62.442 76.3274 61.5906 76.9836L61.5806 76.9903C61.2481 77.2235 60.8988 77.4367 60.6162 77.7265C60.3268 78.0063 60.0674 78.3294 59.8446 78.6725C59.6217 79.0157 59.4322 79.3854 59.2792 79.7685C59.1462 80.1116 59.0331 80.4681 58.9932 80.8312L59.1328 80.7379C60.0042 80.0683 60.8589 79.3721 61.717 78.6892C62.1394 78.3361 62.5218 77.9397 62.9076 77.5433L64.065 76.3574L64.0717 76.364L63.4131 77.1835L62.4686 78.3428C62.156 78.7292 61.8134 79.0889 61.4509 79.4287Z" fill="#BC9163"/>
<path d="M59.0824 85.9679L55.8896 84.9219C57.1002 85.3616 58.3873 85.758 59.0824 85.9679Z" fill="#BC9163"/>
<path d="M81.4892 70.9609L78.7021 72.0636C79.3673 71.8137 80.4083 71.4106 81.4892 70.9609Z" fill="#BC9163"/>
<path d="M87.2858 53.6521L87.043 54.6648C87.156 54.2217 87.2392 53.8653 87.2858 53.6521Z" fill="#BC9163"/>
<path d="M84.2021 69.5385L81.4883 70.9609C82.496 70.4579 83.5303 69.9016 84.2021 69.5385Z" fill="#BC9163"/>
<path d="M70.0409 80.538L67.0576 80.488C67.766 80.5114 68.8735 80.538 70.0409 80.538Z" fill="#BC9163"/>
<path d="M88.689 62.1798L85.8487 64.9547H85.8454L82.9719 67.2099C83.3045 67.2965 83.6737 67.2965 84.0229 67.2566C84.4353 67.2066 84.8443 67.1033 85.2335 66.9501C86.0084 66.6403 86.7267 66.1606 87.2888 65.531C87.8575 64.9014 88.3265 64.1785 88.7555 63.429C88.9683 63.0526 89.1845 62.6795 89.3408 62.2864C89.4206 62.0899 89.4905 61.8867 89.5437 61.6835C89.567 61.5802 89.5936 61.477 89.6069 61.377C89.6135 61.3271 89.6202 61.2738 89.6235 61.2271C89.6268 61.2038 89.6235 61.1672 89.6235 61.1472C89.6102 61.1438 89.5903 61.1405 89.5703 61.1438C89.5304 61.1438 89.4805 61.1505 89.4373 61.1605C89.3442 61.1771 89.2477 61.2005 89.1546 61.2271C88.965 61.2804 88.7754 61.3437 88.5892 61.4103C88.2167 61.5502 87.8442 61.7068 87.4717 61.8567C86.7334 62.1665 86.005 62.5096 85.3233 62.936C84.6315 63.3424 84.0595 63.932 83.5207 64.5283C83.0218 65.1379 82.5828 65.8575 82.4697 66.6569L85.6326 64.6449L88.669 62.1532L88.689 62.1798Z" fill="#BC9163"/>
<path d="M85.6322 64.645L82.9316 66.3972C83.517 66.0375 84.5613 65.3779 85.6322 64.645Z" fill="#BC9163"/>
<path d="M88.0374 62.7062L85.6328 64.6449C86.5275 63.952 87.4454 63.1992 88.0374 62.7062Z" fill="#BC9163"/>
<path d="M84.9511 69.1454L81.6885 71.264C81.1198 71.5671 80.5378 71.8536 79.9624 72.1501L78.396 72.9463C78.7053 73.0995 79.0678 73.1728 79.417 73.2028C79.8327 73.2361 80.2517 73.2128 80.6608 73.1395C81.479 72.9862 82.2738 72.6598 82.9423 72.1468C83.6208 71.6404 84.2327 71.0408 84.7848 70.3879C85.0609 70.0615 85.3236 69.7217 85.5597 69.3686C85.6795 69.192 85.7925 69.0088 85.8923 68.8223C85.9422 68.729 85.9888 68.6357 86.0253 68.5391C86.042 68.4925 86.0586 68.4458 86.0686 68.3992C86.0786 68.3725 86.0752 68.3359 86.0786 68.3259C86.0686 68.3226 86.042 68.3093 86.0154 68.3093C85.9754 68.3026 85.9256 68.2993 85.879 68.2959C85.7859 68.2926 85.6861 68.2993 85.5897 68.3059C85.3934 68.3192 85.1972 68.3459 85.001 68.3759C84.6119 68.4392 84.2128 68.5191 83.8203 68.5891C83.0354 68.7423 82.2572 68.9388 81.5089 69.222C80.7672 69.5085 80.0655 69.9249 79.4369 70.4246C78.8283 70.9242 78.2696 71.5438 78.0068 72.3067L81.4889 70.9609L84.9345 69.1187L84.9511 69.1454Z" fill="#BC9163"/>
<path d="M81.5256 66.0174C82.1275 65.5943 82.5167 64.9214 82.806 64.2485C82.9457 63.8988 83.0687 63.539 83.1053 63.1692C83.1452 62.7961 83.1353 62.4164 83.092 62.0433C82.9058 60.5576 82.3537 59.0819 81.3992 57.9626C81.3493 57.906 81.2628 57.836 81.2395 57.8293C81.2262 57.846 81.173 57.896 81.1498 57.9493C81.0633 58.1025 80.9901 58.2757 80.9136 58.4489C80.7706 58.7987 80.6043 59.1452 80.4813 59.4916C80.2385 60.1978 80.0822 60.9373 79.9757 61.6802C79.8494 62.423 79.8793 63.1692 80.0556 63.8988C80.2185 64.545 80.4613 65.1979 80.8504 65.7243L81.3027 62.4197L81.3859 58.9819H81.4158L81.4724 59.7881C81.5256 60.441 81.5987 61.417 81.6553 62.4497C81.6453 63.5623 81.5888 64.7282 81.5522 65.4244L81.5256 66.0174Z" fill="#BC9163"/>
<path d="M79.9624 75.2314C78.7651 75.7111 77.5878 76.2441 76.3606 76.6638L74.5014 77.2035C73.9361 77.3601 73.3939 77.5266 72.8119 77.6599C73.0847 77.8731 73.4239 78.0163 73.7598 78.1196C74.1589 78.2362 74.5746 78.2961 74.9937 78.3028C75.8284 78.3161 76.6665 78.1462 77.4215 77.7798C78.1831 77.42 78.8982 76.9537 79.5666 76.424C79.8992 76.1608 80.2218 75.8777 80.5211 75.5779C80.6708 75.428 80.8171 75.2714 80.9502 75.1082C81.0167 75.0249 81.0799 74.9449 81.1364 74.8583C81.163 74.815 81.1896 74.7717 81.2063 74.7318C81.2262 74.6984 81.2295 74.6351 81.2329 74.6651L81.2295 74.6551C81.2495 74.6851 81.2096 74.6418 81.173 74.6351C81.1331 74.6185 81.0898 74.6085 81.0433 74.5985C80.9502 74.5752 80.8537 74.5619 80.7573 74.5485C80.5611 74.5219 80.3648 74.5086 80.1653 74.4986C79.7695 74.4819 79.3638 74.4752 78.9647 74.4653C78.1665 74.4586 77.365 74.5019 76.5767 74.6318C75.7952 74.7717 75.0236 75.0316 74.3119 75.3947C73.6268 75.7678 72.9583 76.2674 72.5625 76.967L76.2242 76.3274L79.9524 75.2048L79.9624 75.2314Z" fill="#BC9163"/>
<path d="M86.2151 57.3197C86.2217 57.2997 86.2284 57.2798 86.235 57.2598C86.2217 57.3031 86.2051 57.343 86.1885 57.3864C86.1985 57.3664 86.2051 57.343 86.2151 57.3197Z" fill="#BC9163"/>
<path d="M81.7785 65.8442C81.7685 65.8542 81.7551 65.8641 81.7451 65.8707C81.7585 65.8641 81.7685 65.8575 81.7785 65.8442Z" fill="#BC9163"/>
<path d="M72.6816 76.732C72.6988 76.7082 72.7125 76.6843 72.7297 76.6638C72.7125 76.6877 72.6988 76.7082 72.6816 76.732Z" fill="#BC9163"/>
<path d="M87.0429 54.6648L87.3289 53.4322H87.3389C87.2424 54.1051 87.156 54.7814 86.993 55.4409L86.5606 57.4363L86.0152 59.4017C85.8356 60.0113 85.6061 60.6043 85.3966 61.2006C85.7458 61.074 86.0684 60.8574 86.3578 60.6176C86.6904 60.3478 86.9797 60.038 87.2158 59.6815C87.6981 58.9787 88.0506 58.1692 88.2103 57.333C88.3566 56.4836 88.3632 55.6108 88.2768 54.7514C88.1803 53.8986 88.0307 53.0225 87.7014 52.2497C87.6815 52.203 87.6548 52.1597 87.6316 52.1197C87.6216 52.0931 87.5983 52.0731 87.5883 52.0631C87.585 52.0698 87.5684 52.0731 87.5318 52.0998C87.4952 52.1197 87.4586 52.1564 87.422 52.193C87.2724 52.3329 87.136 52.4962 87.003 52.6627C86.7369 52.9992 86.4908 53.3523 86.2547 53.7154C85.7891 54.4416 85.36 55.1978 85.0009 55.9839C84.8279 56.3803 84.6483 56.7767 84.5319 57.1898C84.4155 57.6062 84.349 58.0326 84.3257 58.4656C84.3091 59.2984 84.3091 60.1779 84.6616 60.9374C84.8911 60.451 85.1306 59.9647 85.3534 59.475C85.5762 58.9553 85.7691 58.4223 85.972 57.8927C86.1915 57.3697 86.3545 56.8267 86.5241 56.2871L87.0362 54.6681C87.0429 54.6714 87.0429 54.6681 87.0429 54.6648C87.0429 54.6681 87.0429 54.6681 87.0429 54.6648Z" fill="#BC9163"/>
<path d="M86.3506 56.9166C86.6166 56.1071 86.8428 55.3043 87.039 54.6847L86.5435 56.2937C86.477 56.5002 86.4138 56.7101 86.3506 56.9166Z" fill="#BC9163"/>
<path d="M19.0434 62.9427C18.365 62.5163 17.6366 62.1699 16.8983 61.8567C16.5291 61.7068 16.1533 61.5469 15.7842 61.407C15.5979 61.3371 15.4083 61.2738 15.2188 61.2205C15.1257 61.1938 15.0292 61.1705 14.9361 61.1539C14.8895 61.1472 14.843 61.1405 14.7997 61.1405C14.7798 61.1372 14.7565 61.1405 14.7432 61.1439C14.7432 61.1639 14.7365 61.2005 14.7432 61.2272C14.7465 61.2771 14.7532 61.3271 14.7598 61.3771C14.7764 61.4803 14.7997 61.5836 14.823 61.6869C14.8762 61.8934 14.9461 62.0933 15.0259 62.2898C15.1822 62.6862 15.4017 63.056 15.6112 63.4324C16.0369 64.1786 16.5059 64.9048 17.0812 65.531C17.6466 66.1573 18.3683 66.6337 19.1432 66.9368C19.5323 67.0867 19.9381 67.1933 20.3505 67.2399C20.6797 67.2733 21.0256 67.2766 21.3416 67.2L18.4947 64.9981L18.4914 64.9947L18.488 64.9914L15.6378 62.2265L15.7509 62.0966L18.7208 64.555C19.243 64.9181 19.7751 65.2612 20.3073 65.6177L21.9269 66.6836C21.8105 65.8675 21.3649 65.1413 20.856 64.5217C20.3073 63.9354 19.7319 63.3491 19.0434 62.9427Z" fill="#BC9163"/>
<path d="M20.1709 65.5977C21.172 66.2439 21.9236 66.6936 21.9236 66.6936L20.3039 65.6809C20.2574 65.651 20.2141 65.6243 20.1709 65.5977Z" fill="#BC9163"/>
<path d="M17.0381 53.4355C17.0381 53.4389 17.0846 53.6587 17.1711 54.0185C17.1246 53.8253 17.0813 53.6321 17.0381 53.4355Z" fill="#BC9163"/>
<path d="M21.8506 66.3138C21.854 66.3343 21.8609 66.3514 21.8643 66.3684C21.8609 66.3514 21.8575 66.3309 21.8506 66.3138Z" fill="#BC9163"/>
<path d="M26.251 71.9735C26.2613 71.994 26.2681 72.011 26.2784 72.0281C26.2681 72.011 26.2578 71.994 26.251 71.9735Z" fill="#BC9163"/>
<path d="M26.3902 72.3333L25 71.8103C25.8248 72.1268 26.3902 72.3333 26.3902 72.3333Z" fill="#BC9163"/>
<path d="M24.9334 70.4246C24.3015 69.9283 23.5998 69.5152 22.8581 69.2287C22.1098 68.9456 21.3316 68.7457 20.55 68.5891C20.1576 68.5192 19.7585 68.4392 19.3694 68.3726C19.1731 68.3426 18.9769 68.316 18.7807 68.3026C18.6843 68.296 18.5845 68.2927 18.4914 68.296C18.4448 68.296 18.3982 68.2993 18.355 68.3093C18.3151 68.3093 18.2685 68.3426 18.2918 68.3193L18.2852 68.3293C18.2918 68.306 18.2852 68.3659 18.2985 68.4059C18.3084 68.4492 18.3251 68.4992 18.345 68.5458C18.3816 68.6391 18.4315 68.7357 18.4781 68.829C18.5778 69.0155 18.6909 69.1987 18.8073 69.3753C19.0468 69.7317 19.3062 70.0715 19.5822 70.398C20.1343 71.0509 20.7462 71.6538 21.4314 72.1535C22.1032 72.6632 22.898 72.983 23.7162 73.1295C24.4479 73.2461 25.256 73.2495 25.9145 72.9497L24.3913 72.1935C23.8126 71.9037 23.2306 71.6205 22.6553 71.3207L19.3827 69.2121L19.4691 69.0622L22.8448 70.8876C23.4235 71.1375 24.0122 71.3707 24.6008 71.6138L26.3901 72.34C26.1241 71.5539 25.552 70.9276 24.9334 70.4246Z" fill="#BC9163"/>
<path d="M36.6867 76.1509C37.4018 76.9903 38.1002 77.8498 38.8252 78.6826L38.9017 78.7559C38.935 78.0863 38.7886 77.3934 38.5691 76.7538C38.3197 76.0543 37.9671 75.388 37.4417 74.865C36.9228 74.3254 36.4306 73.7624 35.832 73.3294C35.5426 73.1028 35.2267 72.913 34.9107 72.7164C34.7544 72.6231 34.5948 72.5232 34.4351 72.4533C34.3952 72.4366 34.3587 72.4199 34.3221 72.4099C34.3088 72.4066 34.3054 72.4066 34.2988 72.4066C34.2855 72.4366 34.2589 72.5265 34.2489 72.5932C34.1392 73.3127 34.209 74.0755 34.3587 74.8051C34.5116 75.5379 34.7411 76.2575 35.0704 76.9237C35.373 77.6066 35.8885 78.1429 36.5038 78.5493C36.8098 78.7559 37.1257 78.9391 37.4649 79.0756C37.7476 79.1889 38.047 79.2788 38.3396 79.3022L36.4506 76.5439C36.1579 76.0309 35.8885 75.5079 35.6058 74.9916C35.3198 74.4819 35.0571 73.9356 34.7943 73.4226L35.7189 74.8051C36.0315 75.2581 36.3408 75.7211 36.6867 76.1509Z" fill="#BC9163"/>
<path d="M31.3656 72.6198L32.2136 74.1422C32.4631 74.5852 32.7125 75.0482 32.9753 75.4713C33.1316 74.8484 33.1216 74.1721 33.0418 73.5292C32.9486 72.813 32.7291 72.1201 32.3666 71.4972C32.0241 70.8609 31.5984 70.2747 31.1361 69.7217C30.9033 69.4452 30.6605 69.182 30.4044 68.9322C30.278 68.8056 30.145 68.6857 30.0086 68.5757C29.9421 68.5191 29.8723 68.4658 29.8024 68.4192C29.7692 68.3992 29.7293 68.3692 29.6993 68.3559L29.6628 68.3392C29.6528 68.3492 29.6461 68.3659 29.6395 68.3792C29.6195 68.4159 29.6029 68.4558 29.5863 68.4991C29.553 68.5824 29.5264 68.6757 29.4998 68.7656C29.4499 68.9488 29.4067 69.1354 29.3734 69.3253C29.3036 69.7084 29.2703 70.0848 29.267 70.4745C29.2603 71.2474 29.3402 72.0269 29.533 72.773C29.696 73.5326 30.0718 74.2055 30.6139 74.7484C30.88 75.0216 31.166 75.2748 31.482 75.4846C31.7447 75.6612 32.034 75.8144 32.33 75.8977L30.9931 72.8197C30.8235 72.31 30.6771 71.7903 30.5275 71.2807C30.1882 70.2214 29.9621 69.4285 29.9621 69.4285C30.1749 69.9549 30.4144 70.5078 30.6538 71.0308C30.89 71.5605 31.1195 72.0935 31.3656 72.6198Z" fill="#BC9163"/>
<path d="M26.2968 66.234C26.1904 65.6777 26.0807 65.118 25.9609 64.5551C25.9643 64.5551 26.094 65.2613 26.2968 66.234Z" fill="#BC9163"/>
<path d="M22.9717 58.9852C22.9717 58.9886 22.9717 59.2784 22.975 59.7481C22.975 59.4916 22.9783 59.2384 22.9717 58.9852Z" fill="#BC9163"/>
<path d="M27.784 71.0774C28.06 70.5011 28.1764 69.8349 28.2163 69.192C28.2596 68.4691 28.1731 67.7462 27.9336 67.0634C27.7175 66.3705 27.4148 65.7109 27.0656 65.0746C26.8893 64.7582 26.6998 64.4517 26.4969 64.1552C26.3971 64.0053 26.2874 63.8621 26.1776 63.7255C26.1211 63.6589 26.0645 63.5889 26.0047 63.529C25.9747 63.5023 25.9448 63.4657 25.9149 63.4457L25.8816 63.4224C25.8716 63.4324 25.8583 63.4424 25.8517 63.4557C25.8251 63.4857 25.8018 63.5256 25.7752 63.5623C25.7253 63.6389 25.6821 63.7222 25.6388 63.8054C25.5557 63.9753 25.4792 64.1519 25.4093 64.3318C25.2663 64.6915 25.1566 65.0546 25.0834 65.4377C24.9304 66.1939 24.8639 66.9767 24.9138 67.7462C24.9371 68.5224 25.1666 69.2653 25.5923 69.9049C25.9814 70.4811 26.4636 71.0474 27.0623 71.3606L26.3106 68.0227V68.0194C26.2375 67.3398 26.1743 66.6669 26.1111 66.004C26.0146 65.1479 25.9581 64.555 25.9581 64.555C26.1876 65.6543 26.4603 66.7669 26.7164 67.9061L27.784 71.0774Z" fill="#BC9163"/>
<path d="M23.5229 65.7376C23.9153 65.2079 24.1648 64.5517 24.3244 63.9021C24.5007 63.1725 24.5306 62.4264 24.4076 61.6802C24.3045 60.934 24.1448 60.1945 23.8921 59.4916C23.769 59.1451 23.5961 58.802 23.4531 58.4523C23.3766 58.2824 23.3034 58.1058 23.2136 57.9559C23.1903 57.9026 23.1438 57.8593 23.1305 57.8427C23.1072 57.8526 23.0307 57.9193 22.9841 57.9726C22.0329 59.0885 21.5008 60.5676 21.3279 62.0466C21.288 62.4164 21.2813 62.7928 21.3246 63.1592C21.3645 63.5223 21.4875 63.8754 21.6272 64.2185C21.8933 64.8348 22.2624 65.4477 22.7713 65.8575L22.6715 62.5096C22.7081 61.9134 22.7746 61.3137 22.8278 60.7241C22.8378 60.6075 22.8478 60.4976 22.8577 60.381C22.9209 59.5449 22.9741 58.9786 22.9741 58.9786C22.9875 60.1012 23.044 61.2471 23.0772 62.4164L23.5229 65.7376Z" fill="#BC9163"/>
<path d="M41.4331 81.8505C40.2391 81.9271 39.0951 82.3235 37.9909 82.7799C37.4421 83.0164 36.8934 83.2696 36.3712 83.5528C36.2415 83.626 36.1151 83.7027 36.0087 83.7893C35.9755 83.8126 35.9489 83.8526 35.9355 83.8659C35.9455 83.8859 36.0021 83.9458 36.0519 83.9791C36.2781 84.149 36.5475 84.2856 36.8169 84.4022C37.3557 84.6454 37.9443 84.772 38.5197 84.9219C38.809 84.9952 39.0951 85.0751 39.3877 85.1417L40.2624 85.275C40.7114 85.2583 41.1637 85.2783 41.606 85.2083C42.0484 85.1451 42.484 85.0218 42.8998 84.8519C43.3155 84.682 43.7079 84.4555 44.0605 84.179C44.3398 83.9558 44.6059 83.6927 44.7855 83.3929L44.719 83.4062H44.7157H44.7123C44.1004 83.4961 43.4884 83.5761 42.8765 83.6527L41.0373 83.8825C40.4187 83.9425 39.7968 83.9492 39.1815 83.9492L37.3324 83.9592L37.3224 83.7859L39.2248 83.6194C39.86 83.5627 40.4919 83.4995 41.1171 83.3962L44.8553 82.6067C44.3831 82.2236 43.7944 82.0337 43.2124 81.9105C42.6304 81.7872 42.0284 81.8006 41.4331 81.8505Z" fill="#BC9163"/>
<path d="M44.8546 82.6134L43.5742 82.9199C44.3425 82.74 44.8546 82.6134 44.8546 82.6134Z" fill="#BC9163"/>
<path d="M31.5684 76.5773C31.6681 76.7072 31.7613 76.8404 31.8411 76.9837C31.7812 76.8604 31.6848 76.7205 31.5684 76.5773Z" fill="#BC9163"/>
<path d="M44.5488 82.3936C44.6553 82.4602 44.7584 82.5301 44.8548 82.6134C44.775 82.5401 44.6686 82.4668 44.5488 82.3936Z" fill="#BC9163"/>
<path d="M49.5647 83.053C48.7765 83.1663 47.9949 83.3928 47.2699 83.7193C46.5415 84.0557 45.8531 84.4755 45.1879 84.9285C44.8587 85.1584 44.5327 85.3982 44.2101 85.6414C44.0505 85.7646 43.8942 85.8879 43.7445 86.0211C43.6714 86.0878 43.5949 86.1544 43.5317 86.2243C43.4984 86.2576 43.4685 86.2943 43.4452 86.3309C43.4253 86.3542 43.4153 86.3876 43.4119 86.3942V86.3975C43.402 86.3776 43.4352 86.4242 43.4718 86.4409C43.5084 86.4642 43.555 86.4875 43.6015 86.5075C43.6946 86.5475 43.7911 86.5808 43.8909 86.6107C44.0904 86.6707 44.2966 86.7173 44.5028 86.7573C44.9152 86.8339 45.3343 86.8872 45.7566 86.9172C46.5981 86.9772 47.4461 86.9605 48.2743 86.8206C49.1024 86.6974 49.884 86.3509 50.5657 85.8646C50.905 85.6181 51.2176 85.3349 51.4837 85.0118C51.6965 84.7519 51.8894 84.4588 52.0058 84.149L48.5736 85.3449C47.9517 85.5314 47.3198 85.6747 46.6912 85.8079L44.8021 86.2077L44.7622 86.0378L48.4073 84.8952C48.9926 84.6553 49.5647 84.3922 50.1533 84.1423L51.9193 83.3628C51.1877 82.9997 50.3496 82.9698 49.5647 83.053Z" fill="#BC9163"/>
<path d="M51.9125 83.3596L50.5889 83.9792C51.3804 83.6161 51.9125 83.3596 51.9125 83.3596Z" fill="#BC9163"/>
<path d="M51.5703 83.2063C51.5871 83.213 51.6039 83.2164 51.6241 83.2232C51.6039 83.2198 51.5871 83.213 51.5703 83.2063Z" fill="#BC9163"/>
<path d="M30.0581 75.3881C29.3431 75.0283 28.5715 74.7718 27.7899 74.6319C27.0017 74.4986 26.2035 74.4553 25.4053 74.4587C25.0062 74.4653 24.6038 74.472 24.2047 74.4887C24.0052 74.4986 23.809 74.512 23.6127 74.5386C23.5163 74.5519 23.4165 74.5653 23.3267 74.5886C23.2802 74.5986 23.2336 74.6119 23.197 74.6286C23.1571 74.6386 23.1172 74.6785 23.1371 74.6552L23.1338 74.6652C23.1371 74.6419 23.1405 74.7018 23.1604 74.7352C23.1804 74.7785 23.2037 74.8218 23.2336 74.8617C23.2901 74.9484 23.3533 75.0316 23.4198 75.1116C23.5529 75.2748 23.6992 75.4314 23.8489 75.5813C24.1482 75.8811 24.4708 76.1642 24.8034 76.4307C25.4685 76.9604 26.1869 77.4301 26.9518 77.7832C27.7101 78.1463 28.5482 78.3062 29.3797 78.2895C30.118 78.2629 30.9095 78.103 31.4982 77.6733C30.9361 77.5467 30.4073 77.3901 29.8619 77.2435L27.9995 76.7205C26.7623 76.3075 25.5883 75.7845 24.391 75.2981L24.4475 75.1349L28.1026 76.2542C28.7178 76.3874 29.3364 76.4974 29.9617 76.6239L31.8507 76.987C31.435 76.2708 30.7565 75.7678 30.0581 75.3881Z" fill="#BC9163"/>
<path d="M31.8411 76.9837L30.3877 76.7405C31.2524 76.8937 31.8411 76.9837 31.8411 76.9837Z" fill="#BC9163"/>
<path d="M38.0773 80.4581L36.584 80.5081C37.472 80.4848 38.0773 80.4581 38.0773 80.4581Z" fill="#BC9163"/>
<path d="M37.7344 80.115C37.8541 80.2216 37.9738 80.3315 38.0769 80.4581C37.9938 80.3515 37.8707 80.2349 37.7344 80.115Z" fill="#BC9163"/>
<path d="M33.6576 78.959C32.8594 78.9824 32.0645 79.099 31.2829 79.2589C30.8938 79.3421 30.4981 79.4321 30.1123 79.532C29.9194 79.582 29.7265 79.6353 29.5402 79.6986C29.4471 79.7319 29.354 79.7619 29.2675 79.8018C29.2243 79.8218 29.181 79.8418 29.1478 79.8651C29.1112 79.8818 29.0813 79.9284 29.0946 79.9051L29.0912 79.9151C29.0879 79.8884 29.1045 79.9484 29.1311 79.9784C29.1578 80.015 29.191 80.0517 29.2243 80.0883C29.2941 80.1616 29.3739 80.2316 29.4538 80.2982C29.6167 80.4314 29.7897 80.5547 29.9626 80.6746C30.3151 80.9111 30.6843 81.1243 31.0601 81.3175C31.8151 81.7039 32.6066 82.0204 33.4248 82.2136C34.2363 82.4168 35.0943 82.4102 35.9058 82.2303C36.6175 82.0604 37.3592 81.7506 37.8514 81.2176H37.7882H37.7849H37.7816C37.1663 81.1843 36.551 81.1376 35.9357 81.091C35.3205 81.041 34.7085 81.0044 34.0866 80.9444C33.468 80.8745 32.8594 80.7579 32.2541 80.638L30.4382 80.2815L30.4615 80.1083C31.0934 80.1816 31.7253 80.2615 32.3572 80.3115L34.2562 80.4814C34.8848 80.4914 35.5134 80.4781 36.1519 80.4781L38.0742 80.4614C37.5388 79.8418 36.7772 79.482 36.0255 79.2455C35.2573 79.0357 34.4491 78.9457 33.6576 78.959Z" fill="#BC9163"/>
<path d="M18.2026 57.293C18.4587 57.9126 18.6881 58.5489 18.9376 59.1685C19.1637 59.7281 19.4398 60.2711 19.6992 60.8241C20.0052 60.1045 20.0085 59.2617 19.9952 58.4689C19.9752 58.0392 19.912 57.6128 19.799 57.1997C19.6892 56.7867 19.5129 56.3936 19.34 55.9938C18.9875 55.2043 18.5651 54.4482 18.0995 53.722C17.8667 53.3589 17.6206 53.0058 17.3545 52.6693C17.2215 52.5028 17.0851 52.3362 16.9354 52.1996C16.8989 52.163 16.8623 52.1297 16.8257 52.1063C16.7958 52.0797 16.7791 52.0764 16.7758 52.0697C16.7658 52.0797 16.7459 52.0997 16.7359 52.123C16.7126 52.1596 16.686 52.2063 16.6661 52.2529C16.3335 53.0224 16.1772 53.8985 16.084 54.7546C15.9976 55.6141 16.0075 56.4902 16.1572 57.3363C16.3168 58.1724 16.6727 58.9819 17.1616 59.6781C17.4011 60.0312 17.6904 60.3377 18.0197 60.6075C18.299 60.8341 18.605 61.0406 18.9309 61.1672C18.7247 60.5875 18.5019 60.0146 18.3256 59.415L17.7769 57.4496L17.3578 55.4509C17.2414 54.9812 17.1749 54.4915 17.1084 54.0085C17.0552 53.652 17.0286 53.4388 17.0286 53.4388C17.1816 54.0784 17.3445 54.7513 17.5673 55.3809L18.2026 57.293Z" fill="#BC9163"/>
<path d="M49.1515 80.0117L52.035 81.4675C51.8255 80.8379 51.433 80.2616 50.9974 79.7619C50.5051 79.2122 49.9231 78.7425 49.248 78.4561C48.5728 78.1496 47.8911 77.8498 47.186 77.6599C46.8368 77.57 46.4676 77.52 46.1018 77.46C45.9222 77.4334 45.7359 77.4101 45.563 77.4067C45.5198 77.4067 45.4765 77.4067 45.4399 77.4101C45.43 77.4101 45.42 77.4134 45.41 77.4134C45.41 77.4301 45.4067 77.45 45.4133 77.47C45.4167 77.51 45.4233 77.5533 45.4333 77.5966C45.5963 78.3062 45.9521 78.9824 46.3645 79.5987C46.7802 80.2183 47.2625 80.7879 47.8179 81.2742C48.3533 81.7839 49.0285 82.0871 49.7502 82.217C50.402 82.3402 51.1071 82.3802 51.7257 82.177L48.9453 80.3848C48.5529 80.075 48.1704 79.7452 47.788 79.4221C46.8966 78.7092 46.2514 78.1463 46.2514 78.1463L47.6882 79.1023C48.1671 79.4254 48.646 79.7419 49.1515 80.0117Z" fill="#BC9163"/>
<path d="M42.667 78.666C43.5317 79.3422 44.3764 80.0484 45.2478 80.718L45.3442 80.7813C45.301 80.4415 45.1913 80.0984 45.0682 79.7753C44.9152 79.3922 44.7256 79.0257 44.5095 78.6826C44.29 78.3362 44.0372 78.0164 43.7479 77.7332C43.4652 77.4434 43.116 77.2302 42.7867 76.9937L42.7767 76.9871C41.9286 76.3308 40.9642 75.8611 39.9498 75.5447C39.8367 75.5113 39.7037 75.478 39.6172 75.478C39.6139 75.4914 39.6106 75.5013 39.6072 75.5213C39.6006 75.578 39.6006 75.6446 39.6006 75.7079C39.6106 75.9677 39.6505 76.2375 39.707 76.4974C39.8201 77.0237 40.0063 77.5334 40.2258 78.0264C40.6748 78.9991 41.2369 79.9685 42.0983 80.5814C42.5273 80.8845 43.0095 81.1177 43.515 81.261C43.9574 81.3875 44.433 81.4575 44.8853 81.4109L42.514 79.0924C42.1082 78.6693 41.7424 78.2063 41.3799 77.7466L40.299 76.3608L41.4697 77.5334C41.8555 77.9264 42.2446 78.3195 42.667 78.666Z" fill="#BC9163"/>
<path d="M22.5723 29.3911L22.4426 29.3011L21.691 30.9434L21.7741 31.0067C22.0069 31.1866 22.1865 31.3898 22.3063 31.613C22.426 31.8328 22.4892 32.0593 22.4991 32.2892C22.5091 32.519 22.4626 32.7456 22.3595 32.9654C22.2264 33.2586 22.0435 33.4818 21.8207 33.635C21.5979 33.7849 21.3351 33.8648 21.0424 33.8682C20.7398 33.8748 20.4205 33.7982 20.0846 33.6417L17.8098 32.599C17.4705 32.4424 17.2045 32.2492 17.0116 32.0194C16.8253 31.7929 16.7123 31.543 16.679 31.2732C16.6457 31.0034 16.6956 30.7202 16.8287 30.4271C16.9284 30.2105 17.0681 30.0307 17.251 29.8907C17.434 29.7475 17.6535 29.6509 17.8996 29.5976C18.149 29.5443 18.4184 29.5443 18.6978 29.5943L18.7975 29.6109L19.5458 27.972L19.3962 27.932C18.7876 27.7754 18.2089 27.7421 17.6701 27.8287C17.128 27.9154 16.6424 28.1219 16.23 28.4417C15.8176 28.7615 15.4884 29.1845 15.2522 29.7009C14.9695 30.3205 14.8498 30.9267 14.8997 31.5064C14.9496 32.0893 15.1624 32.6223 15.5316 33.0887C15.8974 33.555 16.4129 33.9415 17.0648 34.2379L19.3396 35.2806C19.9383 35.5571 20.5203 35.6937 21.0691 35.6937C21.1156 35.6937 21.1622 35.6937 21.2087 35.6903C21.8041 35.6637 22.3462 35.4771 22.8151 35.134C23.284 34.7942 23.6632 34.3079 23.9459 33.6883C24.1787 33.1753 24.2851 32.6523 24.2552 32.1293C24.2252 31.6063 24.0656 31.1033 23.7763 30.6336C23.4902 30.1739 23.0845 29.7542 22.5723 29.3911Z" fill="white"/>
<path d="M21.6112 20.1104L24.6277 22.5755L22.5258 25.1572L19.5093 22.6921L18.3984 24.0579L25.662 29.994L26.7728 28.6316L23.8394 26.2331L25.9413 23.6515L28.8747 26.0499L29.9888 24.6841L22.7253 18.7446L21.6112 20.1104Z" fill="white"/>
<path d="M26.3838 15.5464L25.0254 16.7129L31.1279 23.8422L32.4863 22.6757L26.3838 15.5464Z" fill="white"/>
<path d="M35.999 15.4001C36.2318 14.9871 36.3382 14.534 36.3116 14.0543C36.2883 13.5746 36.132 13.0916 35.846 12.6153C35.5633 12.1422 35.2141 11.7791 34.805 11.5293C34.3926 11.2795 33.9469 11.1595 33.4747 11.1695C33.0057 11.1795 32.5368 11.3228 32.0778 11.5992L28.7021 13.6213L33.5179 21.6861L35.0278 20.7833L33.0955 17.5487L34.1797 16.8992L37.8281 19.1044L39.6274 18.0251L35.7462 15.7666C35.846 15.65 35.9291 15.5267 35.999 15.4001ZM34.4059 14.6306C34.3327 14.7805 34.2163 14.8971 34.06 14.9937L32.2308 16.0897L31.0867 14.1743L32.9159 13.0783C33.0789 12.9817 33.2419 12.935 33.4048 12.9417C33.5711 12.945 33.7274 12.9983 33.8804 13.1016C34.0367 13.2082 34.1731 13.3581 34.2895 13.5513C34.4059 13.7512 34.4724 13.9477 34.4924 14.1376C34.5057 14.3142 34.4791 14.4807 34.4059 14.6306Z" fill="white"/>
<path d="M44.4025 6.74567L42.2972 7.38525L40.5445 12.5219L39.2707 8.30466L37.5879 8.81433L40.3051 17.8019L41.9879 17.2922L41.2928 14.997L42.0212 13.0683L45.4401 16.2462L47.4522 15.6333L42.7096 11.2428L44.4025 6.74567Z" fill="white"/>
<path d="M53.1828 7.71503C52.8802 7.1987 52.4611 6.79895 51.9357 6.53246C51.4135 6.26596 50.8115 6.13938 50.1431 6.16936C49.4746 6.19601 48.8859 6.3659 48.387 6.6757C47.8848 6.9855 47.499 7.41522 47.2396 7.95487C46.9802 8.49119 46.8638 9.1108 46.8904 9.80035L46.9935 12.3853C47.0201 13.0749 47.1897 13.6845 47.4891 14.1942C47.7917 14.7105 48.2108 15.1103 48.7362 15.3768C49.2118 15.6199 49.7506 15.7432 50.3459 15.7432C50.4058 15.7432 50.4657 15.7432 50.5289 15.7399C51.194 15.7132 51.786 15.5433 52.2849 15.2335C52.7871 14.9237 53.1729 14.494 53.4323 13.9543C53.6917 13.418 53.8081 12.7984 53.7815 12.1089L53.6784 9.52386C53.6518 8.83764 53.4855 8.23136 53.1828 7.71503ZM51.8226 13.1415C51.7029 13.4014 51.5266 13.6046 51.2938 13.7545C51.061 13.901 50.7783 13.9843 50.4623 13.9976C50.1431 14.011 49.857 13.951 49.6143 13.8244C49.3715 13.6978 49.1753 13.508 49.0356 13.2581C48.8926 13.0049 48.8127 12.7051 48.7994 12.362L48.6897 9.69042C48.6764 9.34731 48.7296 9.04084 48.8527 8.77768C48.9724 8.51784 49.152 8.31131 49.3815 8.16474C49.6143 8.01817 49.897 7.93489 50.2129 7.92156C50.2428 7.92156 50.2694 7.91823 50.2994 7.91823C50.5821 7.91823 50.8382 7.97819 51.0643 8.09478C51.3071 8.22137 51.5033 8.41458 51.643 8.66109C51.786 8.91426 51.8658 9.21406 51.8791 9.55717L51.9889 12.2288C51.9989 12.5719 51.9423 12.8784 51.8226 13.1415Z" fill="white"/>
<path d="M58.4411 13.2581L57.8259 6.76564L57.8159 6.66904L56 6.28595L57.0909 16.1129L58.5276 16.4161L63.483 7.86493L61.6672 7.48184L58.4411 13.2581Z" fill="white"/>
<path d="M72.5928 12.2721C71.8944 11.8224 71.2192 11.6658 70.5807 11.8024C69.9454 11.9423 69.3967 12.3653 68.9477 13.0649C68.7415 13.3847 68.5852 13.7311 68.4854 14.0942C68.4189 14.3274 68.3723 14.5672 68.3491 14.8138C68.0664 14.7838 67.7936 14.8038 67.5276 14.8704C66.899 15.0269 66.3702 15.4367 65.9512 16.0896C65.6419 16.5693 65.4722 17.0523 65.4423 17.5187C65.4124 17.9917 65.5221 18.4414 65.7716 18.8578C66.0177 19.2675 66.3968 19.6406 66.899 19.9671C67.6373 20.4435 68.3856 20.6866 69.1206 20.6966C69.1639 20.6966 69.2038 20.6966 69.2437 20.6966L69.39 21.4561L71.186 22.6121L70.7802 20.3135C70.9365 20.2369 71.0928 20.147 71.2492 20.0437C71.9143 19.604 72.5263 18.9478 73.075 18.095L73.1449 17.985L71.7181 17.0656L71.6482 17.1756C71.2758 17.7552 70.88 18.2116 70.4676 18.538L70.1184 16.5626C70.0552 16.2029 70.0219 15.8531 70.0219 15.53C70.0219 15.2102 70.0519 14.9137 70.1151 14.6472C70.1749 14.3874 70.2647 14.1642 70.3844 13.981C70.584 13.6712 70.8068 13.4746 71.0496 13.4013C71.2891 13.328 71.5285 13.3714 71.7879 13.5379C72.0241 13.6911 72.1538 13.8744 72.1837 14.1009C72.2136 14.3341 72.1371 14.5939 71.9576 14.8804L71.7846 15.1469L73.2646 16.0996L73.4375 15.8331C73.8699 15.1569 74.0162 14.4973 73.8699 13.8777C73.7136 13.2581 73.2879 12.7184 72.5928 12.2721ZM67.9965 18.7779C67.5908 18.518 67.3314 18.2282 67.2283 17.9184C67.1252 17.6153 67.1717 17.3188 67.3713 17.009C67.6074 16.6426 67.8901 16.4227 68.2127 16.3528C68.2759 16.3394 68.3424 16.3328 68.4089 16.3294C68.4189 16.3827 68.4256 16.4327 68.4355 16.486L68.9344 19.0977C68.6151 19.0777 68.2992 18.9711 67.9965 18.7779Z" fill="white"/>
<path d="M79.9259 28.5016L78.8417 27.0592L78.7485 27.1026C78.4791 27.2225 78.2164 27.2824 77.9636 27.2824C77.7009 27.2758 77.4814 27.2325 77.2752 27.1292C77.069 27.0293 76.8927 26.8794 76.7464 26.6862C76.5535 26.4297 76.4404 26.1632 76.4171 25.8933C76.3905 25.6235 76.4471 25.357 76.5801 25.0972C76.7165 24.8307 76.9393 24.5842 77.2353 24.361L79.2341 22.852C79.5301 22.6288 79.8294 22.4855 80.1221 22.4256C80.4114 22.3656 80.6842 22.3889 80.9336 22.4855C81.1863 22.5821 81.4125 22.762 81.6054 23.0185C81.7484 23.2084 81.8382 23.4183 81.8781 23.6481C81.9147 23.878 81.8981 24.1145 81.8282 24.3577C81.7551 24.6042 81.6287 24.8407 81.4524 25.0605L81.3892 25.1405L82.4734 26.5796L82.5799 26.4663C83.0056 26.0066 83.3115 25.5102 83.4911 24.9939C83.6707 24.4742 83.7206 23.9479 83.6375 23.4316C83.5543 22.9153 83.3381 22.4256 82.9989 21.9725C82.5898 21.4295 82.1142 21.0365 81.5788 20.8033C81.0433 20.5701 80.4746 20.5035 79.8893 20.6067C79.3073 20.7067 78.7219 20.9765 78.1499 21.4096L76.1511 22.9186C75.579 23.3516 75.16 23.838 74.9006 24.371C74.6412 24.9073 74.5481 25.4736 74.6245 26.0499C74.701 26.6229 74.9471 27.1925 75.3562 27.7355C75.6955 28.1852 76.1045 28.5283 76.5768 28.7482C76.9925 28.9447 77.4415 29.0446 77.9171 29.0446C77.9836 29.0446 78.0501 29.0413 78.1166 29.038C78.6621 29.008 79.2241 28.8481 79.7829 28.5716L79.9259 28.5016Z" fill="white"/>
<path d="M87.7085 30.034C87.4391 29.4244 87.0633 28.9347 86.591 28.5849C86.1188 28.2318 85.5767 28.0319 84.9814 27.9886C84.3894 27.9453 83.7708 28.0652 83.1389 28.3417L80.7775 29.391C80.149 29.6709 79.6468 30.0506 79.2809 30.5203C78.9118 30.9933 78.6989 31.5297 78.6424 32.116C78.5858 32.6989 78.6956 33.3052 78.965 33.9181C79.2377 34.5277 79.6102 35.0174 80.0824 35.3672C80.5547 35.7203 81.0968 35.9202 81.6921 35.9635C81.772 35.9701 81.8518 35.9735 81.9316 35.9735C82.4504 35.9735 82.9892 35.8502 83.5313 35.6104L85.8926 34.561C86.5212 34.2812 87.0234 33.9015 87.3892 33.4318C87.7551 32.9587 87.9712 32.4224 88.0278 31.8361C88.0876 31.2532 87.9779 30.6469 87.7085 30.034ZM86.2618 31.5996C86.2318 31.8728 86.1287 32.1226 85.9492 32.3458C85.7662 32.5723 85.5168 32.7555 85.2042 32.8954L82.763 33.9814C82.4504 34.1213 82.1478 34.1846 81.8584 34.1646C81.5724 34.148 81.3163 34.058 81.0968 33.8981C80.874 33.7349 80.6944 33.5051 80.5647 33.2119C80.435 32.9221 80.3851 32.6323 80.415 32.3558C80.445 32.0826 80.5481 31.8295 80.7277 31.6096C80.9106 31.3831 81.16 31.1999 81.4726 31.06L83.9138 29.974C84.1931 29.8507 84.4692 29.7875 84.7319 29.7875C84.7618 29.7875 84.7918 29.7875 84.8217 29.7908C85.1077 29.8074 85.3638 29.8974 85.5866 30.0573C85.8095 30.2205 85.9891 30.4504 86.1188 30.7435C86.2418 31.0366 86.2917 31.3231 86.2618 31.5996Z" fill="white"/>
<path d="M2.4111 45.4207C2.18827 45.2974 2.01533 45.1176 1.89892 44.881C1.78252 44.6445 1.72266 44.3614 1.72266 44.0283V43.6318C1.72266 43.2821 1.77919 42.9856 1.89227 42.7391C2.00535 42.4926 2.16831 42.306 2.38449 42.1761C2.60067 42.0462 2.86008 41.9829 3.16273 41.9829C3.44875 41.9829 3.69153 42.0595 3.89773 42.2128C4.1006 42.366 4.25692 42.5892 4.36334 42.8823C4.46977 43.1755 4.52298 43.5286 4.52298 43.9416V44.1715H2.28139V43.5419H3.73144L3.72146 43.462C3.69818 43.2588 3.63832 43.1022 3.54519 42.9889C3.44875 42.879 3.32237 42.8224 3.16273 42.8224C2.9532 42.8224 2.79356 42.889 2.68049 43.0222C2.56741 43.1555 2.50754 43.3454 2.50754 43.5885V44.0383C2.50754 44.2781 2.57074 44.4646 2.69379 44.5946C2.82017 44.7245 2.99311 44.7911 3.21927 44.7911C3.33567 44.7911 3.44875 44.7678 3.56182 44.7245C3.6749 44.6812 3.778 44.6179 3.87112 44.5346L4.43651 45.0742C4.26689 45.2408 4.074 45.3707 3.86447 45.464C3.65162 45.5573 3.43877 45.6006 3.22259 45.6006C2.90331 45.6072 2.63393 45.5439 2.4111 45.4207Z" fill="white"/>
<path d="M6.01914 45.5507C5.8329 45.514 5.65996 45.4574 5.50032 45.3875C5.33735 45.3142 5.19434 45.2276 5.07129 45.1276L5.60342 44.4114C5.75973 44.5213 5.92602 44.6046 6.09896 44.6613C6.2719 44.7212 6.43487 44.7479 6.59118 44.7479C6.79405 44.7479 6.95037 44.7245 7.06012 44.6746C7.16987 44.6246 7.22641 44.558 7.22641 44.4714C7.22641 44.3914 7.20313 44.3315 7.15324 44.2915C7.10335 44.2515 7.04349 44.2215 6.967 44.2049C6.8905 44.1882 6.78408 44.1716 6.64772 44.1582C6.61113 44.1549 6.57122 44.1483 6.53131 44.1449C6.49141 44.1416 6.4515 44.1349 6.41159 44.1316C6.40493 44.1283 6.39496 44.1283 6.38498 44.1249C6.375 44.1249 6.36503 44.1216 6.35837 44.1216C6.11559 44.0883 5.91937 44.045 5.77303 43.995C5.6267 43.9451 5.50032 43.8484 5.40054 43.7085C5.29744 43.5686 5.24756 43.3621 5.24756 43.0923C5.24756 42.8558 5.30077 42.6559 5.40387 42.4893C5.51029 42.3228 5.65996 42.1962 5.8595 42.1062C6.05905 42.0196 6.30183 41.9763 6.58453 41.9763C6.75082 41.9763 6.91711 41.993 7.08007 42.0296C7.24636 42.0663 7.40267 42.1162 7.55566 42.1862C7.70532 42.2528 7.84501 42.3361 7.97471 42.4294L7.46254 43.1056C7.31953 43.019 7.16987 42.9524 7.01356 42.9057C6.85724 42.8591 6.70758 42.8358 6.5679 42.8358C6.39496 42.8358 6.2586 42.8557 6.16215 42.8991C6.0657 42.9424 6.01582 43.0023 6.01582 43.0789C6.01582 43.1389 6.04242 43.1822 6.09231 43.2155C6.1422 43.2488 6.20871 43.2721 6.28521 43.2855C6.3617 43.2988 6.47478 43.3155 6.62111 43.3354C6.64107 43.3388 6.6577 43.3388 6.67765 43.3421C6.6976 43.3454 6.71423 43.3454 6.73419 43.3488C6.74417 43.3521 6.75082 43.3521 6.76412 43.3521C6.7741 43.3521 6.78408 43.3521 6.79405 43.3554C7.04681 43.3887 7.25634 43.4287 7.41598 43.4787C7.57562 43.5287 7.71197 43.6286 7.82505 43.7785C7.93813 43.9284 7.99467 44.1482 7.99467 44.4381C7.99467 44.6812 7.94145 44.8911 7.8317 45.0677C7.72195 45.2409 7.56231 45.3741 7.35279 45.4674C7.14326 45.5607 6.8905 45.604 6.59451 45.604C6.39496 45.6073 6.20206 45.5873 6.01914 45.5507Z" fill="white"/>
<path d="M8.49707 42.0329H10.0968V42.8257H8.49707V42.0329ZM9.03252 45.3375C8.89949 45.1809 8.83298 44.9477 8.83298 44.6412V41.0103H9.69436V44.4114C9.69436 44.498 9.71099 44.5646 9.74092 44.6113C9.77085 44.6579 9.81741 44.6812 9.8806 44.6812H10.0935V45.5773H9.65777C9.37508 45.5706 9.16556 45.494 9.03252 45.3375Z" fill="white"/>
<path d="M11.3278 45.4274C11.1615 45.3075 11.0384 45.1342 10.952 44.9077C10.8655 44.6812 10.8223 44.4047 10.8223 44.0849V43.5219C10.8223 43.1988 10.8655 42.9223 10.952 42.6891C11.0384 42.4593 11.1648 42.2827 11.3278 42.1628C11.4941 42.0429 11.6903 41.9829 11.9231 41.9829C12.096 41.9829 12.2557 42.0396 12.3987 42.1495C12.5417 42.2628 12.6581 42.4193 12.7479 42.6259L12.6814 43.4054C12.6814 43.2854 12.6614 43.1822 12.6248 43.0989C12.5883 43.0156 12.5317 42.9523 12.4586 42.9057C12.3854 42.8624 12.2989 42.8391 12.1958 42.8391C12.0329 42.8391 11.9098 42.899 11.82 43.0156C11.7302 43.1355 11.687 43.3021 11.687 43.5153V44.0749C11.687 44.2848 11.7302 44.448 11.82 44.5646C11.9098 44.6812 12.0362 44.7378 12.1958 44.7378C12.2989 44.7378 12.3854 44.7178 12.4586 44.6745C12.5317 44.6312 12.5849 44.5679 12.6248 44.488C12.6648 44.408 12.6814 44.3081 12.6814 44.1915L12.7246 44.9943C12.6581 45.1875 12.555 45.3341 12.4153 45.4407C12.2756 45.5473 12.1127 45.5973 11.9198 45.5973C11.6903 45.6073 11.4941 45.5473 11.3278 45.4274ZM12.6814 40.6205H13.5428V45.5573H12.6814V40.6205Z" fill="white"/>
<path d="M14.3174 44.6245H15.1788V45.5539H14.3174V44.6245Z" fill="white"/>
<defs>
<linearGradient id="paint0_linear_14_4990" x1="43.191" y1="69.3574" x2="42.1608" y2="46.7347" gradientUnits="userSpaceOnUse">
<stop offset="0.00961538" stop-color="#9C7852"/>
<stop offset="0.379808" stop-color="#E1C292"/>
<stop offset="0.778846" stop-color="#F2E1AF"/>
<stop offset="1" stop-color="#EACE9F"/>
</linearGradient>
<linearGradient id="paint1_linear_14_4990" x1="52.972" y1="71.0916" x2="49.6007" y2="21.0835" gradientUnits="userSpaceOnUse">
<stop offset="0.00961538" stop-color="#9C7852"/>
<stop offset="0.379808" stop-color="#E1C292"/>
<stop offset="0.778846" stop-color="#F2E1AF"/>
<stop offset="1" stop-color="#EACE9F"/>
</linearGradient>
<linearGradient id="paint2_linear_14_4990" x1="79.8271" y1="69.2495" x2="78.8071" y2="46.7205" gradientUnits="userSpaceOnUse">
<stop offset="0.00961538" stop-color="#9C7852"/>
<stop offset="0.379808" stop-color="#E1C292"/>
<stop offset="0.778846" stop-color="#F2E1AF"/>
<stop offset="1" stop-color="#EACE9F"/>
</linearGradient>
<linearGradient id="paint3_linear_14_4990" x1="79.5091" y1="71.088" x2="76.0936" y2="21.0762" gradientUnits="userSpaceOnUse">
<stop offset="0.00961538" stop-color="#9C7852"/>
<stop offset="0.379808" stop-color="#E1C292"/>
<stop offset="0.778846" stop-color="#F2E1AF"/>
<stop offset="1" stop-color="#EACE9F"/>
</linearGradient>
</defs>
</svg>
